<mxfile host="65bd71144e">
    <diagram id="H66lzuOmKg5XC6CEbNCi" name="Page-1">
        <mxGraphModel dx="986" dy="427" grid="1" gridSize="10" guides="1" tooltips="1" connect="1" arrows="1" fold="1" page="1" pageScale="1" pageWidth="850" pageHeight="1100" math="0" shadow="0">
            <root>
                <mxCell id="0"/>
                <mxCell id="1" parent="0"/>
                <mxCell id="7" style="edgeStyle=none;html=1;entryX=0;entryY=0.5;entryDx=0;entryDy=0;" edge="1" parent="1" source="2" target="3">
                    <mxGeometry relative="1" as="geometry"/>
                </mxCell>
                <mxCell id="8" style="edgeStyle=none;html=1;entryX=0;entryY=0.5;entryDx=0;entryDy=0;" edge="1" parent="1" source="2" target="4">
                    <mxGeometry relative="1" as="geometry"/>
                </mxCell>
                <mxCell id="9" style="edgeStyle=none;html=1;entryX=0;entryY=0.5;entryDx=0;entryDy=0;" edge="1" parent="1" source="2" target="5">
                    <mxGeometry relative="1" as="geometry"/>
                </mxCell>
                <mxCell id="10" style="edgeStyle=none;html=1;entryX=0;entryY=0.5;entryDx=0;entryDy=0;" edge="1" parent="1" source="2" target="6">
                    <mxGeometry relative="1" as="geometry"/>
                </mxCell>
                <mxCell id="2" value="" style="shape=image;verticalLabelPosition=bottom;labelBackgroundColor=default;verticalAlign=top;aspect=fixed;imageAspect=0;image=data:image/png,iVBORw0KGgoAAAANSUhEUgAAAfQAAAH0CAYAAADL1t+KAAAACXBIWXMAAA7EAAAOxAGVKw4bAAAAO3RFWHRDb21tZW50AHhyOmQ6REFGMkU4anhHN3M6MyxqOjUxNTE0MDMzNzY4NjAzMDY5NTEsdDoyMzEyMDUwM3UgE+cAAATkaVRYdFhNTDpjb20uYWRvYmUueG1wAAAAAAA8eDp4bXBtZXRhIHhtbG5zOng9J2Fkb2JlOm5zOm1ldGEvJz4KICAgICAgICA8cmRmOlJERiB4bWxuczpyZGY9J2h0dHA6Ly93d3cudzMub3JnLzE5OTkvMDIvMjItcmRmLXN5bnRheC1ucyMnPgoKICAgICAgICA8cmRmOkRlc2NyaXB0aW9uIHJkZjphYm91dD0nJwogICAgICAgIHhtbG5zOmRjPSdodHRwOi8vcHVybC5vcmcvZGMvZWxlbWVudHMvMS4xLyc+CiAgICAgICAgPGRjOnRpdGxlPgogICAgICAgIDxyZGY6QWx0PgogICAgICAgIDxyZGY6bGkgeG1sOmxhbmc9J3gtZGVmYXVsdCc+VW50aXRsZWQgZGVzaWduIC0gMTwvcmRmOmxpPgogICAgICAgIDwvcmRmOkFsdD4KICAgICAgICA8L2RjOnRpdGxlPgogICAgICAgIDwvcmRmOkRlc2NyaXB0aW9uPgoKICAgICAgICA8cmRmOkRlc2NyaXB0aW9uIHJkZjphYm91dD0nJwogICAgICAgIHhtbG5zOkF0dHJpYj0naHR0cDovL25zLmF0dHJpYnV0aW9uLmNvbS9hZHMvMS4wLyc+CiAgICAgICAgPEF0dHJpYjpBZHM+CiAgICAgICAgPHJkZjpTZXE+CiAgICAgICAgPHJkZjpsaSByZGY6cGFyc2VUeXBlPSdSZXNvdXJjZSc+CiAgICAgICAgPEF0dHJpYjpDcmVhdGVkPjIwMjMtMTItMDU8L0F0dHJpYjpDcmVhdGVkPgogICAgICAgIDxBdHRyaWI6RXh0SWQ+NTM3NTZhMWQtN2NjZC00ODkxLWFjOTctNjIzOWY2NTFiYmEwPC9BdHRyaWI6RXh0SWQ+CiAgICAgICAgPEF0dHJpYjpGYklkPjUyNTI2NTkxNDE3OTU4MDwvQXR0cmliOkZiSWQ+CiAgICAgICAgPEF0dHJpYjpUb3VjaFR5cGU+MjwvQXR0cmliOlRvdWNoVHlwZT4KICAgICAgICA8L3JkZjpsaT4KICAgICAgICA8L3JkZjpTZXE+CiAgICAgICAgPC9BdHRyaWI6QWRzPgogICAgICAgIDwvcmRmOkRlc2NyaXB0aW9uPgoKICAgICAgICA8cmRmOkRlc2NyaXB0aW9uIHJkZjphYm91dD0nJwogICAgICAgIHhtbG5zOnBkZj0naHR0cDovL25zLmFkb2JlLmNvbS9wZGYvMS4zLyc+CiAgICAgICAgPHBkZjpBdXRob3I+bmdoxKlhPC9wZGY6QXV0aG9yPgogICAgICAgIDwvcmRmOkRlc2NyaXB0aW9uPgoKICAgICAgICA8cmRmOkRlc2NyaXB0aW9uIHJkZjphYm91dD0nJwogICAgICAgIHhtbG5zOnhtcD0naHR0cDovL25zLmFkb2JlLmNvbS94YXAvMS4wLyc+CiAgICAgICAgPHhtcDpDcmVhdG9yVG9vbD5DYW52YTwveG1wOkNyZWF0b3JUb29sPgogICAgICAgIDwvcmRmOkRlc2NyaXB0aW9uPgogICAgICAgIAogICAgICAgIDwvcmRmOlJERj4KICAgICAgICA8L3g6eG1wbWV0YT7u8BTCAACLaklEQVR4nOzdvWtUWRjA4feOIqiptAikso6NDviBCAELwcKIiJ2dKAEr/S9SCVpoJQiiYCV+IBYKExS0ENFCtNJOjGg0cRKNzpwtlhmSNQu6GzPJ6/NUycwNHJhJfjnn3HunKqWUAABWtFqvBwAA/H+CDgAJCDoAJCDoAJCAoANAAoIOAAkIOgAkIOgAkICgA0ACgg4ACQg6ACQg6ACQgKADQAKCDgAJCDoAJCDoAJCAoANAAoIOAAkIOgAkIOgAkICgA0ACgg4ACQg6ACQg6ACQgKADQAKCDgAJCDoAJCDoAJCAoANAAoIOAAkIOgAkIOgAkICgA0ACgg4ACQg6ACQg6ACQgKADQAKCDgAJCDoAJCDoAJCAoANAAoIOAAkIOgAkIOgAkICgA0ACgg4ACQg6ACQg6ACQgKADQAKCDgAJCDoAJCDoAJCAoANAAoIOAAkIOgAkIOgAkICgA0ACgg4ACQg6ACQg6ACQgKADQAKCDgAJCDoAJCDoAJCAoANAAoIOAAkIOgAkIOgAkICgA0ACgg4ACQg6ACQg6ACQgKADQAKCDgAJCDoAJCDoAJCAoANAAoIOAAkIOgAkIOgAkICgA0ACgg4ACQg6ACQg6ACQgKADQAKCDgAJCDoAJCDoAJCAoANAAoIOAAkIOgAkIOgAkICgA0ACgg4ACQg6ACQg6ACQwOpeDwBgpSilxMzMTFy+fDmuXbsWzWYztm/fHgcPHozBwcHo6+uLqqqiqqpeD5U/UFVKKb0eBMByV0qJqqri+vXrMTo6GrOzs93HNm7cGENDQ7F3797YsmVL1Gp/L34KO0tJ0AF+QifeJ0+ejPv37//w+KpVq6K/vz92794dhw8fjk2bNkXnz6uwsxTsoQP8gpmZmXnfV1UVpZRotVrx5s2buHr1ahw7diwuXboUzWYzqqqKdrvdo9HyJxF0gP+olNKdhXeiXlVVTExMxJkzZ+LUqVPRaDTi48eP846F38FJcQCLZO5svN1ux5MnT+Lly5exa9eu2LdvX9Tr9Vi/fn33WFhMgg7wm5RSYnp6Ou7evRtPnz6NHTt2xKFDh2Lz5s3211l0ltwBfpPO/nq73Y53797FrVu3YmRkJE6fPh0fPnywv86iEnSA32TunnlnD/3Lly9x5cqVGBkZiRs3bsT79+/tr7MoLLkDLJG50X79+nWMjo7G1q1bY3h4OOr1emzYsKH7vKV4fpWgA/TI169f4+HDh/H8+fOo1+tx4MCB2LZtW6xZs6Z7fTv8LEEHWGJzY11KiampqWg0GvHo0aPYs2dPHD9+PAYGBkSdX2IPHaAH5p7l3mq1uveJv3nzZhw5ciQuXrwYb9++jVar5cQ5fooZOkCPdKJeq9XmBX5ycjLOnz8fjUYjhoeHY+fOndHf39/9ObN2FiLoAD220DXp379/j2fPnsWrV6/i9u3bsX///hgaGoq+vj5L8SxI0AGWiYUuXfv8+XM8fvw4Xrx4Effu3YujR4/G4OCgqPMDe+gAy9Dce8RHRExPT8fY2FicOHEiLly48MOHxICgAyxznTvOVVUVzWYzzp07F2fPno1Pnz65IQ1dgg6wzM2drXfCfufOnRgbG3OXOboEHWAF6czWp6am4sGDB92PZgVBB1hhqqqKWq0W4+PjMTk5KehEhKADrCidT2+LiPj27Vu0Wi1nuxMRgg6w4gg4CxF0gBXIMjv/JOgAkICgA0ACgg4ACQg6ACQg6ACQgKADQAKCDgAJCDoAJCDoAJCAoANAAoIOAAkIOgAkIOgAkICgA0ACgg4ACQg6ACQg6ACQgKADQAKCDgAJCDoAJCDoAJCAoANAAoIOAAkIOgAkIOgAkICgA0ACgg4ACQg6ACQg6ACQgKADQAKCDgAJCDoAJCDoAJCAoANAAoIOAAkIOgAkIOgAkICgA0ACgg4ACQg6ACQg6ACQgKADQAKCDgAJrO71ABZLKeVfn6uqaglHAsByNbcV2dqw4oPeeXGqqorZ2dkYHx+PiYmJWLt2bQwMDMS6devmHUN+JUpU8eNrXUrxHvgDLfTPvvfBn+efv/+drzP14S8AAAD//+y9d5RVZb7n/Xn2CZVzEapIEipILihiEQUBQUEEQbvV9qrX1g5zp7tn5s4fb3t71r0za9Zds3rNTPf0e7vbfm3tO3JNDbQIGBolqYgCShAlKKFIldPJZz/vH3s/++xTFEGsOnVO1f66sM45+9npSd/nF5+UJnR7Qxw9epTnnnuOY8eO0dbWRnp6OsOHD2ft2rUsWrQIr9eLrutommNl6MtQgzYUCRGOhghHw7hdbjI9mWiaC13qaMLpA/0BUkqklF2OeWdx139g7wf19fUcOnSIuro6Bg0axKRJkygsLEQI0Sf6RMoSupSScDjM+fPn2bRpE6+++iqhUMg67vf7aWpq4siRI+zYsYOHH36Y0aNHk5mZCfSN1ZiDGKSUICStgVaOXzzC7pN/5WLzWTRNEA7rDMwcysKxdzJ2yARy0nMRmtH+XUnyDlIfUkqi0SiNjY18+umnfPnll7S3t1NUVMSECROorKwkOzsbTdOcuaCPQgl80WiU8+fPs3XrVjZt2kRDQ4PV5sXFxdxzzz3cd999FBUV4Xa7EUKkbJ9IKUK3q85qa2t599132bJlC1999RW6rnfZCNFolPfee49Dhw6xdOlSlixZQmVlJR6PB3CIPdUhMfqEL+zjxJVj7P96D183nCASDePSNKSUuN0atS1f8+y7v2H8sEnUlM9n3NAJZHgznfbvg9B1nYaGBvbu3cvrr7/O8ePH4xb7ubm5zJw5k2XLllFdXU16errTD/oYlFR+6dIldu3axeuvv86JEyeu0tjU19fz3HPPsWfPHpYvX87ChQspKSnB5XKlpMQu5PW8yZIIqnLb29vZsWMHmzdv5sSJE/j9/us6xCkIIXC73QwZMoTFixezevVqBg4caB1zkFqQUkcIjYge4av6E3xw+l2+ajiBL9SGkAJdAlIgpQ4IonqUtrYASMjOyKWyZCwLxy2lfHCFeb3UG7wOYlBzgJSSvXv3snnzZg4cOEB7e3ucac7+eeDAgcyYMYP77ruPcePG3dCWqvrIU089xSeffBJ3396ApmlUVFTwi1/8gpEjRzrmRGJt5PP52LVrF1u2bOHQoUMEg8G4MsBV9vS0tDTGjRvH3XffzdKlS/F4PCk3LyQ9oasK1XWdo0eP8tvf/pZDhw4RCASusntcz/nFXs7tdlNcXMwTTzzBsmXLSEtLc+zrKQTVlv6Qj7ePv86B8+8TDPuQEqQuAWF8lqpPGL+FghE6OoJomqFS87jTmFU2h7snryY/q4CoHsWluXr57Rx8U6j+UFtby7/8y7+wc+dOgsEguq53Sebqu/pbWFjI2rVruf/++8nLy7vmXOAQevLC3s5nz57lf//v/82HH35IKBRC13Wr3LX6gZ0f0tLSqKqq4oc//CGVlZUpRepJS+jqsSKRCM3Nzbz00kts2rSJ5uZmNFOVqir6ZiV0dV1N04hGo3i9XmbPns2jjz5KWVkZaWlpcWUdJBeklEgk/rCP45cO8/bxTTT7680+YJK5FIBAl9KU0CXImGq+oyNEOBxBaAJhHGJQ3mBWVK1mwrDJZKdng3T6QCpAjfu6ujr++te/8sILL3DlyhWL2K43P3QlDIwfP57HH3+cyZMnk52dbZWz388h9OSDWrhdvnyZN954g+effz5O4FNz/s3yhBIg8/PzWbduHStWrGDw4MFW/Sbz3JB0hK4GTTQa5dKlS+zevZvNmzdz8uTJq8p9G9gH8sCBA7nzzjtZunQpY8aMwev1ptSqrD9ASp1gJMiJ+s/55OweTtQdRpe6Tb1ul8jNwdsFoYfDUXy+kFGY2AB2udyMHzqJORULGDOonExvltP+SQo19puamjh48CAbN27k4MGDBIPBq9TqN8pPoXxvVFunp6ezcOFC7r77bsaNGxfnROsQevLAXu91dXW8//77bN68mc8//5xIJHJL1+zK013TNCorK1m9ejWzZs2yzLSqfLIhqQjd7pW4bds2tm3bxuHDhwkEAtbxm5XIb4SuVuhlZWUsWrSIu+++m0GDBvWZUIZUheG5bniin6r/go/P7eZUw1E6gq3myltYRK7I2+ga8YRu/CZNCR8C/jChUMTwbzevL8wvuRm5jB02iXkVdzBqwBjDG96R2JMCShUeCAT45JNP2LRpEwcPHqSlpQXovkW+EIKSkhLmzZvHqlWrGD16tFUmGo3y2GOPcezYsW6bi24V/ZXQ1Zzc0dHB3r172bhxI8ePH6e9vd063p0QQpCRkUF1dTUrV65k5syZSavNTQpCt6+ojxw5wm9+8xuOHDkSZwe7np3828BO2kIIPB4PI0eO5LHHHuOOO+7oU0kHUgkqXrw10MKuU29y4MIughGfQeA6ptRtkK0uQdwEoWMSejSq4/OF0HVpI3UNKXQ0NFyaRkZaNjXlC1g28W6y0jKRDqn3Guxj8PLly/zhD3/g3Xffpbm5+arj3UHqaj5wu90UFBTw4IMPsmrVKnJycnjrrbf4h3/4B6LRaK+SOfQ/QrfX9+nTp3n22Wf58MMPaWtru8oW3p1Cn/oshCArK4t58+bx1FNPUVJSknQCX68SurJvAFy+fJlNmzbx8ssv09bWhqZpljosEY9oH8jqfgsXLuSRRx6hvLwcj8eT0vGJqQJpMDXBSIAv647x1olXudJxHrdwmQQNmtTQpW7kgzNV7t+E0KWEYDBEIBAx29S4t4aGLnRcaCCM/jkgbzD3Tl3H+KGTSPOmIaTTBxIJtaD3+Xy88847PPvss1y+fNmyiSqpvbvmiM6+Nur6I0aMoLCwkGPHjuHz+ZKiD/QnQtd1HV3X6ejoYPPmzbz44ovU19fH+VP1FLrS5mZnZ/PEE09w1113UVBQAJAU9d8rhG4nzkuXLvHRRx/x5z//mc8//9xqmEQ/VlfejgADBgxgxYoVLFq0iPLycofUexASSSDs50zTST46t5NjdZ+AjGKwq/FPmCRuqM9vldAlug4+XxA9KhHCTBcrhJVoRgjQNOPaae40xg+bzJzyBYweVEaa24lbTgSklLS2tvLJJ5+wefNm9u3bRyQS6RFprCt0XuT3lJbwVtFfCF3lFfjwww/ZtGkTn3322VXHe3o8dtUHPB4PkyZNYvXq1UyfPp38/PxenxcSTujqdj6fjz179vDGG29w8OBB/H5/r9uk7OjccKNGjWLJkiUsWbLEUrXYyzm4NShnNYHgbPNpPjr3Lp/XH6Q92GwEm0mzfqUwPws0qX1LQjcuGQ5H8PvD5v1BCiMHvJ3UUSQvJAVZRYwtnUhNxXxGDhiNJrSkU7mlOtS40nWdgwcP8pe//IWPPvqIhoaGuOOJRmdv92RAXyZ0ez9QPPHxxx/T1tZmHe8NvuishgfIy8tjypQprFq1iurqarxeb9zxhD5fogjdXgmnTp2y7B8dHR09rjK5VXRukLS0NEaPHs1DDz3E/PnzHW/4bwlVd+3Bdt4/8xbv176FP9KG1CVSx8i5LkFJ6N1F6IAR1gYE/CFCoShCdFqFCyOsTRMghUHxasIszCpmVtl8Fo1bQoY30+kD3QB7eNGlS5fYsGEDb731lkXkdiksGeeK3kBfJHQ7T3z11Vc8//zz7N6920oQlEz9QM0XyjRTXFzM/Pnz+d73vkdJSUlcuYQ9UyIIXQX2NzY28uqrr/Kv//qvVoiJPeg/mWHvRC6XiwULFvD0008zZMgQ3G53XBkH14ciwFA0yJf1R3jjixe57D+DS7hAGiQu0BCYBIvWY4Qejej4/SGrjBAgpUDThKGGl4aNXTnNCU2gSYGOZGjhCO6duo6KkrG4XW40Q6RPfIWmOBSZB4NBdu3axe9+9zvOnDkTFxOcTNq7ZEFfI3TVvi0tLWzfvp3nn3+eurq6hNjJbxWqf6pUsVJKSkpK+Nu//VsWL15spRVOFDf0KKGrS9fX1/PRRx/x6quvcuzYMaLRaJdOaMmOzs9aWFjImjVrWLx4McOHD3eI/SYgkQQjQWpbv+L9c29ztP4jwnoQDQ2pE7ORK9W3Se49QehGGQiFIoSCUYuLhZCAQCWsEUgzfM10oDND3ZQ33YzRNcwaM5dRA8vwuDxO+38DSClpa2vjyJEjvPrqq+zdu9da5Hen93pfRF8gdHu7NjU1cejQIV555RUOHDhw3Ux/yYSu1PBSSmbPns3q1auZMmUKOTk5CWmfHiF0u5183759vP7663z66adx9o9Uh2o4j8dDWVkZS5cuZenSpRQWFsYddxCDLqPUtp7howvvcrR+P42BK2imJC6kInDzXyII3fSo16OSQCCMHtUNkhbSIm+BMG3rmGp49TsIoQESoWkUZhUz+bZqZo2Zx5CCoY4a/jqwT36HDx9my5Yt7N69m/r6ekca/wZIdUJXbRwOhzlw4ABbtmzh/fffp62tLeXbX439oqIiampquPvuu6mqqupx36tuJXQ1iem6zokTJ3j++efZv38/TU1NCQ9D62l09nrMyMhg+PDhPProo8ydO9fJD2/CpF0ieph3v9rC/kt/pSF4CaSObkrkdCJ0ITUSSehSQjgUIRQMg1DpHY3zLHWZNLhe2hLRGIK8IalrQuDSNHIyCphXcQc15fPJSc81stnZvOf7M+yTWV1dHS+99BLbtm2jsbGRSCSSchq73kaqErq9H1y8eJEXXniBd999l6ampjipPJVht69rmkZhYSFLly5l/fr1DB48uMeIvdsIXdkPwuEwGzZs4MUXX6SxsTGp7R/fFl2lmfR6vdxxxx18//vfp7S01CKE/iit6VJHSp1Tjcf585d/4ILvJJpwYQZ5G0Stm/XTq4Ru7MoW8IeJRlUqUOOcOL93U1KXCNNZjri4dCPUTUOXkuFFI1kz7TuMGjgGt+bu9xK7Pcvb3r17+T//5/9w9uzZLsNF++Jc0RNIRUJXQp3P5+PNN9/kN7/5jSXwqeP2XPypjM5Jy3RdZ9iwYTz11FPMmzePjIyMbp8XvjWhK8/DpqYmPvroI15++WWOHDmSsFjRZIPSRJSUlLB69WruuOMOSktL+9X+61JKojLKmeYv2XdxBx9f2UFUhk0nN1ssOSB0rdcJHdP5LhLRCQZi+2abHnLGc2hmCJ2QNondVMd3InVhLmK9Li/TR9cwp3whg/JKSHOnxezv/QRq3Hd0dHDq1Cleeukldu/ejd/vx+VyxWWC7C9zRHchlQhdtW17ezuffvopr7zyCvv37ycUCllzJiS3rfxWYH8f9Z5er5cFCxawZs0aKioqyMrKssp+6/vdKqGr06LRKHv27GH79u3s27cvbv/h/ojOHXLixIksWbKERYsWUVRUZGks+hqxK3IUQnCx7Rz7L73Hobrd1AcvAjpCN7cllbGQMBBJQ+hqQgkGI0TCRhibqV+Pc5LD3IoVSzqXSCHQwFwAYItfN/4W5wxk8vBpzBwzh8F5JUY4Xh+HGgORSIQvvviCrVu3snPnTq5cuZISjk6pgFQgdNW+oVCIzz77jC1btvDhhx/S2NgY1/b9pS/YpfYBAwawYMECli9fTkVFRbfsv/6NCd2+O9GXX37Jiy++yAcffEBzc7Oz2jbRWdWSkZHB2LFjeeCBB5g/f36PO0YkEnYi7wi18dHF93j/4jauBM6hEzVIWJGxEKAnJ6FLqSMl6Lok6A+bYW0GYVsStRmrjjRN7VJJ5TaCMt8t5g2vITSBW7gozhlITfkdzK1YiMflsRT6fQn2vt3R0cGGDRvYvn07586ds7R5DroHyUzodh64fPkyGzZs4N133+XChQtxEnl/hZr7XS4XpaWlrFixggceeICsrKxvRerfiNDVjdrb29m8eTN//OMf4xze1IP2ZzJXUDYT+yCTUrJs2TKefPJJhg0bZjlNpCosepRQ2/o1L3/5/3K67TM0l5FrXSAQuslsSjLXtaQmdIBQKEo4FDb7sogjbFM0x+Bzm0SunlgI07ZukL6wpHxh1dnQwttYP+MRRg0Yg5Q6mubq2YZKEOy+Mh988AG//OUvrXhyexkH3YNkJXTVxlJK/vrXv/LrX/+a8+fPWyaW/o6ufK+klIwYMYL/+B//IzNmzLCOfVNivyGh21daTU1NHD58mP/7f/8vBw8ejDvmEPmNoepoyJAhrF27lgULFjBkyBCb/TU1pDVFhGE9zJWO87x/4W0+vLSdEH6ESaZq5zKLiFOC0GODKxgIG7uxCcNpztxFFRXKBljqdou0ianmpY30NamZDG9sACORZHizmDZqFrPGzKM0fygul0HqqSixq3EfDAY5evQomzZtYseOHXH7kzsOb92PZCN0NXZ8Ph+ffvopr732Grt27QJw+kEX6Mq+npWVxR133MHq1auprKz8xr5X1yV0+0A9cOAAW7duZdeuXfj9fqdBbgH2Tu3xeBg/fjzLly+npqaG4uJiq0yyQqmIJZK6jkt8cnknn1x5j8uBc0iiqhDYTc1SSzlCB8NBLhSMgPk6MSnbbkPHeBfT3m4QvPXkxrnGCgArrj12MQSSgbklTL1tJtUjZzIgd5Al5acC7JLYiRMnePPNN9mxYwe1tbVdlnPQvUgWQre375EjR9i6dSvvvfce9fX1XZZxcG0ojhg+fDh33HEHS5cuZfTo0Tct9HVJ6HZ1wPnz53nhhRfYu3evlfjBXsbBrUE1THZ2NhMmTGDdunXMnDkTtzs5Q5yk1BFCIxgJsu/CDt6/ZNjJw3rAOI7sVN70IUgxQgdpnRMKRohEopaqXVzDw914Gc06brWfZU9XjnMxT3j1QSBwaS6GFo5g5ph5zBg1G687LSn7gIJ9fmhoaGDLli1s3bqVM2fOJMU+4f0FvU3o9n5QW1vLpk2beOedd7h48aLTD24BnSPDNE2jrKyMFStWsHz5cnJzc+PKdXmNzoSu7L5+v58///nP/Pa3v7X2/+3szOU02K2hq9hbl8vFkiVL+Pf//t9TWFiYNBO6NAlOExrnWk7z6onfcartUyWegpLapcSuLU5tQsdy4AoGIqavQ8yebq2WUVnk4r3eMceKJjRbWJtdHQ+aBDQz05zE8DvQdUYOLOeBGd9jSMGwpOkDdtjngE8++YT/9b/+F8eOHcPlchGNRq1j9rIOega9Seiqb0YiEd577z1+85vfcO7cuTibMDg+VbeCzuYJMKKlfvaznzF27NireDjuXEXoqlBbWxufffaZZScPh8OOM0MPw97pS0pKePDBB1m4cCGDBg26JceI7oCivqgeocF/hQ9q3+LDy2/THm1ECA0pdYsMTXaOPz+lCV2iS4Oow+EokXDEPCu+LVQCGuNdMd9Lqd5NtbsQCLXY6eJ4TOKPDVBNczO/8k5mjKphcJ6RnCgZQt2kNDZQOX36NK+99hrbtm27Ko7YQeLQG4Su5imfz8epU6fYsGEDO3fuJBQKOQu5boTdqVp9drvdrFmzhlWrVnHbbbfh8Vy9b4SQBggEAnz22Wds27aNvXv30tTU5KyuEgj7YEhPT2fixIksX76cuXPnkpubm3BS16VOo/8KB6/sZf+lHdT6T5m7iXGVNN4VUpvQDRODUQ5CloNcTPUek8ix6sKwittt5crerkjdcqfDSFBjOsF1SeouSvKGMH1UDROGTaE4Z0CvOMzZx//p06fZsWMH27Zt4/z5830qlXMqIpGErto4Eonw5Zdf8vbbb/PWW29RV1dnjXWnH3QvuvKGd7lcjBw5krvuuotFixYxZMgQ6ziA0HVdNjY28uKLL/LOO+9w4cIFwFll9QY6q1pyc3OZNGkSTz/9NGPGjEkYqetSZ/+FXXxwaTtn248TlkFbf+haIu+MvkDo6ns0EiUcVmGZytRg8rAidfXElvSt1PAmkVtq+quPC2EsBDSzehGmN7yANHcaA3MGM+/2JUweNpU0d1rC+oFqw5aWFrZs2cLrr7/O+fPnCQaD1nEHvYdEE3pLSwsvv/wyb7/9NrW1tYTDYeuYg55FZ27IyMjgtttuY82aNdx5551kZGQghMAdDAZ5/vnneemll+K8Vp0VV+LROayjvb2d3bt309zczD/8wz8wbNiwHlerSSR/2v1Hdl3ZRNaACFI3QtAwgrBuisz7EiSGfVvoEj0q4734lbRukrptyQPSzPtuSufWMsCmgjdOFUZZoS5tfJDCuFcoGqS26Qwv73uOE5c+Z/WU9WSlZfc4qSsV+oEDB/jVr37F8ePHrW2PFZw5on9ASskXX3zBM888w9dff30VTzj9oOfR2abu9/s5duwYp06d4sCBA/z4xz+msLAQ1/Lly3/xq1/9inA47DRKEkHZTZQncVpaGpMmTcLlcvXYZB4IB3h+z//HlkN/IRqBtGyJcCu1MTdUs3eGMCVRoU42JXG76lnlQbeXi//LNX9Xny0ijN2509+rEd/TFUOLTiXsVxVIXY8rq1Tk0tKXY2oRzO/m+VL9rinyNpzp1CJJmKSuRH270516PCklp+tOEQiHGT90Yly57oZyCHzttdf453/+Z86ePess9pMQQgiKi4tZsGABBQUFPdIfdF3n1KlT/OM//iMnT55MOifN/gwhBNFolJMnTxIIBJgyZQraxo0bCQQCcYUc9D7sE6eu63z88cc0NDT06CR+4OtP2PPlbjQhiATA1yyUppr+Pn9rLoFwmap8lBZFqcHAFKtNyVrYKk2ldzVV/kIY3C0xj6sIAUXewjQNSMsxUUrDRNDq9/HKR69y6sqp2EKim6H63d69e/ntb39LS0vLVZ7LDpn3D0gpCYVCvP3225w+fdoSMtQxB72HzovqN998kyNHjqAdOHAg7oDTUMkDO6nX1tZajoo9cR9/2M/h84foCLajxMpAsyASjHFN/4bA7TLs/waRStSe6WrIKLu9qVsHJLpaEIFpsZAxvhfSVM3bFgBSopv6dxUyiIRQJEKzr50mXzNbDm0xn6j7G0YIQVtbG7/61a9oaWmJI3IH/Q8tLS0cOnSISCTikHkSoTNnt7W18de//hWttbX1qgIOkgdqQg0EAj3mjKRLHV+wg7rWOvMXgdAgHBT4mlwILSYp9ltIidAELle8w51yjLMSuJsErORrYdnbDQJX0rlVXMQWApY93fKIV+p8aPK14w8ZW7sePHOwh17R6GtHjhzhzJkzPXIPB6kDtbi7fPmyww9JCrvW7Pjx42hOQ6UGerqddKkTlVE0066NBA2Bv1Ej5FeJUfozDFW5y60ZW+ASk86FkHFpcWO7qJnqc8XcNtW74ZUvYhI7aiFgQJGrQBCKhGnsaLVU7B2h9h5908uXLzshaQ4AI0wtEoncuKCDXoff70dzbOYOFJQXtoqRRoAeEbRfdBtSqOjnUroJzWVGGlix5sYfqcckckXIRmidtNTrFnnbqd/8HfO7teo2/11uayYUicTMLbLnPdxvNne0AwcOkge9n37KwQ2RyGxxwoyBVipfTYNgq4tgq2b6k/dz84w00sAKTZjadaF827D5uRn2cktiF5Y23op7tyR6bE5ylvsCyvu9IxigqaO9k8N+YurfIXMHDlILDqGnAK6Xu7d7YXpvC2luKmKGmAnwNbjQIzcOB+vzMF/dpaR0k6Xt9nSVSU9iqtaVstxia1MSV/+3nOTiyV2PRqlra7ZU7wnicQcOHKQoHJW7AxtMxhCGg5YiJCEg4tcItsXWf/1WSFfvLZSULmN1IW0itlK7E/NiNw7F1Oyoc02SV6p5adrb24J+Omx7ivfndZQDBw5ujD7jFKfU0tf61xfQ420lYuKhUCphYUqXUhBocqGHzaL93UlOSDSXUNxtqt+V3I3lnW4Zwk1vdqHKSovHUelgJabnO5KIHqXJ14EuVcrZvtGHHTjoLdj9QvoSL9jRZyR05YSUlpZGXl4eWVlZcQSY6u+ZsA5oadUlCD1OKgz7NYJtRhiboVru+cdJZghhOMhZCWAQ6LplKI8jcovE9Zia3X7cnmRGAG0BP75QoMcSyPQnXL1DXmrPBQ5uHnYSt+f1sOdX6EsOoO5UfImudqHJyMhg5cqVTJs2jaKiIvx+P0eOHOGNN96wYmpTdZvHhLWRlaxMoptqYbuNFwn+RhcZeVGEW6mG+zeEZqx7pDT9DuLSyAorrE2lilV1pjanwZTOrcg2jGs1+duImlvUpuIY7U3YJ29N04hGo2RmZuLxeFB5NzpP8A76HlTbappmtfXEiRO58847Adi1axcHDhwgHA5bZVId7t5+gG+CzkQuhMDr9TJ16lR+9KMfUVZWFld++vTprFy5khdffJGNGzfi8/muugakhtd2Yp7RnnvcSG5i/kGRVCSg4WtwkzU4rEKq+20mOatJhBGyZjI6dvFbbd5ihK1pZnY5MzRQGTakInVj8mnsaMVn2s4du/nNwy59qbHt8XiYMWMGTz75JEOGDGHTpk28/PLLNDU1EY1GAeLKO+hbUJtZDRo0iPvvv5/77ruPnJwcAFauXMnWrVt54YUXqKurIxqNxvWfVOCFzkgpCd1ewV6vl0mTJrFixQruvPNOPB7PVYNZSklxcTH/7t/9O+bPn8/GjRv54IMPaGpqSrmUlolRtxuEJEzCiSVNMaRNISRo4GvU8OZqeDJ0S/WeQt2om2CJ06YToW6J2FZdCB0pNYu8DW/4WIo4taMatgVUMBymvr21N14o5WGfiDMyMqioqODee+9lwYIFZGZmIoTg0Ucfpaamho0bN7J7926uXLkSt4NhKs0JDuLRlcA3aNAgZs+ezerVq6msrETtjQHGFqRr1qxhxowZbN68mXfffZfa2lqL2FOR1FNCQreTmZSSsrIy7r77bubOnUtpaSkul8tqgM72MoUJEyYwcuRI9u/fzxtvvMGuXbviyqRqA3Y7TKc4pf4VYEt8YpC6HhX4Gl3kljie19b7ayDN7VXtSneLxJG2NLBC6dxj/Q9AShp9bYSiEbT+t0K6JXSlOi8vL2fFihXMnz+fIUOGXHVOWVkZP/rRj5g3b541F/j9fmfspyiuZYKdN28ed911F9XV1Xi9Xut4Zz4ZOnQo3//+95k9ezZvvfUWb731Fm1tbVddOxWQtITeuZGi0SgFBQWsWrWK1atXM2jQINxud1z5G10vJyeHBQsWUFVVxQcffMDzzz9v7SKU7A3X8848MsbNwvC8tjLDWRnKjIPCJQm1aYRyNbw5umFnN8Pb+iWUD5wpcesSNGGmdlVZ91SmPWHWs7To3mxXQSAcpNXf4ZD5TcJuI9V1nYyMDNauXcvq1asZPHgwHo/nqjGjvmdmZjJz5kzGjh3LokWLeOGFFzhy5IhVLpnnAgfx6KyVLS8v57HHHmPatGlkZ2ejado15067aWby5MmUl5ezcOFC/vSnP/Hhhx+mBDfYkXSE3pXE7Ha7qa6u5qmnnmLChAlxx7/pdV0uFwUFBaxYsYKamhqee+45tm7dSlNTU5zTXCo1YrfAbq8Vlvu1FbpmSZ2KvHRBoFnDk6mDJizbcL/kIrNyFKFbdRWvlbcln5HKZ86WeEbS7O8gokcde+4NYJfKhRC4XC6qq6v58Y9/zO23335TiZjUsezsbBYuXEhVVRUvv/wyL730kiWd9avxn6Kwe6gXFRWxZs0aHnvssTgnt5sdT5qmkZWVxYwZM5gyZQobN27kxRdf5MKFC9i3jk1mJJUNvbNUnpGRQXl5Offeey933HEHmZmZXarWb/U++fn5/PjHP2bu3Lls2LCBzz77jKamJqAfD2bL3TqWmNyInTa9tI1CCCEJ+zTCHQJvbj8m807QhUToNibXNMNkgSJ6tfiRaGhm8h7wR4K0h/xxZOUgHp3nB4/HQ3l5OatWrWLhwoXk5eV947pT5rq8vDyefPJJampqePnll/noo49obGxE1/X+OxckKTqbWQYOHMjMmTNZu3YtFRUVcV7tt3ptt9vN/fffT3V1Na+++ip79uzh0qVLSe175Xa7k0dC7ywRjxw5kuXLl7N48WJKS0u7faKzS+xTp06loqKCvXv3smXLFg4ePEgoFEqahkvMc9hcti0x0xItEZr5s82RS+rgb3bhzY6YTnQOqYNEFzqa1Ky6Qyk/lAkDI54gliIWWgM+ooo8+n0dXh+apnHbbbdx1113cccddzB8+PCrHGK/CeznjB07lr//+79n3759bNu2jb179xIyt63trNp10HsQQpCdnc306dO55557qKqqIjMzM+54V4jthNj1d/u5UkpGjhzJ3/3d37FgwQK2bt3Knj17aG5uTjoNrhCCoUOHJg+h23d4mj59Oj/72c8YMmQIaWlpPSqt2FVvixcvZvLkyWzYsIGXX36ZSCSSFM5yiZHWhKUGlkqvbiOk+HKxRCphn5FsJiM/gq737zA2AwLdTA+nAWqTFmudZPdwBzSh4QsF6AgFjLNNNYhlW5fK7t7/KrWz+Q2M6JZ7772XVatWMXLkSDweT1zZ7rhnZmYm8+bNY+LEiXz44Yf88Y9/5KuvvrLuoet6n4lbThV0XkiVl5fzyCOPMG3aNAoKCuLKXAuqH11uucTZhrOUl1SQl3FtrY69z1VXV1NZWcmCBQt4/vnnOXz4cHe+3jdG5/qQUlJTU4M7GTqlSgAhpWTs2LH8+te/TrjqUdniBg4cyE9+8hOuXLnCO++8kxSqz0SpeSyaNvf3jnlkx47ajcPKGc5Xp+HNFmguu5TffyGR6EQR0mWtiQCzKkUs5auZC77R125b0NpkBhuZ2/0X+hMUeQohGDduHD/5yU+YOHHiN7aPflNomkZhYSErVqxg8eLF/O53v2PTpk20tLT0+gK/P0LVt6ZpPPDAAzz55JNkZ2fHCYLXPVeAP+Tng5N7ef3QJoLhICX5Jayach9jh4zH4/Jcl9jtTtVz5szh+eef5w9/+IOlvUk07PUhhGDSpEksXLgQtz0Gs7egHi4jI4OHH344zns1kbCven74wx9y4MABGhoakoLUE/EMllrYtAFbHtnGl07EbojiQkjCYYG/USNrQNRQu/f4kyYzDHuEjm7lw7d+t4WvKYJuC/nwR4JowrCnK894m6edKa2DzWsx4W/VG5BS4nK5KC0tZf369axevZq0tLQeJ3P7tVU66aeffpqamhr++Mc/8v777/fYfR10DdUe69at46c//akl5FyPI1TKZF+og5OXT7Lj2DucvnKSSDSCEIKLzRf5/3b9nsnDp7CgciElBUNI96R3qYZXz6D65OOPP46UkmeffdaKW08U7P1e0zQqKyt58sknycnJSR6VOxh284qKCoCEk7mCarShQ4cybdo0tm/f3ivP0RkJ01RAnPOblTVOkzZSx7KxSwSaJgm0uvDmSNzp0uL8/gwJRGQUzVK325wKTbNEWI/S6vehCS22QIq7hkCoer/q6n0fmqbhdrtZvnw5a9as6Xb1+s3A7mtTVVVFfn4+R48epaWlJWHP4MBYWHm9XpYuXWr9dk07uSmRhyIhTl0+yb5TH3Cs9igdwXZDSyZi/ivhSIj9p/dx8soJqkZMZfrI6QwpHGbxT1f2dbWYqKmp4ZVXXqGxsTHhWhspJYWFhSxYsIBVq1ZRWVmJECI5vNzVMwwcODDOsaG3MXr06N5+BCA+NKPnILFSlwpDna7U60pOt4REy2tbpTaFaEQQaNHI9kav5p9+Cl3qRGUUl+Y2zRixMDWA9pCfkB41+d7cUtWsZJWlz57hx1K5J8GYTRQ8Hg/FxcVWYpDegpqwi4qKyM/Pd1TvCYYQgrS0NDIyMqzv1yt7pfUKO469zeFzn9LU0WjNV9IMxbXMX+Y819jRwM7j73L0/BFmjpnF3Ir5ZHq75iIVwubxeEhPT++J173mfZUH/owZM3jooYeoqKggOzvbOp5UErrH4+k1ybwrpKWlAf3Io9XMEmd5rMcla5dx0qWpEDbTxBoLgFC7RiQvijutN18iUTDr6gYIyQjpUkNHmNK6MaGEozodwYAptQsr9avSetid59R+6mhdOSk6SBSSQfhxcH1IJHu/3M2Wg3+hxd9szl3muBKxMuqvndSj0TCXWi6w8eNXef/kXtZNf4CxQ8YBV0vqiYBaOCgfs2g0Sn5+Pk8//TR333036enpV/kQJBWhJyuSYSWeqM1ZEBgh6Fb6V3PzEGK23Rixq4FhdHg9CoEWF9kDIzisY0BHEpIRvMKDPRrdFwkQxUxipJwPMTdpwXSkU1KE+iwFSM2p2V6GQ+yJx40cpCWSYCjAyx/9Gx+c3IupPzTGjjSW011tQyxViK5J7AKB0ARXmi/x3M7fs7p6LbPGzEZori7v2xN9wa7W1zQNl8tFYWEhc+bM4Tvf+Q633XZbnFOcHQ6h3wR6m8whUZOIClczpE9rQxHLzxobT1ssE+crF2zTSMvR8GbGNivpzxAIIjKKS7oQuABJRNfxh4LGcSGIXxZZNWv8ai2cYmaP/ujt7sDBjdAWaONs/ddoQkOXeoy+heiSzOMRG4VKK9kR6uBc41mmRqeRpmkJk9Lti5esrCzmzZvH0qVLmTVr1g2jvxxCdxCDYgvL3R1UGFvMrouldpd2NbFp49V18DW68GY4rKMgpSSsR3BpAiE0fOEAEambqnSlDRExsdy2WDJgelybH4XmLJQcOOgMM9gWlX3x1uQJ0x3YPL+3vNellEyYMIEHH3yQ6upq8vLybsocnRROcQ5ujIQll1FEomy1yrPdykOufjYlxk7qeIEk2CEItAkyciUkf/rjW4QtHO0mENGjRDQXRHX8kZBtpW36K5gcbkxGamtVUzMibM480jjuwIGDLqDs5N0wRBI5ypSdPBKJUFxczMMPP8z69etxu93fKB+LQ+gpgoSlf41b2prfY67vMUuTKZVb6nhJbHMSAb4mF96MCC43/SXK6rqQSEKRMGE9ttdyLEFPzFHHIHP7ckFYdQrmQsoZsr0Ke3YuBw5uBV1lQczNzWXGjBk8/PDDlJWVWb9/E0dxR+XuwIZ4G3psuWvzrBYxj2ylCLakdUX2miQUkLQ06BQMNBYDDgdBREaISj1+e1SJ5Qincs/EadrtvyknRac2HThIadg3GcvKymLy5Mncc889zJw5k6ysrFvOkuoQeorg2+4wd5M3iTPhIvUY2SibusU2Zpy6hkXw0jwuhMAfCNIWCJOZk056RryjV3+FRKAJgS7U0keC0Kx1lJURTtWl8rpFIpXd3BEKHThIOXQVKSWEoKKigrVr1zJr1iwGDBgQd+xW4BC6A4tphemxLoREl+YiwubwFrOpSyvpDHZp0iSgcCRKuy8ISFoaI6QP0eJv1F9hG8/KIU6KeC/2uGB/ZVe3bOzSCmVz4MBBakGljdV1nbS0NL773e+yfv16CgoKuk1gcwjdgQFh/c+0mEtTKI+p1mM8olYAMTaXlpQuaW/3m6tRQVN9mIJiD2lpyZMwqNegtB+WaUNYayOEPYRNuTIYJ8SUJjavRAcOHCQ1OoeYud1uMjMzqaqq4rHHHmP8+PHdvi+B4xTnwIZYyJplDxfSpBTzNyHj7LlGVjnVaSX+QJhAKGp10KBfp/5iiKEjM5C6eY/+zkhmOIw9BSU2CVxRuKH0UE5wsaWV4+XuwEHPozutW16vl0mTJrF8+XLmzp1LXl5ej2wy5EjoKYSet6GD0Y11WwrxmNpdqdtVCgbj95i3pq5LOvzhqy7aWBemoNhLdrYbxzHYgKpDF5oRO6uZEQJW/D9GXZuq95hPonDi0B04uBZknDhyEwllrsY3Oe9akQ72/TdGjRrF6tWrmTt3LiUlJT26N4cjoacQEhYmIwQC3bDxKls5phresqHHdmKT5jn+QJhwOGo9q2EXgkhEcvFckNGVbsf+qyAlOkZqx1i9Kv1Fp0Q+VmIfaZ3roPfgzJlJCNPnxz692LdBvRmCVpu3SKGDMMalJq6fIc4efqagaRq6rpOens7KlSt54IEHKC0tRdO0Ht+rxCF0B/EQGIRhErdlv7XCq+I8u8w4aUk0quPzhWPe2bZ+pWmC9pYIzQ1hCou8Spncr6E2XtD1KG4zWN/aS94idhHH3ZqysTtj1oGDeAgoyCxkyohqdvp30BFsN6Yx22L5+qebUrkAgYamCQblDWHs0PF43d4uST0rK4vS0lIuXLgQ93t6ejrjxo3j8ccfp7q6ukdU69eCo3J3EIPA5hyng2XjjWWBk9ZxGTtFE7S2BYlElO386o4rkTTUBcnJceP2dF2mP0HxdFiPogm1clcJSxSx263pVpiBIyE6cNAJAoHb5eauSSsYM6iM90/u4fiFY7QF2m4omxujKubTUpRdzIShE6kpm0tpwZAupyohBMXFxdxzzz3U19dz8eJF3G43Y8aMYenSpSxbtoysrCyrbKLgELqDa8AWqxbjEmv/c6m+a4JgIIKvI3xNyVGaJORrj9LSHKFogKsP+Map5Dvf8ipmnnev8JhRgcLcJVVamgxbAAJGOtiUrriUhn1yToZdGB3EQwhB+eAKhhYO4/MLx9h36gOO1h42g0NM27ppLoyfhCQZ3kwmDZ/M9NEzGT1wDG7XtU2EQgg8Hg8LFy5kyJAhnDx5kszMTCorKxk6dCguV9e7s/U0HEJPESQmsYxBUtKeKc4Kk1LfVWpSg3B0Xae1NXjdzEbKNhWNChrrQ+QXeHG7HFICo10jehSX5sItXGYkoFmXtrqXat95Z6u1XoXa1tJB4hEOh9H1628OoaTsrLQsqkZM4fbSsRw48wnbP3uDhvZ6NEwyN+criUQHRhSNYMXklZQPrjBU7OLmFs7p6elMmDCBcePGWXN0b2rQHEJ3EA/L0S0WKw3YEp4YhaQ0Qtp8/gghK0zt2mK36uQd7WGaGkMMHpxBNNqzr5IKUPUcikZwezQsu4eM1VmcHCFFvzShJ9IOeaNnuNZ3Bz0HIQR+v5/9+/czevRowHA+u15/0DSNrLQs5pbPY+KwSWw99DoHzxygLdCK0AzCLsgsYG7FAhaPW4Lb9c02QrE/m3J2621zmEPoDuIhsKTBmNLXPKA8rU0JPRKWdHSE40++DtSaoO5SkIKCNDwel5PK1ISuRwlHI3jdXksyj62hbBu2WJlo+gdCoRCnTp2itbWVnJycXpkwFXFHIhG+/PJLGhoaHHV7L0AIwQsvvEBeXh4zZ86ksLAw7thV5ZWHu5TkZeSxZto6JgybyK7jO2nsaGD0wDHUlM9laOEwNPHtCLm3iVzB8XJ3YEFFfWjCUEMhhU061M1EMwbRS8DnDxMJ3/z+qMK8id8f4dJFP8OGZ3f7OyQOMdtbd0ACoUgEj+ZG01xmaJrEMKjH7iMQaP0kDt2IAtB58803CQQC3HPPPUyePDlh0rpdWmtqauKtt97i9ddfp6OjwyHzBEPVd2NjI//jf/wPZs2axfLly5k+fTper/f6Jj/zd4/bw7ihExhRdBtNviYG5A4k3ZOesHdIBBwJPUWQyIWXFAIhddMRztyb21zvqoETDuv4OiK39GyaJqivC1BYmEZ2todu2by4DyCq6wSjYTJdLjNUUG14Y9a+ivnvJ1yipOCWlhbeeOMN9uzZw/Lly3nggQcYNGjQLe9IdTOwE/a+fft47rnn+PzzzwkEAg6Z9yKklHR0dLBjxw7279/PggULeOyxxygtLb1hf1ASe3ZGDlnp2TdtJ08lOAm2Uwg9LpEIaYZKxVIyGBu2xNK+Go5Z0N4aIhq5eencuoc5GUajkiuX/UQj9BuCuhEkkmAkTCSqI4RmEbkwN2dJBqebREJN0EYWQp3Gxkb+9Kc/8dRTT7F9+3ZLUu5OglX3ikajfP311/yX//Jf+NGPfsQnn3xCIBCwnLL6SxskG+z9obW1lU2bNvHggw/y4osv0tLSYh277jUQN0wYk6pwVO4phB6VDJQUqJyrrRSvth3XwFCZ+yL4ffEZ4W76NuaA1ISgrTVMW1uY/Ly0Hnih1IOqG384QLaWaXOKixk+LDt6P4Hq87quW4uZc+fO8U//9E/MmjWL9evXU15eTk5OjnXOrcxpdjX+uXPn2LlzJxs3buT8+fPW9exk7kjpvQP7Ik997ujo4Ne//jV79uxh7dq1VFVVkZ+fD/S/hZejcncQg1CTWiwFaUzlayAa0WltDpmk/+0cSCIRnYYGPznZXlwafXLF/E2gJqhINEIoEibd48VoCc1qGynpt5uz2Ek0GAzy3nvvcfToUebMmcM999xDZWUlbvc391RW121qamLXrl1s3bqVo0ePEgqFrrpvV98dJBZd1X84HGb//v2cOHGCqqoqVq1axdSpU0lLM4SF/kLsjoTuoBNkTAKUtuxwprd1R3uEcEj/1gNETbqtLWHa2kIUFhi7sTm9ERCCYDSEx+3GJTTTd8GclIRK8N5/Yc+fXVdXx+uvv86+ffu46667+M53vkNubu5NkboqE41G+fjjj/nTn/7E0aNH6ejoiDvuSOTJC7vEDtDc3MyOHTs4cuQIc+bM4aGHHmLYsGFxZfsyHBt6iqDHO6Kar6y4c4PYpXIcERAKRfG1RayEDN8GahBGIjqXL/ucCbMTolGdUCSWfc9w4DGk874+Kd0Idru5lJJwOExtbS2///3veeSRR3jvvfeIRCLXtaeqazQ3N/PLX/6S//Af/gP79u2zyFyd5ySSSX7Y20fXdTRNo66ujtdee40nn3yS1157jVAodFP29VSHI6GnEHq0rdSlY5udmylb1aQGvrYI0aiZ4/0mNjy44S3N3dja2sI01PsZMCDL3DO9f0NJEsFIiDSXB7fmim1nayb+cXC1LdvlcnH+/Hl+/vOfM3/+fFavXs3YsWNJT0+PKxuNRrl8+TK7d+9mw4YN1NbWxjkb9gdJrq9C7XSmPjc0NPDf//t/5+2332bdunVMnTqV3NzcHt/1rLfgdlafDixYzlYx3beUEqEJQh1R/B0Gmcse0PrWXmgnJyeNdK+ney+cglBkEtV1/OEQOekZxu+YipR+Eod+I3Seu9REHggE2L59O5999hnz5s3jrrvuoqKiApfLRXt7O++99x5bt27l8OHDBINBR6Xeh2BvR7uj44EDBzh9+jSzZ89m2bJlTJs2zcq33pcWb46E7sAGU0JRecRtu7K0tYRN6bz7B4AQ4A9EuVLvY1hprvFbN2gAUhpKSo+GSIt48LrVQkftjOPgehBCcPHiRV555RX279/PokWLKC0tZfv27Xz++ee0trYCjjTeH2C3r2/fvp39+/ezcOFC1q1bx4gRI5IirXB3wZHQHZiQRsy5qdJVmm+hga81SqAjiughyVBKicslaGjwU5SfSVamp19zOWCpQKSUdIT8eNxuI0OcTverR/oY7BO0ruucPn2aU6dOxTm5qXKOdN4/YI9fr6+v59/+7d947733eOKJJ1i+fDler9eyv6cytL6wKnHQHTA2XAHTTiuMQRAJ67Q0hHpUWlZ9MBzWqW/woeumgiCp0T3bp94Iaje2QDhoRB0II/LAwc1DSommabjdbuu73anOQd+HXROjiPvKlSv8t//23/jpT3/K3r17aW1tTXmnOUfl7sCE6dWO2hvE+NzRHCESlgnJHy4lNDUHKCzIIDcrPbZ7qAMC4RBpbg9u7dp7NDuIR2fvZwf9G13Z1wE++ugjjh8/zvz581m2bBlVVVXW4i/V+NFJLHMTSAa1XCI6lkr1ipDoEoI+HV97FE0TCbI1SoKhCHX1PvKy0806T60B1TMQRKVOIBwmO82dcpOMAwfJCjW3t7a2snXrVj7++GMWLlzI2rVrGTZsWMrZ1x2Vewqh53O5Y6V+lbqkoyWCHk1chxamrr+hyUdbewhXituzug9GGwQiIcJ61JHQHSQUfZ0jlK9FNBrl4sWLvPjiizz66KNs3LjRioJIFQ1PUsyY9lVQMnUe5SDR29K5Qs8+hy32XBME/DoBXyxMLVEQGBu3nLnQTETFvCclzNVPIu6kbH9SxxcK9Pj9lI3ZSaqS3EjUXNmX+4A9J7z9c0tLC//8z//M3//93/Pxxx/j8/lSYjz0usrdrs7OysrC40meOOTCwkLr+fq62l0TApcw4jL1qKS9KYoeVc5xiVV9a5qgtTVIfaOPQcXZzm5sYLg4mMlmgtFwj94q2RbWDq5GotpH07S4eO3engN7GkoaF0IQiUTYu3cvX3zxBXPmzGH58uXcfvvtpKenW2WTDb0qodvJMiMjg1GjRllZnXr7uQDKysooLi6Oe85keK7ufg4NjXR3JnnpBQghaG+OEvLr2PLBduv9bgSjruFyfRvBYKQXniAJoSpAQlZado/eyuv1JkV/d9A17MTqdrstwu1uSCnJysoiPz8/aebAnkZnxzkhBA0NDWzevJl/+qd/4l/+5V+4ePFil+WTAb1qQ7d3kNLSUqZNm5Y0HUbXdQYNGsT8+fOtsJfebryeur8QgixPNhXF43BF02hrjFibsfQGlITo84epb/IZuVR65UmSAwJzMkUgNMGa6rUA3zqf/rUwYsSIuBSayTImHRhQ86au6+Tl5ZGZmdkjc4OUktzcXMrKyuLu2R/6Q+ewRikl586dY8OGDTz99NNs27YtKUMfe0VC7yxpDhgwgL/9279l9OjRSRPYr2kamZmZrF27lmnTplm/9aY6sqdzuU8ZPIuBrpFEI7qRREb07pamUkJDUweBUIT+SOkCYx9bKSUu4cLl0pg9ZjbzKxfEjnfn/cy+PXbsWKZOnWr9lkwTloMY0tPTmTZtGkVFRT0yb2qaRk5ODsuWLWPYsGFompYUgk2i0Zm4L1y4wDPPPMNPfvIT9u/fj8/nQ9f1pKgX1+jRo3/h9/sTdkP7BJGdnc2UKVP4wQ9+wPz58xP2DN8EhYWFlJeXEwwGaWhowOfzAYmVWoQQpKens2zZMgYOHNgz90CQ7s5gROFI6jquUN9aR9TspL2xflEha5GojtvtIjcnw9hpzPwv9tTCTFBrf0jR6W8X14/7prKki04lurqm/RmNctJ8XiUxS/NX4zfzs3XP2OerzolTaZq7q5kkm+5JZ+boWXx/wffJy8zrsYWW0kaVlZVx4MABWlpajKfpIXOPg5tD5/oXQjBr1iy++93vkpub22PtIqVkwIABZGdn89VXX9HS0hJ3r/7SH+zZBdX3c+fO8eGHH1JfX09ubm7cwqq36sU1ZsyYXyiS6gl0bnz7hPE3f/M3fPe73+X2229P6o5RWFjIlClTuP322/H5fFy+fJlIJBK3Wu3J51c+Bj1J6AqFWUVMGj6ZAbnFXGm7RIu/NbYXN3Qi1J6D2olNSkkoFKEgNxOvSvbQRwldOb5hq2+JpCS/hIdqHub+aesYnD/YzBbXM22g7ltcXMzw4cM5d+4c9fX11rHO6VMd9CxUXdsdc91uN8uWLeMHP/gBQ4cO7fG5R9M0Ro0axcSJE9F1ndraWkKhUJxWoD/1B3t7+P1+jh8/zqFDh2hsbKSkpIS8vLxei1/vUUJXNhelqgZIS0vjwQcf5D/9p/9EVVUVOTk5Sd8ZhBB4PB6GDRtGTU0NI0aM4OTJk9ZqtacnukRI6PZ7ZXgzqBx8O7PGzCJChC8uHkcCmjAGsC5163NPQwhBOGJoCorys83scX2P0CHWh9RCMSMtg3sm38P/s+rnTBw2kez0bDShJcwMUlpaSk1NDV6vl8OHD1v201RLtpGK6CwIqXofPnw4P/vZz3jooYcoLi5OiKOa6pODBg1i+vTpjB8/nvPnz3PlyhVrfk8GdXMiYZ/zdV2nra2Nzz77jA8++ID09HTGjBmDy+VKuCNhjxG6XRoXQpCVlcWsWbP4+c9/zsqVK8nMzEyplb56Tq/XS1lZGUuWLEFKaa1WVeL/nrp3oghd3U8gyE7PYdao2UwZOYX6tis0+ZqJmolNEtVRlcrfFwiTl5VORprXtttY3yB0YSXaNRe9njTGDxvPz5b+jJVVq8j0ZhpvmuCxIoQgMzOT6dOnU1NTQ1NTEw0NDUSj0X7j9dzbUHbr/Px87r33Xv7zf/7PVFVV4XK5Ejp/2rUDw4YNY+HChRQWFnLmzBmCwaC12EulOb07oWLUW1pa2LlzJ8ePH2fw4MHk5eVZbZUIdDuh2208QgjS0tKoqqri0Ucf5ZFHHmHo0KFxx1MJ9pVyRkYG06dPZ8KECUgpqa+vJxAI9Mh7KZX70qVLE0Lo6p6KaAblDqKmrIbinELag+3UtV3BTnA9KTGq+tR1STiqU5CTicvSDqQuocfOB4SRvCfN46WipIJ109bx2NzHGTlgVFwd9AZUfy8uLmbu3LmUlpbS0dFBXV1d3AI21cZysqLz/FlQUMCCBQv4wQ9+wH333UdOTg5ArzgP2/thWloaEydOZNasWbjdbpqammhvb4/zgu9vfcL+vufOnWPnzp00NzeTk5NDUVFRQurFVVZW9q0JvSuHDSEEFRUVfO973+M73/kOU6dOJS0tLa5cqkI9v6ZpDB48mKqqKsrLywkEAly4cMGSYOxlv+39EmVDv+reSmp0pzF6YBkThk1kYN4ALrVeoM3fFiPSHs49I4QgFI6QkeYlKyPN9nSpRejqKlZZafxWkl/C/dPX8eDMB5k5ehbp3vRekcq7gl07NXr0aCZPnkxpaSmXL1+msbExKZ4xldGVk5lyevubv/kb7r//fkaOHNnrUTZ2qGfIz89n8uTJVFZW4na7OXv2LJFIJM400x8hhCAQCPDFF1/w6aef0tjYSGlpKbm5uT2q2frWEnpn1ZuSXh944AF+/OMfM336dHJzc5OqM3YH7AMvLS2NESNGMHv2bEaOHMlXX31Fc3Oz9c7ftmMnWuV+1f2JvWtuei5jS8cxc/RMwnqIc43nCEVCMdtuDxC75RAERE0p3bDh9yah27bg5OYIHeuztMwWUkgWj1vM3y35O2aOnkV+RoHRbxJkJ79Z2Pt7bm4ulZWVzJkzB7fbzVdffWXlvO6v0tmtwm6aVGrbIUOG8MMf/pAnn3yS8vLypEi2dS0IIXC73VYekWnTplFbW8ulS5es4/ay/Q26rtPc3Mzhw4fZuXMnmZmZDB8+vMcyorrKysp+0dHRcUsnd3Z6y8zMZMaMGTzzzDOsXLnSCqdIltjynoLqqB6Ph/LycubNm4eu65w5c4ZwOHxVuVu5fm8SuvUcqP24ITc9jxmjZlJeUsbZpjN0BDqI6hEjfl127+C1LxrDkSjpaV6yMtKtZ+pdCf3mCF05vYHhXOhxeSgvKecnS37K+ukPkJ+Zb9hLE+RseKuwk3ZOTo5ldqqtraW5uTlOOutLC/iehEriU1RUxIoVK3jmmWeYPn06Xq83JepQPZ/L5aK0tJQFCxZQUFDA2bNnrTDf/tgf7CZataPb+++/z9dff83YsWPJzc3t9nu6ysvLb4nQO0uoU6dO5dFHH+Xpp59m8ODB1rH+0oD2xsvOzmb27NlMmDCBaDRKY2Mjfr//lr2De1Plfq3nUTb2oQXDuGPsInIysmkJtNIWaIu3rXaTpGkfGJFIlMLcbFyaZlJo5zCuZCH0q+8nBYweNJp7pqzk0TmPM2rgaGsBlGxS+fVgH9slJSUsWrSI4uJi2traaGlpIRqNAvRrtWtX6CyxCiHIz89n1qxZPP3009x3331W2FMqzZ/2+c/r9TJx4kSqq6vxeDw0NTXR0dERl3kwVd6rO6Hq5/Tp05w9e5aFCxd2u8PcN5bQ7Y0hpaSsrIxHHnmE7373u0yePDllN4bvLtg9PUtKSpg6dSojRowgEAhw7ty5uIWQUrXdzDWTidAVLNuqy0vl4NuZMGwiORk51DbX4gv6Yqp66BZVvKrXUCSC1+0mNyvDJM3kJnQpjO8DcgZw9+SV3D99PdNHzSTLm2W9V6rCrp2qqKigqqqKgoICLl26FBfW2dk019/Q2b8IDJ+EqVOn8sQTT7B+/Xor1CmVCc/+7IWFhVRXV1NRUYHL5aK2tjZOY9nfYB8DtbW1LF68mKKiom69h6usrOwX7e3t1+1Ane1iuq5TUFDA+vXr+elPf8rUqVP7pJ3820III379tttuY/bs2YwaNYqvvvqKpqYmgJuO30xWQgdFpaZHbkYBY0vHUVM2G1+4na8bzqBH9diipRtU8aq+fIEQRbnZuF2uXlK5q21lr3aKU+cLIdCljsftZnZZDY/Pe5KasjkUZRUZPgcpJpVfC2rMa5pGXl4e48aNY86cOUSjUU6fPm05ifbXecG+eFd1UFRUxBNPPMFjjz3G+PHjSU9PjzveF6D6hBJsxo8fz8WLF7l06ZJ1TJls+wM6C3MPPvgg+fn53XqP60ronZ1cpJSkp6czffp0fv7zn7NixQqysrJwuVx9rjN2F1TH9Xq9VFRUsGTJEivbUiAQsEj9ehNeMhO6giJ1l3CRn1nA7DE1lJWUUdtyjuaOZrBirflWxK7qKRKNIiUU5mT1upd75wvGotFcDMwbyJMLfsDa6vUUZRXh0lJbArsRVH/Pz8+3zE7nz5+nsbHxqpCmvloHCuoddV23dkRLS0tjyZIl/Nf/+l+ZPXs2WVlZfXruVHWgEnOtWrWKgoICvv76a9rb2/tFUprOZhaXy8XixYtZs2ZNt9/rhip39TCZmZmMHz+exx9/nO9///uUlJRctep0cG2oBVFGRgbV1dWMGzcOn89Ha2srN4oyUA6HiYxDv1UIIUwvbo3hhcOZOWoWuVk5NPubaPW3GYsXrXvUr4FQmJzMdNKv8hhNNKHHHN6kAE1zUZJfyp0TlvH9BT9kzMAy6xJ9QSK/EeyqxSFDhjBnzhyKiopoaWmhpaXFsqX2l4lcjd9Zs2bxgx/8wMq/bi/T12Gvi9tvv53p06fjcrloamqKM830JXQWiFWY81133cVTTz1FVlZWt9/TIvTOanX7w5SVlfHAAw/w6KOPUl1dbdnJ+4uqpLtgV72VlpYyY8YMRo4cSSgU4sqVK5aHcOeOrST0VCB0iEnrEsj0ZjFhyATGDhlHZloGl1sv4wv6u1Bgf3NHQV031Nx52Vmd6qznCd3wC4hpHdTf7PQcFo5dzOqp9zNj1CwyvBm26IC+NWFdD/Z+nJGRwYQJE5g8eTL5+fnU1dXR2tra523qahKfNGkSjzzyCA8++CC33357r2/g0Vuwv29BQQFVVVWMGzcOj8fDlStX8Pl8V81/qVpHnX1GsrOzWbRoEY8//jh33303BQUFPXPfe++9VypnLSusxrRtZGVlsWbNGu677z4GDhyIx+NJ2QpORihJpampiT179vDcc89x/vx54OoOMWDAAH75y19SWVnZa897q1AhXKFIkBNXTvDaJ6/w3uc7kboRwqVLHSEFCDrZoa9zTbNu3C6NMUMGU5CVbXrBA5hqPClsv0mQsavryuZtOtVJqSOlQexS0um7RCrytq5hqFIRGB7dQjB5xFRWVt1HSV4paZ5YWJ2DWGrMcDjMyZMnee211/jLX/4CEDf3pCrs41Wp2QcNGsS6detYunQpAwYM6LdEfi1Y/jA+H4cPH+Zf//Vf2b9/f1xq4VSF4lCXy0V1dTXf+973qKystDL99VQfEM8884zctm1b3I9ut5upU6fyox/9iIqKCmczhh6Gmgja2tr4/e9/z1/+8hd8Pl/cZh0TJ07kH//xHxk4cGDKtoO9H+09tYvf7vgd5xtrrcneKvMNXk9KSVFuDmVDSmw/9gyhmzdEtwXLRXWdwpwiVk25n+kjZ+Jxefu85PltYO8DH3/8Mf/zf/5PTp48GbefdKpO5HaP/9mzZ/P0008zevTofuX4dStQ9RMOh3n99dd59tlnaWhoiAt//f/ZO9fnKM4733+enrtmhEAXdEHoipAEEve7scFcbMAmtomTXW/tZlMV175IUqlT65yz58WpUzn/QqpSWafO2WSr1oljvPE6ji+AMSDuYAdkg5CEBOKi+300kmZGM/2cF909mpEEBlugkXg+lEpounu6p7unv8/zuybzPTGVRVUIQWZmJj/84Q/Zt28fXq/3sdwHtt/97ne/uHXrFiMjI7jdbsrKynj99df50Y9+xKJFi5SYPwas0ajL5WL9+vVUV1cTDAYZHR3FZrNRVFTEa6+9xrJly2Z1zIIQIuZHLkgvYGv5M7icDgZGBhgYGYiZph+W8FiEFLcLr8sVS2Mz93jPbR7O5B5nLheAENg0G5mpC9m6dBuvbf5HKnOXG0VhhPqu3I94l15ubi47duzA5/MxMDBAf3//rDt31sNbCKMB1apVq/jxj3/M66+/HuuGpsT8/sS7IisrK9m2bRtCiFh9eGud+N/JiBX8l5+fz4EDB3jjjTfYvHlzrCrc47gPRDQalZ2dnTQ0NCClpLy8nLy8PCXkM4R13gcHB2loaMDv91NYWEhxcTF2u30OXQ9DMMPRME1d1zl85TCnGk/S4+81guoewuQmpWReiofKgnw0NDONjG89Q4/5yM11dPM9vO5U1hStZ2PJU5QuXBrTfmVefzhi1f9MM/yRI0c4evQora2tsfs8GWdm8eZ163dlZSX79u1j+/btZGdnT3KZKR4M63qHQiGuXr3KoUOHOH78eCzVN36dZCD+OmdlZbF79252797NsmXLZmQQIqRBwhdI3YQzz8RrAnNzcGV8NsnoWJCmruu8c/FtzjddIDw2Zvih5IO1pJVSUpSdRV5GOrr+7QWdmN9cx8o5l+hU5C1n1/J9lGSW4XF4lJBPA/EP8ebmZv74xz9y7NgxRkdHE9KakulBbvlI09PTefXVV9m7dy/Z2dnY7XY1I58GrGsdCARoaGjgrbfe4ty5c4xZz4VH1Kr6YY7PujcdDge7du3i1VdfZcmSJbHW4DOBkMn0LVE8sehSRxMaET3C0WtH+Ndj/8pAYHCSb328d3giUkocdjtVRQW47Q70byHoSGM50gxwkjrzfensX/ldNpc+ndQDrPsFFSb7wMPyMeq6Tk1NDb/85S+5e/duLH893gc5U48ty7xus9nYtGkTP/vZzyguLo4dUzLeE7MZ65qHQiEOHTrEm2++SVdX16Tl8GjviXiLYbybpaysjJ/85Cds2rQpdgwzOaBTgq5IGuLFqHe4l/+8eJAT9SfoHOwiqkfHBfgez0xdSvIzM8jPyDBWeihBjyvVKo1uaLrUSfdmUJW/ih3L9pDpG08ZTDZxlFKiS53h0DAj4WHGIkaJTbvNToozBa/bh00zipsk27FPxBLGgYEBDh48yKFDh2hra2NsbCzB1P24iDerut1uiouL+d73vsezzz6Lz+dL6gHeXCD+/La2tvLee+/x6aef0tnZSSQSeeT3xMTr6nK5yM/PZ//+/ezZs4eMjIykuQeUoCuSDuuWjOgRrrXXcfjqIU7U1zA04h+X/HsIu8vhYEleLl6X+6EEPbbMnJ373KlU5lWxsWQrpVnl2G32pBNCqw0rwN2+21xrq+Nm9016Aj0EQ8NIIXA73KR7M1icsZhli6rIX7AYp92ZsG0yYt0D0WiUhoYGPvnkE44ePUp3d/djFXVrP3a7nZKSEvbs2cOuXbticUYz/QB/krCut67r1NbWxvzrfX19j2V2bgUo7969m507d1JcXJw0Qm6hBF2R1EgkQ8EhGjsbeOfC21y88QVSTyzmMtEMnzN/AQVZWcTpOFMJOtbLGGODqC7RhKA0eynPVuyhJKuMFIc3Kf3ksVTH4BAnG05w8cY5+ob7CUdCgHW8VuNWI/Uxw5dJ9eIV7Fi2i3RvRsL5S2aklAwPD9PU1MTvf/97Tp48OanJx3QJ/MRYIqu643e/+1327ds3B4NTZye6rhMIBLh27RoHDx6kpqYmwT33be6HqbZ1u90cOHCAvXv3UlJSgsPhSMpYCSXoiqTH8q+HI2GOXDvEb2t+S9dgdyxNTOrjjVAAHHY7FYvy8brdRjW5KQRdStCxCtoY/lmXw8XeFS/zTNlu7Jo9tt9kwnpY6XqUa+11/Onzd2nrawUwSurqVqyBhYh9jlg8gCeNl9e9yvqSjTExT3aBsj53JBLh+PHj/OpXv0roXjids/b491mzZg1vvPEGS5cuje0j2c/Vk0L8jP3IkSO8+eabk+6Jh+FecRqbN2/m5z//OQUFBbH1khUl6IpZQbxp63bfLQ5+fpDzTefoGTIKUFgmZKsqXWZaGktycu8h6GI8yE4KvO5UKvOqeW75fjK9WcbyJDNJW0cejoTpGerms7pPudTyBaPhUfMBI2OWhslfaIGQEqM2jvHZbJpG1aIVbKt4luKsElwOV9KXp42/B9ra2nj33Xc5evQonZ2dRKPRKTNDHhabzYbdbqe0tJSXXnqJF154AZfLFduvIrmYeE8cPHiQzz77LOGeeFDi08zcbjfl5eW88sor7NixA7fbPStcLErQFbMOy/f9xe2LHLl6hHPXzzE4MghxpneBYGleHvO9XqJmhouIN7kjcdqdVOauYEPxUyzJqsBpdyWlkAsEET1Cx0A7F29c4POW8/QF+ojJtwQhphLye2MNftI881lVsJr1pRspyizGptmS7hxMJP6RVVtby8cff0xNTQ09PT0PNVOfmCsupaSkpISdO3fy3HPPUVhYmNANUZG8xM/Wr1y5wkcffcTJkyfp7u6etE48E2sKuFwuysvL2b17N9u3bycnJydh3WRHCbpi1qJLnaGgn8t3LvGnL/6T2ltfGqlmCKJSJ9XtpnxRviFSVhCcKYIFGSXsqNhLYUYp89xpM/1R7ktoLMTJxhNcuHGO9v52ovoYMqG63fhXWAA6oE0Y3CSksxkZeWhx5vbM1CzWFK3l6aXbSPdlJKQJJjOWL7W2tpZ3332X06dPJzx4pxL4ic0/dF0nLS2N559/nv3791NSUoLT6ZwVD3DFZKSUBAIBvvrqK9577z1OnDgRS3283+AsLy+PAwcOsG3bNgoKCmale0UJumJWEx8R/8GX7/PWmbfoGew1W7TCkpwcMlPTiJq1wt0uD89W7GFzyTa8Th+6lEnpJ7fEtL79Gn+6cJDWwbtmxL4p0lIgxcSvriHchpgDSIQAXQfNKkWfsLYpdJpAA6QU5M7PZd/KF1lbvN5cP7ln6zDe5CgajXL48GF+85vfcPfu3ViZ5Pg+7PEmWut8VldX89Of/pTVq1fHZuTJGPCkeHDi74ljx47x61//mjt37gCJgY/W/fDKK6/wgx/8gPz8/Ng6s03MQQm6Yk4wnkN+p/82b1/4A5/f/ILh4DBuu4OSnFx8Hi8lWWXsrHiBvLTFSTsDlVIS1aO0DbRysqGGCzfOEo6EjYdLXGpd/GELK+3O/DxCwDxPGpqwMTg6iC6jZrDcPcrySBKWCSFYuXgVu6qeZ9GCfJx2Z9INeqbCepR1dHTw1ltvcfz4cTo6OmLFauJrhjscDhYvXsyBAwfYv38/Ho9HmdbnINY17e3t5Z133qGmpoaBgQFjcO92U1lZyfe//31Wr16ddClo3wQl6Io5gy6Nh3Y4Eqa+o47WvjaiepS0FC+5CxZRlpWcrWdjAX1S0jHYzuVblzh/4yydg51gmYxNIzsJkhwnwub/5qcsYHl+FeuLN2Cz2fny9mVqb1+m298Ve4+pvvBTvb7Am8664g2sKVpLYUaRsV6SP+ziy8hevnyZDz74gKtXr9LZ2Uk4HMbj8VBUVMTGjRt54YUXKCoqmhWNPxTfnHj/emdnJ3fu3CEajZKZmUlBQUEs6BFm/z2gBF0xJ7FS2OJn4Mn4ZbUsBSOhET6/eZ5zzWe522c8cGLCPcWM3NjOelHisDlYtqiKrUufpnRhGW6zH3s4EqJ9sJ0zjaf4vOUio+GRSTP6xAFC/C4ldpuDzNQs1hat56mlW5mfsmBWmOGtx5rf7+fWrVu0t7cTCoXw+XwUFBSQl5eHx+MBkvO+UDwaJsrdXGuiowRdoZgB4gPWmrua+OCv/0VzV1PM92cMSARM9JPHx8EJAVJngS+D76x+mTVFa7HbHMS3obUeVuFImBtdTfz50nu09LSYsQMilsM/yRBv7scqUKMJG9lp2exf8wpV+dVJm6c/ESuv2PKXWr7RufQQVygslKArFI8Zy0/ePdTNqcYTnKg/TlSPjAv1FGloIhboZiwTQpDmTmN10Tr2rnwBn8v3tfsUQjAcCnCysYZT9ccZDPqJ6hGkNAYYmtRATDTom8ejGQV8nA4Xa4rW8lzVHjJ8mTjsjqSfrVsoEVfMdZSgKxSPCcu83u3v4ss7tZy9foqOwXZ0KePM6FNtaSi9JbCpbh/LFi1n85KnKFm4BIfN8UBm8HirQGv/Xc5eP03tncv0BXrv26ZWYJbPNQcSSEm6L5MNJRtZU7SOnPm5s6bxi0Ixl1GCrlA8YqyZ4UhomEu3/8rp66do628lNBZkXMHv/TW0/NxOu5OlORVsq9hOUVYJXpc3tvybHFM4Eqal5wbnms5w8eZFdD1iDAskSDFeeW/icRh/CGwI8tMLWF+ygU1LniLFlaIEXaGYQZSgKxSPiFjddanT0n2TD2v/THNnE+GxsFGD/h4ibgStEdN6KSXpvnT2rnyRVQWr8blTp8V8bFXcC0fCNHU18sGl97nVcxOBhkCgE00w9cdtaPr2NYQAu2YnP30xL6z8Dsvzq2Lvq8zbCsXjRQm6QvEIkBh+8uFQgOPXjlHTcJyR0LARkKXHIs6YsvK6uVjTNNwOD2uK17O3eh8LvOmPxA887l8f5kT9Mc40naIv0BtbNtGnb4m8MPP/jSI+EptmZ2PJJnYs20X2/Bw0oSV90JxCMZdQgq5QTBPWjFvXdfqH+/jqTq1pXr+L5QeXVnT6BCGPf0UIgdfppXLRcjYv2UJl3nLj/R9hUFd8idSW3hbONNZQ13aV/kD/+GczZ933syxIJAvnZbNl6VZW5K8kOy0n6Zu+KBRzBSXoCsU0EC/mX7Rc5FzTWW50NRGOhs3+KffzkVvvYVCRW8mWsq1U5Fbidfse6yzXOs6xyBiNHfWcazrD1davCI6FEnzo96g5ZyKwazYKMgrZuGQzqwvXkjpNbgKFQnFvlKArFN+C+JlrS89NPrz8AU1d142AN8l4vveE4DKIq9kuNHSpk+nLZHfVHtYWrTMCzGZwZmu1oQ2OBbnWVsdfLr1Px0AbwhxcfN2MXQgQaDhsDoqzStm78gWW5pQnDAgUCsX0ogRdofgGWIImkQyM9HO68STHrn3GaGgk5lOeSvCENBLQEONpZh6nh1WFq9m74kUyU7OSss58OBLm49oPOdd8Bv+oH2mmucX3obewjtsqPGP0X7fxdPl2dizbSbo3A01oarauUEwzStAViofEEvP+kX4a269xouEEt3pakHK8AcjXIsDr9FGSVcLT5dupyKs08smT2Cwd1aO09NzkZMMJrrXV4R8dHBdzObmqnZVbP16ZDbLTcnm6fBvVi1eSmZqpouEVimlECbpC8YBYs9HgWJC61iucaz5DQ3s94Ug4ts7UudvG1lbkm02zUZJVyqYlW6jOX4HPnWqsm+TCFl93/kZ3M2caT3KtrY5QJDQ+kJlQdz4R4wQ47S6KMorYVLaFFYtX4XV5H1t9eGXyV8xllKArFF9DvAh0DHbw4eU/U99Wx0h4xJydJnY8s7D+FgikAHSJ1+3j+eo9rC/eSKpnntGze5aJizXr9o/6qWu9yuErH9E+0GGm21ktXoWZ6pbY+GW8qYzE7fCwJLuUPStepDirxDDPPyILxVS58cno2lAovg1K0BWK+2B9PQKhAGcaT/Jx7YcEo0E0c+YtkWho94z4tgLinDYX1YtXcmDdq0Y++RyYKVo+8oGRfg5fOcTpxhoikYgRUAcQazAzeVshQdgE0ahOisvLM+XbeK56L26HO6G5zLfFGiBE9SiRaISxaJixaASn3YnD5sBusz/SgYRC8ThRgq5QTIE1exsa9VPfXk9NwzFaum4SldGEmTdmmVQY70wWP0d3OdyUZJWwtfwZli+qwmV3zSnxiDeVN3U2UtNwnIb2egLBgNGf3ljJsFBM3jghaHDRgkU8U/4sVfnVpKXMj9WH/8bHJiVj0TAtPS1ca73K9c7rDAWNgD6bZmfhvGzKcysoz60ge142Npt9Vg+wFAol6ApFHJZAhcZC1LfXcbbpNNc7rjMSHh5vUsIUbU1NzN4l2DQbhZlFbF7yFMsXVbHAm/44P8aMIKVkJDxMXetVLtw4T13rFVPUrQHQ5Lp4E3Pb7TY7FbmVrC/ZyMrC1Thtzm/sX+8J9PDplUM0dNST6kqlILOQrNSFOG1OhoJDdPu7aOpqxGF38lTZ02wo2WRYCObIYEvx5KEEXaEwsb4K7QNtHL7yCddar+If9cfKngopEmqw38tnPs+TyraKnawr3kBmaua0mpCTHYlE13UCoQB1rVc4/NXHdAx2mCVvsfL2JuevS/P8CYkmNFJcKZRll7NnxT4KMgofyqohpaR7qJs/nnuL5u5mvrfhb1mWt4wUlxeHzYEmNKJ6lHAkzFDQz4n6Y1y4cZ4dy3aya/nz2DX7E3O9FHMLJegKBWYhFV3nTNNpPrj0Pv6RQTSbhpR6zBUcz7i5XUfDZvjSNUFV/gpeWnuA3LS8JzboynqkCCEYGBngo8sfcPHGBYKRUSNHX79P6VgzsE7DKLbjcrrZv+o7bF36DE6762uFVkrJaHiEd86/zdXWr/jnvf+DDF8mt3puMhIexaZpaJqNFGcKC+dlk+L0MBaNcOTKIQ5/9TH/+PSPWF245rFF3SsU04kSdIUCGAr6+eTLj/js6qemeJu283v0JzdrvYEQuOwuCjOL2Lr0GdYVb5gTAW/TgSWKUT3K9c5GPr1ymJaemwyHAoB1aifGHSQiEKZJfCt7V76Iz+W7r6hLJJda/sqfPj/IK2u/y5qidfQN9/LvJ/+Nlp6bOG1OEBCVOjnzcvibja9RmFVMIBjg4IW3ud17izf2/gupZiqhQjGbsP3iF7/4xUwfhEIxU0gpGR0b5dCXH3O8/mhCmlW8HgsSy7Ba+eWFmUXsqNzFc9V7KF24JCY2T7qYw/g5EEKQmZpJVX4V6d50QpEQ/tFBolI3U9iMU32vc6ZLnbt9d4jqESrylt1T0KWU6DLKn//6X2T4MthW+Sw2zUYoEqT29iWE0Hh57QGq8qtx2Vw0dtQzGPSzrngDTpuTeZ55nLl+CpfdRWn2kkdyThSKR4l9pg9AoZgpLPFubK/n4o1zhsAQXwxmwrpivPpZWkoaT5VtZUPpFtK96dhstnEBU2KegHU+UlxeNpZupiJvGZdavuBo3RH6h/tia0kkQopY1oDxqiHUET1CTcNxCjKKWFeyPuF9Y+sKgX9kiNu9t9m3Yh8+l880/wsQAq/Ly9qi9Wiaxjz3POrbr9E71BPbtiirmLz5+dTeucQzFdtxO9yP+tQoFNOKalaseGKRUjIcHuaLmxfxB/1GbnQs0M0wF1vaYvnMhRQsX1TFT3f/N15c/TJZ87KwaTYl4g+AQKBpGgu8C9i5fDf/++X/w5ayp7BpNjOnXaALnQmxcrFzGx4L82ndIUZCw5PC5S3PYdtAK0JAemrmFCV4jWsbiUa42dNCIDhEZd4ycz8Su2anLKeM3qEeRsMjD1bCV6FIItQMXfHEogmNgeF+bnQ3A+Od0cCaGVomYYHT7iJ3QS7PlG9nbdF6nHbneOS10vIHJr7TnNvh4bVN/8DqwnV8VneEmz03CYWDxgw9LhLemLmDpml0+7to7mqievHKKd8/ODaKXbPhtDvjXjU6x93tu83/evdf0KVOMBykPK+SPSteSNg+1T0PXUrGomOP6hQoFI8MJeiKJxIrYKtjsJ3+kX5DnOPS0Ix0c4EmNHLn57G+ZCPritaTnpoxvr1KbfrGWGJts9moyq8mPz2fq3evcLbpDC09N4jq0YRQOavy3Fg0wt3eO1Tlr5jy/LvsbiJ6lLFIOFY7H4z/uh0eVhasRhMat3pa6PZ30TbQSunCcX/5cHgYIfjWRW0UiplACbriiaZnqGvctDohCE5KSV56Hn+/5YfkLViEXbPHlim+PfHnMc0zny1lWynKKuYvl96n9vbl2EzdQgLRaISeQA9RPYqwxQUqmr+y03KI6lH6h/vNbcav7fyUBby05gB2m50Lzed47/N3udZWFyfokptdzaR50vA4Pcryoph1KB+64snEfM6PhoPmCxMDrIxVijNLWJxRYPjJhZgzYi5NM7QudeNHj/sxX5NSPjY/sjVjz0nLpTy3EqfdiTbxmkiBRCc0Fpp0XNYAbEHKArJSF3Kzu5nQWHA8KA6jWYxDc+CwOUj3peN2uGkfaLNOCK39rdzpu0VF7jI8zpQ5c60VTw5qhq54otHNyPaJUVYSS9Rnv4hPyvKWENEjRPUIUT2KHhNuMwTNdDXYNBs2zWZYJqYqrDPNTOolLycUi7X+vEfZXUxT+eYlWzh85WNu9d5iaU55bFNrH0IIUpxe3E4PnYMd6FInEh3j7PXTSARblj5t7F4Vl1HMMpSgK55w7lOk5DEFOd+7rIrBNxUVq2WoLnWGQwH6An30DfcSCAYYGBlgOBRgdGyUSDRizMh1Hc20RDjsDjwODykuL/PcaXhdXuZ757PAm848dyoOs0DLIxW8CSZ34zUmvxZbZAQoLsuv4mrrFT66/AG+jT4yfBmsKV6PrkfRNMMomeHLZOvSZ4joEYLhUT5vucCXd2t5vmoPOWk5SswVsxIl6AoFMFEpHtejfCjo50LzOUKR0IS9Spx2FysLVpOVmvXA7xcvRCOhEZq7mrje0UhL9w0CoQCB4BChSMgIOpMyYTCRUJvejDLXhEAzo8ZTnF68Li/ZaTmULFxCWfZSctJyYjPr6Q8SvI9634c0Txq7q57n7fO/53cn/y/7Vu5nY8kmHDZHLNgt1ZPKtopnGR0b4Vj9Uc5dP0P14pVsLts6p7rhKZ4slKArFDPIZ3VHOXzlkynNAQJB12Anf7flHx5YZCxf8vnms3x27VM6BzsYi0aYVJBexG9hRZFL05dNzKwdRScalYxFIwyHh+kZEtzqbeGLmxfwOFOoXrySXcufIyctF0gOM7UQgsLMIn607Z/4Xc3/499P/RvFWSVsKt1C8cJS3HY3fcO91LVe4XRjDaNjIbZVPstzVXvwODxKzBWzFiXoCsUM0j/chx6NYrPZJsyWjbz4gdEB4OuF0ur9fb3zOh/V/oUbnU0gQBNGcRxdChBxoj4hehysnuXxqWKWydt8TTd6vwspiCLxj/o5c/0UX96+zNbybTxTsZ00T9qMN6SxutstTF3If9/3P6lpOM755rO8f+k9xiJjRj90YVgd8tMLeXb5TipyK2NWCYVitqIEXaGYQTQhkAJ0GU2YpFv+YO0BElGsinc19cc4fu0zhoJDIMyZtxzPmZffVmRjYwEJutHmFCAQCvDJlx9yvbOR56v3Up5bgcPmmPGZOhgC/XT5NtYUraPL38XAcD9RPYLb6SHdl072vBzsNnvsfCsUsxkl6ArFDHOPhm6ANWu+PxE9wvtf/InPb14gNGam4UmjE9x4oZxpjvATTPK/3+xq5t0Lf2T/qpdYVbQGm7AlxYxXCIHP7TM6tS0cPx6rva1CMVdQeegKxSznnfN/4GzTKUKREHHZZwltXGNpW7G/rNxszQh8i/0TZr69FtcJTSCkiKu6NiE/HMPvrsso3UNdvPfFu9ztvTM5DW2GsD7zxMGFVVcgGSwJCsV0oARdoZiFSIxWoacbT3L2+qlYLrmwtNpEIMxcexGLYjcakdhwOVx4HG48Ti8ed4rx40ohxZGC2+nCqTmwCcO3L4VEaCK273gRtJrZgAZS0jfSzx/O/QfBsdGkmKErFE8KyuSuUMxSuv3dnG48SRSJ0E3TekLmmwAhY8VU5nnSyEzNIis1i3RvBvNS0vC6UnDZXaY/XMSKzYQjYwRCQ/iDfgZHBujx99Ab6MYf9Jt11nWQIlZRD0BIae5Scrv3Fh/V/oWX1hxQddEViseEEnSFYhai6zr1bXW0D7YhTH95Qh692VdcAh5nCpuWbGZ5XjVZ87KYnzIfp90VW/de/nVrRh+OhPGPDNI91M219jo+v3GegZGBWLnW2Mw/FjRnCP2F5nOsLVpPQWahMmsrFI8BJegKxSxDlzoj4WEaOxuNeuUT5FJgiLlAsMC7gL/b8gPKspfisDmM5RN9yfcRW4HAaXeSkZpJRmomS7LLWLl4Ff9x+rd0+rti/vNEJEhBIBSg9k4ti9MLQFNNbRSKR43yoSsUs5Dh0DAdg21mzndixTcdHYHA7fSwf/XLVOYti9Vj/yY+bYFR210TGg6bg9LsJfz0uX8mK3WhmatuNUAxMdPXdT1KU2cDQ0H/Nyn4plAoHhIl6ArFLEJi5H8HggECwWFAoE8QS82YDrM4fTGl2UZrUE3TpmWGLEyneaYvk+9t+Bu8Lp85SJjYRMVwAwwMD9Dl71LpYQrFY0AJukIxmzB1cyjoJxwJmeVap141MzWLVPe8aY80t9LRSrPLqMqvGn9dJoTXIyUMBYfoC/RO6/4VCsXUKEFXKGYh4UjYjDafjBWo5rK7DFP7o0CAx+Fh+aIqPK4UhBDoQp+4CmPRMAMj/eh6dPqL2ygUigSUoCsUsxBNaPeeeZsW8FAkRESPPJL9W01gslKzSXPPj/nZMVPkrB9d6viDg2aDmEdyKAqFwuT/AwAA///t3flv1Pe+3/Hn5zu7xxs22MZgDAaMWZNACQmQhKwnJ8nJuaenvbpVf6rUVuqVrtS/pVKlSv21qq561VYnTU7uyUJWkrDvO8aADdiAV7zN9v30h+98Z7ENhwTb8Xx5PSTw2POdGQ9R9JrP9n4r0EUqUDwSJ+yE5650ZsHF0jt4i7sjt3Fdd0FKwBpjWFHbxNqmdURCEcJOmKgTJpL/E3JCJCIJkrHqQt13EVk4OrYmUkH89evaRB3xSIKpzBS4s2uSGyx3R+7w8cmPeG3z62xs7iQeSQBex7RiNZhffpzMGEMyluSdbb+hvbGdnJsru98CVdEEm1q6iIajv+g1ROTJKdBFKoy1lmQsybLkMoYnhmYXlclPh2fdLBfvXKRv+BbLq5vYsmob65o6aK5tobG68bHP76/DP8mGupa6lTTVNM85+jfGaHQuskgU6CIVxjiG6ngNbY1ruH6vu6y2ul+r3V9Ht47Lw+kJRievcf3+NYxxqInV0FzXwprl7axpbKetoY26RD3hUKSwNu8HucUWGqz4LUbnGtEbR01ORH5tCnSRCmMwxCNxtq7axqmbJxmdGpm7q1k+1F2by29Y874fmx5jbHqMqwNXwFocJ0RNopbGZCPLqhtoSDZQE6+lPllPfaKeRLSKWCRGPJIgEUkQDoXzBWWKhWoU5iK/PgW6SIVa37SB7W07+P7KtzgYXH/KO9+UxefXXKdkqb04ovfqwo9OjjA2OUrPg+vez11LPBovhHgyXk1topbl1ctZUbuCFTVNNNasoCZeQzQU9Z+07LlFZHEp0EUqVDya4Lc73uf2UB8997sLoW4es5fdFr4WmpuX3+v/2BhSmWlS2RSjUyMw5oW84zhEw17b1apYkua6FtY3baCzZROrG9rKnlvBLrK4FOgiFcprvtLAP7z9n/mvX/4Xugeu5RuzeC1MXfPzKq7aub6zpTvivc12qcwUqWyKkakRbg/1crznGPFIjPVNG3hn+7t0NG0gEork+7Mr1EUWiwJdpIJZa4lHE/yHA/+JT898zOlbJxmZGAHHYKzFX+F+qvPnhUz2nsVgwHW9IjKOg8ErYnPhznmuDVxl86otvL75Ldat6CASiijURRaJAl2kgvlhWZOo4fc7/yXbVu/geM9RugeuMjQxlC8PWwx2n53j1pMq7KL3p+htcZ0+nUtz5tZpbj64wcsb93Gg601qEjWafhdZBAp0kQAo3fm+bvk6Hozfp3vgGlf6L9N97xoPpx8yM7wNYIxDYQSf3ylfOlX+RCN7U6wf7zdyHZ0a44tznzE+Pc7vXvgbqgtd2URkoSjQRQImEa2iraGdtsZ2Dmx+k8nMJDcf9HDpzkV67l9naHyIh6mHpDNpDDmK3czzf5vi10KcW4uxplhlbo5sLm6GA+vmyBrL4Ws/0lzbzIHNb3pn3DVSF1kwCnSRgCmMrq03NZ6MJtnSuo0trV6r04nUOEMTw4xNjfJwaoyxqVFGJkcYnRxhdGqUqcwU2VyWdDZNOpsinU2Rsy7WlG9yKx2Vl/Km5B1szpJxMhy6+j2bW7eyclnr4v0jiDyDFOgiATUzfP2RdTJWTVUsCXZ1/kIv/DO5DNlcllQmxURqnIeph4xMjDA6OczQxBBD40MMTQ4yMjFCKjudX0J/zAG5/PP2j97lTO8pWpetKqtqJyLzS4EuUmHmrApXYq61ar9sa+n3/vS5X7M9Go4SDUepilaxrHpZ2eulMimmM1M8nH7I/bF79A7e4nTvSfpH+wu14x+V09ZaTt06xW+2v6d1dJEFpEAXqSCW+TvbPVfI52+UX2cM8WicWCRGfdUy2hrW8EL7Tt7e/i7fXPqKL89/zlR6Ete6ODjeB4WSZ8Vabg/3MTw5TEOyYV5+dxGZTYEuUmGO9RzlcPePuNYt/MzP4Jp4DR+88Hsaq5fP62uWdl7zdsE7VMWqeHfHezQkG/hfR/6R6fTUHFPw3vfZXIY7w30KdJEFpEAXqSCZbIY/n/qIuyN3MY4pP4mWX7OurarjD7v+1YJVapv5nC+s3cXxnqOcvX0WZ64iNvnLhyeGAbSOLrJA1KhYpIK41sW1uWIbU4N323jtSw1w/V63d/FiZKaBaDhKa8Nq7+XmeE0/vKcz009XsU5EHkuBLlJBYpEYkXCssMPcWu+Pa12s9fqt3Ru7x9D44KKOgsNOKH9r7te02JJrRGQhKNBFKoS1ttCQxe9tXs5b5x6bGuXy3Uv5qm0LOyI2Xpk4RidH8Da6z349i1eUpjpeQ3EeQUTmmwJdpFLkc7CzubNQprWUP2IH+Kn7EKOTo7+kVPvPYrEMTwzTc/+6V1luruVzCyHHYWW9CsuILCQFukiF8Ee221bvIByKFka+M68xxtBz/wbfXv6aVGbam5ZfgGS31pJzcxy/cZT74/fzkwYzX8db569PLqO5rmXefwcRKVKgi1SY5roW1jd1AOTPfJdXhHOtSy6X5ZuLB/n60ldk3WyhRKtr3acK99JZAIvlbO9pvr74JdlcFltyjI6S38oAXSs3ez3StSlOZMHo2JpIBfGPou1cu5trA9fIuS4Yl9JQd3DI4TKVnuJPx/8P1+9d490d79Fc10I0HCXshHELjVRmVpEpfbHZr5uzObK5LBOpCX64+h1fXTzonT+3FmvKn80FjLFEQzG2tz1XfE4toYssCAW6SAXxz4BvXb2d9TeOcnXgCtaaWUFZaJpi4GzfGS73X2J90wbWNLbTWr+K2qo6EpE4sXCccCiM4ziETAjH8dqpum4O17pkXa+2eyqTYjI9Qf/oXe4M3+HqwBUGxx+UvKDFsaVV4rzfwODQtbKLdSvWz2uVOxGZTYEuUoHqq+rZ1/kK/aP9PJwaKyu3aktG314RF0hn01y6e5HLdy8Ri8SIhxMkonFikThhJ4wTChE2YUKOtwqXdV2smyPjZkllp5nOTJNKTzOZniLnZme9Bn5t+JLfwmCoS9Tx0oa9Xj90Dc1FFpQCXaQChZwQL7Tv4v7YPT45/TEO4NrykPVD1/o/sxawTKenSWWmGZmkEMbkz7Dj90Iv3ONVrnGMKXRs8+7xRt+z1sSttzXOcRwcY9jf+QrbV+/Ij/xFZCEp0EUqVDgU5v3nP2QyNcl3V77F5jJYwMVrkgKUhHpxKtxisa7BGAs2H/+m+AisP1me/zBgLNZ6J+WKM+blJV4NBte6mHwFu5Dj8NKG/fz2uQ80zS6ySBToIhXKn8L+13v+jsaa5Xx98SCDEw9wXQPGYsv3ygElwW7yt8zsyMcUR/bFr/n+5o/4XSwWxxgwhvqqZezb+Aq/fe59HKORuchiUaCLVDiL5ZVNr9G6bBU/Xj3E6d6TpDNpMMUmKOUR/fSM9dbMS9fpHRNiy6qt7O18ha2rtmlkLrLIFOgiFc5giIQibGrpoq1hDS+uf4lDV77jfN9ZUrlUofiMt45tcV1vGh3yEW9NIfwLm+VtfqNbPqy9Tm75aXrj4BjIuRabPzK3tmk9Bza9zubWLVTFkoRUt11k0SnQ5Zn2qEGkzd9XSWVQjDEkogm2rtrGltat3Hs4wE/XfuTinXP0jwyQs1lc12JMrvjGrcU4eOvmxmJs/r07/tlzAK+kq3G89XUHg+OEqEvW0LFiPXs2vMzmlVvmP8Rn1JEtLAFo4C8yJwW6PNPsHLdKzdVsZClzjOPtZjfQXNvChzv/hne2vcu9sQH6R+9yb2yAgdEBxqZGSefSZHIZMtkMrs1hLeRsDtd1McbgGIewEyYcChOLxEhEEtQnl7GyfhUr61bSumwVDdUNxWn9eeq/XniKGQ1oCt9W1n8SkUWjQJdnWmHT1iMqmGVymXzTkcpJkZmhGo/GWdPYzprl7VhryeaypLIppjNT3vnyTIqsm8V1XXJulqybwzEOISdENBwlGo5SFa0iGasuVJrzXqj0rLt56jD3/40zuSxzFaj1D9I5WpsXmZMCXZ5N+Uyoiia8b2dOr1tv7vnKwGUu3D5HV+uWwlnuStrsVSjm4n8xhkg4QiQcoTpe7f3wcZ9VZlWGnf3en7ZgTKFIjTH0j9zlTO9psrnMjNF5fp3fOsQj8Yr6byCyWBTo8kxrqvU6gHkbvkrObefPXA+ND/Hfv/pv7O30jmElo8l5DXU74+ujr5g/j63fvsj85YF0Js2hq9/x8ak/MZWammP/ggXrEAo5LK9eQcgJqfKcyAwKdHkm+WHQXNvMipomHjy873ULM8URrbXgGJjOTnPwwmdcvHOe17peZ3vbc9Ql6uZlE5i/Lmxmzy+XXBE8ftW58dQ4V/ov883Fg1wbuFqo9+5P45dWu3OMJRKK0ba8XWEuMgcFujyzrLXUJ5exaeUmBscf5A9olezEKp7XKkwH/9ORf+Rs3xl2r9vDc2ueJx6JP9XvkMllHxtNQSvL4gd0Jpvh6sBlDnf/xIXb55lIjXufpWzprIVfyhYwBte1tDW2sXb52qB+zhF5Kgp0eWYZY4hH4jzfvouLdy4yNDFYFihAoWOZPwWfy7lcuH2emw96ONN7ire2/oZ1K9b9omn4nJtjZHL4kR1FLZZwOOL9rhWeYLbkH7Z/9C4HL3zOub5zjE6N5IvQGfwJktLGL8XHWkKhEO/ueJ9krPrXehsiS5oCXZ5pjnHYumob+ztf4ZOTH+E6FuvO7CRGcVMZYK3LxPQkJ3qOcfLGCd7e/g5vbXmHmkRtvp65+asBbK2lb6iX/tH+/KcFv3J6uWQ0OY/v9tfhf9hxcfnu8jf889lPGB4fwQmZQrMXf9NbafNVrMU13iyFC7z33O/oWrm54jYmiiwWBbo88yyWN7e+w1R6kh+uHmIiNVEYUfrruf51XliDxfUW2K3L5+f+wsXbF3hr22/oWtlFTaK2GFJzvZ61pLIpjlz/ien0FI7jzD4Wly/q0pBsWOB3v7Bc6zKVnqT7fjcHz33O5f6LGBxvJJ6DYo340vdf7OUeMg7xSIJ9nft5c+vb3r0Kc5E5GVtJB2xFFlDOzXG05zDfX/6WW4M3vTPoFKqgPoLxh+3EwjG6WrewZ/3LbGjeQHW8xrtkxv9hU5kpvrv8NV+e/4Lx6YdznLj2HhMJR/iPr/8921Zvn7f3uFis9dq3Xrl7iaM9Rzh16wSTqUlKtgHmb838IEPZ+fb25WvZu3E/u9buJhmr/NkKkYWkQBfJs1hc6/Jg7D4nbhzjm0tfMTo1mr/XG43PnBovW+fNf1+dqGF1QxtbWrewsXkTNYlaQsYhlU1ze6iXoz2Hudx/manpiVllTEtjbkVtE3//5j/QUrdywd/7fPGnw++NDfDtpa85deskI5PD5FwXsIWmLrMfSFmQ1yXq2df5Crs7XvSOqYV0TE3kr1Ggi8zgjy4Hxwf588mPONJz2DvShoMlB9aZ45xZcXe8k68sZzAYJ0QsEiHixJjOTJHJV2RzANd6++pLQ91Yg2u8VqS71+3hb/f8G6qiVUt+mtm1Lo5xvKWE7p/4fyf+xHh6rLjJcMbyha9QrMfxvoZMiM2rtvKHXX+kpX6l976tptlFnoQCXWQO/kgz5+Y423uagxe/4NbgTdLZdH69e64pY387fP62v6HLtfluZk5hF3fhstKNd/lndHCIReP8cfff8vKGvU+0ye7XZLFMp6foG+rjs3OfcunORbJuttC9DbzPP8WRufduXCxeXxhDLBSlsWY5b219h51r/wWxcEyb30R+Jm2KE5mDHySO4/B8+07WLG/nxI3jnLhxjFuDN8hZF2v9SPZDuZDS+ENTF5OvVVPaurT0o0D5ITljDTiWtY1r2dTStWTD3B8HZN0stwZvcrj7R07fPMnY9Fh+h3p5v/TypQW/KrvXAKa5voXd6/awu+NFGquXe9ejMBf5uTRCF3kCFovrutwbG+B4z1F+uHqI4cmhsjX0Gc3BntjMsX4sHOffvfrv2d62o9g8Zomx1jI8Ocy3l77m9M0T3Ht4r7BUMatNmv8T658z9+6PRWK80vkauzv20FrfSsgJK8RFnoICXeQJ+UfZXOtye7iPP5/+mNO3TmDy9dysP8I2c+5bn5OBwmg2/yT83cv/llc2vbbkwtyvu46Fn7p/4C9n/sz9h/cLSwiUls4tU6y259u8agu/3/VHL8hNSEEuMg8U6CI/UyGuLRzP74a/M3yb6cwULi7Y8knyueO9OIo1BhwTojpWzbs73ufA5jcee459sXmBbclkM9wauskX5/7Cub6zhSI6j9pTUOxOh3em3InQXNfMa5te58WOl4hFtE4uMp8U6CK/QGnzkInpCS7cOce5vrNcv9fNyOQwruuWXTfXY72Bq6UmXsvGlk72btzHppbNS+qIlr/U0Dt4i6M9Rzh54xjDk8Nl8T33UoM/KgdjHJprm3m+fRcvduyhpX5lWeEeEZkfCnSRp1Bst2qZTE/SP3KXnvvXuTZwlYHRuwxPDpPOpssCMByKUBOvYXn1clY3trG1dTurG1dTE69dEtPs/tS6wTA0PsiP1w5x/MYxBsb6sa59xIyDvzmwuC/QYknGkuxe9yK7O16ifflaHMdZMh9WRIJGgS4yD0pDznVdMrkME6lxRiZGmExPkHNz3jE2EyIRTVCbqKUmVkMkHCUSiiyZqefSAjknb57g0zMfc2f4DpYc3qTDXGNx/3iaiyGEVxjXpWP5ej7c9Qc6VqwnEooUPiSIyMJQoIvMsyedTvZ3hT9uVF4asAu9rm6tJZPLcHfkDp+d+2dO3DheOFLvul6xm9mj8+LZe4PBcRxW1KzglU0HOND1hlenfgntBxAJMgW6yAJ65P9eTzBatdaSdbP0DfWSzqZZ3dC2IFXj/Cn2vqE+Ttw4xuHuHxieGPZ/zeJ1s95CcYrdYllRs4IdbS/w8sa9rKxvXRLLByLPEhWWEVlAPyd8S9euXdflzshtjvUc4XTvKdKZNJ0rN7G/81XWN20oG7n/EqWPH5kc4WjPEY71HKZ/5K7XlMaAtY8o1TpjK1xVrJrtbc+xb8M+2hrbiYajj2lmIyILRSN0kSWgdA19aGKI7y9/w7GeowxNDGKtxcUSwqEqluTVTa/xxta3qYpW/aK1d/8x2VyGs31n+PTMJ/SP9JN1M96HCr8FfMkUe2GdPP9Ym18v72jq4L3nPmBd03rikXjhWhFZfAp0kV+Za10mUxPcHLzBqZsnOdZzhOn0tFf21RhyNodjnbK+4W0Na/j9zj+woaXTGxE/4REwiyWXyzE0OcSnpz7m+I1jZHLpQhMU/5oZD/LkO8U6jkNVtJo3t77F/s7XSMaSheYsIvLrUaCL/Ir8xib/88f/wZneU2RymUKntmIBG1Ps7lbStSwZS/L8mp3s3biftoY2wuHII0fHXpBnuffwPqduHOfQ1e8ZmhgsPOejB9UlXeScEMuqlrF99Q72b3qVVctWP/XUv4jMHwW6yK8sm8tw+PpPHLzwBf0jd3Gt+6hqLUD5jneLpbm2hRfad/LShr001TUXroFiEZvx1DhHun/iWM8Rbg3eLCt8M6cZ/cnDToSd63bxYsdLbGjaSDQcXRLH7ESkSIEusgRk3Sz3x+7x1cWDfH/lm2KY59uOmtJ673h90y35TXTGEHJCtNS18saWt3ixYw8hJ1Q4PnfpzgU+OfMxfUO3Cu1fjQXmPIZGoYodeOvtaxrbef/5D9nQtIF4NLFkO8CJPOsU6CJLQOnU9eW7l/jo5P/l1uBNcjaHdf375jg6ZsE1EMI77+3i8lzbC3zw/IeEHIcvL3zOke7DZHIZHFM8E15otOI/T8kUv2McXOtSX1XPvs5XOdD1BtXx6rJd+CKy9CjQRZYQPzQnpsf54dohjnYf5vZwX/H+OW75rUlLczYR8UbSk+kp735jHz2Fb423TJ+fZ6+rqqOzpYvXul5n3YqOwosoyEWWNgW6yBLjj6KzbpbbQ30cvf4TJ24cLzRF8Y+PeW3M/kont/zfs86Tl0zh+6PzWDhGV+tmXlq/ly2rthEJRwr3i8jSp0AXWaL8NfB0Lk3v4C2+PP8Z52+fJZPNYIxDec+3n/XEs3a1N9c189sdH7CldSvJWDXG0Tq5SKVRoIsscaWFYI5cP8z/PvZPTKcmcf1Ncm55EZjHP5l3rXHAupCIVrF/06u8v+N3RCPRhX0jIrKgFOgiFcIfjw+OP+CL859z9tYpRqZGvE5ujznnVpxeL1ZfT8ar6Wzp5EDXm3Q0rfd2xS+Rjm8i8sso0EUqjMWSyWa4NnCVo9cPc+LGMdJu2ht9l2xwKxZ4K55Jj4ZjbGzpZO+GfXS2dJGMJ8uuEZHKpUAXqUAWi7WWydQkV/ov88X5v9Bz/7p/58zicjiOQ2t9Kwc2v8HWVdtZllymEblIwCjQRSqYX0M9nU1ztvc0h6/9SO9IL/hn1x2H1vqV7O54ie2rd1AVS+o8uUhAKdBFREQCQO2RREREAkCBLiIiEgAKdBERkQBQoIuIiASAAl1ERCQAFOgiIiIBoEAXEREJAAW6iIhIACjQRUREAkCBLiIiEgAKdBERkQBQoIuIiASAAl1ERCQAFOgiIiIBoEAXEREJAAW6iIhIACjQRUREAkCBLiIiEgAKdBERkQBQoIuIiASAAl1ERCQAFOgiIiIBoEAXEREJAAW6iIhIACjQRUREAkCBLiIiEgAKdBERkQBQoIuIiASAAl1ERCQAFOgiIiIBoEAXEREJAAW6iIhIACjQRUREAkCBLiIiEgAKdBERkQBQoIuIiASAAl1ERCQAFOgiIiIBoEAXEREJAAW6iIhIACjQRUREAkCBLiIiEgAKdBERkQBQoIuIiASAAl1ERCQAFOgiIiIBoEAXEREJAAW6iIhIACjQRUREAkCBLiIiEgAKdBERkQBQoIuIiASAAl1ERCQAFOgiIiIBoEAXEREJAAW6iIhIACjQRUREAkCBLiIiEgAKdBERkQBQoIuIiASAAl1ERCQAFOgiIiIBoEAXEREJAAW6iIhIACjQRUREAkCBLiIiEgAKdBERkQBQoIuIiASAAl1ERCQAFOgiIiIBoEAXEREJAAW6iIhIACjQRUREAkCBLiIiEgAKdBERkQBQoIuIiASAAl1ERCQAFOgiIiIBoEAXEREJAAW6iIhIACjQRUREAkCBLiIiEgAKdBERkQBQoIuIiASAAl1ERCQAFOgiIiIBoEAXEREJAAW6iIhIACjQRUREAkCBLiIiEgAKdBERkQBQoIuIiASAAl1ERCQAFOgiIiIBoEAXEREJAAW6iIhIAPx/SSxZsQl2YRkAAAAASUVORK5CYII=;" parent="1" vertex="1">
                    <mxGeometry x="40" y="180" width="80" height="80" as="geometry"/>
                </mxCell>
                <mxCell id="3" value="" style="shape=image;verticalLabelPosition=bottom;labelBackgroundColor=default;verticalAlign=top;aspect=fixed;imageAspect=0;image=data:image/png,iVBORw0KGgoAAAANSUhEUgAAAfQAAAH0CAYAAADL1t+KAAAACXBIWXMAAA7EAAAOxAGVKw4bAAAAO3RFWHRDb21tZW50AHhyOmQ6REFGMkU4anhHN3M6MyxqOjUxNTE0MDMzNzY4NjAzMDY5NTEsdDoyMzEyMDUwM3UgE+cAAATkaVRYdFhNTDpjb20uYWRvYmUueG1wAAAAAAA8eDp4bXBtZXRhIHhtbG5zOng9J2Fkb2JlOm5zOm1ldGEvJz4KICAgICAgICA8cmRmOlJERiB4bWxuczpyZGY9J2h0dHA6Ly93d3cudzMub3JnLzE5OTkvMDIvMjItcmRmLXN5bnRheC1ucyMnPgoKICAgICAgICA8cmRmOkRlc2NyaXB0aW9uIHJkZjphYm91dD0nJwogICAgICAgIHhtbG5zOmRjPSdodHRwOi8vcHVybC5vcmcvZGMvZWxlbWVudHMvMS4xLyc+CiAgICAgICAgPGRjOnRpdGxlPgogICAgICAgIDxyZGY6QWx0PgogICAgICAgIDxyZGY6bGkgeG1sOmxhbmc9J3gtZGVmYXVsdCc+VW50aXRsZWQgZGVzaWduIC0gMjwvcmRmOmxpPgogICAgICAgIDwvcmRmOkFsdD4KICAgICAgICA8L2RjOnRpdGxlPgogICAgICAgIDwvcmRmOkRlc2NyaXB0aW9uPgoKICAgICAgICA8cmRmOkRlc2NyaXB0aW9uIHJkZjphYm91dD0nJwogICAgICAgIHhtbG5zOkF0dHJpYj0naHR0cDovL25zLmF0dHJpYnV0aW9uLmNvbS9hZHMvMS4wLyc+CiAgICAgICAgPEF0dHJpYjpBZHM+CiAgICAgICAgPHJkZjpTZXE+CiAgICAgICAgPHJkZjpsaSByZGY6cGFyc2VUeXBlPSdSZXNvdXJjZSc+CiAgICAgICAgPEF0dHJpYjpDcmVhdGVkPjIwMjMtMTItMDU8L0F0dHJpYjpDcmVhdGVkPgogICAgICAgIDxBdHRyaWI6RXh0SWQ+NGYyZDczM2UtZDMyNS00ZDVjLTg3MzYtMDM2OTNmOWNlNTYxPC9BdHRyaWI6RXh0SWQ+CiAgICAgICAgPEF0dHJpYjpGYklkPjUyNTI2NTkxNDE3OTU4MDwvQXR0cmliOkZiSWQ+CiAgICAgICAgPEF0dHJpYjpUb3VjaFR5cGU+MjwvQXR0cmliOlRvdWNoVHlwZT4KICAgICAgICA8L3JkZjpsaT4KICAgICAgICA8L3JkZjpTZXE+CiAgICAgICAgPC9BdHRyaWI6QWRzPgogICAgICAgIDwvcmRmOkRlc2NyaXB0aW9uPgoKICAgICAgICA8cmRmOkRlc2NyaXB0aW9uIHJkZjphYm91dD0nJwogICAgICAgIHhtbG5zOnBkZj0naHR0cDovL25zLmFkb2JlLmNvbS9wZGYvMS4zLyc+CiAgICAgICAgPHBkZjpBdXRob3I+bmdoxKlhPC9wZGY6QXV0aG9yPgogICAgICAgIDwvcmRmOkRlc2NyaXB0aW9uPgoKICAgICAgICA8cmRmOkRlc2NyaXB0aW9uIHJkZjphYm91dD0nJwogICAgICAgIHhtbG5zOnhtcD0naHR0cDovL25zLmFkb2JlLmNvbS94YXAvMS4wLyc+CiAgICAgICAgPHhtcDpDcmVhdG9yVG9vbD5DYW52YTwveG1wOkNyZWF0b3JUb29sPgogICAgICAgIDwvcmRmOkRlc2NyaXB0aW9uPgogICAgICAgIAogICAgICAgIDwvcmRmOlJERj4KICAgICAgICA8L3g6eG1wbWV0YT4wDPf6AABXjElEQVR4nOzVwQ3AIBDAsNL9dz6G4IGI7Anyy5qZ+QCAp/23AwCAc4YOAAGGDgABhg4AAYYOAAGGDgABhg4AAYYOAAGGDgABhg4AAYYOAAGGDgABhg4AAYYOAAGGDgABhg4AAYYOAAGGDgABhg4AAYYOAAGGDgABhg4AAYYOAAGGDgABhg4AAYYOAAGGDgABhg4AAYYOAAGGDgABhg4AAYYOAAGGDgABhg4AAYYOAAGGDgABhg4AAYYOAAGGDgABhg4AAYYOAAGGDgABhg4AAYYOAAGGDgABhg4AAYYOAAGGDgABhg4AAYYOAAGGDgABhg4AAYYOAAGGDgABhg4AAYYOAAGGDgABhg4AAYYOAAGGDgABhg4AAYYOAAGGDgABhg4AAYYOAAGGDgABhg4AAYYOAAGGDgABhg4AAYYOAAGGDgABhg4AAYYOAAGGDgABhg4AAYYOAAGGDgABhg4AAYYOAAGGDgABhg4AAYYOAAGGDgABhg4AAYYOAAGGDgABhg4AAYYOAAGGDgABhg4AAYYOAAGGDgABhg4AAYYOAAGGDgABhg4AAYYOAAGGDgABhg4AAYYOAAGGDgABhg4AAYYOAAGGDgABhg4AAYYOAAGGDgABhg4AAYYOAAGGDgABhg4AAYYOAAGGDgABhg4AAYYOAAGGDgABhg4AAYYOAAGGDgABhg4AAYYOAAGGDgABhg4AAYYOAAGGDgABhg4AAYYOAAGGDgABhg4AAYYOAAGGDgABhg4AAYYOAAGGDgABhg4AAYYOAAGGDgABhg4AAYYOAAGGDgABhg4AAYYOAAGGDgABhg4AAYYOAAGGDgABhg4AAYYOAAGGDgABhg4AAYYOAAGGDgABhg4AAYYOAAGGDgABhg4AAYYOAAGGDgABhg4AAYYOAAGGDgABhg4AAYYOAAGGDgABGwAA///svdmTXcd95/nJzLPde2uvwr5wp0mRomRRlCxZVrvtaHcoJjo88zAvM/M4/1g/zERMjMeexa2227Yky1pIieJOghsIYkftdz9bLvNwzi0UQZAEQFTVuVX5iShUoQAUzj03T37zt3tB93g8Ho/nEOAF3ePxeDyeQ4AXdI/H4/F4DgFe0D0ej8fjOQR4Qfd4PB6P5xDgBd3j8Xg8nkOAF3SPx+PxeA4BXtA9Ho/H4zkEeEH3eDwej+cQ4AXd4/F4PJ5DgBd0j8fj8XgOAV7QPR6Px+M5BHhB93g8Ho/nEOAF3ePxeDyeQ4AXdI/H4/F4DgHBQV+Ax3PUcYBzoJ2jsI7SOEpbfRT1x+TrvP6wgHWQO0fuqp+xm1BALASBqE7tkRS0pSBWgkAIAgmRlMT196Kd74v9vwGePcc6sDicu73eHLsWjgCBQAoQAiQCIcCvhunCC7rHc8A4wODIjKNXGAaFYVAahqWlVxj6pWWgLf3SsqUtW6VBOygtbFvLlnHYOyR9RggWlaQtBaGE+UByMlIsR5JESTqBZCFSLESSxUixECvagfKCfkgxzlHa6rMFrHVY53CuWjdCCKQQKCkIpSCQDuUqUfdMD17QPZ49ZmId5caRGUumq89j46oP60iNZaQtg9IyLA2jcvfvLUNjGWrLtrZ0jUNbh7bQs9Xv7R3/Z0cKFqQgkZWVPhdIjkWSxUARK0E7EMyFivlQMh8p5kJJEihaoWReSeYCQSeQdJSkFUjagcRr/cFiXSXI2n7eg1Ps8uAUFjLnyOxtc7x0oK3DOHDOVWvSWWo9/4ygKwmBECgBSggiKYglREJUHp2JV2fnsyRWAiW8VX/QCDc5onk8nj2h2nxhM9espyVrmWY11dzIDNczzVph2CosY2MprUO7auPVtRu+tA4DlA5K5yipNndnq69L5z7ncg8QhAJUvcEGohL3yfeUEIS16z2sv1ZKECjBH7VDnm4FnO+EnGuHnG6HnOqERF7RD5TSOlJtGZWGQVl5bHqFoVcYtgvLdmnYqr0469qyXtrJKQBL5WJ3jh0R/8zWLwSi+lSLciXOoYCFULEYSpYmH5FiOVIsxoqlSLEYBywlAbGq1pFfJgeHt9A9nofExIJKjSXVjqG+bVkPtWMz06xnepega67nhvXcsF3ayqKC2ybOzsZYq7LY9bWj+uULjuMah/7Mn7k7vrzz94AQSAlrY81qK+D8uKwEvRNyahyyECrmAsFsKOnUln7gN/CHRmV9Q2Ft7c2pLO6xsYysY6wdaWl2PDf90tSCbtkuqjW0VXtx1kvLmr4t6A9KIGExqAR9cZegL0WTzwGLcSXqs6FkJpB0AkFHSdpK0Aokoaysd79O9h5voXs8DwFHZUFlxnF9VHB9VPLxqOSjUcFabljLDamp3KCZsWS1q31cf6+orfIdPrf5ic9//2s9ue7zvxWV63VOCuaUoKMEHVltyq1Q8UQ74BudkCdnI56YjTmWBHRC6S33h8RYV4e/rUyzUR/8bmWGq7nmUl5Z4cZYtHGVp2a3u91RudwdFM6ROT7jcn9QRJ1cGQlBJKnc7eKzLvhICiIlWY4kx2PFuVbAo+2Qc+2AM+2QxTjYEXbP3uItdI/nAbC1Ozw3jpGu4t09bekWhivDgivDggvDkveHBau1oBv4rJU9YcfXeZ8X8bX2R3HX3zqgZxw9bSshsOx4By61QtZnQtYyw0ZhOdsJORYrFiPFbChpKektsa/AUVnixrJzsBsYy8A4BoVhWFjWs5K1VHMz1VzPNJ9mmo8yzfbEhb4rM32HnfXzBWvra1xvdTiwVAt48geTw8Ltv7gYSU7EikfbAU+2Qx7thJzvaI63wp08jZlA0lZVzN0L/MPHW+gezwNQGEevNKymmo8HOR8PCi6lmiuprlzspaVrLNu6dsGbOs69241+ly8bw50ufQFzSrKsBIuhYj6SnE4CHmsFPD0b8/xCzCMzEZ2g2qw9d8c6qgNgabk+LrgxKnl7VPLWqCQtLaW2ZHXIZuJqHxhLTzty9wVivvsbe3XrP6cSnw/3xFLQUoJZJZlXgtlAMhNU6+VEEnC+HfDsbMQTMxEnWiGLsdqjiz26eAvd47kHJvHNzFhGxtEtDGuZ5sqo4K3tjHd6OR+MSj5Nze14txDsmKvTZo3cxdrrG0u/hEupBgcroeSJdsCtTJPV4YNjSZUo1QkkSSBv/6gjinW3Y+KpcYyMZTs3bOWGS4OCS4Oc3w4KXu4XFNpW8e6dHIq7WNsHtY7udoC443s5kBtHV2uuWnas+JlAcCJWPNEJ2c6rhL5HS8vpdkg7qGLtofQW+8PAW+gezz0wKi2buebTUcnbvZyLoypbfT03bBSGzcKwrS39SSD8bu7PaecOq70lBfNKsBwpTsYB51oBT8+EPDMb8Y3FhMdnIxRH2wWfGcutsebauOT9QcHHo5LNes30S0O/sNwsDbdKi3F3WL1i55c7vjcF7HotoajKJBcCyfFQcjJWnG5VFRTPzUX80UzEsVbASuLty6+Lv4Mez12o6nSrLOPMONYzzdVRwZvbOb/cSHl7kLNZGAbaVa3YJvU+h1m97jikpECqLbcKy7v9gqVA8s3ZkLU0wQpBFEhmlWQ2kDu1zYcdUyer5XWy43ZRWeIf9HJe3s54rVutm63S3I5tTyzxg7TAHza7vAslk7wMzeWRIxKwEirOtgK2shaltjxqIizQUpKWqmriD8ut2E+8he7x3IVxHQf/ZFTwTi/nk2HJtXHJ1VRzNTNslFXWeuHc4bTG75VdVnsiBMfCKjHqbCfksZmIlxZivjMfs5IELB8BC6xbGK4NCz4elrw7Krg01vRyw1Ze9R1YLQypdbdLFOForR/rUFTendlAcjZRnEkCzrdDHumEvLAQ88JCQqdOnjsCZ8CHyuF/wjyee8QBpm7sspUbVjPNa1sZ/7Q64r1+zo3UMLSu6swiJ1bVEd9xdolR5uBqYbiaaV7t5SxGiv6pDm0BTzh2SpcOU6x00nugrFur3hiXvNvNeXkr5Z83U94ZlrvKxnatmUN0D+4LKTDA0DmGheFmpnnd5ZxqKc4mASM9w0KoOJ4EEFczCAIpjsRZ52HgBd3j4XZ71iujkk8HBe8PCi7UMc9LacmmcRS7XeuezzO5LbVYpdbxh27OuLQ8N1dU8dL5mKfnEw5LInyvMNwaVz0H3h0WXB6XrI0119KS1cLeFvC6zv/IWOJfiQDhQAos0LPgCsO/rKdcHmuem414fi7i0ZmI8zORr5y4R7yge440E49xWcfLPx0W/GZtxG+2Ml7eztg2DgLBrp6Yni9j1z3KHLzRz3mvl/PJsOD6MAYheGQmIlZyx8kxbThu51hs5poPezk/3xjz9+tjLo71bYtc7jr8TeML3Ut2HW4s0LeOfuG4lqb86+qIHy8n9JZbGOdYTgKUrHoc+Nv45XhB9xxZHDAsDYPC8lo/5w+9nE8HBVcGBVdTTSqo3Ot+G3kwauvUCLheWFy/oFQjrmWaby8mfHsxoa2ma+jLZMDOx8OCd3sFFwcFl4YFH4/LqvHLZzLTp+iFNQUBBJIrueGX2xk3teO9Ycnz8wkvLMQsxcq3G/4SvKB7jizOwaCw3ExL/ml1xH++OmBYWpy1OCFw1WBoz9ehjpleLww3c83VXPPqVsr/9Mg8T83FxMpVg0AO+jrvkdxYeoXl9a2M/+vagA8HVSfA1Dmc8l6cr02t1Jdzw5VM8+6w5MSm4ienDMeTqr+BDKp57Z7P4wXdc+QorePaqOTKqOBCv/p4tZ+TGovBfbaMyPNQcAIMgoF1uMLy882UAfC9xYTvLSYshJJQNHf+9q205NZY80GdW/FOv+BiqtmyjlyAFX7BPEycEJUHzTooDS9vZ+Q4XlxIeHEx4UwroO37w38OL+ieI0dpHRcHOb9ZG/ObrYzfbGUUoqqXPVS1wE2iPiSNLKTW8PPNlF93M/7ns3M82groqBClBE1tBnpzrHltY8wvNlJ+tp6ybR1lHf+1fr08fOpwTeog05ZXtjNe72ZcOlbSkdXgoMNWMfEw8ILuOfRMBk6NjOXDfsEH/Zw3tjPe6mZcTDVD53BM3Ot+g9hLHNWMD1PXYr/Wy/jfr0l+sJTw0mLCSqwakfxkqQ5+Hw4KPurnvNvLea+b8f6wZNNYcsBnrO89TlTPbu4cuYUPhgX/5daQ1Vzz7YWERzshC5GiFfjYGHhB9xwRDI5eafnNxpj/enPI5bHmaqbJHTgl/ca8X9zRzvTtXs6lUclWYTjXCpkPFUJyoGVtVRZ7deD4w1bK313tc2WsuTIuSYHCx8n3l504jOPTcdVy+fKopDSOAAjrEb8eL+ieQ4x1oK1ls7C8Oyh4s5fz282U94cF29oxsM43hzlgxsYx1obXezl/d3PID/KEby/EHI+Cfc8vs/VM8aG2vDfIeadf8PLGmPeGVQZ717oqVu61Y/+pF0LuINeWj0cl/7aRkhnLQFuenotZjBSd8Gi/OV7QPYcW46rRpVfGBX93Y8B/XRtXM6dLiwafkdwE6njIhX7OrVxzK9cciwOWI4Xa5+x3iyPVVdXDT2+O+JvrAwbaMigtJWCl9+QcKJPn1QlulZZfbKSsZRpjHcrBUwuxF/SDvgCP52Fj6jaca5nm3X7O77YyXu1mXBqVtzvJ+PhncxBUwqkt73RzfrMxBut4bCZkKdr7NDnjHJl2bBWGd3s5b3RzXtlKuTgqd67Pr5cGIeqYurZ8PIaXt7Kq0Y+oBgDNhJL2EXXBe0H3HDq0rRrGfDws+LsbQ36+MWa9sNUf3hHD9Rwwk/fDObBwbVTwjzcGZKXhPwWz+yLo2sJ2Yfh4kPPTm0P+cXXERrlrvfiQTPMQApRg0zhe7uZ0S0usJJ1Acn4m9ILu8Uw72jkK47iVaS70Cl7eSnl1O+PjYend69OAgO3C8l6/YCFUPDMbMx/IPcti1vVo3LVM804349XtjN9vZ3w4qteLr3poNrWlvlZYJPDKdkYgQbs2nUASS0l0xHrAe0H3HBoK4+gWhne7OX93fcDLWxk3C3PQl+W5F2orOHWOtdxwcVjw5nbKjBI8Mx/viaAXtppzf6GX8dObI365mbJamtvtfo+WFkwntaXeta6avVAYYiU5niiW44BINbWzwd7gBd0z9VjnMA5WM817vZxfb6a8sp1xYVjssrQ8jUeAdpXlfCMzvL6d0VaShVixFAcEUjyUcjYz8eSkmre2M363lfJqt14v8giPNp1W6tG91zJNaR3ntjNmQ8m3FhNmQ4k8Qr3fvaB7ph5tIdWGDwYFf3tjyO+2Mm7k5raY+xjoFCFAwaa2vNorEFLy+GzEuXbITKhQD0HRc1PNu3+/n/MPqyN+vZlWnhw/iGd6qQcp9azj37Yy1guDkIJHOxGxguiI7AFe0D1Ty6QD3Hqh+XRY8spWym+3Ui4MCi/m00qdJDdyjlGmmRlWfdNPJgGPzUQkrQffskxt/a9nlZi/spnyu+2MdwbeMj8UCEHm4OK4pFcanpmLeWom4kw75MzXWDfTxNF4lZ5DiXEObeG9QcnfXh/w++2MmxPL3GezTzm3LfVfb6Y4Bz9RkhNfY2MujKVfWi70c/6/GwNe2cq4munPzi33TDcCcJBax++3MrCO/3hqxgu6x9N0+qVlPTO80c34l/UxHw1LwHd/OxTUB7K+drzdywmA5+Zjnp2LiO5zKEfVyhW2S8vFQcGr2xm/2kx5q+8t80OJgNzC+4OcYWF4pBPy0lJCogSJOtwJNYf71XkONR8PCv7u2oBfro3pFoadhjHeMj80lK7qwX8z1Xw6LPh0UNC/z8oFYx25sXw0LPjbm0N+ujq6nWPhl8rhQwgsMNSO1UzzcT/njY0xN8ca6w764vYWb6F7po7MVC1dL/Rz/nl1yPvDkr7e3TjGc1jQzjE0jrVC8+Gg4FwrIFSC5eTet66xcWzkhnd6OT9bH/NWr5qV5uvMDy8WGFuLtfDRoOB3GylKSs52QkQDpvntFV7QPVPHpWHBW9spr2ykXEk1PW3RDvzmfBiprOiucbzcyykkzLcCnp6L7/knXBoV/OvamF9tpGzkZufH+lrzQ4wApEA7eH9cklnHQjvkW8stWkAgD6eoe0H3TA3GOYyFi4Ocn90c8UY/52amGToOt/t0Ekk4ighAwsA43hwUDJ3jT5bbFNahBKgvyZXQ1lFax8VByT/fGvFGL2dbW59jcVQQAi3gUqq5MtL88XKL7cIgIkVHiEO5BLyge6aG9VRzK9W80815u19wLTcUCBDucAjepA7vi753N6tyZ9jMBHE7jeDQ7Fj1e1wP5Lg+Kvigm3GyFXLsS7KXr45LPujl/G5zzOW0pGeqqWmHY7HUTN7/O2PDn1sXX/Rv2XU7dq2dw+S9EAInHZ8OS355a8TzCzHPLSaHsjbdC/pDYPJcWAfOua96jA4tX/a6aw8Ykvs/GU9+7lqqeWcr5e1uzrvDgr51oOShEa7aGN05nwgA5xC7LfQ7X2pdpjPZ0yerzyGwYuePppt6ZCbOUWjLtWHBe9sZgRR3FfTJGejqsOTfbo14tZtxNdX0tatL1Pb9FewZAnd7vbjdjqp63Xz2L99m15qZ/BbhcK5KKHP114fiXtUHlMujkl/eGtJSgqfmYqJDWN3gBf0hkGrLWFtujDVXxwXFYU+lvANX132mX/K6j8cBj7QDjicBi7G65/IRB2TGkmnHW/2c/7I65r1hQQ7TvTlPVGdXYv58IDkfB5yMFPOhYiaUtOpSm0iJagO64/BShSEcuXFk2jLSlqG2bBSG1cKyVRr62pJbdh0KpvS+CRgZxxuDAicls+2QZxc+/9e6uWEz17zXz3m9n3Mp1WSO+rS03xf9kLjTEncQCOgowVwgOREpjkWK2VAyG1aDSWIlCEVV4ifvaE9f2qr9bWEcubWMtWNkLFuF4VZh2CwsQ1MNrwFue3ym8v4JnKDqBth3PL1YNZ4JJMRSHhZ7APCC/lBItWUjM7zTzXhlfcxAH62BINbBtrZVfPILeG4u5kfLLb6xENMOJMm9zkxwkOlq6MpbvZy/vzVi5BxOySndXNgl5q66eVS10HNK8vxMxAuzEefaASfbIYtxwEJUiXs7/PwhqLRQGkevMPQKzVqquTUu+XBY8vYg5xPnyEtLbuyu7nkwdTevvtyRdbw+LLmlHd9Zad31r24Xmov9nHd7Oa/1ctZKW6+XKXvNE3aHXeoxsziHkoK5UHI2Ujw/G/HsTMTpet3MhYrZqJoL3lESKQVi1yOTaseoNAxKy6CoDkCrqebSqOStfsEHtkRrQ6bt7YPztHZerD1VN3PDzbTkpVFJvzDMBNVhR03bs/AleEH/GhhXWUiv93J+vjrmk2HBlXFZbZ5HCAeMrSO1d353guBxYKkVsJIE9zXSUDvHu/2cVzZS3ukXFICbRkthl0XeVoLZQHI6CXisHbIcK2YixfFY8WgScCpRLISVtdUKqo8dC/0OAgGRgEAo2oFgNlQcbwWcnol4ZjFhLdesZ4b13LCWaW7mhqu5ruZ9Nz1W+jmr1O18svC5UIK2jtLBe/2Cf7g54rVezsiBm1bXat0RJxLQUZKlSHImVhyPAxYjxUKkmA8li5HiZKw4ESnmIslsqIiVIFZypwnPnc4dGQhCAS0lmQ8lS7HiZDvk3GzEUwsJq7lhMzds5Jq1TLOaGa4Xmhv5HUmFU3RrXb3eVzPNm1sp2iY8OSdpBVP0Ir4CL+hfg8n87de2c/7zlR5bpcXcJT/lKODE5IGZfINq560f/FwIVlohx1rhfSWjaAfv9HL+5uqA64XGTGPfmDss8k6gOBkpXpyP+YvjbZ6ZiznRDpkNJUGdZzDZgKuXK77Q26nq5IREwRyS40n13xlXTaFLTWWBXRuVvL2d84ftjNRULnlcnWzWRFHfLeZu1+fPJG59ltJV4Zn3+gX/z80ha6WlFGJ6O8HV6yVWgkUleKoV8tJCzDcXYp6YiznVDknqg54UoOp1Ine0VnzGGbP7LigFsVTMhlXexeQW29pIyW3lFVtNNW9vpby5nfFK13FjrCfJMFPr6VnNNG9sZcwEivMzEXf380wnXtAfEOvgQi/nrW7OH7ZTtgtbxZCPau89d8eDbavN6NFOwB/NRrw0H7MSKcJ7LBfR1rGWaa6NSj4aFFzNSgbWYafJ5VeLUEsKWkpyvlVZ5GdaAadaAU92Qp6ZizmVBMxFlVV1v+wOi+8W5rD+00gKEikI6ljqYhJwbi7m41HB1XHJ9VSzWdThkoNwqX5BlnZbCRaVYjGUzAeSuVDSVrXHIpQcawW8sKsW3QGXhwUf9HPe7+f0jaOYtnK/WlVjKWgrwalWyKOtgNNJwImW4mwr5LF2wNk6u38+VgTiwUbKfrYI4s4DnSB2jlAIYilQwFIccGYm4rmFmItjzSejkoGp4uzusz+sudSH3xu54XfdnNMzEd87ZPlOXtAfEOscb3Zz/rdPe1wal1UiXNNdmPtJfdx/qhXyP5zo8OJSwnIk7zmPrXSOK8OC1zZTPhrkrBUWI6bMfVpbWG0lWQkk319M+KsTHR6bCTnRCugEVfJSIL+8nvrroKSgJRSRkiwlAU8vOH6oLdfGmn+9NeQ362MumJLt3AIS7jW34aFR5xHcYYF3AskjseKJdsjjnZBz7YCVVshKErCcKBbjgJk7XKUXBwX/dGPIhX5OAdOXBFe7VlpCsCwl356L+MvjbZ6diznVrg59UX0wU/Wa2auXJ4WgHQgSJViMFE/Nx7xYu+B/enPIT7XleuYYl9VzORUJqrWb63pRhaBeWGodugRmL+j3iXXQLw1bueFWWrKZG5xzrIQSO9WZoA+H2jBnIRIsKcF3FmK+OR9zph2SSPmVt8ZR9d4elpb3BwX/upHyyVhTTourvRYmCZyOFadjxeOdiMc6Id9aiHluPuZYEjAXSoJ9OJxMlqSshSBxlVgmUpAtt5hRglO9ghP9nKu54WphHl4N+xfVSFNZ4G0lWQgES4FkRsnqugJJEgiWQsXpSHEyUZyIA1ZixVxUfcyGVbIX3H4ee4Xhw0HBm72cG7lB77z6hrPr3pxLAh5NKkv8bDvk2bmIb9XPzsIDenAelN3rJpCChMpzMBdKfrDSJlSSj/oFHw1yruWGG4WpPSLNv+dVIqllq9DcHGs6qqoM2I/nca/xgn6fWOfYyDSf9As2M4PDMRtI5sKp2D72nNJVJTFPdUKemammHD0+F7EUB4T38LA7B4V19EvLu4OCn22kjGE6Dkq7ApESeKIV8KOlhG8vtfj2UouFSNEJqlIidUCbhxQQisrqenG5xWOzEY/NZDzSCviXjTFX0xLkQ7DUd+LefDZDu34fZ6TkZCh5qhPydKcSsFPtkOVEsRRX3otIQCirsEEgxI4nY7c3w+HYzDSXBpW7/cKwZOgcZirWC59pJPRkJ+Qnx1p8Yz7hibmIpUhV90GKPfPg3CsCiJUklIKXlls8Ox/z5lbK65uKX29lbBamsnanwVKv6ZeWq6OC+VAQq8gL+lFECEiUZCFWPDcfI+qElEOUKPm10K5KFjyXVHXnT8zGzIfqnps45NZyZVTybi/nk1HJxqRsZkoetlAIHp8NebJdJTB9dzHhybmYRzthYzYMQSWU85GipSTWOmIpGFjHyDhu5Ibrhfny2OjnrG6380kCiazctXNKMKsk7UDsxMCTULIcSlZCxblWwPlWwLG4cqXP11b4va4X7eDDYcnP18a8N6y6welJeV5TcVVDmJYUtKTkfDvkXDvk+4sJ31uMeaQTcaod7qtFfi/I2mJfqDPsC+OqBNc6g/PiuORabkh3JcM2kjpE0Cstnw4LjsWKE63woK/qoeAF/T6RQrCSVG6/M52QHxxvA1NzKN1zJkZHogSt2q0a3ccM4lQ7LnQz/m1tzNVxOR2W+S4SJfiTpRb//akO59oh5zsh7UAemEX+VQRScKodMhNKtHPMSPjFZsbNVGOq1OnPczdX+i5rUwmYlZJjkeLxVsCjrao2+lQrYKUVcKwV0FKV279VC/+kvCq8T2tUW8fbg4K/uTWkW9opscyrLm5zgeBEpPgPx9r8x1MznE4CjsWKtrq/ee8HxalWwHwk6YSSE3HALzbGdNdT0tI221KvD6q90vLJsORsO+SPDkks3Qv6fSKoLPREwXy07xlEhxbroLBVp6oPhwWvdTNu5WZqRlwmSvB4O+KZTsSfrbR4cbHFXCQbv0akgHbt1n16LiYSgr5xrGea1dKyYapSzJ23YLLviToTvY5/TyzyRAlmlGQpUqxEinOJ4mwScCyphHwpViwlwQNnZ08wrmqmcyPVfDoquDTSt5ufNHW9uOp8NBdIFpXg2bmIZ2Zj/nSlxXcWEtp1o5OGXv3nmPRIeGIWWlIyNJa1zPDhqGRd2wZb6gKkY1NbLoxKHssMuRd0j+fhoZ2jX1hWU83Ho5ILw5IRNHRDqNkZmlIlC/2H423++tQM51qV+3garKwJSghOtipLvact1jp+183pdXOMqys4JjFxASjBQqh4vhPwWCtkJVYcSwKOtwKW44CZQNIJKpdyS4mq0YkURHU70q/7tpbWcXlY8vZ2xs1xuavnQYMtQ+cIBJyLA55th/zZiQ5/dqLNsTigE4g9zVrfSyYJewNtKbSlowQvd/PaUqd5z3BdjbShLem45Bu5JvOC7vE8PHLjuD4u+aCfc3VcdzJTzY+dt5XkfCfkubmIHy23+f5Si7BO5pomhIBO3Znu2fkYSdWRLzN1j/46mS6SgkAJVCA5kyieb1e10itxwEqiONYKWYwVsdw7t7EDMuP4eFjwm82Uq2Pd7M5lrg5DKMlKKHlhLuJPFlu8tJTwzYWkkZd8P1Rd6RSPzYYY2yK1jutZJZJjqCfcNY+xcYyNZbOwjLSjsI5AiKZvOV+KF3RPIxhpywf9nFc309rV3mBLa4IQLCeK/+5kh5+c6PB4JySSVae3aUUIOF3H1ONAcjxWO+7IubpF6EyoaIWK2aAqO+uoahBIUn+OpUDukVU26YI3to4Lw5KfbaZsTZriNPW+O0csBI8kim90Qn58rM2Pj3dYTg5TF3FYjgPCRcG2tlwaleTWcaWw9CZzBJpG3Sei0FU3xbG2dAK5Z2t3P/CC7jlQXJ0V3y8NHw8L3urlVVvSJm/QVPHjk0nAtxdifrzS5s9WWii+Xly4CQiq3JD5SCEQzAcSXQv6fKQ4lihmQ0UrOJi6XeMcg7IKzXw6LvloVDa6CkICkahq7Z+ZifjhcsIfL7b4o/n4K//ttNEOqv4AT83GfGexZGxhu5vR0/VfaOJb5KAwlm5RDaqJlSBs5IXeG17QPQeKdo6RtqznhktjzcVxycBBI2Ohu2qGT8Yhf31yhr843uYbsxEBXz8u3DQWY0UoY2z9uidWeLiHFvhXURjHtWHBhW7OZqa/+h8cJA5CAUuh5LF2wPdXWvz7kx2OJ4d72z3ZCvjR8Q45gg/HJdcy07xneYKowjdbuaZXGBYidQDdEh8eh3Zl3dGzwfNAOL4qV6SqEvri4SFfRWEdW5nhRt1X/FbR0Nh5nRDWkoKFSPLcbMSfr7T4i5V25WZv2OU+DDpB1b2tSWTGcWlU8vp2ymqmmysUdWlfoiSPtgP+eCHhW4sJzy0kB31le85iHZZZLQznNwKupZqRdeQN7a2fW8d2bhgUZscbNa0cSkGftA810/3eHDjWOUrrdiy0OxGAkhIlK0vkQVywY235ZJDzfi+n2+T61TredioJ+PPjbX600uKpmZBITXfMfNoYW8dbw5Kfbedczw3N9ORMfqmasPzwWJufnOjw5Gx0wBe2P0gEoXScjAO+t5BQGsvbw5IbDX2/cmPpF4ZhadFTbgUeKkG3DlJjSY1lrB1jfbTmkj9sJuNhzRcscimgrRTtULIQPljN9UhbLg4LLvRytrTZKSlpGtXkKXi0FfDvllv8eKXNcl1P7dl7PpNrMS55bVDUpWrQqPVSuwZDIeiEVRe4l5Zb/OhY+8Dbt+4X1XRVwfFY8Z2FmJE2XM+qngGVO7tB90FUXsIqhu4t9EaRGct73YwL3ZxLqebKuMEuuSnAOld/3P3PQyk4kwScawW8uNzixeX7nyw80I4Lo5LXB0XV5rVpnb7qDXoplDzdivjuQsxjnbo0a9oz4KaIwjq2c83NUckoNzDJnG7aeqmnxy3HkpcWYn640uLxVoCa8nKoB2Eukjw9H3OrMMxtZp/tY9AE6sNgZh1bpaWnLXq69fxwCPrk9N4rDO9s5/zLrSFv9gveGRYHfWmHk3rRt5Tg+dmIb8/HnG4FcB+CXk1lc3S14eOx5v1xudMTulm4WtAV356PeXEh4XwnbHwHuMNGYavudddGJYPCVAtINU3MbzerOxYqfrCY8JcrLc63gqmvfngQZgJFMit5PDMsRopYgAbMQV/YDlW3pMw6tgpDr7SU3kI/eDJjuT4q+bCf81o3481+wWpp4T56iHvuE+cIlOBMO+SbC/F9Z+6m2rKeaa4OS0ZNDY1Mnm0pWGoFvLCc8M2lpMqE9ewrmbF8Oip5v5+zVZrGZiHGUrAQSM61Ax6ZCTnbieiER3O9CAHKVaWPT3dCrs1EXCsNm9o16iCWWtgoLV3tY+gHjgPGxnJpWPCHzZQ3trPKMleSI3ks3g8cYKskuNPtgOfrGd/3w9hYro1Krg4LRmVzzuw7TOaaC4FSsNIKeG6xxbMHkKU8qdhwdxssfkQY6Woy1oV+zla5y93eMBIpOBErzrfDnalpR5W6QzDz9ZjcGzMhw4Fjs9Q0KTkus64WdEc55Y/YVAt6aR2D0vDpoOTlrZRfbKRcyeo2kM5BQw2/qadWGEU1hOPsTHTfLuiRtlwdl1welwxNE4c4VNPEziRVQ5Dvz0Ushfvr8alHq1PW8eNeXVZzFKs3ro5L3h4UfJBqthuca7GcKL631OKHKy1OHPJ683ulpQRn2gHnOyHvp7qOozcgmD6JoTvHlnH0jPWCfpAUdf3gpWHBy1sZP99MP/ugT3k8pNFYhwIW44BzM9F9z4Mf14J+ZVQy3HG5N2iHrkuPTkeKP19M+JP5eN8FHcDiyKzlVqq5OiwojKMwR++keiXTlaCPNa5pYg6VAWEcK4Hie4sJP1xucyw5mq72O2kpyel2yPmOZnY7o1GZcQIyV4V0etZ5l/tB4lyV7NpSghcXElqNTKo6fEhRuRaPxQHfnI8JxP3XYg+N45NU83Gq6U8s9Ca9dQJwgvk44Mn5mEdmItr71GRl0kdhvTC8vJXxZjdjK9N0c3P0+ivUa6KrLddz00wxpxqfOxtITiWKE62gHlDjc3gAIiVYjqsBPomSlee0HozXCCbe3EPwYE21oEPV27mtBN9diHnuiDRuOGgCWTXMWIoVp9vhA9ViD43jUqq5mGpMIzdpAcIxHymemIt5ZDbat3an1kHp4FZm+H9vDPmb6wOcqUaaHrkDqwCEwFJlSDdvnVS0pOB4pDjdCjiRBCxE6si9VV9EJAWLsWIlCUikuF2+1hQmE3+sa9Z1PQBTLehhvVACKdCHwF0yLSghdgYxdO7TDV1YR6qrYQiptlUjhyY1m6hjoccixalI8VQ7YC6Q+9oUZKQNFwcFf9jKuDoqGJaWnZ2mQd7KfWFX17VGvu76+hYCxTdmI56djVgIZVOT8A8EKaoZAK1AoibJyk1yXuysselnqgU9UoKVJGAp8X3b95tJdON+Xe25sWzlhm6uKYxrXrMJV9Wdnwgk352NeKYT0tnnaolBaXl3O+OV9TG3xhqYhCQaKmpHmspduxhKnp+N+MZszPwRLVP7IpQAqQSxEqhANLe98yFgqgVd8GD9wz0HR2YcG5lmMzcU1jbzwXawEEqenA050wqruN8+MOmdv5kb3h8UvN0v2CzNbSFv4r066tQenRklOT8TcbYT0r7fDNEjgKDyqM5KwbyqMsvzSSz9oKmvofK8V50xp/Xs3CTHh+cIkGnLelqykWly65opVM4xF0oe7UScagXE+3RoNK5quLORaz4clbw7LNjUtqEd9Dw7uGoW+Ol2yKnO/h0Ap40QmFeS5UCSICbNFZpBHdo3gJnijg9TbaF7po/MONZyw0ZuqhN649QcQNAJJCfbIUtJQLhPgj4qqwZJH/RybmaaoXXePdlkHLSlYC6QnIwVC5GkpaTvZ/UFSAGxrCpkmniPHM3L17tfvKB79pXUOtZrQc+aOC0LQEArVBxrBSxGat/COr3S8F43583tnM3SW+aNpk6kmgsUj8eK80nATC3m/h27OwIIhCAUvonnXuEF3bOvDI3lcqa5WmjGDaz7jKWgpSqrqxNIon3YeSaDarYLy4VBwbuDnO2yofkFnprKXTyrBOdaAacSRUsJ/5Z9BYK6DX8DQ22TwTqSxl3aPeMF3bOv9I3jYm64lBvGDezkNxMIjgeSxVDed/e7B8U6R24dG4Xhg2HJhWHJCLx13nSco6OqEcLHY7VvuRaHg4Z5n9zt3vNKTO/BzAt6A5j07DbOMSotI20n/TQahaSqKghlVVf6IPPAC+vYLi3dsm5f2rCT+qySnI4VS6F8oIY5D8LYOFbTksujkuuZvp0I5wWiudTB1raSnGwFHIv3L3lyWjHA2DmG1lE2sM64stCnV8zBC3ozqAdwjOuJUleGBZLmxZlCWSWLzUeKU+2QWD3A8qn6mlYnmCbFiOuY6KwSnI0DlvfRQu/mmve2My50M3q7DzqeZuOqttPHWwHLSbAv4ZlppnSwqS23SltVuLgGNQxqwjU8BLygN4DSOW6kJVdGmg96GR/18x3XT2NwVb/qY7HiTDukFUiW72OaVNUu2WGsw1ma18+5jom2pGAlkvvSHW4yFnWrMLzby3mvn9ObTBLzTAGOREkWY8XcPiZPTiOOap8bGcfATMS8QUxr4fkdeEFvAGNt+f1mxr+sjrg2LrmWlgghmrPG6mdvRgkea4c8py2nOiFP3MeP0M5R2OrDNu1hhh11Deu2trESe+7xnoxGXSssbw4K3hkUbBtfqjZNBFLQCVTV1tQfxO7KpFW6seBs3TN9Ut1ykLdsd8vXSYhryt9CL+gHyM6s68LwTi/n52sjtkrL1iTDuSmLq44XLgYC4eBYpBjr+xNl6yA3jsK45k61dRCIatxjJPc+lpYbS6+w3EhLPhmXXM2Nj51PGYGAViBJVDNrq5vAZJ8rrasGDE3CbQ3pvxNIQSAEkZr+Hvxe0A+Q0jrWspJLg4Lracl6Ycgct4PnTVlctaArVZVyzYfyvhOATN3WtHTN7sIUSEGiRCXoe3z/u4Xhw27OJ/2C0eSA1JT33HNPKHF7vdzvXIOjgnGOTFvG2qIn8xuagACcoC0Fi4FkORCEU+5l8YJ+gOTWcmVU8nYv48q4rBKilICmzVEW1ROoBMwEkoXw/jPcrasy3LV12EmNSAMJhCCpM/n3eoPeyg3v9jI+7OcMd2LnDb0xnrtQhWXCer147o62jmFpGRSGsmkjSkWV2HgirFrSRlP+NnpBP0AG2vFKN+fvb425OCyrb1qossYahoMghNlAshipaq7xfTAZPFJa17h8mN1IAZHan5K1tcLwSi/njWFB17jp7mhxFGlibWkDKYxjIytZS0tSYxvjagfAORIhWA4l84H0Frrnwcms49JY886gAFvN4G4yxyLFiURxLAloBff3VFqgtBbdcJe7EoJACtQeutyNcxgLt3LDW/2CD0a6WSV8Hs9DJLeW9UyzmtbdIZviiKpDiS0Jy6FiIZBTX6ngBf0AWYok/+lUhyc6YbMmD30Bs4Hk8U7I+XbAYnx/hw9X58K4Blas7Dfd3HBzXHJ1WJA1sP2t5x6Z9kke+0RqHNdTzZVxydA0qSyz2nMTKViOqtygsCmX9oB4QT9AFkPFX53o8FcnOgd9KXuOw+30LG8y1R69t16E7cLwYS/nyrCoXJCe6WPSRKA+iNctUjx3YVwL+uWxZrhTHdOAu1W/h5WgK+bD6e8l0KRohsdz4JTWMS4tubF7Vl63nhve6BV8NCoZTVyQnqlEO8dYGzJtMQ0/rO43k/rzgbZcTjWXUk1/YqE3aM3HUrAQK+ai/Wv3vFd4C93j2cWkBW9uHG6PNui1wvBGP+fDUVkNqGlKTNFz3+h6vWTaEkjla9F34er5FENjuZJVgl5V8TToJjlHLAWLkWL2EFjoXtA9+4KoS3xkU0/AdcZyYR390pJqy8N2ho+1ZVhaVlPNaqbplZbKA9nQe+L5Sgrr6BeWobYkgfTla7sYacNqqrkyKOqyzIO+oruTBJKlJGAhUlP//nmXu2dfEOL24byZml65AQvrGGhLugcd7UbaspqW3Eo1a5mhpy1lg2vyPV9C7VUprKNXGoZlVcHhuc2wtFwZFFweFox0w7pf7iJR1VyK+VgRTrkiTvnle6YFCYSyilE18JneoVfH+9YL89BHPI5Ky61Us5Ubip3yvSbfDc+XIgSpcWxk1XtaNran8cGwXhh+28t5uZezXk6mMTWEOrt9KVQshJJ2MGn33KBrfAC8y92zL0hRddMK9qGl6tehpy2XUs1qYR/6Bj3Ulpvjku1Co6GprgrPfZAax3pm2Mo1hYkO+nIaxVph+VU341fdnHwn+bMBa77Obm+pqjvcQqhoq3pvOuhr+5p4QffsC7tbZEpEM+t3BYyMYzU3bJWGsak62z2sB72lBEtxwGxYJ09VM2XrntIP4T94WEj8YeOrqHMu+tpycVxyLgt53lvoQOVq7+aaK8OCjcxU7nZoUHZ7VWe4EEiebAecSRTxIRBz8ILu2SeUEERNPgXX1kNqHYW2bBfVRlRYhxQPZ5LWbKg4NxOy0g0IEPUYyVoEGqUFEprdtLABCBCOrrF8NCp5bNIFzUO/MHzcz7k8KBgXpjq0NqmtcT02dTmQPNMJOZsE9z1sqql4QffsC0pU9Z6R3Ps5418HQ1U72y8tt8YlK5HiWCJQD0HR24HkeBLwrcWEvy4Nq5lGu2aMk60MzuqwdTM33Mg1Pe3om4ef7X9oEFXTlNXccDMzbOZVclxSH1yPGtaBxXEj07y8lfF6L2d7J7u9YffDwXwoeWwm4mQrIDok75cXdM++oKQgFhNBb/jDI2BQGq4MC45FivlQkqivb7K2AkEoA/70WItn52OGpalGSjag7a8QEEiJFIJ/Wxvxb2sjLmaGkd27BjtTTS1SuXNslY61XLOWabqFYSme/nrmB8E6R2HhSqr5+WbG672MvnUNcrXX1DH0uVByfibiuBd0j+f+EFRWupICIUWzXHC7qUtrbhWG33dz2pHi9EzE3EP40UoIlILjKuB4Uk2hyozFNEAxHZBbR2qqVpjjOtxw8FfWbEzdPGWzMHw0yDkeKyIV077P4UWHgbXccGlY8EY345NxWWW2N1HM6/yHdqQ40Q5YjA7PAcwLumd/mSj75AFyrnkJWEJwJTMMtjM6ScBLK5bTe/DfBFLQFrIRoqmtozcuuTEu+WRUcGFUMnBVCMLzJYjqcLpVWN7azlkIJKdaAceTo7e1fjoq+OmNIS9vZ2yXDVw5k/779R6UhLJKUo0Uqml70ANy9Fad50CJZTV7eCmUDLWjmFinjXmeqmSnvrH0x5Yr45LVVHM6VrQeciewJnTOc1SxT4Pj0rjkdxsp7w9LNrTFiIa16WwqAnrG8uGw4His+Oai5nQ7JJZHI5beLwzbheHdbs7vt1M+Gu6aUdCol1/tNcuhYiVWnG8FzIby0LjbwTeW8ewzc0rwZKJ4PA6YaWLj69odN5ksMcgNl4cF18cl2WGcjOaq/vX90vJqN+f/uDHknWGBbW5Lv2ZRr5ehcXyaaj4alVwdaTYzfWRG414fl/x2bcxrWymXxprN0lJC89ZPbaE/0Qr4yXKLF2YiWodIzMFb6J59ZkZJzsUBZ2LFrcKwddAX9BVs5Jo3uhkzgWQ2UsyEqllGx9ekdI7raclHg4I3ezlv9PPajXyYXuXek1tHbitRf72XMxdLXlgQzEx7L9EvYaQto9LyQT/ntxtj3unlrOWmHjjUsNj5BAdnk4AfLCY81QmJm2hUfA28oHv2lUQJjseKY5EinljCooHTpOvY6NXC8k8bKU4KHp2rSlykEIfGtTXWlt9vZvzTrRHv9YtayBv2XkwDtYDdLA3/uDFm4BwLccC5dnjQV7Zn3BqXfNTPeWUj5TdbGVdzQwbNFfOaxVjx5ELMiXY49cNY7sQLumdfSaTgWBKwHCtiCbfTThtG7UrdKi1bhWE5DvjeoGAlUixHis6UZzGX1tEtDZeGJb/fSvnlxpjNyaxqz4Mhoast3UGBkoKXFhOeaIfM1b3CDwOO6hA40pVl/ruNlNe6OR+MSgbWgZKNfJxx0FGCTp20eKYTsRAdvnG3XtA9+0qiJEuxYilWVTKKo7Gavpsbacl/uzkkLS0/Pt7myZnp7tvdLy2/Wh/z6/WUV7cz1ovaumoidWevRh82BODqHr7WsZVpfrs2IraO7660+KO5+KCv8KHgHFweFlzo5ry8mfKbzZRruSET1KMUD/oK74JzCAePxCHPdkKebIckdYOrJl7u18ELumdfiZVgOQ5YjKeomYOoamx/u5EiHJxrBRyLqqz3qXkNVLpYWsdIWz4ZFfx2I+W/3Rpyq7D0JtZ5w16PoOpCKxAYaHbXuomoO0evMLyxlSGtYz5SHE8CWkqSTKFJOKmESLVloC3vdXN+vTbi992cP/Rycqgs86Y6IRwI6zifBPyw9prE8vCEzXbjBd2zr0RKspAo5iNFpOpHqsl7XL1JZ9axXho+GBT8am2MsY7nFhLOdaYjRjrZlNdzwysbY17ZSvn9dsbNwjKyrpmxcwehgLlAoBD0rSW1U2CpS0gdXC0MwaBgcf32enlybro8Oztibixvbme8uZ3yejfn9W7OrcKgJwfABr8l1BV0p9sBLx5rc24mJGjy9X4NvKB79pVICuYixUKsdmYQa0TjLa/cOfISPhmXvLKZIpxjJpQsRopYicYm11QbcpWBPdSOj4cFv1gf84u1MTdzw0ZpGmmZT0qMEik5GVXTsK5kkJq6YUnDLvczCEHuYLWwFLYkFilaVz3eT7QCIiXq2dvNxQHGOkrnGBnHRm74w1bKP90c8tFY82Fa4pq4bu5AAJGEFoKznZDnFxNmAolq+HU/KF7QPfuKEKCcYFZJHkkUjyYBq9rS25mX3FQESMfQOj4alzgBRgg2MsMLiwmPzzbT8ipM5WL/eFTw662MP3QzPuhV1tVop7yoiTfegXOshJIfr7RYiBT/uDZmvdfADmR3Y5elfinT1YFVCbYLw/OLCc/Mx0iaO6ioNI7NXHMjLXm1m/N6r+CTYcGlsa4HrjR13ezCOQLgqXbIM52QpzvRzuCchl/5A+MF3bOvTDq/zgWCR5OAy62A0aikp+vB4E190uphHEMLw8ywXVr6haWXazqh5GS7cuMFQjSiase6yjIfastaqnmzm/N/Xh/w262symxyNNMyr5H1x4lY8afLLU61At4flrzVLzCi4bH0CUKQObiSGzbqcbwbqUZKwelOlZhVxXJFI7Rx4l6v1o3h+rjkre2M//vmiH9YH9/+iw1eN5/BQSDgyU7IX660eHomJFEPZxRyU/GC7jkQOoHk0ZmIq6nmSm4gN82sR7+T2vLKgGuFwfZyumLAHwYF312IeWE2phPKAytrs1Sb8kamuTos+GhY8F6/4K1BwbVRWYn55ODUxFtdu9oXA8mjnYAX52POtEKWYsU3ZkKuz4Zczg23CtvM67+T+hpLBDdLix0WjG4OeXNU8p25mBfnY+ajKqfkIDVSW0dmHBu55pNBwcV67Xw4LPl4VH7WGm/6fd+pigClJOdmIr57rM2pdsjhtc0rvKB7DoROIHm0E3I9jXitXzAVtWsThCB1cC03XMs1vxsUnNoI+F/Pz3EqVAgRHJigu3r611qmeWMz5VcbKf+6lXI503VZUYPFHJi42hcDybdmI16cjzndDpgNJM/NhGyOIzKbcys3NNqjsxshKKmaztwsDG+MNMnqmP/lzAzHlOD8TMRcdLDjB7WDobZcHZX8am3MbzfGXBiV1bpRcjos8h1qD5QUqEBwdibkuyvtg76ofcELuudAaAeSs52Qc1nlsp46aku9qj2GYWn51UbKqDA81g55rBNypl19tIOqschebImT8Z0bmWYt1Xyaai6OSy6PSq4OCy6PS3rWgZS3+9Q3dW+e9CRAsBArvrmU8MJSi6VIoaTgXCfiqTnDe2MNtqhH8Db1xdwNUXuhKov4jW6OMK56Dtoh51oB59oBy3HAfKT2NNEyM5ZhaVnPNNfHmuup5lqmuTwu+WRYcDU3n10300K9htpS8MJ8zHcWE745ezh6ANwLXtA9B0I7kLQ6EeczM71d1ybi6Fwl6Ospr2+mPD8b8c3ZiO+ttAhF1RmvpeSeaI+pM9hvjDXvbqf8civlZ5sZq7nBWoehSt5rfOBwMtoSQMBCrHh+KeGFpQQpBLm1nO2EbJeWxc30duhgmqjzMHAObeGNbs473YyzScDZVsD3lxL+dLnFk3OVB2svBT3V1SHwQjfnd5spb/Vy3h8V3CwsFuo8hSlYN3fDOtpK8IOFmP/xzAznOs1MWN0LvKB7DoSJsTgXSp7phFyeibhRGDZL22wr8q4InHCUwLBOgtIUbBnH+8OSmUgxEylOxYozkWK+jrEnShLWJW+hFJ9LqHOuGp5SWkdhqlGzmbakxrJRGDYKS7e0dEvDrVRzY1zy0bhko7SkE3GcGipX+5kk4JnZiH+33OJUEuyMHw2FYD5SnGgFnEwCTsSKoYPRtL1MYGKpaypX97q2lJmBbs56bji+nbGcBByLAo5HVWnkZM3EShIrsTOatVov1T2qQsdup4HQJC4+scYHpWW1qNz+W7mhXxhuppU353pm2NCObOecNG3PIOAgkXAqCni6HfLMbMS5ziSccTTwgu45UGaV4BszIevjiLKXs1mY2xvKtLBrAzTA/8/emfa4dZ0H+DnbXXi5z26NtUWStUWWN0mO07RAW6Boi6Jo0T/Qv9hvBYK0HwI0aBbHjpPajZvEsiRby2ycIXnX0w/ncsQZybYsaxnOnAcYDC95h0NevPe8593v5BV384qPtnMMILVAKsmbrYAftEJONDTLDedWTYzrC59oSaCcUp8sP6WFYVkxLCq285JBVrGWFjxIC367nfO7QcatccHtcUlaOQWRAxnM3qbIAhW8Gmr+dqHBu/MNlgO1+7KSgrZxHddWYs1KqLmTu57iM8e0wrSCgYVhXnJvo+RX62OUFCgpOB1rrjQDzjYDTiSGpVjvJtC1jSTWEikEonbjT5wcVWUZlRXDwrKRFaynJbeHObeGOe8PMv57K2Mtqz041slMUf/MpEW+iyUSkrOJ4Xon5LXWw2FKRwWv0D0vlaZRnG2HrOUVvx8VsJPPVH7cfiyQW8iprZ3KQuVq2D8hg6Lik6GiG7jGOpEUu1aX2VfCVFlnmadTlvl24aytSULeelaxnpd1GVetJGYpganOSO4owXyouNAynG+HHE/MnoEmE49OoiVnmwHv9CL+ezPly7ScwVj6FOJhZUJe2VojuxtAUFBZ+CIr+Z+dnE4gaSiXjxFrSShd+dj0V7eVxVpIy4qsbvO7U1Ss11b5H8cFt8YlO2W1r+JhxjaA+1BALCUroeJKN+LdhZhXk2DXw3NU8Ard81JpasnZdsh2afnPB6N6gZ9xpj0MSjAZ2HFrXPIgLTHS1cJOaq2dDhaPOiYm6zu2/u08ACUPLfGislRyyqU4c+uXuzb9QHExMVxuhZxuBSzEGv0YJR0rwYVWQFZU3B4XvF/WSkk9+s4zhxS7SZYA66VlZ5jzv6MCI1IUD2VGiropzaRyYUJlsdbuthooraXCWd+ldR0Px3bf/5o5mXkUIwQdJViNNFd7Ee8uJkTq6LjaJ3iF7nmp6LoV7EqsOZMYziWae4VlvTzgjWaehN1guIuZptaSulV28sK338BMtP60VTrL1whACJZjw/X5Blf7EfOTSXyPwUjBcqzZKQJeiQ0dLUiFOLiT4r4tU187Z8pqh72Jg5Nz9yRdfMU5e/oOTJ0/63IzwULLCF5vh/ygH3G2FdAJDsMO79vjFbrnpSIFhFI4C60VcHcY8stBxvpO7Uo9DKvOnpgpU19peiX+Vm92KC4LsKuQVpqGHy4nfL8d0vqaMkYjBP1Qk1lYiTULoWatqhiXh8G18xjEfrmZHEwes1dBP3IZxGMfHhqmGhG9Nx/zt8sJxxqzMTDpeeAVuuelMjEyWkZyvh0yyCtuZRW/257tWPpX8tjvc9i+5BNQL8THGppTiYuJn0pcR7ivQwgIlMt4P9cKuDEX8cEgY22QzXwc+GsRX3nwmPMO60WYopaftpasRpq3uhFXOiGnEkM0q2WwzwCv0D0HgoaWnOuElELwX5vpy/44nudNnfx1KQn459UWb3Yjet/CTRrVjUMUMKoGfLCROo/OTGdpe56YWn4WteQv5xr8aCHmXCugYRRqVhMknwFeoXsOBEY6V+qJxHK+FXCpFfBlVj0c73l079HDRW1ZLQWKZSN5pxtyoxdxPDHE3yIjWUs41jBoIfjNZsqpSLFRwUZlJ83mPIeRuiqiqQQLgeJK23l3rnYjFiJ9YMcYvyi8QvccCAT1FDYjeacbkeUV//lgxP21wmUwH+Fd96HCjfPiQmL468UGb/fdJLVEy29lWUkhaGqJjTUXWgE/7Md8uJ2xtZNTgpeXQ4uF0rIYKH7Qi3h3LuZSN2SpoY9kVvt+vEL3HBgE0FCC11oBWMudccHHWykjBKOX/eE8343asuprSU8J3uiE/Gi+wcmmeaq+5QIXS28LyblWwM5CzAj4w6hgVDdLOaRpckcXa2kIQTeUnG8GXO9HvN133p2WOZpZ7fvxCt1zoDBSsBRrLHC+lfLJluHzrOJmPkPTtTyPYi2ispxraa53I27MxZxsBfRC9dh68ydFCcHJVkArUNzOKj7cSrmXV2zWfew9h4Tas7MUK662A270Y96ciznVCmnO4nCn54RX6J4DhRKuLl0KwYVOyJ1hQbWVcjObkXnpnr24sdQkUtBSgsutgL9YiHmtE7IY66+sN39SpICFSDMfaS52Qq5shvxuJ2d7lDNpZeCZcSzEUtBUgrOJ4UY/5p1+zJlWyELsVdg0/mp4DiSBElzqRoRKsvY5/Gwrcy9Mt6v0HHysRVs4nRguNg3X+jGX+zFz4eM7wX0XLrUDxKst/u3ODn8a5mTW+lj6rFM31lmJNJebAdfmIq7PNzjTCr62X8FRxSt0z4HESMHJZsB8pPnVdsbxtRFbecVmVmK9pX7wsa6KLBLQVoILTcOfzcVc6UacagXPvLRIACcTw2Ko+HxU8Kv1MZ+nJQPrBpB4cZlBrCtPbCA40zDc6Edc67skuPnIq67H4a+K50AyaVMdKcG7vQh5qstP7u7wk7tDsorD0bv7sFIPpQkEfK9hOJ8YfrjQ4L2FBkuxRj4n7RooN33szV7EuLT89MGIn66N2Ki8V2fmqGPmJxLjLPN+xPX5mFPNgOQIN475JrxC9xxYJBAKwdVOyOnYMMxKPlofs1ZaxsAMDs48EkggENBTgvOJ4b25iHfmYl6fi5/r/53Mlb/YCZk3ispaPt3OyMYFKfgkuVnBuvs+knC2Yfjz+Zg3+xHf78e0j2iP9ifFK3TPwUZArCQygOv9mLyy/GxtzH9tjBlWdrZGhR526qYxDSk41zBcbAa8uxBzbS7mlRfYXzvRksWGm7q1mVf8fH3M+1sZ60VVTyd7YR/F86TUZY0TGXqtFXC1HfJ2L+KdfsRqEhD6OvNvxCt0z4FGAKEShErxZi/kWKTAWj4epBSVJbd7Jk56XiIC0Ba60mWz//l8zNsLDa70n69lvp+GdjPDr3RCGkKggFvDgp2iosB7dg4mTpkbwCC42Az4u+WEi92IM+3AN415QrxC98wMzbp5xLW5mLSy/Hwj5f2tlK3S+vawL5M6Zt7RgoutkO+3A67NxbzRjViKX97kq3agONUKuFZUZJXll5spvxlk3M+9pX5gmFjmCKSEtzoh73RC3upFXOxGLEbPvhriMOMVumdmaBpJ00iuWVgJFEYIPt3OGOQVVoFfoV8SddOYrpS83Qn4q6WES72I0+3wpX6sTqB2u9B1tSRWgjvDggdp6bw6XlEcAJxlLgRo6RIa//VEm5XYMB8d7UErT4NX6J6Zo2kkrySGG/MxBfCLjTG/nsRIp2ePe54fUzHPpUDxeivgjU7I2/2Is52Q7jeMQX2RtIzkZCvgWllRWvjFRsqH2xlfZHWanPfuvHgqiwJaWtI3kkudkEudiOu9iKXI9fZ/XtUQhxmv0D0zRytQNI1CS8FqpGlpyc2dnPW0TpKTdWDdrwfPhzpxyT12gzL+einhLxcbHGsY5iJ1oBbjibw0tGQp1PQCxb204ItR4VLyAb8JfIHUIRoF9KTgVKT5+6WEf1ptE2tBrKTfYz0lXqF7Zo6Jt7RtFCRwfS4mty6m/qtByt20ZDdj1i/Uz45akUfSTTpbjTXnWiFXa8t8JdY0zbebmvYimMhL00hWE8NbZcTYWlY3Un49SLk5KgDrsuW8Jnk+THl0GlJwsmk4HRvOtgPOtUOu9iLaRqKkL1z5LniF7plZYi0JteCaEnyvaVi5u8MXn5XczcqHRcfStwl7Zlg3ujKWgiUjebsT8o+rbbcYa0lDiwNlme8nVpIwFjS0ZLVhOJ6M2bxpuTkud1uM7oZsPM+YesNUWZpS8Hor4EfzMa/3Yy72IkIpMUr4K/8d8QrdM7NIARJByygCKXizF/MvpeVcEvDZIOPOqGCtqNiufBb8UzNlWS0ayatNxenEcKYVcqUbcr4dsFBPTDvolpUU9Rx1I5FCc6Ub8g9Fk1cixZ8GGbeHBetFxaCyD816z9MxJTeBgERJ5mLJqdhwrml4oxNyuRNyvBnQ8aNPnxnC2kkwzOOZTVxIzjIqLYOi4qONlB/fGfCzByM+3im4nZWT1fxlf9TZYhIrt866eqMd8BdzMW/PRVzpu2YxiZIEyl3XWbm60/KykVf8fjvjx7e3+em9Ib8f5s5iV15enpqJMq8A6yzylUhxqR3yN8sJN+bccJ5eoAiU6+7neTZ4C90z8wjc2NWmdrHdqm0ZFw1aWrIyyPhkO+eztORuXu79K7+OPB7rLKu2ErS1YjnUvBJpLrcD3uqEnG0HnEgMrRm1rCbykmhBpCRawGg+JlGC47vyUnAr8/LyxExZ5EYIIinoh4qVUHEs0qw2NK+1At7qR5xqukYxk42g59nhLXTPoSMtLYOi5IthwcdbKb9cH/Pv90b8fHP88CQpvEv1q6hcrPxkrPlerLkx3+C9xQbHE8NcoGhqSazFgUt+exoskFeWQV5xf1zwyVbKbzZT/v3ekP94MHp4ovAW+1eyzyJvKUHfKC62A97rx1zuhLzaNCxFmpZRNJRAzkCIZhbxFrrn0OFaxWpiKQmls8KsFMxHigfjkrWsYK2wvm4ddhdjYSGUglAJlmPNSqA43TB8LzFc7UVc7UXORSoP10IsgEAK5kK3UQnqDP5SCBKjeJAWrI1L1oqKtaKiOuryMmFPjFwQSkE3kMwbyXKkORYbzrcC3uiGnK7HIDf9/PLnjrfQPYeWwlrSwsXV72Ult0Y57z8Y8eu1MR8MMn67nbs6ZCGOZtLcVIxcWugbxVyg+LP5mB/Nx6w2DK/Emm6o6BjXce0wd0ytLIzLimEtL1+mpZOXByM+GGR8MMgo4KF357BeiG9iX25FR0t6geRS3VzotXbI6VbAUqzp1H31AyV8C9cXgLfQPYcWLQTaCBpGMh9pVmNNgqCjJJ1A0Q0UG3nFRlExKC3bVcXD3a3Y82vmsXsPFIJECVpS0jGSnpYsRpqlUPHufFwnLim6gT5UFvnXIYUb7BJrSS/UnEgqGkBHCrqhk5cHtbxs1TJT7F7YQyYv00xZ4wJIlCCRkpaStJVkKVIsx5oLrYArnZBTzYBjifFzy18C3kL3HAkmsdLNrGQ9Lbk1Kvh8VPDhxpgP18f83yjn/0YFxaRsfWJNHAZLbPoWr7t0NaTgeKQ53dBc7kZc6AQsRprFSDMfaOZCRVhnIM/6138aJpnwG1nFZlbyxajgy3HOR5sZv9kY8/FOzic7uRvhO+2GP4zlbpMafevaOhyPNSdizblmwGutgFcTw7HE0A8U3UC6HAsl0UdlJ3iA8Ba650gwiZUuRJq5ULMca87kFT0t6CjB4raiH+QMCsuwrNgqLZuVpbB2n3V7wC0xu/eBQuxmHTeVoKEksRT0jOR0Q3MmMVzpRVzshPRCTTeYzcz1Z80kE34uVMyFipVYMywC5gNFTwtXdhUq1rKKUVmxU1p2SsvYupG+5bTlflBlZZp9HhyJIJAQSUFiJIl0MhQrJzenG4bz7YDz7ZDlhmEp1r787ADgLXTPkcMCRWXJKstaWrKWFtxNS+6OC27u5PxpJ+ej7Yxf7+RsFVVtobDPcudgWGK74yenjndjnBArQddIVkKnvE8lhtXEsBIb+oFkLlD0assqVC4pzPMoRWUpa4t9LS15kJXcz0puDXM+2874w07O74cFd9KCzbxiNN2c5qB6efZ7bibPWbf5nQ9c7/sztQJfbhiWY8NcIJ01bhSdwIUoYiWPTGjmIOMVuscDDIuKUV7yh+2MT7cyfjHI+NlWxoO0oCgqstJtAFILqbVkFoo9lhg8dtX+rovcY+9O+8hhJAWxdNnGgXC1wEZAW0vmQ82JhuZi03CuFXCyFbLSMIRKeAX+lLgNIdweZny6lfLxIOO3g5zPRjn30pKtegZ7amFsLWPrQj6Ffc7yMuFJ5AaXoT6xvo10x1o4b85ypFiNNReaAeebAavNgGNJQKgEka8hP5B4he7x4BboorJs5RVbWcm9vOTLrGItLVhPS+6PCr4cF9wZF9xOXb/4raJiWE7dPvv7gAv2xlf3W9PTJ07+bPocy97fk4Pp4zrj+tVQcSpUrESapUjRDxU94xK5OrUV3jOSrpG0AkWi3RAVr8+fjspChWWnlpf1vGI9L1mbWPBpwd1xwZ1RwWfjglvjkrW8ZDOvHr7JN8kL1Fb0Yyz8r5Slqde/Tm6EAOlG374Wa16NXN7EXKTpB4peqGhrSdtIesbJTtMoEiNRgkPRg+Aw4hW6x/M1bGYld0cFt4c5n23n/HGY8+kw5+ao4H5WMijcjO3SWircTJjKuoSqCoEV7rkCsLU7c/8d99ArK5BYBK5HvRCg7MOutQrq11xPciVAKIlQgnOx5nLDcLJhOJ4YlmPNYuSUeaMuOfM8f9LSspWX3B8X3NzO+ONOzsfbTma+GBfczypKayl3Z5U8fFxaSwmUCCrhXsNSP7dfPzs5UTjlqqhlRAhXiQkIa3c3bZL9ciMQSnIi0rzZNJxrGFYampWGYSk29ENNIPGJbTOGV+gez9eQlpZRUbFdVAxqC2uzqNjKKwb18zv55HfJTm21D4uKtLKklXUJdmVFUTlPwP4bTglQtas8koJIuOzySAoadSJbYlw9bySduzPere+VBFrQ05L52qJqGUVSz5WeZKpLb1G9EEprycp6rkBespWVrNUys1NYdsqKQV6xnZcMi4qdqZ9BUTGoz9mpXfqltQwry1blwjzTGAEtKWhJQVPJOulRkCiJkS7skmgnO5FystOoj0PtstA7WrIYuLLFxEgS7bw3oRLegzODeIXu8TwFpYWscsp+PS3ZqF3z61lRu+0rdkqn3O/VLvy0cnHURxW6i1/GdSZ6Une3S5SgYySdies8dIttU0vagaIdKGItifzYyZmhtNZ1K0xLNrOCzaxkIyvZmEq0Wy8qNgrLuLTk1m0I75cVw2rve4US5pVkTkn62lUudIykox8q8En9fGIkTe08Nt1Quc3gIev65/EK3eN5Kixucc4rSIuKcVkxLi3jsiKtE+jyypUwDcuKYWVr1/yj7+VKpEALl5RkpGuKY4RrxTppyRopiZHO4nbtbd1gEXVEa8VnkUk3ulEtJ+mUzIzKilFpGVfup7Du/NRaRnU53DQatwmM67LESLn2vZF01rUWYjeBzdQVDBM50tJtJL3cHC7+HwAA///t3DENAAAAgKD+re3hoISfgg4AA958ADAg6AAwIOgAMCDoADAg6AAwIOgAMCDoADAg6AAwIOgAMCDoADAg6AAwIOgAMCDoADAg6AAwIOgAMCDoADAg6AAwIOgAMCDoADAg6AAwIOgAMCDoADAg6AAwIOgAMCDoADAg6AAwIOgAMCDoADAg6AAwIOgAMCDoADAg6AAwIOgAMCDoADAg6AAwIOgAMCDoADAg6AAwIOgAMCDoADAg6AAwIOgAMCDoADAg6AAwIOgAMCDoADAg6AAwIOgAMCDoADAg6AAwIOgAMCDoADAg6AAwIOgAMCDoADAg6AAwIOgAMCDoADAg6AAwIOgAMCDoADAg6AAwIOgAMCDoADAg6AAwIOgAMCDoADAg6AAwIOgAMCDoADAg6AAwIOgAMCDoADAg6AAwIOgAMCDoADAg6AAwIOgAMCDoADAg6AAwIOgAMCDoADAg6AAwIOgAMCDoADAg6AAwIOgAMCDoADAg6AAwIOgAMCDoADAg6AAwIOgAMCDoADAg6AAwIOgAMCDoADAg6AAwIOgAMCDoADAg6AAwIOgAMCDoADAg6AAwIOgAMCDoADAg6AAwIOgAMCDoADAg6AAwIOgAMCDoADAg6AAwIOgAMCDoADAg6AAwIOgAMCDoADAg6AAwIOgAMCDoADAg6AAwIOgAMCDoADAg6AAwIOgAMCDoADAg6AAwIOgAMCDoADAg6AAwIOgAMCDoADAg6AAwIOgAMCDoADAg6AAwIOgAMCDoADAg6AAwIOgAMCDoADAg6AAwIOgAMCDoADAg6AAwIOgAMCDoADAg6AAwIOgAMCDoADAg6AAwIOgAMCDoADAg6AAwIOgAMCDoADAg6AAwIOgAMCDoADAg6AAwIOgAMCDoADAg6AAwIOgAMCDoADAQJ2KP6g8dYjMAAAAASUVORK5CYII=;" parent="1" vertex="1">
                    <mxGeometry x="200" width="80" height="80" as="geometry"/>
                </mxCell>
                <mxCell id="4" value="" style="shape=image;verticalLabelPosition=bottom;labelBackgroundColor=default;verticalAlign=top;aspect=fixed;imageAspect=0;image=data:image/png,iVBORw0KGgoAAAANSUhEUgAAAfQAAAH0CAYAAADL1t+KAAAACXBIWXMAAA7EAAAOxAGVKw4bAAAAO3RFWHRDb21tZW50AHhyOmQ6REFGMkU4anhHN3M6MyxqOjUxNTE0MDMzNzY4NjAzMDY5NTEsdDoyMzEyMDUwM3UgE+cAAATkaVRYdFhNTDpjb20uYWRvYmUueG1wAAAAAAA8eDp4bXBtZXRhIHhtbG5zOng9J2Fkb2JlOm5zOm1ldGEvJz4KICAgICAgICA8cmRmOlJERiB4bWxuczpyZGY9J2h0dHA6Ly93d3cudzMub3JnLzE5OTkvMDIvMjItcmRmLXN5bnRheC1ucyMnPgoKICAgICAgICA8cmRmOkRlc2NyaXB0aW9uIHJkZjphYm91dD0nJwogICAgICAgIHhtbG5zOmRjPSdodHRwOi8vcHVybC5vcmcvZGMvZWxlbWVudHMvMS4xLyc+CiAgICAgICAgPGRjOnRpdGxlPgogICAgICAgIDxyZGY6QWx0PgogICAgICAgIDxyZGY6bGkgeG1sOmxhbmc9J3gtZGVmYXVsdCc+VW50aXRsZWQgZGVzaWduIC0gMzwvcmRmOmxpPgogICAgICAgIDwvcmRmOkFsdD4KICAgICAgICA8L2RjOnRpdGxlPgogICAgICAgIDwvcmRmOkRlc2NyaXB0aW9uPgoKICAgICAgICA8cmRmOkRlc2NyaXB0aW9uIHJkZjphYm91dD0nJwogICAgICAgIHhtbG5zOkF0dHJpYj0naHR0cDovL25zLmF0dHJpYnV0aW9uLmNvbS9hZHMvMS4wLyc+CiAgICAgICAgPEF0dHJpYjpBZHM+CiAgICAgICAgPHJkZjpTZXE+CiAgICAgICAgPHJkZjpsaSByZGY6cGFyc2VUeXBlPSdSZXNvdXJjZSc+CiAgICAgICAgPEF0dHJpYjpDcmVhdGVkPjIwMjMtMTItMDU8L0F0dHJpYjpDcmVhdGVkPgogICAgICAgIDxBdHRyaWI6RXh0SWQ+OWU5NDQyYTItMWYyZC00NjMxLThlN2UtYWIyMGZmNGM3NGFjPC9BdHRyaWI6RXh0SWQ+CiAgICAgICAgPEF0dHJpYjpGYklkPjUyNTI2NTkxNDE3OTU4MDwvQXR0cmliOkZiSWQ+CiAgICAgICAgPEF0dHJpYjpUb3VjaFR5cGU+MjwvQXR0cmliOlRvdWNoVHlwZT4KICAgICAgICA8L3JkZjpsaT4KICAgICAgICA8L3JkZjpTZXE+CiAgICAgICAgPC9BdHRyaWI6QWRzPgogICAgICAgIDwvcmRmOkRlc2NyaXB0aW9uPgoKICAgICAgICA8cmRmOkRlc2NyaXB0aW9uIHJkZjphYm91dD0nJwogICAgICAgIHhtbG5zOnBkZj0naHR0cDovL25zLmFkb2JlLmNvbS9wZGYvMS4zLyc+CiAgICAgICAgPHBkZjpBdXRob3I+bmdoxKlhPC9wZGY6QXV0aG9yPgogICAgICAgIDwvcmRmOkRlc2NyaXB0aW9uPgoKICAgICAgICA8cmRmOkRlc2NyaXB0aW9uIHJkZjphYm91dD0nJwogICAgICAgIHhtbG5zOnhtcD0naHR0cDovL25zLmFkb2JlLmNvbS94YXAvMS4wLyc+CiAgICAgICAgPHhtcDpDcmVhdG9yVG9vbD5DYW52YTwveG1wOkNyZWF0b3JUb29sPgogICAgICAgIDwvcmRmOkRlc2NyaXB0aW9uPgogICAgICAgIAogICAgICAgIDwvcmRmOlJERj4KICAgICAgICA8L3g6eG1wbWV0YT6eRa0fAABeOklEQVR4nOzb225cVx3H8d/ec7CdxEnTREkopFQ04iSQEFJvkHgDHoCH5BXKHVxwgxDHVm05lIQmJKkdO7bntBcXY7tJaJuWuqX96/O5GXlmz/IaS+PvrLX3dK21FgDgK63/f08AAPjsBB0AChB0AChA0AGgAEEHgAIEHQAKEHQAKEDQAaAAQQeAAgQdAAoQdAAoQNABoABBB4ACBB0AChB0AChA0AGgAEEHgAIEHQAKEHQAKEDQAaAAQQeAAgQdAAoQdAAoQNABoABBB4ACBB0AChB0AChA0AGgAEEHgAIEHQAKEHQAKEDQAaAAQQeAAgQdAAoQdAAoQNABoABBB4ACBB0AChB0AChA0AGgAEEHgAIEHQAKEHQAKEDQAaAAQQeAAgQdAAoQdAAoQNABoABBB4ACBB0AChB0AChA0AGgAEEHgAIEHQAKEHQAKEDQAaAAQQeAAgQdAAoQdAAoQNABoABBB4ACBB0AChB0AChA0AGgAEEHgAIEHQAKEHQAKEDQAaAAQQeAAgQdAAoQdAAoQNABoABBB4ACBB0AChB0AChA0AGgAEEHgAIEHQAKEHQAKEDQAaAAQQeAAgQdAAoQdAAoQNABoABBB4ACBB0AChB0AChA0AGgAEEHgAIEHQAKEHQAKEDQAaAAQQeAAgQdAAoQdAAoQNABoABBB4ACBB0AChB0AChA0AGgAEEHgAIEHQAKEHQAKEDQAaAAQQeAAgQdAAoQdAAoQNABoABBB4ACBB0AChB0AChA0AGgAEEHgAIEHQAKEHQAKEDQAaAAQQeAAgQdAAoQdAAoQNABoABBB4ACBB0AChB0AChA0AGgAEEHgAIEHQAKEHQAKEDQAaAAQQeAAgQdAAoQdAAoQNABoABBB4ACBB0AChB0AChA0AGgAEEHgAIEHQAKEHQAKEDQAaAAQQeAAgQdAAoQdAAoQNABoABBB4ACBB0AChB0AChA0AGgAEEHgAIEHQAKEHQAKEDQAaAAQQeAAsb/7wkAz9eSDK1lGFra8e365+H0/qeOb8kzd6Xrkr579r4ufd+lP7nt+4z6LuPeZ334qhF0+AoYWsvBYpn5YpnFYpXZbJGj2SIHi2WO5vPMZvPjI7v0rc9iaJmthqfGGPfJ9Jl3/GQ8zsbGNFsb42xNx9mYTrO9uZGL5za+mBcGnBlBhy+BVWtZrIY8Pprl8eE8B4fLHM6WOZwvs3e0zP5smcNly3w1ZLUaspiv4z5brjJfLjNfLJIkXevSpctySOZPBr1LJn2yMVov21uSIV36fpTJZJyNySjTcZ9x17I5HeX8xjTjUZ+NSZ/tzXG2tzayfW4jFzYn2dqYZDodZzIeZWIlD18agg5fAovVkP3FIrcfPMrte7u5fW8/d98/yP2do7xz/3HeezTLoo3T0qV7dt/8Q7SWtJM99y7puy7jvmXSrSM/pMti6LJq3elxw7DMYraXYVgmSc5tTnJ5e5pvXT2fV65fyivXr+Tm1e187cULufjC+WxvTQUdvkS61lp7/mHAWVksV5nNF7nzYD+3H+7n9v393Ntb5MHBKrPZUQ6P5tk9XOXgaJmj+SqP54scLYe09Gnd+rz387TW0oakay1da8dRT/q0rFqXIV26HL/1T27akGG1SMs6+icr9AsbfbY3p9k+t5l+Ospk0mdz1OXGxXN55cqlXL+8mWsvbuXai5dyYWuajdHo8/rTAR9D0OELsByGzBer7B8t8v7eLA8fHeTt93by9ns7eevObv61M8+DgyGTvqXvkmXrc7JhPu6Tvs8nWpmfaK0l7Ymgr+9cz+U46JNuSJd1zz965Ha6Yk/XZ3+1zGy5zHi5ytcubuXVay/k5vXzefn6dl6+cTk3Lp/Pte2tbG1OszmdpO+6jxkbOEuCDl+ARwez3Hl/P799537+9O5u3rizl8VymdlifZ58vhqybN06vu100bzWPRHcT1rHJwc4foufxP3koS5J65LWtfW59w/5T9CStG44fc7JVn7XWiajPpuTPuPxJJNxnwuTRW69dDE/vnUt3/3mjdy8djnnJuOMPsGOAvDZOYcOn4t1Ah/uHeXO/b288+/9vHNvP2+9t5N37x/k9sPDjPr1V8lOlsh9l6di+zHDfjpd98EqPest+5akZTi+PR64+++or+fRnx7Vp0vXr3cAhjbk8WyZ1dGQ1lr6NsvhfJnD+ZC37h/l5es7+f6Ni/n6i9u5cvH8/zBx4NOwQocz90Em//DXf+eXv/1bfv32Tt68e5DJKOme3D5vH2yPf37TaelbO12pt359Lj5tcTyF9YVtXZJu+CRb5Ovvv3/cpHeWi1y5tJGfv3YzP/3ezfzo1jc+66sAnkPQ4YzNVqvc3Xmc3/z5Tv74j4d581+7ube3zO7RKn13vCo/qeYXGfQkrevSTj9wrHKyPdDWOU/Xki4fvv3+xIDPDfp8WGUyTm5e3sx3XnohP3zlal779jfy6ktXzupVAc+w5Q5n7O7OQX7/9/t5/Xf/zNt397I7X6Xr+4xGZ/QVr9aOPxU855hjJ7v6SY5X5i0twwdXuT9xWdzJ4+us/9egzw79kaZ9n9Vilb/8czcPdg9z98GjTMfjbE0nuXrpXKYT/3rgrFmhw5k4uZK8yy9+9UZe/927eevuYfbny/Up6I8K8KdcoZ9e2NZ1aR8xZjcMT8W4Zf37119HWz0939Of+jx55r5LnrpQrrWW1oannvE8J+fZp32yNU5uXT+fH9+6lp/95Ad56erF5z4f+HT+AwAA///svVmPJFeW5/c718x8iT0yI3cykywuRbKqa+2uqtGoewRIwjzMiyDoRR9A30nPAvQkCJIAYdTQDAbSDFTd00tVT20sLkUmlySZS2TsvpnZPXowM3fzLXyNDI/k+QGeGeFufu91D4f/7zn3LLZNNowl8fSoycMnJ/zms+f86fEppx1IEYJxxnQu5t5nvzjxWSU4hciFWX11GXpK3//DY2bO8+55OYBQcrNPuXMYvFSUnrpTMtNHvbjcwhchkIBUPWftlE8fHwPKrb1tfpDe4fVb16Zbi2EYU2GCbhhLQXj49IT/4+8/4f1HxxzHirhzxJxe8ZckBSce5xIaSUwnhfXQUQ0C3GCNlnMs85FziGZpaTOIuSg4HeziQuncXyHNvQpDa1GyijYli18EdY7DZszH3xzzf//6I1K8CbphLBkTdMNYkMR7Gq2YT58e8befPKbdyau5jbXMM/f19+5t8uatLfZ2t9ioV6iHQsennLUT9o+afPTVMf/08DleMzXtBtSNGK+cltZ/fj6jZU52ju7Rbk58NqQHSi53Pb8cTfZ4/5wSBDQT5YNHp9zbO+DL/UN21+us1yrnj2UYxlSYoBvGgsSJ59lxgy/3T/nkyQlbtRr1KBp9sSob1YDdtRo/ff0af/7GDV65c42d9TprYQgojXaHh08O+dv1Jxw3Ozw+bHPcTMaew2fn3YNn4vOJee/5eZpbd1zl/Gi48mHAmOvE0fGeo8MOn3xzzPuffcO792/lgm4YxqKYoBvGgrQ7CZ8/PmL/sMV6WCeUMdHsqmiS8NYrW/yrn97njbu73L2+Qa0SEgZCYQFXo5DXbu5Qr1T4zp0d/te/+RN/99FTRAKmsWR9ft6tc4o5qoifJOB9Tyid2XtUPKJuZJy8c456tcrTgwb/9u8+YqtW55W93dnXaBjGECbohrEgSeo5PG3RaMaEEuBGWdIKlUDYWw955+4mP/7OTbY366zXIgZFN3DCWjXi7rUNttdrfPjoOftHDb4+6NCK/Yixi65qeSKaFDnicyaw9AW9jaOcSO+7DV2ywDkF8egIURcgFDg87fCbz5r88+MmnTQldG70+2YYxtSYoBvGgnhVWu2EziixzVFV1iLHu3dqvHtvg7s3tpkkutUopBpF/ODV65yetvl/G49pt5Pxc4iU8sgvMhu1dJivPq/13v/aNRd10f50uOK8/6Qd8/VRzNOzDo0kZSMSE3TDWBBrZmwYCyICYagEwXgRFVWqQcDtvR2ubW8W9464DXNje4171zcJwogEhzrXf56eR5ErHnS84J/7GlSz/HXvh87ju2vNatZmc6uWxHyGzUMepZ8GAXEUcnjW5PnBEXGSTn6uYRjnYoJuGAsiKC5QnDtP0CEKHDub62ys1fqePUnUt9erXNtawwVBt75beaasIxpkZ/Dnl2Qdiyr4/DbW3d5fs7Znmc82X1EUR8Vx2mhxeHxGaoJuGAtjLnfDWHHECUHYs4zLjVayADg/QwDbouhYN/ssOK+ESUynFdNoJaRWsNIwFsYE3TBeEEnqOT7rcNaKJ1zZb6W344SzVgfve9XfuvXZiyC0RQPgBgvJjGVxMYfcq+EV75XE+xe3HzGMlxhzuRvGCyKOPU8OGhyetM+5atj9ftJoc3jaJE7T3nm5yEJ55l1UIZ3ews+S4RYTc8MwLgYTdMN4AWggnKae3391xEdPjjmNY2I/nTB+9OiQX3/8lGY7xrmsypxKdrvYaPaCrNWqkpiYG8YKYy53w1g2I13YQjtVvjho8tE3x3zw5QH3dte5vlkndFkjk+7TyVLhzpptDk+a/OHzAz54dEQ7Vpzk3dnQfIp5U710ynzz5ZyZG4Zx8ZiFbhhLRrVoNzpw8wABH35xzP/017/nnz5+wnGjReL7RdWr0ogTfvfZY/7nf/uP/OqTJ+w3lSzNXRBxKI6s5cqcN5UJEe1gYm4YVwuz0A3jIhirk8Jho8P7rZha7Qu+OTzh1etbrNcrBGFAmsSctTs8Omnz8Zf7vP/wgGcNIfGOwAki5TPzOa1z1VIs3Xm9XU3MDeMqYYJuGC+YjoeOV/71rx7y737t+f6re+ztbFBdr9JqnPDk6JR/+qZBJ4HtShVQAucRcYDmnc/mR4qc83LFtz5MzA3jKmKCbhiXRLVSw4nyzUnCUfsUFzVJk5hmR6kSEQaSizj0ot7nDILzRU90ZnCzWy6ZYVwlTNAN45II8xarh62Uo1Z/pbRIQkKXnXf3M75EbO+KASku+qWPFPKB++axzEvNYQZXahjGi8ME3TAuGXUuj1wfYKQ7vGy1jxoMRLN0tom1YoZc9zqfm91nGwYNejXmBYfo5M2HYRjLwwTdMFaBmTqNnXetdluWnu8y16H/VWYsGpOfxYv32TDB4PAm5obxIjFBNwxjdjGHTMyLpirW+tQwLh0TdMO4ULTrTs80z/XdN0hWYGYBcRTwg+VgRVBHN0Wt/zy9sMxnCIArW+a9O5HEd5cucv6rGN2i1TCMRTBBN4xlokVhme6v3V9UyZupZL949bn4lnF9VePmWcBgWptAnsOe35GWrp3XzT5Y/13pO5MX5/Kc+cG1kb0HC6beGYYxjAm6YSwJVcWrghd6xd+E/oKMhao6mmlMxw92XluG67pfSEMnbIYhoSvW4efPMx8l5tOuSn222dDxHgrDMObHBN0wFqQShdy7tsUPXvNIUCMKA4JcPDNrPSsKM2h4t31M7JNuadhloqqkqoSBo9VOefj1IY1WDOK6e4yZ5uwLgJtvraqFN+AyMtyLprOG8fJigm4YC7JWjfjuvZvcubbJX7zdYq1apZLnmPvUkyYpQRjgguF0M1UljdOlC3riU9ppwlq1ypf7Z/yP/9c/8WmznaW8OQF14NPp69SUA+DmRSbVjr8oipgCE3Tj5cYE3TAWxDnHWr1CGAVsrNUIgrKFrqhXZKCjWhcFr37pXVB9fkYfBAHHjZgQD0kKYZiLqiLqeuf7AzXipZTELppf66YXxNGvVXq141+YsJdfVxG/YMJuvJyYoBvGgjgRKlFIJQqB6mUvZ4i1SkRQ1G/39AS9r+pcr9SrIEh+7i+qyLl132elPMY4UVeyc34955oJc4zMFjAr3Xi5MUE3DGMkmZhfRjR6DD5G085cRxEiggQVcBFQye+dd3NgGFcHE3TjJae/1Wg7TmjFCa1OQhwnJOn058L9Fu1lMWPOOPDVsyM6Scq5oqalkrJLcIvrSOt6uvE0OUE73yDNTxF/hnJOqdsBisKzBBEqG6jbhmADwi1cZRtcFfvaM15W7JNtvMQMiopw1o7ZP2nw9PCUk7MmzVZ76tGcuq4r+rJQPF5ms5q/OTij0epQdFIbhSBLPVtWTedu8+rj5+jZ7wkO/jUSPwEJJj8pR4qSs+JQd53U3UNrD5D11xH3LhJdAwnNWDdeSkzQjZeWduo5brb56skxj56d8mj/jC+PGzxvdBCfRaAnyWTR8QreFxb64jgUx3wR4x4hZUwzlxEkSYtGq8VBKwXn0GIzoEzcnKiUzs2Ljm3jr87zzIsiOpejmNmeJD+D5wTHF9DeR9KPkc5/Qmtv4Gvv4qKbSLhdLN0wXgpM0I2Xjk6c0mx3+Pq4xZfPT/n4i33+9OiQj78+5NFpi6NOymalViq0wrlf6t5DqarpDN//eZDZQEG1gJSAZPoXRK+OqldHQpAZ2lOIZhw3QGNq1RDnBIpCMiK5QJ+zSRHpP7A4Z74i3351CsYook3QFpI8QWKBThXtPEbTNr72Fq76KhJugUQm6sZLgQm68dKxf3TGR188499/9ITffnnEWdPTbsfEnRRHyGYlInQDJVYF1I/+VhcHUXF8LgJjriujuXtboJcCpkVZ1hmLswT02pKqJ0pTpu1MGkYOqOBE8lVdUJBbkWPedxywXDf+zCjdCH1FwCdI6yGu84y0+im+/j3CnZ8j0XUuPzbCMBbHBN14aThtdvjkq0P++OVzfv/5c37/9RFfPG/g1SFASJYLHo748j7PspTin8Kd25d5pWOSo7I66T3dza3sbo2TMQKixRwDjxcNXropZ1PiSsqvZLuTEWteHBn4n9WwesttXNVDeoakZ1n52rSJBiBr70D1O5ioG1cdE3TjJUE5OGnyb/7xE/7uT8/58FmbKBKCIOieFCuSWeG5qM7sHh5xuYw4W1YpxDy730vhDXC5Lo8XjqK3uLre+bWkSeb3X5isYIz4zHPglxm0X7yuVRBx+o85BlGBIP4akn3UP0a1gdRe7xd/w7iCmKAbVx+F//D7L/nbD77mt4+Oed5OiCLBvcCAdM37hap66Ir5nIVMVDPPdbcz2xIXSr5WWLhQTFaDPkVmiEJ/EQwUvRv9OC5be/sp/vh3eN0mWH8PV3vlxS3UMJaMCbpxpTludHh21OCX73/Nf3j/K45jiD0EF60xZatcCpEsW+Y6dPlY/Ryl+6oDQ8weknfemnXg99nFPTuPzzYwWQbAKhjnXTHX4mhkzOvKgwI1OYHmJ/hUkaCORDtIUCcLXDCMq4UJunGl+eMX+/xv/9+H/OnpGUdt5kwGyxDvs8juCeJWuKyBLNAtuxNltJhneFRl+DHNxlORc2qly4Cez1E9rbzmEShMfN3lq71PswA78XkXtWKicr30F+u+7hNzBn4uAhr7n4FIgEuOiJLfk9bvEFc2iWpvIm7jha3bMJaFCbpxJWm2O3z59JDffPoNv/n8gLMEkkVLdU8jaEVAWVcoiuek54h598lj7xPVPBVt7OJ6/80q6oNrHjn89G+cducvxpt1g1HUavfIFPnw0zAk5qOmLLtCejsQhAS0hWt9iJ5tQHQDgjqoWenG1cIE3biSHJ+1+I9/+IRf/+k5+62sm9miBuH0Fmr/czLDe5KYTxpoUuGWgjxY7nz1v1i6bVDnnF9yQfdJJuh5FsIiyzlXzAvGbYQExDmC1sfZe7v5I9C9rELdKpwjGMaUXG4dS8OYg4PTBp8+PeZXnzf5dD9ZiphPQzeiPXcxe1GUFHSWIjElik5mU0fbZ7ntyxJzFUGdy25L6aRWQhbc4Mw6zUIFbQTUQZqi7QPSw9+Snn26pBUaxovDBN24cnz9/JQ/fPGcj5+0eXrmL17McxHvs6KFvId4XihmVvGaV8y78y1GJuZSalGu/bdi45DfiipwmgfrTbXqkaK+PJFfjphD9gFy2WuMj/Env4fmQ+b6uxrGJWIud+PK8duH+/zyD19z1ulceDT7YAAckFm0+CnOzMcws5jnT5NSz3J1c9eW74m5H7l68R7SZPBJvR+Lf2REkN/QYBdjqS9PzMuDgtAk7HwM8X3QFln7VfuaNK4G9kk1rgztTsJZq8NnT8/47FmTtp8x22rm2K3+YLKi7oh2Lbc5xWQmIeoFnulQINqcron8TSu9qoEZPTLUKU3yKP3Bdc1L3hFNGLuxmMxyNwqCQ0mRdB/tPMK3PkWiu0iwu9R5DOOiMJe7cWU4a3X46ukR3xy2ed5U4lly1JRelbg5UdG8dWnKYglyU8/Y7/peJRa1vMWBCzNBv6j68rMimddDfSMT9NPfoMm+FY8zrgxmoRtXhqcnLf7+032enpR6mCvL7fA1GG2eB8BpFo49v5u9wE8bzQ6gvXani8ybd03LDGyfjdk9Ny/WleaNTJjOezDYdGVwvAvgvHKu85FtmJT+vzdSBd9G2p9ldd4X8YYYxgvEBN1YeRTwqjw5bvHrh/vsn7S62lEEaS2LUbXZiwC4hcVcNXNlT5mdlhVsWY71WgS/jXOzi1fws3gdBpvHMKPiZjEEzpF3vpsw2wXtFbTIGCiHA0iE+Da0P4fkKM9iCDFRN1Ydc7kbK49XpREnPD4844+f7XNw2s6+exd0oQ8i3g83WnHZOe9SLHM/jZjnkfNZ4PWS0PycekVc25BnDSTUQsdaLSSYpOjLDoArI4KI6zXDcQK+gTQfQec5mjR4MUcshrEYZqEbK0+cpBycNHh23OKgkaLiCJbdeWWgpeiyA+BkKk9C7gIuzqcXErAiiI78daxa+lX2+tZqFTbXagSBKz2SosT0v2E6wvMteZGb2efNfio9sShlIFnhHvEd1J/h28+g8xznqkgQWhabsdKYoBsrT5ykPHl+wvOTFgkhoYPggn1L/S1QF3Sz+2meX4h5bkkvaExr3/n76rJWr7G5sUFQyj9UjfHaQVXz0rBjKJqvzLLxUUWHCgGN6j6XgG+gnWdo6ymuch2C2vTzGMYlYIJurDytOOXh0zOeHDYISXAS5OVPFxx4RABcrznLNLXZ55o0/38wqEzAuTyifdEZCiv/vIsUykcMlxRFv16tsLVWJSx5XCTpIJ1WL3Wu7N1YlttdpKTfg/EA2g201OQAjR+DvrGceQ3jAjFBN1aedsfzxbMGz45aBOKz9CJxC0e3CwyfmcPitdm7lVeKWUoPDDV16S6kPzBrbrTnsp+A+HSJ59KzjVMJA8LAsVmvsFaJ+teVNJH4DDQdHnqh5faOIWRk9zV6WRMqWS339BiSp6h2LCTOWHlM0I2VJ05Snu6fcXjShiACJMspXzJeFMQvLnKqWcBel/MaoWtWYAVFfXLFzmh17vDz3Y0qd66ts7tRHX4wOUHifdB4wfWVUVRn2MBICKxB0oTOAfjiTN9k3VhdTNCNlSb2npNOzDcnTQ5aHXALdsAqB7/1VYArxGkJbnbVfuEYqQEjAuAuKoqbYoPRG3/6XPjBdqOL4VVpxykPNrb52Tt3ubmzPnCFgj9GkoMsjW4w330mBgLgCq+LjOjVXlzX/QgIECD+DEn2IT3LRF0qC6zHMC4WE3RjpWmnKUftDo+aTZ7HHXZqawtVfBuVZ760ALiRlIVaem7eJQbATbMESZPZNww6QvgWJEmVk1aHrfUa//mfPeD2tY3yhIAi6QmkB2RvzALzjwqAE8nS0gavK3tUSj8HegzpMzQ9QtMWEpqgG6uLCbqx0jSbbc4abSIfUiFauHxrH8sOgCtc7WOFs1h7kRe+wv71sWJeDjufbf2dJMWJ8MatTb57d5dXru+wXuu53FXbaHoGeozQQpa105kyAG40MUoD5RSkhbC1nDUZxgVggm6sNM12TKPRIdCAkAXd7QMsPQDOD56dj36CMk+Rl0FxnaIQS6+c3hxzjRl/gRKvqU9Zq0X82YM93nt1j2ub/e52TRuknUcE/giRDuDmcLlr6adpA+BGPj3/PQFto3oG2sYwVhkTdGOlaccpzU6CX3IQ3MUEwF2MxS04ZEjYJgm6R5JyHfjLJyLhxmaN/+KHr/PDN+4OPa7xc9LT3+Hig/wemT3yP+/dPhfK6M+DeohbkHYgmnE9hvECMUE3VppmO+G0GZOqjrayzmOg+lt+Z7fRykIBcMWX/xx9zadBSlayzHiW7bJ4u4HAvGnWOCkAbtb3K1Nj1RRNY969v8efv3WX9x7c5sbOem8sVVQ7ED8haL2fBcR1lzOg6BOm77aY7X5WpgmA679/eFBFkziLQzCMFcYE3VhpGq2Ek7MOXnVmPR8VAOeXWAGO9KKi2QRRx1wBYQpOs97lM61u4qZhxhS1YjxRNI1J4zP+8vs/4V/9s+9zY3eDahTQe/8TNDnDxd8QtD8A3+ofq/yHn2bzJCAio1/OOQFw41+LQpKiF/b3NozlYIJurDSdOKXdSXCaEsh8ecCaf7mr+uW0QL1ABIF5xXyhiQet4IGCODOKeSfNAg13a47vvn6Hn7zzCj99+1V2N+uEQV9rMzRtkjY/QJqfEiatzL0gs74HpTzzZb91kiLSQGiv6sfGMAATdGPFaSeeVicFFDcUFz7mm3sgBzyLZF9iatq4s9apOccaVpe720tzTOOayK/NYvwGI7enXWtpPi3dN4WYZ6cP2fsrChu1kO31Cq9dq/OL7z3gv/r5e2ytVfOqcKW/ge+g8QHafB9pf5adU4tDccPv0NAySgFw6umVrx1hnY+KDxybjDDwgHrQJmBBccZqY4JurDStVDlLNUssK6zsHBlhxYn3fYVjMmMzSxFbmpj7xYLppOtSH/0o9L+OLBp/vKiXjxZUs4pzPUGf0bruY9JzpRuF7tXTilNEYyrS4UfvvMHP3r3P9x/c5u7eFrsb9VK99t6GRtvP4exPhGe/Q9pf5NNqnrLmzv9zjQqAG5dn3q1Z33tpowPgNO8LX2xuso2Cxm1IOkOOC8NYJUzQjZUmjlPa7SQ76uymmMFIC7cIglPtutkLa3B5bnZdKJaufKYfp540FyQVwTuH8yniC4HW7mPnWunlWAHNg9DKQjeroJcj6s95biCO0Dl2NqpsrVfYrEfsrEdcW4/4wRv3eOf+LV65sctabbgYi2oH9U1o/QEa/4jEXyO+WTxK2SU/zpsxKgBORrxPo7MSz90plLwj5OfuHcQPtnS1MrDGamGCbqw0STuh04zxfvqAJBVBnctFza/OmXm3L3q2lk4c00qyyOk0CIijkChOCNJ0oTmy3OmLf73VMCCsCreu13jv/jV+8NpNvvvKLd64d6u0nvw2aDT7Jj5+gjT/Hmn+ckwEeX6Wfl4u+nkBcEvDo3RQEkzQjVXGBN24AmjuXp3+LFjV527bJYp5kaI25ToUT0eVpocgiamLcnOzwvXNda5tb1CJhErFUYscUSXCVSsEqbJYG3MdZ5IuhTBwhIEjCgLq1YiNeoXtjSq7G1Wub9bZXq/1z90tdUvmofdtNH6MNv+INH6FND5C4kLMl9BuTnX4zzPobp8p1s6BhgN1AGQl9oeGMYgJunEl0FHCrPTdJ33XLUnMy3MMdVEbRSFKWRBeJQqoVSI2pML1quP+9TXuXt/m9vVdttZDtuoBa7WQaqVCpRIhKiOKyKwOYeiIwoBaFFCrVka40wfd5eSbsQSSBpo8wzc/RBq/Rs7+YybmPoWix/3Q33jC31DJjgXy90zHno0X9xdrmm7zIJp7CLobxOJpq/s3Mr69mKAbV5Ismtr3IsLJxFzzQK7lBsAVv08h5t0I8eza166v8+Pv3OLNW9vc39tkZ6PGWq1CJQoJHQSBEIhDnODchCCwFUBEcLmbO3CjLNUi/7x3j2oLnx7hT96Hsz8StP+IJI9zN7vP3rOxPdzztrIjyWMMfCl4b/QQ+XFH6Tx+rCh7dKiYjeJ8G/EJMC6Y0TAuHxN04+qSC6dKzypeWgU46LnXpxwq9Z4k9VzfqnB7d53Xbu/w1p1dvnv3Gnevb7C3VadWiXDdKOxi4CssEt33JotXIA/IU98A30DjE0ieQPIVcvYQWl8gydeIlorHnFsffsq/5bmXDHoMxl2WR80P++yhLy3OMFYTE3TjSrP0ALgFKsAlacJZq83b92r8/O3r/Lf//Hvcu75D2Q2fTzL/+laNrhh70E4WvZ608fFjfPsR2niIa31MGH+IaLrSopgVplkgINEwLhkTdOOKc0EBcFMjeFXaccwr1+v84ME9fvTmLb734CY762vdNQ6vKxd5TfH+JGsbmp6hyWH+c4LTFk6arDoaN5G0hUgH0Q74Ds43cekZmpwi6XHuEXcT0u8Yto5VgTlEVumPRRj5sdDco5A9KOqHLlRJQdKh+w1jFTFBN1YacZrdBu5XCm1YcgDcjOleKYATtuoR79zb5V/+5AFvv3qLu9e3y4OWnuGz6mi+Bb6F+lM0PUCTI4iP8PFTND7KKqZpE5HT+V9LEVo+9OZNeq+KWIAiF7s/LmDovs4pmjRAEoQE0aR/SnFkxwrTNJkZXNccFn0h5t2hxlcU7K8wN+J9EY86j0qISDD7WgzjBWKCbqw0LvCEUYq4YQHyefDbZVaAa/qUjbUKv3jrJn/17l1+9OarrFVDhoWosMgTNP4G3/iItPM5JF8RJIc4baGaEPiYXh65HzHOtK9HEa+oK4rS9N4jST1yTl6/OocGLotXg6y0vNJLp5OB+9IOkIJIHmuWC59elVjw4jM0jhCCDdTVX9iKDGMeTNCNlaYWhdQrEY5OJnIDLtvMBn3xAXAFO/WA+zfW+MXbd/j+azfZ2SjnYfeipX3yHJ/sQ/IEaX8OzT8hyVNIniPaQjQdIX4LyGFuPYvX4ZQ/n56/cfECBHkRnNFxhv33eUQU1WLzIL3ln/d+Dj22hE1Z98dRrXPzi0plcqfbwElmodvXpbHi2CfUWGnqlSqb1TohDaQo6bosltAC9ZWtKj++t83P3r7Nqze26RelXjR72nlE0vgdNH5DEH9FmB4SIIDDSQgSLbSOIYqA7jRG/OAZtDu3+BqA9LUYHXFB+T7J2uZk8wg6jWt6juONWccb+Rq9h7FpcFPOYxgrigm6ccURdIq0r27JVZHupkAm+YSHzppL6Waaoj7hBw9e5S+//4DttRr9gynQwXe+Iml/hDTeJ2x9CskBzncQqZTGlIHxhxYy8fUN47OobfHZ8fWFB5cLKiOC3gbP3vvuPw9lZPOVMZdmHgNB+9rA6nDU+jybCCe4qIaES950GcaSMUE3VprQCVHoJnQQnWy1K3lBsaFrz68TPiQAebBYFAjVivDWvV2+9+BWqWJaYRp38Ok+aftD/OnfELY+x8X7ZA1EgpL7dtSGYdwrmJYs2EtJ8yEFkdmPE2ZGBjZWc1nhvdQ+HRF1Pupy8ef0Sp2hB8BYxEFYgcAE3VhtTNCNlWatFrC1FhIOtsScFRHU5ZZ6N6h5wgHvkHXYO3Pd3qjw4MYmt66ts1arkHUGzaPKUXx6QtL4NZz9J8LGhzhNcBLRb5FPK+azkHdbu3iTfNIy+t32Uz0n8yp0259OcQY/LOYXgArqI0Qtyt1YbUzQjZWmVglZq4UEUgjsQJOM8xhMu+reJglN7u4dEEVBUIU4Tdnd2OAv3r7L7d1NgqDfp63xU7T9J2j8Dmk/JEgbiIT0KsJN8hIMrm/yeruBb6rZuksBfsILsM5La+mVWZ3m8nJgWrburJSrTA5S7Lrzx8wlAs4NzDHywvPX6AKobEC4dv51hnHJmKAbK00UhVQrEUERdBX0zpvzJKyxzy2itHspVtNYrbmYy7Cgo47UQ6vT4dpGnb9873Vu7GwMj9D6DD37FeHZ+0h6hPRZ5qXcr5Frnz0FT9Gs+Un5ufNYyMtANa8IV+SeT8D7kltci3MRpn0PVBi/eRABCbMguAmbuHEx8SDgQqS2m4m6YawwJujGSrNejdioVeikKe00pRLN+JHVWdqRlsV8WABUlChQbtbh7lbEjZ0NatWQwkpUbWdV3tofEbQ+Ao1zy/yc+aa6b4p1LyMXfyEKy7zYQU3hPfE+f791snt9kHLhm4tEA/AVoApElDu7GcaqYYJurDT1asRavUos0PHKYLPOIcrWXTe+apov/nMs8+4lniiAvXrIja0qW+v9OeeaNkg7jwg6nyHxIzIL1dGvVKPc68s4S7/kfCrteUSmssxzQc/EXHvR8VOlhZeq3008jVjsuEE1BK0hsp5nJvT+3oaxapigGytNVImo1iv4SkQaTBCKQbf61BbcFGIO4JUwdOzubrCxWZynltq3xs9JT3+HxM+y1q4yqtzpsKBnQWz5AYIEyFzd14qNw8UJe19G2ECGXpE2Nr3QKSpF69QZxLEs5hOn8JOL6JyzPkHx1FDZxLkdnFufYxzDeHGYoBsrTTUK2KxVuL5W43mlmR1Bj9KNrrt3zpztSWKeT1kNQ25f2+TaVjlAKptT02O0/Wn2f7fzW/nZY0YV6YqlzGX5jdowXKzFXs6C61nmU7jZy5X5sh9Ku4Mp1jzL2zNX2lzpyZKC24RwD3H1Xklbw1hRTNCNlaYaBOzUKtzfrHNYO2P/LO71+SiRpaPN9+WdxYhPPmgXCahXKty7ts3e5ohOanoKyZfgz0qP9Y0w4ncpUsWXwKRo+eUiswrmUAAcMwXAvVDEoy6BaAep3AY38bDHMC6deXx7hvFCqYYBr+ytc2O7lrlRlyEAjuxLm2TqnO12ktBOU+oVRy0qnY1rik8OkOSAyJ8RqM87c5UrwC0zzzzJb3F+u4Qe3nNZv4qKok7zuLkrcA4dbaPV6yAV7NzcWHXMQjdWnmoUcPfaOrubNWI9IMDhuq7agQC4qcisQy3Ko55L70s88UqsnmolpFoJ6EW3p1n70+SI0DfoBcMVz192BbjBdrGlOYre3ku2esvn5/O6srVbeW/gHHy2t2CGcr2LvAeSLbiyC9VbmYU+aW7DuGRM0I2VJwodN3fXWNuocJimbDqhJkUAXL+QTUYBj6ajU9P6EURd7ztcwYmjUqkQlut6a4qmp+DP8Jog53bmmjdwrVwBboxHwedxBLC0lC4ZHGahc+lijBGiPstzz5tePd367YssUx1ChFRuI2v3weW1+i1lzVhhTNCNlacSBdy4tsH1zRoVBs6JZhKXKaPZS0jp30KEnHO98qQAeNS3wLfpF9t+szZr6TmXig1Y5oMPayltbHmW+WJiPmIt5d8LUV/28fnC70ERnVjFyzpEN5Bod0I9AcNYDexTaqw8URhw89omt7bW2c27pc3h8J1ZzKcf2eO1gzDYlrO3StUkE3QJmdU0nWiZ5+l6hQAvw4hc1DJXTRlZC7//onmWdmFIyXviZZ0kfIUw3EPC9ZWM2zOMQSwozlh5nAhrYcD1jQoPbq2xUQ0ybVPNXayTAuXKYj79N7PkqXDifS6Yo6LWBVGP822cjxmdZ55Q1FqfrXFK8dwlBQJOoFvjRRnKM1818e2i+XvkY9THIzYR09ET8yxdTatbsPUuRDt2dm5cGUzQjZXHiVAJAvY2a7x1b5uNtYjE5+Is+ZfwWMEZtMxnEaasvGgh7EOPlXK+nSZZDfPu/XluOqXGKfnv061hXADcOc9YQHSGLPLeMlZXzAs07d3mjE/oudoFdQFUryNb72ZBcQUm6saKY4JuXBn2ttf58Vt3WNuoceJTUqGU+qSjXbxzutkFl9/moScQgsNJmFd/kykrwRWWfAozbkKWFbMlXYN1CQFwPr9dyL4gq+gmeGQJngwlRINdpPoq4ea7uGin/wIZuBnGCmGCblwZdjbqvHf/FnubNUIZ1x+rlLI0l5hLJuRaBGzN+q2dz0v5VljpRRmZ89PYzg2AGzHdsPdgWcw4bnH8ob63EbhI47575LKkSXwbVPGV19Daa0i0m6WrjXVfYKJurBQWFGdcGXbWa+ys17i9WWfdgSunrfWxiGWepap1x5mJ/JycUQFhjFnrwAiTAuAGppMLs3xnRfOc/he4GE3zynPLmVOTU3wYofW3ofadvJgM2CG6cVUwQTeuHD9+4ybPz5r8zUdPOWnE1MMgd+n2i1vWJ3s2J9R8aWXLQyQALaL4R6eoSdn6LY5+LyT9a5bri7VcqEneFXDpxk30z1fOfyh8IoMM50jkke2VV/D1N3BbP8TVXh35XMNYZUzQjSvHu69c46TV4fdfH3PSTgbi0Mpf1nLpAj0bvcCssYfhylDN+uWLOVPo8si8tgvXc9Qj02Q1kP31h68a9eI0i3+sv4Zu/gS3/gZSub6kRRvGi8ME3bhy3NrZ5Lt3Yt64tknntMNpK1n9SOwJDJehnfx6li7kU5O7188rHHNB88p0u43ZEEUlQbbexV37ZxBuZXOUN1VXaV9ofGsxQTeuHLVKyK3ddX7x9m3i1PPLD7+hIkK4ks0+JLcUp0tVG313z/It3O2XK+ZFINrAIkSWL+p9ld8WDYArBVJKz8rX6g18/QGy8T2k9iriqv1PW8WPlWGMwKLcjSvJ7kaN//LHD/j+Gzc5TFM6K2qhC5LXdp9fFcrFbc4TNH0Bpcb1vHzvvjTCpU0IPslviwXAla17zdujqkvw9Qf4G/8drP8ZLtju73tuYm5cIcxCN64koXNsrVX56WvX+R/+8jv8w4dPePjNCdUwwuV11ueqbZ6Xlp1MIQ7TfeNn7VTHXy8ISNgfKa55YJ+6MYFcF3yWPitLLUKTB8CpX6Bz3LjURhB1aLiL3/wRbP0FQf0tpHC1F0EZJubGFcME3biSOCesVSLevrPNenCfTivh+LRDs53gveBcJqBD38kTBCdLPZ/2m3wWoZkUoJc/Lj2XtqhknuGh3PULOEdeBsv0kuQBcJPL+k4zUPa/ep9Z30EFwi107XXY+Utk/Xu4yh1676s5Lo2riQm6caXZWqtTvXeL//onyka9wl//wyc8P+1Qr62huKE8dOEiC7EsTladTjIh86PWqUsQuW8f6j0+bkK4iVR30ev/GWz/OVJ7Cwl2mSrv3zBWHBN040oThSFRGPDde3s4caSp8sEX+zx6csxprHQ8REGAFFb3gJgPudcvIbCuvOmQIi1tpF4rs5aCHTfj5DFKrufBlLS+crulp0ivhv1C+KIC3GLDqHo0TZEggnADjV6B+gNk67uw9X1k7TuI20EkWs66DeOSMUE3ri4lgbm1u8nu5hpv3rvOv//Vh/wv/+bvOWtBK3a4ao0wGBZqFUHdZbtXByqs+cLNPuK6QsxlwfNynaISnQBFxTzJXN+qmvWB726OQMsbJOn+sxiagk8nXzdxmBQft3GugkR76NbPke2f43Z/Rm+zYt4O4+XBBN24+uTGZDdQ7p37XNuo88GjQz7++pDPv9nn6UmbgzZUHYSZ352OOhoajB02RKmrR73SSZVmp00cV/Ddsq4vqkNHScxnfypZfHeEUippO9WxQ5ZwJ5KA+EzHuy83r9h2ES8/dKX1TVhnXz13QV0VdWv46BoEe0iwh9T3kNpNgspdpHJrunEN4wpigm68HGgvUO6Nu3u8cXePB1885f7Dx/x2DT59esZXpx6XVxrz6ml4cOfkeYXAhnrUe1qJUo1Ctush1TDASdY9bRkI5+nXAmIOmTUtdTS6B1Kf+emKIi4emD93/c9aHvYiUI/6NPdYCLg6Gm7hK7eRyqu46n2oX4doGycVyq1tL3/xhrFcTNCNl4eB7+dXbuxwbWuNH751l/2TJo8PG+wfnXJw2qDR6dBoxzTb8djhBAjQLBUaRb2yt7POje11KlG0tDWLl54LXfsfXMgyV4Uwgtpd3LX/Bq3cm3GQIi5fS3uXwRKvly+K5SBHkQBHiHMVkBq4GuKCUm755a/XMC4KE3TjpaVejajXIq5vr3NzN+aVG20OTxscN1q04pQ4jonjZKYx12pV7l7fol6ZT9DHBsCda5mPcpFPbsMKHtXMQpfqPaT2+oTnDDKmk92KI6V/s+OY1V+zYSwDE3Tj5Sb/Lq9VImrViBs7G5e6mJkD4CBrRjLYjlUCzhVnyQU9BRLJjexllJJb8Worg8tbVqCeYVwBTNCNbw/LMNRm0QavmbDOpCcLnpkz7qkrXP3MDGjDWAom6IYxC1NWe5X8DFugL+JNzj1+HnCzL7TIfB2iqHag8wyV2gJjXhCump9z1/prqM/L9NV4l4NtRowVwgTdMGalr5jK8MNZkFtWgz3T5rTvcimf75YGLYu5dFOxhi6cTKnrmUgC6TP88/8HDbZmG+dFULkP9fsE668jwfpyxjSRNb6lmKAbxkVQpFHBOTnfPUtcB63yUe1JZ0HyDQUe0mNo/hGhMuFJHjSZYd5ijnlQEI9uxFDZBH21P6PMMIyZMUE3jEtCu6VcLwLJXNiaInqG05PJYqkpaKPPo3D+9QHi5/wKkTRrXbp2B+RtkMUrwxnGtx0TdMN44eiwRd59qGgXuiRTNS+AIwMdxHSwyYtIlq+t9ZFza18RmV6qnc69ztx74QVN3RKi7w3DMEE3jBeK9lvmfWXisiKtQylqI4fRgfzqsZ2/e2fqpeIwfcF5XRzIOLd8aZPRPQ7wwIKWtQp4E3PDWAYm6IbxwhhISSuMZu9L1c6mtXi15xqftQyt+m7P9e5mwk2wtosiOMUvPh3T3tUwjMvCBN0wXgglN3ueEq55u1E3l4t9IIBuFj0fVX1u4vn6wM+LBu0ZhrF0Lrt3pGF8Kxh0s6tb0SIvhmFcWcxCN4yXDe3+0/td017vch1RiW5Uat2o3qiaIr6/FK1KXs5W8yYoeXR9YcUXo2hpB6OponGKpmblG8ayMEE3jAtjwE/9ovKsh8RZ8zNzf/78ox4b1HS3jgZVcJVePXkXo9qGThPxMTifN53xI5wQRXS7onHWa94cFYaxHEzQDeNCKALgclx2Zi6XEUimpdu8CCCCr72F1t+GtXtIuAYSoLTRzhN0/9e41qcE/pssAt8J+AlNZAzDWBom6IaxTDygRbx4v9tbynd5EPxoV/c8DBWI7wW9jc15n2Xs6m107U2ovYfU34DKHhLU8gj7GKkeon4HGnfwrfeR+CskPsjd7/NPbRjG9JigG8ayUHILfFTBGPq0VlRHt0Wde+7hM3HVZPzjU48LooKvvYm/9d/jopu4YLv/JQoQ3obqO/izd0gO7xCc/LtM0A3DeGGYoBvGoiho6mEwwMv1B4IViPo8sOwiTFftzzNfaKgOGqzhq+/A2vdw0U1E6sNiXvpZqtcJd34E8Sdo+2skabJw8RnDMKbCBN0wlkEhciWBUxmTmuZZnmU+aindojGLDpSAhPi1t3D17wxb5iOQaAsJa/jj+2jwMZp+jUxbG94wjIWwPHTDWBQBAkECQV3v9lLEggVVpH4XKntTbhACkBo+uoOv3Ae3gj3YDeMlxSx0w1gCUljjE0RcvAe/ZOtce/XfdWxI+yy7i3Jt+QAJN5FgbfiykUPmHd/DDbSyBS0B8aAuz9qzCDnDuChM0A3jRaGKpOkFnJ37XtEYGFljXWbsZqZF4xdxCFVEopn2BBJWcJUKGigkHlFHf5EZE3bDWDYm6IaxKBKgwSa4tfE9zwrLfNlirlqqAMfyU8TUo7RB45lsfJ800M4JgU8mX2wYxlKwM3TDWJgQgm3ErY8u4qJkHdUuwNWuvtebXFRyS3xZh/cCmqDxPpoeT7kmDxpDfACd/ezn8Rfn07wMwQaGcfmYoBvGokiEC68hbgvx2r11hdZrf+vyZVCIOXTFvKuPyxJ1dRC34ej3cPbJlMuK8fEJrvU5YetTxLfGXOnBJyCCilWTM4xlYC53w1gEBZEAwi003CMN7uDSQ0QbQFYB9SJc7X3t00e42kWF4th89s2E5P8GqO8gzY+gskNSv0NQuYOEOwwJsHpUY7T5Jf7sA1zjIZKcoOiY83vJLPNwHalsgYRWUc4wFsQE3TAWJkCCdXx0myR6m8i/j/MnKCGgF5uHrco463bWQLjB56oLgRgXf0LacMSHVdj5K8Jwe8ScKZqc4c8+IHn8fxLGXyE+RcY6AQUkRCq7SHUPXDT3Wg3DyDBBN4yloEjlOm7np8jhPjQfX9Q0WRDchVWZS7NYdJdFpRe4zmOi41+inSOS2h+R+k1wa6iGkBxDso9rf4ZrPCSKHyG+cf5M4RY+2sRV72XHFRLk85nr3TDmxQTdMJaERDsEG+9A+0M0/hrRY9D2UufoE/OlanpeMtanmSu8r9mLIPERQXxE2jrBR5/jNl6FYBPVEI0PkPgJtD/BJceQJoCcszyF6jW0/h5Su4cE670XY253w5gbE3TDWAqCuBpOIvz6j1H1uJNfIr65tBmyiHYdmWfed51Mk78m/S55TTMxZ3AORQgo4meD5Bjnm5B+llnx6sArkiaItqB7vDCuz7miLkXW7uJu/kuk9kpprZof+OdBfSbuhjETJuiGsQwUkACRAKm+hmqC7xzi9EMk/no540/tap/2mlKZFx2IriudzSvSvVKIkbQD3neLz4jmwj4J8WhQR6v30fUfEKy9OboCnWEYc2GCbhjLItdCV7mJSoUkjlGFcBmCjvbp7fLQTJglG7/sKM/lmuLe3mMCGswcPa/i0XCTdPNfIOs/Iwivc0EvyjC+lZigG8bSUSSoE6y/hUYh6foe7ux3SPMhJB3Az1ZMRcsW9GR6KWvjrhek6JeuhZj7c0+950Mzq1wcUEE3f4Ru/hC38RNc9Tbja86bu90w5sEE3TAuAhfhanfwlXV8/RYqEaKCbz1F0jOENlOpVuFl99NdnpEL9pg9gxSu++6ZeWF9L0FF882HiIAL0KAG4RaEe+jWL2Drp7jafcTVR8xnYm4YiyCqF5L/YhgXz6p+cstBaZqimiDJU7T1GcnhPyDNjwg7n2VdyM57EYVl7plwdi4z5ZyrJj0xR8da5trXPm78dX3PSRN80sGFFYi28ZXXYfP7yO5PkepdiPYQV8s9FCMEfYHcecP4tmMWumFcJBIghBDdyZq3+BAqt/DxfYgPITnA+X1IzyAtyqRmRVe0VM6VUfo3L33u+/MEVEb8PGIRkteolxB1O6SVDajfQer3kOg1WHsTWXsLCWoglXlK1xmGMQVmoRtXl1X95J6bNubw/hSf7KMnH8HZB4Txb5D2F2jrWf78AGQt+7/M2HS1GS10H5fSy2ZjlGteXZJltckaafUBSe093M5PCTbewYW7iFT7LW8Z16TGLHTDWAQTdOPqstKf3PHiq8SotqFzlFno6WO0/QRtPkb1BPwRPt1HkhPCuIH6Fminf1ipZIKvvXHPpfxwX235BDivI9rgOBFIBZUqyAbINrp2A+o3suj+8AYa3kQqe0i0g7gqEAy8JePfG8Mw5scE3bi6XOVPble7PGgHjY/R1jPUH6DpE3z8OdJ+Qtg5gPQM9c3cqk7z/8PMmvUJaIpQtnoH/fTar5Xd982RtTdt53dLdp8EmftcHIjL8+tDkCir6ubWUNlAZQfcHrp5H1l7BVe9jQQbQGX8677KfzPDWHFM0I2ry8vyyZWslaj63FrWGNUWpMdonPUU17QF6SmkJ0h6go/P8J1T6Bzg/BkuF2URj0hWetX7CEcbIRkSdMWhVHMRLzYDjpQaGm5CZReCCMIahNtIuEsQXcMFW0iwgUoNqGQWe1CDoIJIlB8T9MrQjLS6X5a/m2GsGCboxtXlZfrkjtI930b9aVZjXRPwTfANJG3ikwaanEF8imgLR5bfLqSIJFlMuoZZZTeSERM6lAgloOsSx+GpoMEahBsQhOCqEK4hwWYu5rXcjR6NWPSoP4ibfIlhGEvBBN24unzbPrmTjpi1zUzn4QCE2Xn8OGt6eBJme+NLgv5t+3sZxgvG0tYM46owKZasz909LYXgTqu2psqGsaqYoBvGVafbR6XXFW3+gQzDuKqYoBvGlccanBiGYYJuGC8Blr9tGIYJumG8HFiFNcP41rPIgZthGIZhGCuCCbphGIZhvASYoBuGYRjGS4AJumEYhmG8BJigG4ZhGMZLgEW5G8bLyjSl1g3DeGkwQTeMlxHfQtNG9rO4rF67i7KOaIZhvJSYoBtXiIGKaAunXo9oSPIyWLGi+M4T0pPf5b/XkcodXOUGUrt+uWszDOPCMEE3rihK1sd7VgUeV+88L4gucwy5UnjUd6D5CfLsr1FtQ7iDbv8VGlQBE3TDeFkxQTeuKAoak4n6DEiVXv/v0li9DieXy3lLmLTREEBTNGnA2R9xT/931B+g1VvZrf7KEhdqGMaq8f8DAAD//+3dWZNdV1rm8f+79j5zTlJKaVuSLVmSZ1yuKrpcDVQTTQ91wUVfc9dfryP6qoloCCCCoImKAgpTYCgolycsS5Y1pKSczrz3evti7ZxH2bKl3H5+ER6UefZwTirPc9b0LgW6nCIp7bxcx4c3YPkvYbLMkYs1zAh5A0KGW4ZzBs/OQPs8tJ4jtF/AQhtCg+3EfErBbuCxTyz7UPahnOBlJGufwxrzYI2Tl3j1DPc22CyWLeB5D8ubNeiBEJHDKNDllDE8jojjW3D/L2DwWQq6rVb27nF2s4A3mhByCDnOOTxbwruXoHcFutex9iVC8xxkzTSB7CmKxTo+vokPP4ZJH58adva3yfJu2u/cshMFshNwGph1IPSwrJ1eAxGpLf2GyynlmE2AKU4DPAIFxgTb0w3v00AaHzfwDbC72PBDfGWOMjtLeO6ncOY/EjrPQ9Z5Gk9m2+QhvvbP2L3/BcMHeDEPjS7evYxZ65kYFRCRZ5MCXU6xKqg94vkcNGbx1ixmOXjVjHUHL9N4u09g/Aima1gxBZZxuwMrc5CBZz/BWs+lJV5PiccpTNex0R18dA+LG1Bu4O6Y+spF5AgKdDmlAu5N8Awo8OZ54tzr+MLbWDZLKKpWupcQx2ncvVwjPPo7QvEBxhQoCB4JG3+L2RrevQKN+TTW/FSzM4cwh2WDNLb/lIcBROR0UKBLPbTOE7qvEHpvYfkCFjcTObXQ3afgU7z3CvQ/pFz7JxjcwsbLeDHGRw+Ia78mhDmyubf2n/9Zmkx20L3Y15ilf9hhX/X52kEHHnFvX+d13TztYef4OqsGRE4ZBbrUgmUz0Fwia17CmoevtY7dy8TeVTx0wX+BjR/g5RQmK3j/w2pp11tVaFbd9Zvv/A5pLD7jscPTSyDi1bls6zyBrfX0HtPjbO9SvDQ/wGOx3VjfeS+29YXqxThmff6O5+Y+hTiurl8dYxlYAwtNsMd8i7AdkxLd0xCCF9U/m6+lVb0OBqGqYEfO438gKau5E5tPqjrnrpR3vBxDnFT3UD0+NLHQStfXlhZSEwp0OV0OySmPBVZOOWim+04h9KB1Cc7+LpQbsPb+Vrd8mNwkTO+SAtSAEi/7uJdbx5tlWN6FxwkgAy9HeBziVgAB8xzLelhoABM8TvFyijEAm2Jb0Q/OFHyY8qvc/pXdvpftdfWO4xS4lRwtPbc4uU8cfVEF3jSdN5slNBah/TzWXNh+EtjRrdqtlnlIdxInxNFDfPoQLx/AdCNdJ2tAFabWfg5rnSNk89tlaY9tOTuY4+UQLyfp0iHDsgaw+SHEgQJ8ShzeJg7vQPEI9/T40HqB0Hq+mgjZrk57QOVAkVNEgS41EXHidivzMJYRshnoXIbORWjN4NN18CFWLKc3/XKEhSZeDon9D2F8C5vcTcvaWudh7keQn+Pkvz4Ow4/w/kd4sQbWxvOzZLO/Bc2z+OATfHQLH30J8QFhdAOPJSmcAqz/GrcMaLAZOBZyaC3C/G9DY5EU6pthFNgVTO54jFhMrVMf3cdHX8DgYxjfxMZfbreiAcIMnp/Fuy9jvauE3jXIZ0/2TH2CxxEMvsCHt/DBTXx6Hysf4uUwXcPy9EHGcmidx1vP4+3L0HkR61zi8Gp+mxcp8TjBV97D+x9jVuKti/jMm1jzHBaaxPE9GN2E0Q0Yfgnj+1BuYF7iZNBYgPbz6ZjuVei+dMKfpcizS4Eu3z3WIOQLKRC7C3h/A58OsGIVpqt4sQ75HBTr+No/wMO/wlZ/jrXnYP770L4I+RkgP8GOZlW379p7cO//Qv8mnp3Bu68R8jkIOfHBL/BHP4O1vye0UqvdywK3quX44Gfw4Ge7Tm2NNsy9CZ0LkC9sdY0bhnmeCsvsvIVpiZdVoG98hj/4Gf7oz7HJZwTv77njBu5tvPsaLPwYe/GPsHz2BC3nqkbA9B7+8K/xB39D6P+GUD7EbHTgEe5tvLFEufADwrn/TNY+D7Q4KtDdp3ixjt/7U/zu/8FsTFz4CfG5/0k+14K8k+rYL/8VtvwXmPfJGO16bmYjaMzjs78L53+KKdClBhTo8p3lZDhtIMcd4hQod0RJ3oO5t2H4OXH5bzEbY4P7+KMPsDiPzVxjX3W5PRPW3EepVT76HBvdgNiHzov43BvQXAAzYp5DlqfldvvGgTdPb4SskdbSA+4ZsYAsnqSTuMTCAPr/SrH2T9jaP2L9f4XiNhYMy85VBWsicTpInRyWY9N7+Ma/Uj78G2x+TDbz6hGhXhCLNXzlPbj3p9jwNozu4NMNPHSwxnNY4wyW93BzvOjDZAUrV7C4Ahsf4rGkGHxBtvj72Oyb7OyROI55gcUB5aOfQ3EfW/slNvwEvI/TItocZE3MSyhH6edellj/V8TmHN5aIutexZpLJ7qeyLNIgS7fPe5VkZlAjDnmtjUnbNcE7ayD9a7h7ctEeoRyhI0f4eu/gebFKtCPYODTdeLo37HRLWz6MI0Tt85ic29A40xaltY+B70rWDkAK/E4wIt7QNUF3jyPtc5gjQ5maby8LAyaL0HobIX8wUKaIzD5EkZ38Y0bMLmFlatYYw6aZ6G1hFmeuvnHD2G8gk9XsGIdG31GXPsnQvMszLx6+PMsh/joM3z17+HenwOGWQNvnE1d292X0hr/fA43Tz0h47sw/BibfIlN7uDTFbz/CbG5QGgvYY3FVHv/yHH7kCoFxiGMbuDDT2F0A5vcAhzrXMTDOcjOQN7FfYBN78P0EUxX8PEtvP9r4tpLWD5PpkCXU0yBLt8xvt3KjRGfTrEYsQBZzq59W4yckJ8htp6H3otQfJmCY/IRFK9Ws8mPmUg1vos//DtsdC/NHG8uYt3LhNk3sGweLCOf/yHMvAbPT4gbH+Jr78Pk/8G06gpf/Amc+0kaBqjKt4ZoEDpY+wJH/Ro7LZhO4cEvwKeEYgUaF/GZt2D+HWzmahq3NksT1qbL+PLf4Lf/BDxiW5MF7x39sk5X4eFfw/o/Vy9egPYSLP03bPYdss61NKPcsvQS+xjKDcqVXxJX3iOs/S1WPMCmq8T1fyQ2z5Iv/A7WaB15WbMMa3Rh+hC7/ydY+QgsEpuXsN7rhNl3CO3nsOZZCC1iXCMWdwh3/wx79B4+LfDpgNj/lGzuB8/W8kSRx6RAl+8ej9U4bD+1FGMJpJnXFtpY1q5awgGzZmpZzr2NbYxT63Z8A8Y3ieUaFrrYgZXlHCix6TJh41/SdcIM3r6Kta8QGmdJv34Ba5yDxvk0Dl6O8eHN6jNHAWRpIl7v1WqsPF3LoPpgctxse4NYpJZ3Yw7vvYrN/ADrvQ29a1jn+dRKp+q2Ltex0Sre+RVMboFvEIplrFwBphw0Yc1jHy/uYBu/guFnwBRvXcBn3yYsvIvNvI41lvbcZwlepOVq1kgT5wa/SaE+/BD6SzD7ZnrO+3bH23FtN9xD2mGuWE0/q+5lwtz3ofc61r2ONeewRg/ICT6A8gKsf4oPPodyhMUNsultLK5XEwO/wrJEkWeAAl2+Y6rlaMUAihVs+iDNmrYO0buE0CPPZ9ne1cyguYQtvAuTGzD6BIY38dHn+PQ+obGEZTsCfau+i4NPsGKZbPgbYtGnDAt4+3VC8wphV1fy9vFuGVhIdeptintWdSvnpMlize2ncRJerUk3wztX8HP/nfzMu4TedXYFswM0CPlZ6LwEs2/A2gY2XsWKNaxcS63qvRPWDGK5gk9vYoNPscmX6Wu9q/jC7xC6b6YPLPt2sksbzWQzr+NZl6J/E4o+Vjwgm9yA0ZnqQ8RF9nSb7Ht+sZhU6+oL6L2DLf5XwuKPsNbZfQeYzZDlM5Stl/HWi9joJpmvY+V9iOvABGg/xgss8uxQRQU5pSJmk6qEK9hWIZTN+u6bXeE7/0m86BM3/oU4+KRqJU5SZnQvQqtqSZptH9KYxWav4M1zOB0g4JMHxNX38cmDA+/OyzFl/zbl4BY+eYDHMZZ1sNlrWPfCN/Wi7GNMsWYbFn9MOP8H5Gd+nFqx+ybd7fhS1sbb5yDPgBFejInTMV6MdxfaqfjwPnH9C7z0NGvd21jnJcLsNcjb+x6/78LZDGHunbR8DPDpCB8+pNz4nDhaPiZbI+ZDrPscXPhDbOn3sfm3qvX5h9cjIJ9L4/vWwMspcbyeiuCInGIKdDmlHKOAzQIqBljVlR4n1X+n23+OQ7zcwCfL+PAz4uov8cGn1Uy4ahlY9zIcEHaW99I4c+sFvLGIWxufPCKuvA/jZWBvZTegHBH7nxEHX+DFMLW8m2ew7mWsdf5JPP2TsTL1IMy+DnNvE3qvYPk8R6ZkaOCNWQgZ5lNiOU3L6GKB+wHT6kfLeP9LvIzptQmz0L6QXrNw9Bg4gGVdbOYVrPMSkENZ4OM14uBL4uThMUfH9IGstQAL/wHm3sR6L0K2ed2DQ91DB7IZsAyPRZrdXxbH3qvIs0xd7lILHod4sYqVD7Gw8w28KnFaDlNhkY0b2PoHhJVfwPgOhBxrNKB9Huu8jjUvsTegLbQItkjsXiP2Xof+BzDewB6+Dwvvgk+qse2wFXYeB/jgNzC6TfQWsXkBulfJG8+lanVPYuLVvnruhz0sw72LeXvHgQcdfJJu5s3ejx3nn67A5B7ECR46eOMsWaOq/kYGfky7wRqE9iKxuUi0HuapAI1PH2LF+gnuibRiwZuEXePt++/14KfoaZ7B5s/ddn9L5LRQoMspl+qC2/gOrP5jmqWdtTGqimDV9qrEURojHd5NlcNGtyAOMHO8fR167xC619Js6H1CmiTXvoz1rmPDf0+zqssSH90hjpcJzfNbrVH3MV48xAYfw/h22p+9fQG6r2D5XBoP/1aDwqpCM6kk65O+uJUbMF0BL7HQhvwsFnppid5JLmUhrRHP26mrvIzpXn1UjdvvcFjpX9IyxO3vH1Omdt9Jldxy+inQ5ZRLE8ZscAMbfAYxjYmbjcDbOKk+uDHdUa0sA29hRIwRsf0qzP4nst7LaW32IW/u1roEnWtY+Atgg+AFPvySsn8by+bSZh9Qde3fw4afYuPbmI0IrYt49/W0bvyp+YaCqxxiRSqrirWwbHs2/rF27KNiISc02sRY4J6nmvR8xXHtvS3zndcSqSkFutSDpx3J0kS5NBZqVpV+g9RKJq3L9myG2Hge67xI6F4hzP8IZt7A8g4Hb/1Z7ZDWnIPOBWLzRZj0oeineuH930DvJWjMAoYPb+MbHxHKVdwyIucInUuE3oUU+jVvDLrZMcVujmfuhGJKKHfMkfjaN/aEziPyjFKgyylXtTqzdipckmXV0OnO7UR31DW3WcgXoX0phfjMO1jnBax5hqNbsJ4KmLTOp41ExvexYg2qTU68/DHmi2nW9PA2vvFx2s0tdIj5ZUL7IqF1Dqoeg2ee2VfKZD9g2Por30JZbm0o88Qo1KXGFOhyylUTmnrXUvGV7nU87+BWddWGLC2dCmmyVAhnCdkCWZhNs5yzmbTczdnRqjws1BuQzUH3OoxuEkYfEKd3YPQZPr1PjEuEbA5Gt7HBp6mqXPvFtDtb60Lqhj5ugtizIBihcZJW9tFb1YrIt0uBLqdctZtZvgCdl7G5H2LN+R3L2dKEq7Q+HSzMYNZJ9b8PbEoetX1aWjNtM6/C8GN8NaTJdtOHxNEXaUJdu0x1xMe3sDjGm2exhbex1iKnZpWosXsd/pEPJI2bhzZYxHyMl33S3uonbA67p2p95RQvqn3ZQ4lnTTyckh4NkWeAAl1qwUMHGouEzqWTrfM+slF5+LolyzuEmdfwjX/DN5eBFQO8/znemMXzglDcJBR30uObC4T519P+27VkkHUh72GTEvcNKFYgjjk20Le+FfFyihcjfDrCfITlbWLewbP24ceLyC4KdKkP3/PfnU4ybnpg/tie/8/SFqCt5/Hua9jkLpQDWP8gLbGa3E2FVkKH2LqIta+n8rChfdgFHs9xowJPQ2MGby3AKCN4QbANiKvEco1gM2zu1X4YJ+LWBzYw72NMcWukPeez2W/nOYjUgAJdZKd9mWu7v0fAQgtrLuEzb8L6CBt/gQ0/S3udj++ljVCymRT43WuEbJ7tseaTBnrYP97+rE7masxBazFtBVukzU5i8QCmj/BGu9rn/Qg+xaf3oXhAYASEtFFOc7FaRsj+UvBf1bP6Goo8AadkUE/kBHbsp3JIGff9jz3OYfO+mosw+/20k5cPsOIRNvwcW3sfn6zh2Rls7rew7uXHvq4TcG/hp+TztrUWsc6FVFinLIjjAT64iw9uV13vxyj6sPoB9D8H0tJCwjyh/TzW3DNU8XV6JhTmUnOn4x1D5JvwVfe+drDGAmHuVVhdSgHkZep6L8HdICwQuleqjVBOfl3L21izW1WRLYGyqkM/gGxh94eWx6qEVnJgzfmvzbHmeULnCrQv4NM+Ph3DxkeQn6kmK2ZYPrP7sGpHOp8sEzc+gpX3YZACneZ5vHOZ0FrCst43cM8i9aRAF/kKrDFL3rhK0XyByALGqArgHS3M1kWscfbxetqbM1hnHgtxq7Kdl6tQrEJjz4eDE9ccj6S9zJ/05iOp6yI0zuOd63j3Oj5egektWP8VlH28dSmtDGjMHHhsHNwgrvwDtvJLbPx5qiHQuQSzr2PNc1jWfrbmC4g8wxToInudKEAysBbeu4zPXcf6H0K5kqrU9a7A/Gt4Pr9j/PioTUK2LxhCD8+WiI0X8WwVK9ax9V9DaFJ2vsCysxhNPK5CcKx1CWsuVcviTuKrdksccq7NDyvZPMz+GCZDGNxJ1xjfw+/9Md7/N8reNchn0vyDssRiH3wVX/kAX/8IRvexrI11z2EL38Pnvw/5zFe/Vdsx6L51jmMG4mOBl9O0O121zPHAh+oDhjyjFOhySnmq8+0FqTv5236XDUDAOhdh9mUY3cCKErMp1n0Bn3sFy2Zh7+5fB9q+dwsdyM9D5zV8sob5x9WEu3XiYBnPzhJo4+UdyAI++yPC7G8dEOhVN7sX1WsU2T2h4IjXywH3HasGjioekwLTshm89zaMV6B/A6bLUKzB2t/jw0+J/ZeguYBlXUIxhXIN4jJsfAmjVTy08e4FbP4aNvd96F0/uO79rpcwViV9Nz9VhD3P76CaAnu7NXb8HfKyKiEscjop0OV02Xo/LiGuga8RQsApn0rDyVqLhPYFLDSrbUpb0L1EmL2aytE+tgY0zmNnf4KFCfboJhQb0F8jDO+CNTAM4kM87wLgzQWYfWP3fVmJ2RiPa+BdNmvan0h04tTJtoJ8Z9B5av3uLcoTmoTOC8Qzv0fMz8PDv4T19wjTO1hxlzBYgWEOloE75gUwxSOE5iy0LmNn3iUu/Res/SKWzWPHvD0ZBdikuscAtNj9Aeo4u/8OWbCqda7Zc3I6KdDl1LHQTjufLf4UZu/j1sW638PaF1I99ye2xukEikFqifo4BXi2SGi9hDVf2HMvu57BkX+2rEvovQI2hmbA+7fx0TIeR0CszjgDjTN4+wKW71yrHbCsiXevw9L/wHyANxYIM2+m8fxdU/YPbsFaPkvoXoYzv5fO7y1s7ntYyDGruuz39tybQdbCOi8QspmUr53nYPw5TB/gxQY7J+Z5yLGsBSxAvoR1rmBzb2C911IvheUcuAWqk7ayzdr4/PdTiV+PWO8tQvcSlm9OojvgZ++b1e+c0Fokzr4J8Q+hWKv+Dl1NFQS1+EdOKXN3jQjJKeO4j4nFI9wnAJg3MGsRGrM7CpkctmZt16m+OoPy7h/jy3+Grf4cbAZvf4/w4h8Rzv3e0Qce2f2+2eKcgo8pV35F2f8ELx5sP99sLs0un3mZ0LpAaCztyOmIlyO8WK/+nO95XTbtDK79141lnxgnBM+x0MTyVqpHf2Q7YPO5OV708cHnlIMbxOENnHE6NxAaPUJrAQ8vYY2LZL3nqoA/4P72/YxSL0EsHhHjOsSCkM0SGuf3v7aHHItPcB8Ryz7uabJgyBYJYeb4z4F6x5RnlFrocsqk4DHLCdk8XrX4zEM1kSnb81j4Jlrq7uO073n/I9j4ACsHePcyPv8DaJ7jsSefbW8Ht+OLaeJd6F7Fmue2WujpYY3Ukm3MYll396Xc0oYzeVWUxQzI93eT77T1rSrUrYmFQBYieMBs8/U9rvW6Xa7Psia0XyDbbPFb3L7/kKfvMwOhh1mDk79m1bh96BGsCZmn4/0EH+C2Wv0NzAIha1R/hxxj7wcKkdNFgS6ng1f/2pq9HLDQSePJux50QB/tNxHoxSrl6N+xwcfY8AvcIt5Ygvm3oHn2MU+29wub91tNvGstYa2lxzhHCnDL8kO+f9yJquPDZshufv2kJ6keZznWXEhb0x71Y9g3C/0kDLN2VVL3MQ+tSvhClnoeNp/bk9r3VeQpUaDLKfYtbN150FpvAx/eIt77M7Lhp2AlkXms+QL57NVqTPsJ3deezd72fe+oDPrat/AkXt/qHEfd59fJ0SdxeycZmhE5BRTocoqcdIeVEx5zZBiUaZx+ugpmqXvbSaVMR/dh5T1s9RcwWYZ8Du+9g82+iTUW0kzukz6HxwmknQF+1EY0X4VzzOzu79DA8TfTqSPyjVOgy+lyWLforjHgnY/9qu/MBR5XKUYfgQWyzSpt44fw4D1s5efk/X/GvY13r2HP/QG28EPS0qlj1m1zxLeP843l6gEzyvc95DsW6iKnjAJdZC+DOHmI9/+FcO9/Y9NVLDuXvleOYXQvbZsKxJlr+Ny7ZL030kxzEZGnRIEu9bDVTfpkSpt62cdHX2Jrv8JGt7DQBTfcbXsddPdlmP8htvAuoXMFy+ePufTXbJ1/p+i1EnlcCnSpj61x4K8/AGqe43aW2P1tQn6ejD5lEYixiYUZmLkCC28Sem8SOi9jW0vENv91yD2c2oB6ChPHTu1rJfJ0qLCMnA6Pt6Lp8Y/Zc7xPHuCjO8TBJ1i5TEafWAY85hC60HkeZq4QGudTy/xkG52fbt9mnp/210rkKVCgy+nwbf4t3Rdceye5HVNcRb9RIvIUqMtdZK9DC70c4KC14SIiT4ECXeREjhgT/7pd/CIiT4ACXeTrUpCLyDNA+wSKiIjUgAJdRESkBhToIiIiNaBAFxERqQEFuoiISA0o0EVERGpAgS4iIlIDCnQREZEaUKCLiIjUgCrFyenwLe/cKSJy2qiFLiIiUgMKdBERkRpQoIuIiNSAAl1ERKQGFOgiIiI1oEAXERGpAQW6iIhIDSjQRUREakCBLiIiUgMKdBERkRpQoIuIiNSAAl1ERKQGFOgiIiI1oEAXERGpAQW6iIhIDSjQRUREakCBLiIiUgMKdBERkRpQoIuIiNSAAl1ERKQGFOgiIiI1oEAXERGpAQW6iIhIDSjQRUREakCBLiIiUgMKdBERkRpQoIuIiNSAAl1ERKQGFOgiIiI1oEAXERGpAQW6iIhIDSjQRUREakCBLiIiUgMKdBERkRpQoIuIiNSAAl1ERKQGFOgiIiI1oEAXERGpAQW6iIhIDSjQRUREakCBLiIiUgMKdBERkRpQoIuIiNSAAl1ERKQGFOgiIiI1oEAXERGpAQW6iIhIDSjQRUREakCBLiIiUgMKdBERkRpQoIuIiNSAAl1ERKQGFOgiIiI1oEAXERGpAQW6iIhIDSjQRUREakCBLiIiUgMKdBERkRpQoIuIiNSAAl1ERKQGFOgiIiI1oEAXERGpAQW6iIhIDSjQRUREakCBLiIiUgMKdBERkRpQoIuIiNSAAl1ERKQGFOgiIiI1oEAXERGpAQW6iIhIDSjQRUREakCBLiIiUgMKdBERkRpQoIuIiNSAAl1ERKQGFOgiIiI1oEAXERGpAQW6iIhIDSjQRUREakCBLiIiUgMKdBERkRpQoIuIiNSAAl1ERKQGFOgiIiI1oEAXERGpAQW6iIhIDSjQRUREakCBLiIiUgMKdBERkRpQoIuIiNSAAl1ERKQGFOgiIiI1oEAXERGpAQW6iIhIDSjQRUREakCBLiIiUgMKdBERkRpQoIuIiNSAAl1ERKQGFOgiIiI1oEAXERGpAQW6iIhIDSjQRUREakCBLiIiUgMKdBERkRpQoIuIiNSAAl1ERKQGFOgiIiI18P8BfaUSqiJgTjoAAAAASUVORK5CYII=;" parent="1" vertex="1">
                    <mxGeometry x="200" y="120" width="80" height="80" as="geometry"/>
                </mxCell>
                <mxCell id="5" value="" style="shape=image;verticalLabelPosition=bottom;labelBackgroundColor=default;verticalAlign=top;aspect=fixed;imageAspect=0;image=data:image/png,iVBORw0KGgoAAAANSUhEUgAAAfQAAAH0CAYAAADL1t+KAAAACXBIWXMAAA7EAAAOxAGVKw4bAAAAO3RFWHRDb21tZW50AHhyOmQ6REFGMkU4anhHN3M6MyxqOjUxNTE0MDMzNzY4NjAzMDY5NTEsdDoyMzEyMDUwM3UgE+cAAATkaVRYdFhNTDpjb20uYWRvYmUueG1wAAAAAAA8eDp4bXBtZXRhIHhtbG5zOng9J2Fkb2JlOm5zOm1ldGEvJz4KICAgICAgICA8cmRmOlJERiB4bWxuczpyZGY9J2h0dHA6Ly93d3cudzMub3JnLzE5OTkvMDIvMjItcmRmLXN5bnRheC1ucyMnPgoKICAgICAgICA8cmRmOkRlc2NyaXB0aW9uIHJkZjphYm91dD0nJwogICAgICAgIHhtbG5zOmRjPSdodHRwOi8vcHVybC5vcmcvZGMvZWxlbWVudHMvMS4xLyc+CiAgICAgICAgPGRjOnRpdGxlPgogICAgICAgIDxyZGY6QWx0PgogICAgICAgIDxyZGY6bGkgeG1sOmxhbmc9J3gtZGVmYXVsdCc+VW50aXRsZWQgZGVzaWduIC0gNDwvcmRmOmxpPgogICAgICAgIDwvcmRmOkFsdD4KICAgICAgICA8L2RjOnRpdGxlPgogICAgICAgIDwvcmRmOkRlc2NyaXB0aW9uPgoKICAgICAgICA8cmRmOkRlc2NyaXB0aW9uIHJkZjphYm91dD0nJwogICAgICAgIHhtbG5zOkF0dHJpYj0naHR0cDovL25zLmF0dHJpYnV0aW9uLmNvbS9hZHMvMS4wLyc+CiAgICAgICAgPEF0dHJpYjpBZHM+CiAgICAgICAgPHJkZjpTZXE+CiAgICAgICAgPHJkZjpsaSByZGY6cGFyc2VUeXBlPSdSZXNvdXJjZSc+CiAgICAgICAgPEF0dHJpYjpDcmVhdGVkPjIwMjMtMTItMDU8L0F0dHJpYjpDcmVhdGVkPgogICAgICAgIDxBdHRyaWI6RXh0SWQ+NDRmOTAzZTgtZDYwNS00NWYxLTk1NDAtOGExM2MyMzM2OTg2PC9BdHRyaWI6RXh0SWQ+CiAgICAgICAgPEF0dHJpYjpGYklkPjUyNTI2NTkxNDE3OTU4MDwvQXR0cmliOkZiSWQ+CiAgICAgICAgPEF0dHJpYjpUb3VjaFR5cGU+MjwvQXR0cmliOlRvdWNoVHlwZT4KICAgICAgICA8L3JkZjpsaT4KICAgICAgICA8L3JkZjpTZXE+CiAgICAgICAgPC9BdHRyaWI6QWRzPgogICAgICAgIDwvcmRmOkRlc2NyaXB0aW9uPgoKICAgICAgICA8cmRmOkRlc2NyaXB0aW9uIHJkZjphYm91dD0nJwogICAgICAgIHhtbG5zOnBkZj0naHR0cDovL25zLmFkb2JlLmNvbS9wZGYvMS4zLyc+CiAgICAgICAgPHBkZjpBdXRob3I+bmdoxKlhPC9wZGY6QXV0aG9yPgogICAgICAgIDwvcmRmOkRlc2NyaXB0aW9uPgoKICAgICAgICA8cmRmOkRlc2NyaXB0aW9uIHJkZjphYm91dD0nJwogICAgICAgIHhtbG5zOnhtcD0naHR0cDovL25zLmFkb2JlLmNvbS94YXAvMS4wLyc+CiAgICAgICAgPHhtcDpDcmVhdG9yVG9vbD5DYW52YTwveG1wOkNyZWF0b3JUb29sPgogICAgICAgIDwvcmRmOkRlc2NyaXB0aW9uPgogICAgICAgIAogICAgICAgIDwvcmRmOlJERj4KICAgICAgICA8L3g6eG1wbWV0YT5nvNwZAAB3X0lEQVR4nOzd65NV1ZmA8Wft003T3O8QRGWMQAjRRHEQENQxyCTO/AVTk6n5z+bTXFJJrMQxZsrcBEQjNwMCooAQRGy5Nc2lr2evdz7s04AITlLB4bh4flVQXTS9+zRVzdPv3muvnSIikCRJX2vVvX4BkiTpr2fQJUkqgEGXJKkABl2SpAIYdEmSCmDQJUkqgEGXJKkABl2SpAIYdEmSCmDQJUkqgEGXJKkABl2SpAIYdEmSCmDQJUkqgEGXJKkABl2SpAIYdEmSCmDQJUkqgEGXJKkABl2SpAIYdEmSCmDQJUkqgEGXJKkABl2SpAIYdEmSCmDQJUkqgEGXJKkABl2SpAIYdEmSCmDQJUkqgEGXJKkABl2SpAIYdEmSCmDQJUkqgEGXJKkABl2SpAIYdEmSCmDQJUkqgEGXJKkABl2SpAIYdEmSCmDQJUkqgEGXJKkABl2SpAIYdEmSCmDQJUkqgEGXJKkABl2SpAIYdEmSCmDQJUkqgEGXJKkABl2SpAIYdEmSCmDQJUkqgEGXJKkABl2SpAIYdEmSCmDQJUkqgEGXJKkABl2SpAIYdEmSCmDQJUkqgEGXJKkABl2SpAIYdEmSCmDQJUkqgEGXJKkABl2SpAIYdEmSCmDQJUkqgEGXJKkABl2SpAIYdEmSCmDQJUkqgEGXJKkABl2SpAIYdEmSCmDQJUkqgEGXJKkABl2SpAIYdEmSCmDQJUkqgEGXJKkABl2SpAIYdEmSCmDQJUkqgEGXJKkABl2SpAIYdEmSCmDQJUkqgEGXJKkABl2SpAIYdEmSCmDQJUkqgEGXJKkABl2SpAIYdEmSCmDQJUkqgEGXJKkABl2SpAIYdEmSCmDQJUkqgEGXJKkABl2SpAIYdEmSCmDQJUkqgEGXJKkABl2SpAIYdEmSCmDQJUkqgEGXJKkABl2SpAIYdEmSCmDQJUkqQM+9fgGSulgEtNuQErRakCbfkb7soyTdA07oku4sZ2JsjBgfg8hN4COAuNevTNItnNAl3VHkTB4ZhaEh0tAQsXgRLHuAKiClwEld6h5O6JLuKHImT0xQfzpA/Yd3yCdOkiPITE7qkrqFQZd0WwHQatGaMZ3q/DnqV35B7N1NNTJM1DV1Sp54l7qIQZd0Z62K1D8VRobJBw8RHxyFTz+F4WHC0+1SVzHokm4rEVQJUk8PqXcqqXcGnB0k9u6nOnueFl5Bl7qJQZf0pSJVRF8fafZsGLxE3rOPfO48rnWXuotBl3RH16M9dQpp4Vy4MkTs3kM+e5b6Hr82SZ/nbWuS/m9VBVN64eoVuHCONHiRamwMenub90m65wy6pC/RuUqeUhPu4atw7jPSpUGq0VFSVRl0qUv4nSjpDm5a8jY+AZevwMgoEUG+fJX6wiVifOLevTxJn2PQJX2J1Gz5Oj4GQ5eI0REiII+Oka9eI9peSZe6hUGXdFsBRGRSu00avka6dIEYGXZlu9SlDLqk2wog6kyMjBIjI8TYKLQnvF1N6lIuipN0R1HX1FeHieERIud7/XIkfQkndEl3Nj4Bn52F8xdIdRP0lCD19sDUPmj5X4jULZzQJd3Z2Bh8cgYGzkLdJtGsfU9TpkC/QZe6id+Nku5saAje2QUHDhBj4wSQUyL1TaHV309qte71K5TU4YQu6YsiYGICLlwg3jtAHP0QJsahdwpMn0GaPp2qf2qzsYykrmDQJX1RzqTz5+DjU8RnZ4jLl0g5w8Il8MgKYuFioq8PWi2fuCZ1CYMu6YaASBDtNnH0OLF/P3H+XLOxDJAWLiStWUNasAB6/O9D6iZ+R0pqdG4wz0AeHyf27iPe2EG6eBHoLIZbvJD0+BrSgnn38pVKug2DLqmROhvGnD0LH31EHDxIHD8O18aAikymtWgR1XcfI82fSyJInnCXuoZBlwTQWcEOcfo0adcueP8wnPkE6CFokQlaixZSPfYd0rSp3NgvzqhL3cCgS/exm7dxjdEx8rVr5F27iJdfhpMnO++tSYsWU61YRVr1bVJ/P3i7mtR1DLp0H2uCHpCDPDhIPn6C/Id3iO3bSNdPqNewaCHVM5upVn4L+vpwOpe6j0GX7nd1Jk2Mwr59xL/9B2n/3k6mmyk8U1MtWkC18W/hkYc7H5TwES1SdzHo0n0imJynm7euz9hXrhBHPyR2vkX8/veky4MkKoLU3Gu+cB6sXEH61krSogU3HdHpXOomBl26D9y4Vh6kiOZecxIpIE6fIf/XT8nbtxNXL0JdAz1kapgzEzY9Q1q/ARYuhKlT7+nXIenODLp0v4gm4kDzKNThEeLQYfKbO6nffps4cQLaNUQQKZGm9sPSB6g2bKT63veopk9zq1epixl06T6QovkVqXm4StXOMHiR9n+/Sv3ar8jHP4Qrw1TRIlMTVU1r5iyqh5dTbVhP9Z01VFXr5vP2krqMQZfuB51NY6Juk9rj5O07iW07yDt2EB9/TBqZ6OwSVwMZ+qbC88/BSy8RS5cSrZZr4KQuZ9Cl+0BEkHOGy0Nw4Rz517+h/vFPyRfOwfAwiR6a0XsC+vtJi5eQnn8W/v5FmDvn+jX49NdO597tJn1lDLpUssnT7BMT5CtXiTd2ED/7BRw6ABfPkcYngBtPTEtAeuop0pYtpCeeIM2eTdXT2/z5XYzw5A8IXpGX7h6DLhUsciaPjhIDA8SRI8TrvyG/8ipp9BrU4yRaNFnNpJkzYP4cqvUbSD/8IWn5clJ/300bzNwFndvXo85AEFVFups/KUj3MYMuFSroTOanzxA7dxL/+e/E+++TRoeaR6pd//bPQA0PP0h64fuk554jrVpF6u+j+krOkQdpfBwikzrPVJf01zPoUlE6m8ZEkM+eJU6eIu/aTezYAfv2wsVBmom8RRPpDDOmwdIlpKefprVlC6xeTZo1q7P1zF+6rD2aDWkmP6quidEx4vJQ87knagDS3DkwexZpypS7+cVL9zWDLhXj+s7s5Aji6EfkbdvIP3+ZOHSQamysswPc5AK45sErzJ0Nz2wivfgi1XObSNOmd46X+LNjHp3fUiZTkSdP049PkAcvEceOEQcPkq6MkFKLtHEd1bdXEhGuj5PuEoMuFSaOHiMfOEi8/TaxezfpTydhZBSoiJsn874e0iPfhLVrSVtfpPred5uY9/z5p8Cv70CXILVraI8TZ88TZwbg6DHi9MfkC+dh9hx46GHSsodIc+ZQPfgAaVq/G9VId5FBl0oQARMTMDpC/HE/8ZOXiXf3EseOdubsWybz3gpmz2xWsn9/C9Xzz5KWLPnLPiU0t8LVNbTbxLVrpKtXicMfEPvfI7ZtIz44Qr52meqFF6jWb6RatZL00AOdGR68f026e1JEuF2E9HUQn38zJltY151tXA8Rr/+Wet8e8oEDpAuDcPlK5y8lmgk9E9Skxx4nrV1Lz9YtVGufJC1b1tx/TnQam275tM2V8eb3ztX1dpu4cpX45Ax8cIQ4fBgOHSQuDcHoGCxYTFq2jGrVI6RVq2DVatLsWVQzpneOxN1cPy/d95zQpa+Z6NxbHhEwNkYMXiJOfES8sZ342c/Ip/5EXBqkub+8xY1r6xlmzoD5s+HpdaTvbyGtX0e1/KEb18BvWQQXNGvgJ6+mx8QEeWyCGBoiX7wIAwNw9Cix713i4HvEoUOkefNIDz4Iq1aQntlEa/1TpHlzm4fBTB7n5qe9/b/9y0llM+jS18jkZB4JqDMxcJb8x/3kn/yY2LOH9OkAaXQM6Onks1n41kzmkFY+SrV1K9XGjVRPPkE1d3Zz4OtT+Rfz2mS+c7Shq+QzA8TbO4l9e+H48Sbql4dIvVNIf/NN0tatpGc3E8uXwzeWEDNnwk0xh2advdvCS3eXQZe6XjPLZtL1Pdm5OEgMfEbevYe8cyex80340ymaRDaTedBs3pLIpHlz4NEVpOeep9ryItWKb1Itvf01889NznUmxsfgwkXy6TPUJz4iHztO7NsHhw/CmU9IrRbpgQdJ31oF3/4OafMm0pNPwMwZpL6+6yFPtyTcmEt3l0GXul7nVrTOM8wrIE6dIt76A/kXPye/8zbp2nBnBu5hckPVmNwwhiA99DDVP/2oeXLamtWkvim333a109w8eZR2Gy4Nkf94gPpXrxP795GPHKIaG4PxcaLdhpWrqH7wQ6rnniU9s4HU399sGFNNnlyf3B7ui9fnJd09Bl3qajdv1JLgzKfE+0eaW9LeegveP0IautZJ5I1tXCFTTZ1KLJhHevJJqo0bSRvXUy1f3twudpvtVicn88iZND5GPnmKfOw49XsHiIOH4PD78MlpqosXSf3T4RvL4InvktY+RVq3jrTiUdL8+TedWr95va0Rl75qBl3qWpOL2RLkoGq3iWMf0f75K80p9nf3AL2dJ6XdJEGqgNmzSStXk/75R6TNm6jmzyX19t75gSgR5AjS6Cjp0iXqve/S/t3viNf/B05/3HxcVZF6emHefFjzGOlf/pW04Wmq+fNJvT23HPuWiLtnu/SVMuhSN7l+mTluLEaLRAwM0H5jG7HzTWLnW8Qnp2+zSryZzFmwgHhgGa2/e55q00by44/DrJmkqvrCdezPfeqrw+SLg7D9TWL7DvKpE8SpU6RLV2im/5q0dBnp0RVUmzeRnl5HrF7dHLuVvvTYkr56Bl3qNhGQool7uyYuDBIH3iO/9hp51zukEyeJ9gRB9fkbzHp7YFpfs/jtqXVU//gPVJs2ED29zWR9h21WY6INw8PEqY/JRz4kXn2NeOVVYmIY6nGghzR1GsyaDo89Bhs3kX6wlWrtE0Rn6q7czkK65wy61E0mF40FpLqGoSHqX/6S/NvfEnt2kz4dgDqR6O389cmFZzXMnw+r11C9uIXWSy+Rli4h9fTS6kT3dtfNMxBDQ/DeQeodO6h//TrpxEnS+FUi6uvHTsuWkjZvhs2bYOMGYvEiIt20LYyn06V77n8BAAD//+y9Z5NdR36n+WTmMdffskAVHAGSDTqQbDZo2kvqHvVI06MxMTOrmInVRGzEvtnZL6HPsBH7el/sbmhjpeiJlWa2taPultqSVNM1TZNNwpsCCuWvPyYz90Wea6pQAEESpgDkwzjANecec8GqX/69F3SPZw8xtnMF9sIl7AcfYP7hH7C/ehWWl10HtqKFq5NQA1EI0zOIEycQ3/ku8tvfQjx3YqSxN5Jam2XYK1cxH36I/dkvsL/8JfzjryFNx1dTrSIOHUa88lVXX/7l5+CJ49smsXkp93j2Bl7QPZ49gp3YEKDfeAv9lz9AvPMGXFmC3OJi2WMEBiox4pkTrvPbv/nXcGARI0DepErMAqbfR7/2GvbHP8b+7Kdw6QoyAwgZTWKbnUP88feR3/kDxMsvIaaaowx2X1Hu8ewtvKB7PHsMe3kJPv4E84ufY99+E65dQ6QaV5I2FE/j6rz3LTiL+XvfQ3zzG8iDB6BScbvs0NnJKLc5fQb9wQfYn/w99vXX4dIV6PQA5dLxwgD59AnESy/C7/0enDjhWrqGwY6hKl7MPZ69ghd0j2evcfoM5i9/gP3Vz7Gnf1eUpe0caWpASTh6FPH1byL+5Z8gn3zihiVpw57sQ/R772H++m/gZz+F02dg4hwWAyWF/NY3Uf/iX2JeeB7mZhFFrp5vDuPx7E28oHs8e4WtLey5c5hXX0W/9ku4fAVJUPSGG1KUpjXqiP37kX/4XeQf/VPEvn0TYns9btYa2KUrmNNn4Gc/h9dfg1U3xGU4I11gkE8/hTh5EvGtb2Gf+BKqWnVJ958Sk/d4PPcWL+gezx7Aao1dXcO+/mvs669h338Xkdnrm8YMY9v79yG+/ALq299Efv2ViVmqNzi+MW5m+bnzmJ/8A/a111znt5FlbiGQztX+7AnE978PL55EHDmMtOMzezyevYsXdI/nXjEcg6oNttfDnjlN/l//BvvWWwitd1jmo49gAfnClxH/8c/g+HHGNvNOE93VshshsP0B5tqqG+byg7+CpSvFYmFY9pZjG9PYQwddq9ivvYKYmQasqzW3uDp27273ePYsXtA9nnuGa+tqsgwuL2E++h32/ffh0uUdw0aHGESzAQvzyJMnEV99BVGrMhTlm+ms3dzEvvMb7JtvYj94D6HdIBc7tPgxsH8ffP3r8Pxz2COHkUUmu8GVmQtvons8exov6B7PPcFlmFnADPrwwW/h3fcQ3S4u2j2Maw9xk9PE0cOoP/5niBdfdOIuCyt+18YuYnyIq1fhh38Lb72FNENL3mLJAeOWFkePIv/Vv4anntw2A33kJ/DNYzyePY0XdI/nnlEIZr+Pfvc32Hfehm63eG9HIpwSEFcQjxxFfutb8NhjENz8x9cCaA3tFly8iP3wA1haKo4tiysAG0cwNYU4dhR5/EuI2dnbe5sej+eu4AXd47knTPRA7/fIf/M25q03i57ok2JeuMSDEFFvIh45hnzpJezszKcmqVlcNzixvAznz8HFc7C5CTYY7SEAUa5gHzmGPHqMYH4eW634MSsez32IF3SP5x5iej30xiYMEoQZdoLbngxnAZpN5MsvIp59BluKsXKy+eruCIDBAHPqDObUaexg4Aa/7KRcQhxeROybQ6ix5e4F3eO5v/CC7vHcQ0y3h9ncgjQrHPA7Y+eFaDcbcPIr8NRT2Cgct4i9CQIgSTCnz7ja80Gy+45xhNg/h5hpuqlsX/SmPB7PPeFGjaU8Hs9dQKYJqtcFnd9QoCUgSiU4fBizsB+jXEc3dfPEdpdwl6Zw4RLiwiXEaOjK9n12XRz4jHaP577DC7rHcy+xFqwBa3fR0LHcijiGhf2ImRmQcpTW9mmCbrMMlq+6Lct23QdjYJBhkxxr7VjMvah7PPcV3uXu8dxDbBRjKjUIgl1W1wYoLPcgIJhqIht1EMNStVs4gdawtYHd2gCds3MNLwHSHLHWglYXY+32hYLPjvN47hu8he7x3EviGFEugwpuaqEjJYQhBIFr8nILhxaAMAabpc5St+NytW1n6PUwZ85gL12CwQBrtDfOPZ77EC/oHs89REYhslKGQN00hi65Qaz7Jgg76iFXFKgpdk5ts4BptzAffoA9/YlrbJPnGOE97h7P/YYXdI/nXhJFUKsh9i8g9u2DUDI56PSLeLutGHZ7UwgkBuNGo04cXSCRViLzHHt1Gf3mW+jLS5958eDxeO49XtA9nnuIDQJsrYY4dAR58BBECtdbfcjnl3QLbrBKEEMQgjDYbcemEHvlSuaWr5G/+irmwgWXHOfxeO4rvKB7PPcAi7PDLSBKZeQzzyCefRaqlYm9JJYAg3QDUvhs8i4AGUVw6BAcOoyIoht83g1q4eJlxA9/iPztB8j+ALRzvXs8nvsDL+gezz1EAKIUI558AvH0M4hqo8hiH0p4MfPMGEgzyDJsUeJ2S41l4hhx5AgcOfIpgi5hfQPe/Q289z58/Am21YJbOI/H49kbeEH3eO4BYrRZRBQiHz2GPH4c6jMQRFBMQYPihzTP0Zub6HYHMyHoNxNbC9g4Rj52FPXYUYjjm17T0GuQv/0bsr/4K8zpsxMH+vz36vF47g5e0D2ee8RI1JVCNBqIw4cRX/kKHDuGlcP89IL+AHPxEmZ52dWWA5+mshYgjuDoEcTRI4g4uoUrUnDuPPaXP4f338devoxNBqOsd6/rHs/exQu6x3NPKWRdgFjch/xn30O8fBI7UcYmANHrwicfYy9cKATdFs74T5HYKIIjR+DIYYjim8bgBRJJgFhdRX74Hrz5Jva999HtDhq25cd7PJ69h/rzP//zP7/XF+HxeAAp3OjSrRb27AVEniOSPgLjZHuQIqdnUC88X7jP3WLgRiJtAYRAKAWbW3DuPPR6bj46sHuKnQBrEdpg8wyrc+yhQ4ipJiII3PFu+417PJ7bgW/96vHsEWythj3+JXj2WTjxPELniK1VJ8ybW/DqPyKOPYro97C1GkaqT3exSQmVChw8iDj5EnarBUsXd+0aN/EhbKoxb7wJgx7yKyexi4tuESG9U8/j2av4n06PZ48gcBPUguOPE/7Zf4d47mkMw/I2C+TYtRXyt95FX14alb19Ghawc3Pw7W/C009hxKc66kfXI9bWEf/ff4Of/wL6g899bx6P587jBd3j2SMUxWPIQwdQ3/09xFdewB55BKq1QtAN9upVzC9+hT19bjSl7ZZoNhHPPYs48TQcOgy1GjdfDgj331YLXnsNfv1r7MoKDLyoezx7FR9D93j2CK6zG0XcOwARQHMGsXINsXzV7TTow4XzyMMHCU5+BSEEQkq2ZdBNHA9AWpBCQBggshwRRdBuY5YuMxTu3RFgLGLQQ9RqiAMHEZUqYmb6Tty+x+P5gvgYusezxxBSuu2J40ghMZcvYFub2KtXYWvLbb/9Lfaj38GhQ9iZmV1dbWLybylBRXDsGPIPv4e9dg3OnoFOH5tkE5I+eSQLWmM7CVy8iH3jDezMNPaxY9edw+Px3Hu8he7x7BHExAZAqQT1GjbT2CzHXlnCdjrO8p6ahiDEzs/B/v3jz4ldjicYj1ytlGFxAbu05GrMux3odxCYwlIfCnrh4kc7d79UkCSuBO6FL29z1ntR93j2Bl7QPZ49ipUSgsDVkkchtDswSJDdDmiD7XURi4uIhf1u+IpSiE9TV6WwUeRK4sIQe+UarKwyrjIfjld1jW1Gh7MW+n3kU08gXnnJOeql9GLu8ewhvMvd49nLRBHyxDOIahU2t7Bpiri2jDl3DrNyDfX8s4gnn8AcixFxdMsDXOTJk8jZOXj/E/RHpzFJG2HNDte9wsXYLXQ7bltZRvR7iFIFIZU3zz2ePYQXdI9njzIpznZ2Bv7g9zFSYHsDxKlPYGUZ8+OfgQmQf/YfEPWGS6oDhGX8eMdxJUAYwtwc4p//MYQK8eO/heWVG1zFUNi18wykOUR22ODO4/HsEbygezx7lG1i2WggX/gyGItZ23RJbu0W5t0PsJlFvvIKYnEBW6+Dcnb2bnHu0TGDADvVRHz7m0hh0ac+gm4PumlRCjf5CVUcz7i3jN1WLedF3ePZG3hB93juI8SjR5F/+m8x9SrkGnvmNHZlCf2TH0Mgkd/+JqJe22Y937AoTSnE/CzyqSexf/AdrFLwxpuQGcaxdMdwMIsMAmS5jA3Ubof0eDz3EC/oHs99wHD2mpiehulp5FYLO0ixPw2x585i334L02wgjj+OVQehUv70eLqUUK3AoQPIr76CvbaMfectyLY3nLEYiCNspQmNJpRiUF7QPZ69hhd0j+c+QTKcgy6Qzz2LWFyAIED/3d9hz5zCvPkGvPQyRDE8cthFvie95zsYjUNtNBDPPQsfvO+sdLKJfSwWDfVpxLEvYfcfwIRuDKt3tXs8ewsv6B7PfYYARL2GiGPkt74BUmL/PsB2e5j/+l+QeYo8uOg6yN1kmIrAdZEzYYSdn4fFRcT8fqxZgV4flz5XyP7sDPLkC8hHjowmrt1qRr3H47k7eEH3eO4bxHYRjULUN76GPHSIXID90Y+w/9f/iajGqD/6QwijT52OJgFUgK7VYG4eDh1xQ1h6bdyvB3c2MT+L+tqLiGNHiivxYu7x7DW8oHs89zFWSuzcDOI7f4CMIzdJrZugf/D/IF86iTh+nF0bvQ8/X7wsBNgwwFYq2CjAYhFoRKkM84uIJ5/CPvMMct9+5E3c+F/gTiau0U68NnkiwfX3snNfv8zwPLx4Qfd47mMsYOt1xEsnoVxC9gbYpSX0T/4B5ueRx44hVOF6322Ai9guhVYK7KjdnIFKjDh+HHHiBDz2GDSnXFx+x3G+0A1gtwf7t71WFNSLnQLOjud3ZJXh8dxX+PGpHs99zGjkKiAPHUL8i+/DSyex5RjdaqMvX0X3E9fEdYcBayc2YS2i3YXzS4iN9sgWtrOziO/9IfIb30CWy05Xb6MhbATFAmIo5nbcgN4WmxgOjx02o91N3OX48x7PQ4q30D2ee4y1bgwKuDGnn0Urt+071URONSFN0e0WNgwxG5uIqYY79s79KSQx1zAYYDc3YWUFel1EEMChQ3DyReRXX0EeP44Iw+sGwHwRJm1ri2CQ5PSSnF5q6GaWdqZJtMEYU+wjUVIQKkEjlFRDQSVWVKKAahy4FrUez0OMF3SP515iwVpLWohWSUnEp05Y2R2BdV7qLz0O+/ZhV9awaYotjj2yfoeJbjiRN0mCvnoNvbKCTdoInUK1ivij7yP+5E8QXzqOqFQQyJuWwX3263XXbACNYLmVcHa5w7nVhFPrKe9tJVzrpmSDzI2OERDFIc1yyLPNiOOzJR7ZV+LR+QqPzddQQmwfTjO01j/n9+nx3G94Qfd4vjDbm6waa8mtZZBqeklOd6DppZpBZmmlhpVEo4SlLKEWKaqRohRLGqWQ2WpIKVAEctKtfKuCVExIq9eQtRo2CLHdLkTRDY9gAdtqYX7zHvaTU5Al8NRTiBdfRPyT7yKefw4xPY0I1Dh2fpuwxfe03E04vTFgc3NAayulk2qktNQjwSCT9HLBlU7GxU6OtAMqSrJejzhzLWLhSsTBuQqH53s8NV/m8ZkStUgRB6NWPLf3oj2ePYwXdI/nC7EtEg2AtpZBblhpD7iy2efS6oArmwnrXcOprYw3NhIiNIuR4dBUiSPTJR7bV+Wx+SpRIFBSoKRC2OK4n8XPPawRF8C+ObCz49K1HZbq8KrNxgb21dfg/Q+QeQ6///vwP/0nxOICcnpqHAa4zdpogEQbPl7t8p8/XKZqBAeCkKlGzIH5Ms9ZSzc1bPYyfn6xy/LZNtnWgK3egHc7CR8sS6SFqBJSasT8Dyfn+dPnZnikWSIO/K82z8OHsNZnkXg8nw9LJ9G0Bjnr3ZRr7ZTLWynXtlJW2intbkqnlyEDiCPJdCUmLoWYSNGMJDOxoFlSNMsBs9WImWrEdCWiFCqUFC5RDe6Yy9jmOebaNfTb72D/8geQDJBHD8O3vo39+tdR5RIyjvhsUf1bx1hLri2X2gN+u9IhBppKUY4DokhhgVxbkkxzfivlk/WEpZUeZ691eXOpy1IrBQsyEKhY8pX5Ci8fqPHdp2f48uE6++sxpdBNivN4Hgb8MtbjuUUsYIwlN5ZcGzJtuNpKubyZcnaty8fLPd651OHsSp/ljQEit8RIjhyMeexghUdqAc8drHPiYJ25akg1Chjmbo+zvOUoo1sIcX2V1u3CGEgSuHQZcekSGIN44csE//G/x0xPY+LYLSisvWMLCikEkRI8OlXh0ekKE81osS4jAJcKZzkJWAMfLnd4/XyLll6mlRp6mcYYjelnvP7xgE/Ougz9UiipxQFx8PlzEjye+w0v6B7PNnYrsrZF4pplo59xbr3DmZU+p6/1Ob864PJGQifRbPVz1no51VDy0qM1nlmo88xindlGyGw9YrYaMl1xWzyaVjaqAC+e2iJZ7fa6ucdSWTzv9jBr67C2DvUG8k//HeLIYWg2kUFQyOlnXU3YUdm43dbVrjiOnRyg7l4zuES2UZre8GvY/od7TcCBZpmXj0qMkBye3uBv319jtWvcsJgIuhJ+9MkGGZb9jZhyFBCHrg++8M1nPA84XtA9nl2xRTkZbPZSNnsZK92cS1sDPr7W4rdXOnxwucfSxoCVVkoUBNTjgPl6xJMLFU4+UuPlY9O8+MgUlVARBzdq+bB94TC01u+E5GzrxZbl2DRFhCEsHoAXnkNMTY0EWOy6sLnVs4wbxFg3RR1tLLkp3hUQSZcrMNTwCdm+8SMBU5WQcqSolhRKwKmlHrm2bKU5VkEi4LfXesSB4GuPTVEvhxyZLhVpBD5JzvNg4wXd45nADN28FnJjSIzl7UstXjuzwVsXe5xdG9BNNJ1E00lzEm2RsWKuFnNisc6/en6eZw9U2d+ImK6E1KIAdUvtm+6O5SiKBmwyChHTU5hmAxuGUK0Vs9yGyM9xOWKUlAcghBPyRBvamaaV5VgLSgr2lSLqYbBtbvvwELtjizI0QSgF+6shJ/ZX+O4TTQJl+dW5NnZYh6cEKwPNjz5aI1KCA415Qql2eAg8ngcPL+gezwQCyyBz7vOza30+XO7xzqUW715q8dFyn+V2zjYVEoI4VDw6V+HlRxp87dEpju8rU7oudrvTfX2j98blanaiXny836d/bvzu5OeHPdYKF3cUYqVwc85VMLH3rVmxmbbkxpBpS5obBpkhzTVpZkhzSy+3rCU57dyQaks9FsxVFVNlV0cuR9f02dvoSCEoh4pDUyW+/tgUV9sZr51rj5rzIARbA81blzocmyvzT9JZQiknSgE9ngcTL+gezwQCSyfJ+fhal79+d5X/49fL9HNDagyZ1qAsyInMaQuhVDy9UOWVRxos1CNKgSpc1p8Wgx41WJ14zrbXbizqwz7nOz43LBYvYtnOp12kmI2cAALCABEolJDj1unbAtg3xgJJrumkms5As9HNWG2nbHYTtjoJGz3DlY7mrY2ES/0crOXrh2v826emmC9FLFRigs9c1H69KT9djXjpWJN3r3TdvdmhFS/ppoaPVwacXkvZGmjKofKC7nng8YLu8ezgaifjh6e2+OX5NitbCUYKUIUaiuuFJTOWdy93UQgutxKOzZZZqEdUSopSJEcxdClASoGUclsb1uut1Bu/c91+E/l0VgjXUa0gNxZjDaKIZVsz3FWQ5oY0N+Rau4z93JLkhoG2hdVtaac53aIhTic1tFKNzjXkhiQzpJklMZZepukONP1+Rr+f08OilWR2qsQT++ssNGKenC9xfL7MXDUivE3CGipBoxRQKwWEsUTnFlMscIyFVFv6iaE90EyXDZXIj67wPNh4Qfd4drDSzfnp+Q4frvYJsOQCzHBYCGyPxQpIjOXVcy0+vNLlvSstnjtY4/kDDeaaEVO1kJlyQDMOUEoQKEkUKKQQw3DvbZmQZAFtQTO299PciTUUXdm0Hb3ZHrg8gEGaMkhy+omhlWg2Ek0/NXQSzZVWwrVOylbfcLWbcbHt2rCSZpALhBXISLhFihUIDTKziLpk33zMHzwxzfeenOW5Qw0aJVW0np344r4gUkAsBXEoiWJFZsHkZnwOA1lm6SbO7e/xPOh4Qfd4dvDYbIn/+ZUF3tpX5t3Tm3y82edCawAZThAD6dRk1JINkJa+yTm1lrA+MLx3pU8pEMRKEAeSSEmEFMhAIgMXzw2VoBkpakUJmxBFBfqtap0FkKQattKcxLi0ttxYtHYJada4VH1rCwvdWrCuhj7XhtwItAGtLal2w1AKI5xuphlkhiTT9DONznL3BkAkKIWKI82IxbprijNbCZmphszNlNg/U+aJuTJHpkqUAjHRR/72YRGuRE5KCANIhxX8uPNp44rXPZ6HBC/oHs82BAfqEf/8yWmOVAL2h4qZq22aK4qsZ1zSF047UmNIjLPQrbAk2nKllXKllblDaeM2d1jXglVJUIIgEIQK5uKQZhQUu1gQeqKPy42syomIupUMNKz1M/rFuXLtktZchxrrNktRID4UuWFb2QCEy2gPpCUUlkAplJSESg4vl6mSZF8lJlCu3ExGkkY54MnpEkenYhanSixOxSxMxxyYrjLXKKGG5W93sFrMIjAIzDCcILa/Kxmvv3zZmudBxwu6x7MNgZKSSih4+kCNxWbEdwazbPRyrrYTrm4OuLrR5+pWwnIr4Xwn51IvJ0slWo+6qjisAKGGhy1ecxazzi1WC1bTjC3yidPbyUth1+z4HS9pa0lz7eLHQmJtYREPPz4MngtZ5AAotk0iK3z/1VLA/kpAo6SolyRzlYhmOSAOBdPlkIVqRLMaUKsEVKKASqSoFTkCpUASh5JSKClFCpc2OK4f33FTtw0L6CQnbfXRlqFyu9MoSRhJ6qXhsBaP58HGC7rHswMpBFIJZmshs7UAawW5gWvdhGvthGvrA1ZaCSuthEu9nMu9nMHAkGUGrCA3llS7ki4n8kWnOevaxmoLuTXOJa6FC3zDaErbuPzqBhdoIRCSQIiJBYAuhroESOnaxrpcPkEkrGusIpWL4StJoASBdCVsUglkIGiWAubLIfVYUIslM5WQRsm1T22WQ/ZVQ+rlgFo5oBS649z8Qj/tvS9Gkhs2BjlbvRSdGleGV7g3AimplAVTlaAQ9N2mwXs8DxZe0D2em1HopZSCfbWI2XLAl2arTpiNJTOGVBs6iSEp4svdTLPRz+kMcnqDHKENeW7ZTDWd1LixqllON8shl9jcCU1mDe08J7+FeUlVpaiqojGLsBBYokBQDUOCQLhOqEpSUpKpSBGHEqsEtVLIVDmiVlJUIolSglBJoiLOHwqBFBYprFsgCIEQY9e7ku67EMP0+lHF3d0Xy06Sc/pahytbaeFcZ9R8phRIFush++sR9ZIkUte1pPN4Hji8oHs8N2TovnUZ6VII13Es3N7cxVqKZDKnbok2dItksjQzYCxGW3rakOSWLDck2pBq7Sx0446nrWVgNLeSkB1LSTwaiwpCOQGOA+li3NJZ56GSVAJBIF0gOQ4VlUg5CzsQSOFi4oEU4zGp18W9J2rjbvAV3R22X8NGN+XX5zY5tdLByiLpzgrQhkYl4IVDNZ5cqBAphRBytyC7x/NA4QXd47kZYrIWfDcxcG7rUqBGP001YPauXNydYrcWqfdaCO047o+rq1/pJLx6doOPVjoYpQEJViByw0yo+OrROk8vVgmGjYDu9S14PHcYL+gej+c+YCzI/VRzaqXHG+danLoyYLNriMKAPHcpBTPNkMcWSjy9WOPQVOkWe+l7PPc/XtA9njuMscWQktwgBMSBmxTm53R/VgSZNqz3Mt680OL1sy0urCV0ckNYUUhhiRQ8tq/Mc0dqPL6vwnwtwpvmnocFL+gezx1h3It9kBs2+ynn1rsoKXhsrkYjDlyi1l2asnZ/YnBlei6Gb4VlpT3gt0tt/u7DdX5xpkXbaLQAm1qUhOl6xB89O8/3n5pjrhbjv1vPw4QXdI/nNmOsITeWjV7Gajvj8saA9V6KVYb9zRhj7cTkc89NKeLmSW7o5jlvX27xs483eOtShwubiZvyWtSeP76vwskjdb756DRPL9aIva/d85DhBd3juZ0UPdO7mebdy21+eWqdf/ykRWeg+fffXOTEwRK1SBFKgWH7kBbPDqxkOEFuK825sDXgbz5Y46/fXWGjb1wTGeOy9MNI8E+fnOHPXlzgyHRMrAR+uJrnYcMLusdzm8i0oZ3kfHytx+vnW3xwpc1HV1qcWupTCwPKYcB0OSKUw1npN5tnLiYe7WS3z+323m5sL7nb7by3QqpdYxwpnXAGclgNMHlfn1dRx13sBrn7Tv/xfIuffLzB6+daXGkloCWVQDJfDXh0ocKTh+t89/g0x+fKxGEh5l/0Mjye+wwv6B7PbSLRlqVOyo9PbfC//P0l1roJFo1N4cl9IdOVgKlygJKyiJxPiO9IfMYiO3TLb7fit5dvjeab3/A9dhG2odpNzFMXtx4AcPPQDYNcF53nhg1oini32P3Kb/ngE+1ve5nhYivh7z5a53/9+0sYUbSxzTWNSPL0XMj3n53h3331EPVIUQ7ktpnwXsw9DxNe0D2e28RyO+Uv37rGj363QWswbBAjQcG1xPC//2aVs62Mry5WOTgVM10LCQNJoORoeNukAu2eMieuN7J36/cu2N6v/TrGTXOMdTPQB5mmn1rSPCfLNUkOnUSz1ktZ72Vs9jM2+oaNgSZNNdJaZmoRj++v8OLROgv1aDRo5vNZ6mMh7qaaM6t93r7Y5henNnnjQhttLEhBoxTx0mM1Th6s88LhKk8dqFGPFZEcLiDG9+bxPEx4Qfd4bhPr3Ywf/W6TV89uubGlougtrmAjNfyXjza4uJmQtRs8uVDj4FyFUqyIQ0UgLIGAUEpkIcgC5zoWRYnbUJ8E417tTrS3C7pFuAFrxXsWgS2Mdzd4zY6eZ9b1ne/nhs4gZ6ub008zBmlGJ7Wsd3POb/S4tDVgaSvhUjtnqZ1DpikJwcHpMi892oQAntlf4dGpEnGgCJUcS+st6qqbeOpmsV/eHPD6mU1+/NE6P3xvjb621EuKcqw4PF3ie0/P8ftfmuKZA1WqcTEAx+5Y/ng99zxkeEH3eG4TQkrCUkAQSvJeghUCilnn1ljyJOf01Q5/sdWnUV6nUopQoUBFiihSTEWSIyXXh9woSVkqKoGiFAuisOinLgWBkpQD6brT7RIzT3In0JkxaG3QBrIM+omhrzU9rTEZJJllqZ+ykeQMMkuaarIkRxsXH8+tINGWXqrp5Zpebujl2k1vk5YMWO6mvHpmiwsbA15+pM63HnWLlaNzFWLp2tBux26/5IkwQKoNW4OcH324wi9ObfDhxR5n1wf0LByejXl6sczJR6Z4/lCDx+dKHGjExIEaC7koju+V3POQ4gXd47lN1EuKLx+q0+4lnL+c08kMiXG11FaAtpq1NGdt0xSxZgmBQASCMAqYjiVHS4JyKDFSUlFO0CuxJIoESkKgJIGUlENJuVgs7GSQG/qZJjOGvBD0NLP0EyfI3ULQB6nlUj9lPcnJc4vJJ+a3g8siH/ZAHxm/xSx1CxpLZ6DpDAacXx8wSHMCNBZBKQzYV4+oRTus5m0hApdF0E81W/2ci+sDzqz0+OGHq7xxvkXWs1RCxcmjFZ5eKPOVQxVeOTbN0wcaxEXcfrw4uEm/eY/nIcELusdzmzjYiPgfX9rHYw3F/21zTi33uLqVglTFmDJRbEMhLhqmGEuWZGxkgl53XG4lhUAVbndZ7C4KQ1QJN0xlNwyuM51l7JE3OHe7waKtxVrnhk+ss+StpRintnORUIimKfz1Q3E2Ewl1xQWu9jLeXeoQhwGBEJx8pEEtKo3uc3vCnnChAFzuwdsXW/z4/TV+8ts11vOcKJa8cqzBycNNnj/a4GAzYr4WUi+FlJQswg87+7N7y9zzcOMF3eO5TVRCyeMzJfJHm+hcc+pqlwurA1b6OSu9nKu9jG5qGI1TExOWqrCk2pLuZmneLsNzt4ErkxnhOxkG2oVr3qKEoB4rpmJFI1bUI0UlVlRLIbVqyGxFMV9RPDJTZr4eUwrk9nMVJ9LGstHPuNLO+GQ94fJGj9W1Hv1BxpHpmOemGxyYLfHcQo0n91d5fF+VRkkRB76znsdzM4S1tzB82ePx3BLWOhd3bixLGwnnV3q8eXmLX19q8csLHS6vpzDQgAVpQUq3CXF9lZfYaYHejgtku6VsxfDCx5b4kLxwr0cQhJIwDHh0Oub4TInH5socnSmz2Ag5NFPm8FyNaqQIReFZEGOHBGJC2K0lyTUfXO3w83Mt/uL9DfrdhCfKcGKxxolDDZ441OTQXIVICjefXYo78lV4PA8aXtA9ntvK2OruDHK2ejlXWgMutxIubKWsdFJavYxukjNINK2B29qpZj3RrCSGfmbQmS7S0ncc9rrTGcY77czynizhovDbO6tbKUkYSBqhpBEpmlFALVSUI0E5UpSjgFIoKMeKetlll5eCgOmyYq4cMF0JmSoH1GNFoxzQrMZupvoNvgv31NJONJv9jPPrfS61Elb6hhDLfChYaMQsNEvMNmMa5dDb4h7PZ8QLusdzF2mlOVd6CevtlK12xtXNhKuthKvtlAvtjI9bmq1eRjLInIVcGPND7/fOAjVMjrW6SFwTiElrWCiEKOLNsjCUpQUMUaioxAH7K4rFSsjBapm5asB0RdKsRTSrMc1awHQtZL4aUY8DSkp9gXaq7gaudTKW2xkbvZRIwVMLVZrlEPB91z2eL4oXdI/nrmHJtMs0T3NDmjprvJ9qepmmmxtamaWXGgaZdsa3tRgNmbb0U1dONj4a5FajjcbmGikkURggRla5c1eXQ0kUSJeLV5R2xaGiFCgqgaASuDaqcSCIA0EUKMJQEQWSKBCUQunq46X83FbzsCI+yTSDzJDmBikEzUpApCYy6b1N7vF8brygezx3i12awIyY0LHMWJIicc41W7FkuaWbaBfWHh+QzFpyYzB5jhKSOAy3zVlXEqqRLOrYx81pQuVEeiTQw2sbiepEZrqgyEgXX1DQYZTbbseLjm216b67m8fzufGC7vHcNYZ+8yLDa5TlbovJYqNn49B5sYuxFm2G3d+2HRFrLdbaonvcjkaxQhQVc0Vj2VFIfUei2bA+vHDdj5u0TNaMiy9kP4+McGsn7l1OnH90Ko/H8znwZWsez91ETFi/4xe3PS66xe54a/LFO3Zxu5e2Xffocx99xyNvS3g8txNvoXs894TC+t2WCO7zuj0ez+fHW+gezx1lsre4JdGGVqZZa6WsbCXMNyNm6xGNSBGr3Rqx3I3rm0R8xvf8AsTj2St4Qfd47hjjGLSxkGnN+iDjYjvh1JUev7vU4fljDZ6OBLFy23g++V28xMlkuO3rD24o3OIm73k8nnuCF3SP5w5jgLVexi9Pr/POxRYfLXdJckMg4MSRGgvliJKS42S5UXIa3D2xHGbLGUau/+syzg0ej2fv4gXd47mDGAtXOwkfXu3x3z5c51enNvj4aodqSXFgusTVzZRWJyePJKVQufIyIZDCKfqdlvOhD8EYN4s815rcWDLjXsu0ZZBZpLCUQqjGimocIBFFeZy3zj2evYIXdI/nDpIbw08+WuX//WCV31zscWkzJZUKnQvSjYy/+906nSTnyf1Vjs1VWGjG1OKAOFSoOyzoFjBCkBlLmmla/ZTNTsL6IGUzyen1Lesdzdn1hDgQHJ2JOXGwzolDdWLl+qx7PJ69gxd0j+cOYSwkueXDKz1+dbrFSkfTyw0ogbaQpob3rvToDDRnVgccnu6yrxFTLQVEkSIUglAO4+uSSAkCBaESBFISSIGSgqDYJmvQLW5ATG7csBhtjHueG/Lc0NLQyS25NmS5Js0MnX7GVjdhM8nYSjWDxLLRM1zcTImk4PBUxLmNhNMbCcemSxxqxkxXQ8qhck1rRmf2Qu/x3Au8oHs8d4jMWHqZYbmds7SVoyUQbE94u9xKWWlnvH2hTSgFQaAQgUQEgigQlAPJfDlkthTQLEvqJUk9VlQjRTUMKEWKSuSeh2p7P/ROktNL9ai1bC/L6fYyut2MT/pwrmdI+wPyVGOtwOQGk2k0YITEiCKZz4Cwlo+Wu/z0TItqeYXvPzXNd49P89yhOgemSpSGPeNHpXh+PJrHc7fxgu7x3CGUgFgJHp8r8dyBCqdX+2wm2r1RdGPLLGTaFGNLrUtKE4B0Hd5CKViJUjcJLRSUArfFShEVE9MiJYglqNHkFDeONdGaJDdk2pJqQ5prkkyTpIZrqWE1M+hUY7Rxn7HWXYco5qQLtiXG9Y2FXLORpPzqjGS9k/Ha2TZHZko8OhtzbK7Mo/MVgmJ8qsfjubt4Qfd47hCBFFRDxVcOV1nrNOh2UtrdDCMVtkh6Q+AEflIBi5nlOgdtLYPUsCIy957Bie5kibi1oPPig8VYNaGcKEvGojzsISVFkc1ui32LDHspbv4bQTqTXRvNOxfbvHO+ixRwbC7m21+q872n51icLlEOXCjAV7V5PHcXL+gezy1zk0Yru4qXQEnJUwt1AilpliJePd/i9aUOW52MfGitT1jsTsxN0e9cFII7cUhpdyknExAEOwacTLi8R3Xlw9eK447i3Tvc48PzD48lhPusLix4AyhBtaR4fKrEcwervHi0wSNzFUqBGnsKvJB7PHcVL+gez2fis5mdUgoOT5eZqYZMV0OajZBUwqWVAZ1WSh8YWEtiLLmZGHyOHYv8tlbvNzrvbo3eb3aNOw48MSfGiXZRcy4FIgiIlaQaCiJpiSSEpZDZesSL+2s8f7DGM4drHJ4uEyrpJ5t7PPcI38vd4/lM3EjQhxXd8vpdMeTW0Ek0q92MK62Us6t9zlzr8fFKj09W+pxZTVjvZmByJ9pSFq7xnaJ+m5LNJrvA7ZzqmhuGc1plqAhqEY9Ml3hhLuZIM+JAM2Rxpsz+RonpOKBZDmhUAyphQClU3jD3eO4RXtA9HmCnUFsgM4ZBbkgzQ5IZeqlLKsu1xRgwViAkKAXNsqJZCqiXwnG2+ajh24RiFmp3tZVwbm3AJ9d6fLLS48xqwvJWQj9J6GeGnhb0c0NfWzq5ZaAtVpuJ8aliFGu/fo75bvc1eX/DpDeBVIKSkkyFinIgCAJBWUBZCkqhIi6FxPWYo9Mxz8/HHJmKWGxGLDZLTFejcUb76K+7IefXhz58sZzH4wXd8zBhdz6YtHbN6DVbCMRGknGtl7C+lbG6mXJhs8dKa0C3m5FmgkwrZAjlsuDZgzWeXqzxxL4azXI4Ooul0M7RKd2rmbGkOQxyzSC39HPDejfl8lqHy5sDLm2lLG2lXGqlnG5rlns52SDH5BryYqb6sMWbsePYutjpercuJj665yIJLhCIUBDGIQvVkOenYhbrAfWa5GAj5mAzYl+zzHQtphwFlANJJRQus14JQuXyA7bfKHdWVUdeBcv2aIHAIFz+3x08vcez1/GC7nmIsNcZdxaBEbDeTdjopGx2Ndc6GZc7KeudlK1OSl9bUmMoKygrKElBHCiiICKKJeWS5OhMicPTJQ40y1QiNTzbWNB3XscOa9YAvTRnvTNgvZuy1s1Z77lteWDZGGgGaY7ONEbbiZ6tFmMMg8w1jhlKtwCUkgRSEikYOg2EEAgpUaFEBZIwlEyVAo5WQqbLknJJMFMJmakENCsR1dh5HOSndYW7GxnthaAnuWZpK8Fg2VePKY0a29z5Vrkez17GC7rnIWIyzu2SzzSCHPhwqc2HS20+vtzj7csdfn6pxeZGCh1NNBUwMxfznWNNXjpU4/H5Egeny+xrlqnErrlLgHUh7y+UEmYBs33IWeExyI2z4jNt0NpiR7JtSTPLZjujm2RkNh+9U4oiKnFIvayIAyd1SgqUEoSBq2NXmMKyHV63GTsu7NCVvpfS3Ayb/Yyfn9og13DyaJP5WkhZyXF2v8fzkOIF3fNgs+1/b+vasWrL0taA311tc2o14dR6wno7Zb2dstHKyLQhjhUH6jFHp0rMTIXMTkUcaZZYqIdMlQNqsaIcK0KlUFIihC08zl9MUGyh5KMKtuFj67LgTVE5NokxrlY91wZjzWgtEChFoCTRsC4c6/LthEBKgRJih5f8RlPe7rVI2uK7EAgM7UHGG+dbnFkbsNXXPHugznefmB6HADyehxRftuZ5gBknoxlgkGo6iWalm/HBUpufnVrn9fMd3rjURRgIhKARCh6fLfPSwTovHmvylWNNFhohM9WA7UHiYXmZKI4vvrDXeSha1x3DWiQQyWFC2/VnqMW3fobtz4f3NPn6XrJ0x8uaoedCW0gtXNhM+MWpLdLc8p3jM/f2Mj2ePYAXdM+DjXBinmh4d6nD2+dbvH5ui1MrfVY6Oat9VyamIsH+RsifnJjla0cbHJ+psL8RM12NKIfDdKsdVuuEJbuzh8vnvNRdnwtxO63lG55l4q+9IuaMEhQBJIbUWFZ6OX93ps1PT7VY2RzwSqZx2QM+Lc7zcOMF3fPAYq1rnXp+K+Xj1YQ3zmzyxpkNXj/XYrmdudiwBCEF89WApxYq/P6TM3zzWJP5ckAodxPyScQuj74YN5Lb23OGTzvG3hNDa11Sf5Ll9JKcc5sJ7yx1+dW5FkvtlEdnSxxoRnvwyj2eu48XdM8DS24tibb87ceb/G9vXGNjs89mO6GdGgiLJCpjEcbyxGyZbx1p8MR0hblSRDDyQl+fkb47vnH5p/I5isWNtaRas7SZcGalx39+f5W/P73FcjfjmYUq/+lrB3n5SN1l8Y/a1Y7+8HgeKrygex4wxsK63Ep5/0qb189s8t6lFjrVaK3d23KiBt3Cei/jzEqfN89vMUhzFhshU5WIWimcsNF3irYX8euxE3kAN8u33f4dWgSDonlPq5/RGuS0BjmrnYyrWwlXN912qZ0yXwl47kCVlx5p8vKRBoem4iIsIXbpNTB5abepy57Hs0fxgu55YDm31ucHb1/lnfMd0l7qRFzu+I0uBQb4YLnPpY2EC5sDXn6kxrcebfLEYp1KKRp3Sd+m367EzI0dZddEtYcPlyjoet4MG71MCKuwE6VwxR/WjnoBtAY5V7cSzqz2OLPa5fRqjw+Xerx3oUO3nyOM5bsnZvk3J2b55vEZHt9XpREHBJP/pqN/mx0JgFb69ZfngccLuucBxPl2jbVkuUXnGrIcwokOK9t2t2gBHW34eK1HJ805tZIwW9tkqhazWA9ZqIfMVgOmyyGNkqJeCqiWAqJAECiBtLbQdK8Ww6VOrp27vJ8a+qmml+b0M0M/NXSTnLWB5mI7p93PyAcZ3b6m09NsdjM2k5yWFARK8srjTRbrMYemYp5crPKl/RUOz5RpRIpATBYKjjPiU23ZSnNybREGanFALVJ+4eV5oPGC7nkAcb+0IyVplAPqkaCiLCmW/DpPrB1Z2Km1XGqlXNpM+Mez3cKih6f2lXhqf5ljM2UOT5dYqAfM12PmGiUqpZBSFBBhCYTLSJdCoKSrSR9OHxWIiVkr49e3XbW4+53OXDv47V/KcOCbxRZ/j9MJhq8NHw/r4rUpmt1YS4YgNZYs13QHmq1ezmYvY6Ofjh6vdRPObaa8tZqxsjXAdPooIwitRCEI44DSfJlnDlb5w6M1XjzS4LnDDUpKEClRWPrXu9AtFm1gK9Gc3uxjDDRUiJKSWjxczHlR9zyYeEH3PGCMa6qPzVf405cOsL8RUS8pPlwecHkrG3c+ExPbZPKbEBCMXcNL7Yxeavjd8oBqKCkHxeCSOKBUiShVQqYVNANBNZY0SwEz5ZBSJIkCSTlUlANJOYQ4VIRBQDlUlKIi1iyc2AdKEknx6W1WbxPWQmoMmTEYMxb2QWYZZIY0z0hzQ6otmXZt45NcM8gMWmuyzNAZWDaTnNV+SmYs1ko20pytRJP2U9LUkGWQakNiNFnmOtsNBjnd1LCeWUohzMzGHJ2ucGymwr5mxL5miblmzEI95kA9ZLYaUg4kSuyIk0901EOA1rDc6vObKx3++qN1Hp2t8O9fWKAa7zZe1uN5sPCC7nkAcYI4X4uYrUVgLYGE+VqH0ysDktxlvye5JjeQWUiMIdGGJDdoOxF/NbDV02z1tFPA4cxyAUhJUAqJyyGzAUyFknpJMFMOmKtGVEJJHEgqUUA1UlQiKIWSOAypRIpKLEfrCCkFYSCJJ/umC7ab8Z9F52+Uj2bHImitJdFFO9mhoAvop4Zeakiy3An4UNC1pZ8517nJLWlm2Oob1vpuiE2qwVrJ2iBjM8nIkxyjLUK4BU09coNdIimJEMyUQhanFDPNgMXpiOP7KhzfV+PAXMxCs8S+ckhZ7eImHzbILwQ9M5ZBbmn1c9Y6KR9fafPelQ7nrvVYqMbU44BSKG/ypXg8Dwa+9avnAca5h1uDnI1exlaiWetmXN3ocWVzwPJmwkZPs9W3XO2mXOmmXO0kdAa5a0dmKDKjh7PJJ8qiCmteKNdGNRSCQEAgIZDCWdoWpLGoQKGUcH3ThRNvKUAJC1qAEQjl6uGlmhAvJSl899vO+em3vVuGd7EZg1Nv97LRhVvdWoZj4bQVhSvdTTEzI7e7xWiN1jkWhbWS3FoybUm1KVrSCrJck2uDlSBCRVgOOVqPONGMmK2HzNZD9jVjFhpOuBslRSmUVEJJJZLEodsiqT7FW+Guaq2XcaWd8eb5Ld46u8V7Z9so4DvPzfCN49O8cmyGSAnGQ1a9y93zYOItdM8DjHO/N8oBzXKIAfqZZm02ZrWVsNbOaA8M7cSw1s9Z7Wes9FI6SY5ODXnukuoS4yz6XqpJckNmitdzS0cbOtqS6JyBLkaZDhcChsKaL2K9wzGmoggLGFNkXws3/nQcZHcoAXIiPLBLzHhXJqzwbbXfQ0E32r1oBdcHyYehh4lhJ8I9RYIUFoVzk1dCQTWUxGVJqCSlSFKJFJEUxEoQlRRxKSAuhRyshjxWC2lWA5rVgJl6yGwtYrYSUQok8rq2tLszXDy0+znL3ZRzmwlLmwOWNwd8uNTh3EqfyAoe3+/K2o7PVwnFsOjQz2PzPNh4C93zwDJRWDbWNOualWhjMdaOvOjGWrSFzFqS3NBPc7oDTXtg2OilrHVTrm4lrLczOj3NVl+z2cs5O8g5P8jJ+gPyQYbzTQsn1KKwsK0uxBwnklIWF2LcY1kI+lBIhyI6KcSf56d0KNaTiwTMjm+lsNaNAM02691db7GrAgIIQ0UcBuwrhyxWIg7VI2arIbWyZL4ZsdCMmalETFcimlVXDVAOFaEUBEWuwNBD4Ua5OstZYsY3vO1et2cPdtKcjW7G2ZU+v7rQ5q9+t8Gl5R6DzT5ZbqmXFf/hlQX+6MQcLxxuMFONUEKM1le+OaznQcZb6J4Hmp1FakKAEsPpY9djcBnbmQ5Iq4YkM/SziG6a0+7n9BLtkrpSQz8zrOeWjdyQZTl5lpOlw3nlgsy4HvJ5npFpTWYg1S7em+aGLNMg3HjUNC9i+MbFtQe5JhSKcHgHOwQ9s5Z0uEgoUEIQCzkSrNRqjDWUlRjVarvpa5IoVISBBAxSCELp4vcl5cIFgYKg2CcOXPmYDARxICmFAbVQUg8VU3FAJZJEoaBWlPNVooBy5NzocSAJpbxhtZgd3dj4X8oIFxfvpC4jfrWVcq1dbK2UlXbKejvj3GbC2WsDlDEcbAQ8eaDOiUMNvvZYgycWqtTKAXLi39nPYvM86HgL3eO5IZMu6OI5jJujAEMLMqdIzkpycuOEtpcY2gPNIE0ZZDm9HDqJs+x7iaafuq51WkOn7ybBtfOMVpqzNcioiJCy2H3N3TWG7rDrXUEsJXU5TqrrmAxNzlQoKRXCVg5DqqWYallRKTmJC6SgHDsxblYCKv8/e2fWJMd13fnfuZlZa1fv3WgAxA4IGlmUFJQVHslhWZJtyQ92+AP42V/CH2MiJmLGE36y/DbzNjMRevUiy5ZC5oimSJAECYBkozf0Wntm3jMPN7O6qhewQZMW0X1+EU0QlfsNVP/z3HvO/yRCIxEq9YR6LWYmjqlGjigSarGjFkWEV5/i+aH4u4yZ7Dw/Di7L5bz3RZ5h8A3wCkNV2mnOemfA42dd3v24zVtP2/x6rc2TZwM291IiQvvXJHLcXazyjat1/uS1y3z/K0s0i+qCsqGtCblxUTBBN4xTmZzrHlmajr4yk5YmvuhZXibJZx5S78l96FWe+TKBTMnyMO0PYco/y8K2VD3DPPzE4ohPkaNMlfTIVzeSkJxX3lWqHsWHiLsQ+cg54ihkm8cRIIJIiOCTWKjErkjuU1zsilI6RyTlaoHDiUPQwvhNipEZH5NPEHOFfpZzMMjYOhiy2x3S7mZst4dstoc8Osh42s7odYe0exl7A89ub8hOd0hn4FGEa7NV7i01ePVqiy8t1bm9WOXGYpMrc3ViB5GTk1vRGsY5xgTdME5lXNBlFJM61VEW+DDLSXNPHAmxc8E1TgQpfcPH1WTUPOSTJGY8k+1zonzrOCmaHm076c6kSC4LSfFeGBnK5EUCfeZ9eFlRyHzISRjmyjALCW2DPHi273ZTVnd7PNsfsHsQchRWd/s82En5+CCDYU7iHPVGTCMJdfy1asxss8KXl2t845UW3749z435GkutuLwrs3g1Liy2hm4YpzKZmeYKdzQk2Jp205z1/QHPOkOmawkz9YT5qYRaEiLaF2fsBWL8PXs8Oe6TprPL8rPR3+XIC0SZKHdYxz0h3uPXGG07PF5GUW+4jlAYzuSezsBz0MvZ76e0BxneK/v9jNW9Hk/3U9b2M9bbA7a6Q/JMSFPPYDhkmAbzmUEWchbaWVEtUImYmUq4uxii8S8tNbi2WOfqXI35esJ8I2G2kdBI3KGYj4+XYVwwTNAN40yUU8uHfxWBDKWT5bT3Pat7A3ChhH2YKYkTapGjEge70nocprodkMSOJI7CNLaEZHgnUrRoFxxSRP0c1rxLKaSHihUVmeOlioWp/zD9f2jVelTQg4CH1qTlEoAfs3QtlgGKZYLchxeYLFf6maeb5fS9MsjBe0+WeYaZ0h1ktHsZ7UHIEchzaPcz1tt9NtsZm+2czd6QnX4GeSghc7EylTjmqxELrQrNSkS14qhVImq1mOVWwo25Crfm69xaaHBlrsZSKwnLAM5Wxw1jHBN0w3hRNCSSNaox082E/Tzjg7Uu7611eGezw4d7KRu9nJkkZqmeMFNzzDUiVlpVpiuOisBUPWGmWSWKII6FegyV2OGSiMRFJBK8xxuVYFnqBKJIjjWAqUeCc24UUKvIqFYbgnbnuRamL5MPkSts91L2ehmdfkZWHJPnQcA7g4zOMDRX6fZzOj3PWqfParfP+tCxM1SG/ZQ8zdFM8VmOZhneC94L5Ir3SlZcK1fIRUI5n4IkjmQq4cpchdeWgmhfn22w2KqwNF3h0nRCqxqRREISRSSRI3ZSeOZzWONvGAZga+iG8QIcGraULULbacZeP2Nzb8D63oC1/QGb3YydQY54SBC8+mA/K0LuQ4274hAX0c7yUKKmSgyIhOYkEY5qIlSSYoq7jMQnpr8hSYpIVRUVQUXIc082lgHvy0S9I4/ivdJJc3qpZzjMQ1RP0WxFYZD6kCOQhfXvQebZ72fsDlL2vdD1kBcZ/Q5oRNAsMuGrkaPqJDjAVaMQcScRtVpErRpTix31JKZaj1meirk+FbHYrDDfqNCsxrRqEdO1iErpqT+aUh8zzTnycmMYFx0TdMP4jEm9p5d59roZO52Mjf0BmwcDNvYHrB0MWN0fsN3N2e15nuwPWG8PoZ/DsFg7zoMXDRETxdNhSXt8bV2KlrACuQ/bI1e2P2PiyKPf8tLFboyRNBZd5iiN7cqNkYyc8CSS4HNbccSJo1IVFmoJK40Ks3XHTN0xU4uYayQsTVWZaybMNmLmpivMthIWqgnTlZh6HIWGK4Zh/LsxQTeMz5hQvuaDWUzmR/3Ae8OcburppDmDNFjHHqQ57aEnS3Py1OO9Mkg9/UFIOlMpStRyzyDNyTINjrHlxaLgtd5PC1vaXIMv+/jX+oRvuCsM62LnKL1XkshRi11RykbRAU6KDnGOuDStUahVg9+6i0NTmVriqMeORmFEU4lD+9pq7KhXYqrF59XEUam4kFsQlee0ZDbD+CwwQTeMz5JRZvhpgjqZda5ArmHNO3Q9Cy507YEfBdZD9QzynG4vY5gpeT75lc28FmvdobWpP75gfowoCmKdRG4UIVdjR7MSj24vioRKLDTqMdUoolIKusBUNXi3R0UjmtAljkkTnjIZrzzhxOxCUZqnYweZoBvGvwsTdMP4zNHnJGyN1YeV6/HoKDNdEbwPIl3shaqSl/7zJ6yHq4YofrT9DHdYLsc7kdFtOjm0iKXc7oJNblQY0JRbYyeEXDwN0b4UjU/KEP6kmziSbB8+s0x1w/isMEE3jM+DkWXsaWHnaaL3koWpx+rljySuTWw7eiwv3/MaxhcYE3TDMAzDOAfYfJdhGIZhnANM0A3DMAzjHGCCbhiGYRjnABN0wzAMwzgHmJe7cWEoe5mNKp9HmejjezC+h2EYxkuDCbpxsVAN/T7HxXy8dah6EEFdjEhRgmXibhjGS4AJunFhECV4nA8HqHokiooNxQ4KmuXgHFqLgqnbJ9aTG4ZhfDEwQTcuDt7D5gb+7/8BXXtKYXU2JtWCEsH1G8jvfQdmpw99xg3DML7gmKAbFwNV8Bl8+IT8v/838p/+dHI9HcBFkEwhP/wR0VfuI7MzFpgbhvHSYIJuXBwU1HsYDpF+v/jQMeoVGkWQeMSFT0zLDcN4mbCyNePCEtqJOMJ7begXKtUEqcYTjUgMwzBeBixCNy4oDoiwd1rDMM4L9tvMuKAINrFuGMZ5wgTdMAzDMM4BJuiGYRiGcQ4wQTcMwzCMc4AlxRnG54me8JmMecaPb7+oy/kTY6Bjn8nEEJ19eI4Oupyw7aIOtnGesQjdMP6j0PI/esLnxz++EEw8ezE2ejhGquA549CMDlOg8OvXI9uP7WsY5weL0A3jc0IBPRYIHukIM/bHRY0ZR+Mkk2NydB/P88dJi2hewsnCi0BxzsPTFw135GKPuXE+MUE3jE/JqX3Yio5u6j0+95DnkOeh0UsZFoqgCMQxEkdIFAdv+ZeSF+tIN9q77G7nPZp7NM8hy0bjpKpFXxwB5/AuwiUJEkfhMzlJ+YuoPE3x3S7qcxCHq1SgkqC5D/tVKrjImaAb5woTdMP4FIzP2I6Lgocg3oMB2uvje304aCOdLuRD8HnYMUrQOIHpFjrdQmamkVqVk4SxkKBT1sfCnfgi3nRHtyn4Qvhe/HWhEMeyjexIiY89cdGO9rSY93CkJsZNPWQZ2u/jOz3YP4CDdhinLEV9Hi4ZxWi1jtabyOIczE5DnBwTdCmm6yXP0J1t5O13kF4PkgqsXEKXl9CDDiqCrCzjGzVExyN3w3i5MUE3jBdEx/+v20M7HXRvD93dQ3d2YX8f6Rzge310MIB2F3o9NE+DiAHqIjRKkKkpaDXxrSY6Pw8rV5DlZdzSIhrHwV/+2JUlRLaDIf5Xr+MfPaYUpPGXDAWYasLXvo6srKBRiGzPKl0KkKawv4+urqLvP4RhOtE+HhSmp+HyFWRlBXfp0rG7DefJYDBEDw7Q/X1kZwd2d2F/D9/uoL0etDtop4vkKeTZ4cuPi9BqDa028PMzMDcLs/OwtAyXV5DpFjQbo3cNFUGzDNnbC9erVKDbgadP0agCszOwMF9Y/9pCunF+MEE3jLOi4+viikPR3R30yRP8Ww/wb74Fb7yJfvQh7G5BlhVTwIr3J2VhBf94nCN1Dm7cRH7wh0S/+x3k27+DNpsQRUXsfWROIPfowT7Zj/+W/H/+r2PRt1Akk928SfKXf4n84AdorfaCgi5ovw+PHpH/5CfkP/4xsrc3ula5rs29e8gf/Yjo9797TNDDPoL2B7C9A+89RB68g3/jDfTB2/gnj6B9gBstUyg6SowbfyAHTsidwzdb+LtfRr7528gffB+5fw9p1IP/vghEApVqeAkY9NFY4OFDeLqB3LsP97+E5PnhdL5hnBNM0A3jjKiA9nro1hb6zgPy11+HrS3Y3sGvraNP15DVVXRnF+11wnQu7rkx4CjKxaPDFMThnzwm/+d/Qv7z78Br30RnZpB67UirV0HiBGnNII0pdG0VOp2J8ypAtYY+XUef7cClJaRSOfPzCoQp8b192NyCtTV0d3ci8laApUtIlCDx2LlVkSxDV5+iv/xX9NEj/NpTZGMDWd+A1VV0fQ22t2E4RM9ow6t4NNmFQYoe7KFPP0S+8XXkm6/hbt9Grl4JIl2rwsolZHoqvDRV6iGiv7SCzM8iif3qM84f9q/aMI4hp2Zaa6+HPnpE/r//D9lf/RWu28UBxeTwKHoNGdkx7kxfMUXIYPsZ+rOfkv8s9GqP/uIvcHNz+Dt3oVYjHr8nF0Gthty+g/utr+I7BxOCXjwFZBl+Yws2tnDzc/Cigp7naLuDdHtFstrxKjup1nALy0hreuyRFIbDEBn/zd/if/Fz/MdPcN4zTnikiFHHu09ASSEd4lafwOoT/M/+Af23b+E2tuCPfwgrl0JyYa0GV69AWiwRXL9xeJIkgerZx8EwXhZM0A1jHOcgOj1aVBE0rkCUHH52dJ/R/3k86cS2Msouo9vDqFsQktFxkOP/8R/RwQD58z9Hvv0dtFEbTcEDYX392lX03m30zV8BrkiLK/fIod+Ddx7A7Vtw8xo0G2ceCgX8YIiuraNbWyFbf9Slrtwjh1oFLi3CdGvsQSXMBqjHbzyFnWdhWv3IGMlonLKJsYGTxyksGByOk8OjTx7jf/J/cbUKWqsid27D7CxuagqOvEAA4BwS268+4/xh/6oNo0QIgi6n54NLFKONJlTDerSKQ1wEjVqICitVJEnClG5ZWlWu7cKopI0iC17aB2i3B8QIjsMVbkV//Ra6sYF79WvI3Xvo5RWox2PT7g65ehm5cwttNAhyF3Eo6B76fXhQCPp3f/eFcrkVQiLb6lN0fROycUFXhGK9u1qDpXmYnhobqFCSh3PocICmQ0QVqVbD/rUqVKthxqBM1hPBSVE/XuQeiPdolsPBQUg2zCmmQ0p5V9jcRDc30KVldGYWmZ5GFhaQevRCz2sYLzsm6IZxRgSQagW5tITOzwbRiipovYV85Q7cvYVcvQXLy7j52bBvFCFJjBTZ6prl6GCAf/wEeec99J//Cd56E8hQItyoR7ug5Giawrvvwb/9GtdqIfX64Q05h1y6hNy4jjTqJ6/V9/vou2+jd24i/W6RXHc2mRMIEf7jJ7C6GjLPR+QEUXe4Sg03O4ccif69CNpsIrduoxub6IdP4NJl5MZt3K0byI1r6NWrMDVFHEe4OEbiOLwuqKJphnY6yM4e/MvP4e/+Dt3bLZYWomKMYiDHkaNv/BpPBfdbX0Xu3x+Z+pioGxcFE3TDeBHiGJmZxt29i/ve9xEi3PQc3L8Fd27iLt+ApSV0bgapBBMUiccFPcMPhsiHH+Fu38U3G/ipJjx8iGzvwCjCLvLUB0P0zTfRy5fhq/8JlhYP70UEaU0jS8vI0jI63YJ2D3wp2i5E1ds7IaFt8xl66TJMTZ1d5NIhfnMd3X42FhkDKMQOac3DwmKYyk+SiUMFYG4e+da3wvT32lPk2k3k5m3czWvIK6+gVy5Ds3k4TsVUuHoNCXmdbkjKW1hAW1P4X/wCffttGGaQe8qsBQF0YwN98ABdW0MPOtCsHSn7M4zzjQm6YZwRhRAVV6tBpOYXiFotorm5sI5cqQRRK+vHi+n2UOoWJtOdKtJUmJqCO7fJbt+Cr74Kf/0/YPsXE9cTQIYDeP2XyFQD/uxPJ29IJNRYz8zCjVvI1ffh/fdhkBG+2uV6eoZ2e+SPPkSXV5BmEycS+qA8R9kV8FmGP9hFO22cP7IUUa2iN2/A9ev4SuXQ/W0sMnbLy/gf/gj3ve8RJTG0WshUCypJGKskKRzypPClkZGRjqgiU01YXIDLy/Dd75D9l/+K39iE7S3opcFtDxf+zDPo75Ovr6MbG8RXLyN1E3Tj4mCCbhhnpKxbFhHc/DxRtYqr15FG/ZMOPTy+/DOOoVFH7txGsgzu3UWfPIGdPUjLtWoXou1OFz04QLL02JS5ikMbTdzdO+jDh2Fae5AduSJhmvqDD9Ab15Gb14PH+cnJ/AHv0YM2fmsb6fXHouGxI2pV3M0wdS6V5MTTSL1OdO2VMG7VClK+8Jx1nKIIEtBaBWamkde+iTz+GP2Xn6IffTRxlKpClsLuDjzbhuVFqNeeey3DOE+8rObRhvEfzngduNSqxAvzuDOI+fOagMj8LHLzOnr3HnrtFahGTBbBxfhgYYMUPyNKo5t6A3fvHu7WrdPL0jpt+OAhrK+B6sgU5rQaefUe3dpGn64jg8GJvyikWsPduoG7cR1XRugTJwFJEqK5WaLZmbD+f4bs8pPHS/Augle/jvzBH8Ly8vF7BrzPYXcPdnaCsY9hXCBM0A3jN4gDoiRGVi7D5asnCrIDxCsMhjBMD13UigjbVatouR59imDq9i7+5/8Pfe9RyB7nWLxd7hl+vMLeHmxv49OUE4q/II6Q+Tlkfna0Vu1l7CXheW8ynwIHMNNCl+ZPrSMXBfE54rPjbnOGcc4xQTeM3yACuChGFhZhcSk0HTlhH/Ee0iyUcB3dVqnA5cuwsgK1elFHr5N77bfRtx6gj58EG9Z88jyBMXtZ74M//bNnaJqG8rSJHyBJkIU5ZG4OiaLPtcX46N2gWUdnp9Hk5HECRTQP42U+7cYFwwTdMH7TCMF/PDrdoe7ET1URVVwc4aankYVFZPESNJtAymEH8ShYymdd/M4z/OOPyPcOisKz4+ctp651ews21mAwKPbMUNLCLMeHrPTFRWRhHonizzIY/0ROCv7LWQc49uphGBcCE3TDeIkJiXoOqVWRhXm4dRsWFphcIXeFqVsKezv4Dz4I0TfHBW+0Sp/n8PEq+sEj6PXG0/BQUXSqBYvLoSytOYU491nPsH9qxgrrTNCNC4UJumF8Ecg1/JygQCeLpIx1Cis81mfn4GuvwrVXTjyHA9jbRR++C7s7x9bQg5gHYXZpCu9+AG+8jTtoFw52MRCBOPTKK+i9L8PMXOEIJ89Zlz8BPaGj2gtgYm0Yx7GyNcP4lBwTlNKqdDDAd3pIuw3tNnSKft+DfugvXqyHk4YsbO100NffgPfeD1atL8LYLL2bbsH9e+ibvzo5iQ2QzU345b8i9790+nMN01DmtrON7G4Xlq+lg51HnOCuXkHu3YXWFGdvQapF3XjRuS7LoT8I19o/CJn47XZI/hsMQwlamoZx0iDhun8Ajx8jm5snCvoXYYbAMH5T/H8AAAD//+3d6XNc15nf8e9zuhto7DsJgiC4iZtIUSZFi9HElix7nHLKM1OevEiqUlOTvykv8namUpn5A1Lj1Fgj27IsxZRE0tZGUSRFUlyxEPsOdPd98uLcbjSagLhISYaXv08VCRK43fd2o4Dfveee8zwKdJGnUOsFXsfSddA+v0BldALu3MFu34bRUXx8nGRmGpYWsfUSLK3AYtodrVzBZxdgcR5Wlxp39QhW+zt0tGMv7CfZ0b/9FezYBPbBeXjjjS2fyYBkbY1kfh5fWYBSrDNfX5HNQiDs3kXu0MFY+OVRPP3LqlPrLPZIL1fw2Tm4dw9u3oa7t/F7d2FqFubmseV4MsTC0kaTlXI5lqOdHN/UyGXjnRB5finQRZ5SIJZyZWWF5MZNkmtfweVL+Ng4lcUlbH4em5+Pwb28FINofT0WaSmVobQeAy5xbK2Elcrx0vUp74RZWysM78Z7etLpcNVpb9VysnlYWSWZGMWmp2BhMTZJSWeMV08Ckqlpkutfx4YoW+3HDHbsINk7Qmh9jO5ttnFv3kfH8Tt38S+v4F/fjI1VZmbwuTmYn8cXF7CVVWx1LZ4crZdqjV2AuJyuUomlX1EVOJF6CnSRp2CVBC+XselpkrFRkg8+Inn/f8Pvfovfv1+9qx23/Ybn2dweNOAUHvGIb1AsYsWd0N9H0tZOWF8jlMp4teocOXxtnWRtiTA9hc/MxAl0hc2tYH1yGv/qBswvNFwFeyzTWmjCd+zAdg/jxZZHH607vrpKsrwMX17BL/wRfvsOfPJxLOG6tlrt2wZbvPqHP19toapAF6mnQBd5TPXD2D4/j98fJ3n7VyS/fhufnMInHhBmFrDaj1Xsa9742Pr/188M/7aTvGoz1IdHCK+/jn1xCb91e9M2cREb2NQ03L4TW7429kifmsSufxVfY+2T6WtpaYf+AUL/ANbTvW3J19prrFSw9XX8k0+pvPM7+Pyz2M51dAyfnYVSLCkbqGy8t+mf6jhF9WParuah901EIgW6yGOqBhSrq/iNG1Q+OE/yz7/C/+VXbMwj35jnbe0d0NUea7YXi7EYSi4fh6yrDUzMsEoCs7P4zDzMzae13J82rgwb3EV45Qw++SC2Pn1oC2B0FC5/ie/cCTsG6r7mMD6GX/4Cn51pePUJdHfB/oMwMPDIsrcOcRj92lck775L8st/wm5+HfddO5IATc3Q0oS1t8emNYUmKORjZ7tc2OglD1gpdmDj3ijML6FYF9mgQBd5Equr2P37JO+/R+Xv/h67eye9gqzep47XkA4wMoydOoXt24sN74aePmhrJeTztZnhVshjK6tUzl2Ajz7Cz5+D2Xme5kezNtu9twc/cpjkw3NbXvU7wI0bJB9+CC8dJxw6WPuK4XDvLpWPL2JLyw/H5a5B/JVTm9u4biO4k9y6TeW//wPJhx9g16/C8nrda0tPEjrb8L37sGPHsCPHoLc3Xv23txFamgmFQny/3KnMzMHVr+Af/wd8+ln6XAp1EVCgizw2c/CJB1Te/heS3/wGu/JlnMxGLHtKPoe1tsPuIcLhQ9iJ49jxE4Rdg9jAANbZFe9zV1urAiGfwxcWYXI2ThIr5PnWg+89PYTDL+Dd3enkuOp8/OroQQ4fn4hD39PTUCrh+TysreFLSyRT8f66bRpxSI9pYAA7fhx6erfZeTogvrZGcucOycWL+Pnz+LVrcRKeV58zid3TDr0AR49gx45i+w8S9u6Fzs7YZrW1iDU1YflcLdDtwTQWcnhH+7d/n0QyRoEu8k0a+ntz9y7lf/hH+OMfCevrODmcHFCGphzs2Im98Sbhv/wNtncE6+khhICFQLU/+iZmcZ13WzNeLGDh6a82q0vprKeHXKFApasrHSsoY7URhDRQp6fh9k1sZjrOvA8BX1wmuXOfZG6BjbvtDRPP+vrhyFHo7t7mCNLpgMvLJOcvkPz+PZLbN+OMea8egwMVbEc/9ld/jb3xOuGlY1hLkVDXR/6h98uBtpXYrjafU5yLNFCgi2zDIV1yRbyKHRsjuXEdm5mBtVIa5HVLzHp74ad/Dj/5Mezfj3V3EZqbH70jI620wre66Ixx7Xg+R6W1Bd89DPtfwCfGoHH4PHFYX8cnJmBsDIaG8JlZ/NKXMP6g4V1IIBjkWrDePsLe4bjmHU8ryNUdQSwEDwsL+J/+iF+8AAvzaWGY9JZEIQf7XoCzr2JnTmOHDkBnR61j2/YczFQlTmQbKv0q8g2qs6q9VCK5cwu/eQNbXakrhdoQ6D95E374A7y/D5qbYzvPR+3EiQGbfDfz3D0EKoUmGB7BDh+Fjo6t76WXyyQTE/jYGKyvY9Mz8NklGJ9oOLgKFPJ4Ry/Wv4MwNEhoa9ncm73GYoW3+Tn888/xS5/D8jIb70ICTQGOHIGz/wY7cRTbtRNyubjFo96CaslYJbrIQxToItswnODpRLFyORZFuTeKr63X5UkFKAMJVsgTursIHR1xmD0+yf9zAcibEfaNEF4+jnV1bX0YlQo+M0syNY2VyrHYzKcfw9jow9sO7oQf/Vvs8MFYUKda7a1uEyf2Q0/m5vDx8bSM7cMnPpbPY3tGsAMHoaV1U5e0x32/NA1O5GEachfZwsZa51h/3MsVfGIKH5uA9VLDlmlv8RCw1laspfhE66S/64tNIy6H89278COHCB3tW++jUsEnHsD9UXxxEZ+ahOtXYXoqHYGoewUD/fDaq7B/b926+W1e4eISPpXem99Y+V77sudyhP5+bHAw9nLnCQM6PbTG0q8izztdoYs02OilbWDpLO8kgbkFfGYu1hPf4jGbip44WN0zbbejR2zxhKzuD9Dbhw0NYy3bVHMrlWJxmavXqIyOkUxN4tOTsfQq+c33x7u7sRdfxHbt2mpPmz7H+jq+shLX7DeoFdQpBHKFQAj2ZL+EzGrr0hXmIpsp0EW20Bi05r7RIW3Tve6NK1Bzx0qlODxfV8r0kftwx1ZXsdXVjSYkT61WsQbr6MAGBmLf8s4uyFXXyafblZJY5OXLL/FLl0hu3YKVJahU0iVrDvkcdHVjg4OEkRGsbnb7dlfVXi7jpXU8SR56D6qv15eWY2e1LUL/G1/dyiosLMURkyd6pEj2KdBFtlFbBka6GjsXIBcakiwH5DECliTY2hq+vk4FSLa8jq177nRSuCUVbGkRW1x44oD7Ri0tcaLe8B4YHIRCfaDn4p2CiXH8yy/wc+fg6tW6/ae3Eppz2NAQNjxC2NEfG8BsozZK4QleKcePW21YqeCT0yRjD2Kb1CcxtwDjU/jqmgJdpIHuoctzp76O+lY2JmnVtSXJBehsx7o7YxGWrR6/uIh/9jkMDODHjuHNzZvqk2/6uLaGL6/A5cv4p5/hv38Xrl2F1XW+s/NsM6y1BTt4ED+wH8ZH0+evHoRBOYGpGbh4AZaW4/y++lff1gbHXsQOHcKLxdic5RG8qYi3dmC5h+u814bkP7tEMjCIvXSckJaebfy+VP8dcJJ790mu38T/cA4/9wGMjqdr6+v2y/bfU5HngQJdnjvV4fCHf/lvzLbauK5OSAh4LhfLkfb1kBS2DnSfn6dy/gLW2wfDw7gFklw1HOP0Ok88DqvPzOIPHuBv/xp/6y3s2hWYnCb+SH6HXcSai9jBg9jBF/A/XYxXuJvkYk30Tz5lo4tZnG7mAO3t2Esn4PBhvND0eFfFLW3Q2YMVmuqeKa2MB7C2jn/8GUmxnfDzn5EM74ZcniQYbkZw4qOSJI5eVEokV65QfvsdePstuHgB2+Z90lW7PM8U6PL8SCrx/rBvcw1sBk0FvKlAEiydFJZumS/A7mHYsxdrLjY+kBiMyyQXLsR67xOThCOH8AP78OYWCDlYWYPJSbhzC792Db9yGW7exO7cifeTazPmne8i1A2gqYlkZA8+sgfSGeVbb7l5JnrtK22t5I4dIRzcjxcKj3UFHHq6CUO7qLQUSRpekxPADa+swfUrVP7rf8Ne/T6cOQV9fXh7O0m5jC0vk0w+wG5cxz//FP/6Fty9j9+9nZ4gVNLCNlsft8jzSIEuzw2vJHi5Eie4scXVnBne1BSXUll9005ijfWhIWzvXkJHRxx2L3vdNgbLq/hX12PHtPFJ/OQJ/ORxvKUdzxWwpSW4dx//8jJ88Tlc/jw+PASspRU6m/H1dSgneHnbRWGPLQZ6AXYNwtAQtLbFamyV+uOufqw/gXAIhrV1xMlw+/cRBnfiZo88JgOsvQ129JMMDWH9ffjcXNomtVpZz+MM+NF7JP/0S+zrW9jsDAztgu5uvFTCFxbwu3fwTz/B3n8PX4wjC24BzzdhxeZYp25lPX09tukViTyPFOjy3Iizr0tbzr4GYnnTYhMUm7HQUNQ0n8eHBuO96J1DcH8MZmfjfWhyVK9CAwGfX8CufIGP3iE59z7k8rgFqJRhZTWG08LCxvM3F+HQYWhtw8bG8elpfG4GPGCEp7437ECSy2GdnYT+PpKefrx1PJZiJbD9KEAChTx24kXCq2djyBrpFTHbHk3t3reBt7djP3w9nsS881t8cmbTlkYuNlsprcBXl/H5SazYDIUCJB6r2K2uYHNzsLqy8chcEevowg7uxZIyfuUKLK0+9FpqExmf+F0TeXYp0OX54I6XKySlclw2xRa/7EOAYjEGbHqFbnVfs/Y2wsge/PXXcU9ILl6AlVUoVah2NHMMWyvB2ipMTzdUUvPa31W2ZyTe4z7zfTzk8Y8u4KUSzE+DJ7VHPi0zoLkJenrgwAF4MAGLsxuF6reU4PlAOHoUO3Ua7+yivozLN4VkbavWFuz0KWxpER8dhStX8cnZ2uiIYWnyV2B2BmZnat8Tr1v0V/s+dXRiPT3YvkPYnr0w0IeP3YNbN2FpKd375vepcRxCJOsU6PLc8EolhnqyTTBZwIqt0NKCh/DQNgFgzzD+t/+ZpKsDv3sfxu5DaS4NoFC35UNT5jA21qdXwyb/6lnCz/8CTp+C2VmSqRl4ME64X11i1lhg9fFVwxMD7+6Gl1+GiTG4+VV6srD1mnfH8UIBP3QITp6s1YJP0tXpj3V3v7kZjhzBKhUYHcMTJ5n5kFAus7kO/uaObvGIy9Sq71Vfy+Ag9vIpcr/4BXbm+1Tu38ff/R289y4wRWN5nsZKASLPAwW6ZFx6jecer6YXl2LIbCUEvKWIFYt4ePh+seHQ3IwPDWF/9hq55WX86lX8xg24cwd/MImvrsWh9dpj0nAJAYptWF8vYc8e2DWI7dxB7rU/I5x+BXYP4eMtJIcPwdI8FEOcDe8OSRk7uA/aWp+svapROxmwzk44cRymH8DMgy0K2FRPRhJoaoa+fuzIEWzHAKG5AGkJ3MfZu1Vfb0szNjIMP/kxoa+X5MBe/OvbcOceTE3B4tI2z+BYSwsMD8OuodiS9sgR7PgJeOUUjAxjuYDt3wsvHobuDkgChAS6OvD+Xqy58FhL7ESyRIEuGZZ25oL4cWkZm1sglMrVr24WDIrNeEtz3aS4hqcLIXZRe+UUuZMnqFz8E8kfPoR33sXXP8aTSXy9HO8Pkwa6GRRyWFc3dvhFwptvEM5+n3DmdAyutMVqsryMHT2C58F39caraE+w9VXYM4J1dcTZ8k/IAOvqxE68iK8v46WlhkC3dBmY45Sho5swsItw9AihqxNLS+Q89v6qHeYMGBgg/OTH+Esn8Nd/QPk3v6fyu99jlz6FlcX0fU3vzVvt9AM6O7HvnYKzr2Gnz2AH9xNGdsfNy2Xo6cL2j8CZl2FiD5TzkC9DWxMM7cSLzXFi3xO/WyLPLgW6ZJulA9dJgt8fw2/egpXlrbfN5wl9vVhvL5bf4kfDNt9TT/IFOLAfa2nFjhzGHkyQW16EtVWS9VI65G3kisVYta25BevrheHd2M6dWEsR6vZjnZ2El16EkSF88ZX4+PQKnfYO2DEYZ6nb48bUxix2a2oi19ND7uRJvL8Pd2/YItTuXXuhGWttJQwOpiclTxiLW2xuHe0wspfcT3+MHTuKTU/C3By+Gmu+G8QWqvk8SaEQJ9UN7cYGB2FgB6GrM12fHk+qvK0VDh4i/OVfw/Ia5oabkxQCobc/1gIotjzZcYs84xToknnucda0p41IWFza+q50voANDMT654WtfjQ25ni7BcgH2LUrNiw5/T1CkmDlEr62HmuOu4MZob2d0NJSK/Uan8NrX69payXs3xePmY3iNl79xFNJjzmfJ9fRDh3tcODgpqps9ZXZGj//7RaD1T2upTWe+OzcSXjldAznUolkcSHWxweskI+z3ItFvFDYVCvA0gMzI46eFIvY7t3xD/GGQYXNs9tVZEaeNwp0yZ7qbfP0DrIlFXIrK1QufU5y/iN8dhbYHFMO0NyEj4xgIyNpEZbtp1bZpv2k4WeG5wt4yMW17OkVuhXyDdXn6q96re45Y2rlSGfLb5qnbRvD2N+Kp88OeMPSPGs8su94nnjd0gI3IJ8jtLfXhv89BDwELO0lX3+ikaT/CUDwuml0tvE9CtX/pkP3Gm6X540CXTKlMYIcwx5MwtVr+LWrcO8OTlIXW+kwc1s79O+MxWP6+2tD7o+q+V7/b8PiZLoQNg2lb7X9oz6z5T6/44Ta6un+b4fgpucPodYP/ZHbkp4EpN+Q7Y69uokCXZ5HCnTJlK2WVyeXr+D/65/xWzeBCqFWscxwKiSWYDsHsReOYDt2Ym2tmMUSpYl9Q4GShqtu7Anbqjy8bo6HTxO22/Zp1e3jkc/53Z9BNL7Cxr1tF9S1E7Ut37PH34dIlinQJXNqg7CTk/jXt0jef5/k/fdgbJx00DbdIDY5JQDHj2Gv/zBOVsvlMNdV3r8m+j6IPJoCXTLJAb97j+Stt0h+82sq5z8keC5dngUxzMtxy1DATn+P8LOfEnYMbBr2VpCIyLNCgS7ZkRaP8dExkj99gp//CM79AW7cJCQbc5+dBE9rr9vx4+TOvko480pcsla9p6skF5FnjAJdsqNSwaenSb64TOV//hLOf4RdvwLlpFY4JQZ6BW/KY21t2Cunyf2n/4gdfRHr7Pj//QpERJ6aAl0yw1fX8PMX8d++g31yEUbvpeudqoucEmpd0fbuI/zoTXJv/ojw0sm0AYmIyLNLgS4Z4liSYKXY7cxL62nlVwfzuB68rSPOZD97ltzP/j3h5EuEXUMNrT1ERJ49CnTJDGtpIfzwB9DaSmXyQbxiv3c3NkuxgLV3Y4cOwc//gvDaWTh+DLrjlbkmwInIs06BLtmRy+ED/XD8GOHf/TQ26Dj3QVxXvmMA27sfO3YMe+01wgsHCX09W9dsFxF5Bum3mWRGtUSoD+4k9x9+AT29JPOrhAP7yJ05jX/vJH5gH6FQIORyBOPheuoiIs8oBbpkhnlaMiafj53LXj5J3gKhpxvbPUQyuDN2EaM6vK675iKSHebVPooiz7rte6kAcY579Uu6JheRrNEVumTHI1L6GxufiIg84xTo8txQkItIlj1RcygRERH510mBLiIikgEKdBERkQxQoIuIiGSAAl1ERCQDFOgiIiIZoEAXERHJAAW6iIhIBijQRUREMkCBLiIikgEKdBERkQxQoIuIiGSAAl1ERCQDFOgiIiIZoEAXERHJAAW6iIhIBijQRUREMkCBLiIikgEKdBERkQxQoIuIiGSAAl1ERCQDFOgiIiIZoEAXERHJAAW6iIhIBijQRUREMkCBLiIikgEKdBERkQxQoIuIiGSAAl1ERCQDFOgiIiIZoEAXERHJAAW6iIhIBijQRUREMkCBLiIikgEKdBERkQxQoIuIiGSAAl1ERCQDFOgiIiIZoEAXERHJAAW6iIhIBijQRUREMkCBLiIikgEKdBERkQxQoIuIiGSAAl1ERCQDFOgiIiIZoEAXERHJAAW6iIhIBijQRUREMkCBLiIikgEKdBERkQxQoIuIiGSAAl1ERCQDFOgiIiIZoEAXERHJAAW6iIhIBijQRUREMkCBLiIikgEKdBERkQxQoIuIiGSAAl1ERCQDFOgiIiIZoEAXERHJAAW6iIhIBijQRUREMkCBLiIikgEKdBERkQxQoIuIiGSAAl1ERCQDFOgiIiIZoEAXERHJAAW6iIhIBijQRUREMkCBLiIikgEKdBERkQxQoIuIiGSAAl1ERCQDFOgiIiIZoEAXERHJAAW6iIhIBijQRUREMkCBLiIikgEKdBERkQxQoIuIiGSAAl1ERCQDFOgiIiIZoEAXERHJAAW6iIhIBijQRUREMkCBLiIikgEKdBERkQxQoIuIiGSAAl1ERCQDFOgiIiIZoEAXERHJAAW6iIhIBijQRUREMkCBLiIikgEKdBERkQxQoIuIiGSAAl1ERCQDFOgiIiIZoEAXERHJAAW6iIhIBijQRUREMkCBLiIikgEKdBERkQxQoIuIiGSAAl1ERCQDFOgiIiIZoEAXERHJAAW6iIhIBijQRUREMkCBLiIikgEKdBERkQxQoIuIiGSAAl1ERCQDFOgiIiIZoEAXERHJAAW6iIhIBijQRUREMkCBLiIikgEKdBERkQxQoIuIiGSAAl1ERCQD/g8fwloHv6l2IwAAAABJRU5ErkJggg==;" parent="1" vertex="1">
                    <mxGeometry x="200" y="240" width="80" height="80" as="geometry"/>
                </mxCell>
                <mxCell id="6" value="" style="shape=image;verticalLabelPosition=bottom;labelBackgroundColor=default;verticalAlign=top;aspect=fixed;imageAspect=0;image=data:image/png,iVBORw0KGgoAAAANSUhEUgAAAfQAAAH0CAYAAADL1t+KAAAACXBIWXMAAA7EAAAOxAGVKw4bAAAAO3RFWHRDb21tZW50AHhyOmQ6REFGMkU4anhHN3M6MyxqOjUxNTE0MDMzNzY4NjAzMDY5NTEsdDoyMzEyMDUwM3UgE+cAAATkaVRYdFhNTDpjb20uYWRvYmUueG1wAAAAAAA8eDp4bXBtZXRhIHhtbG5zOng9J2Fkb2JlOm5zOm1ldGEvJz4KICAgICAgICA8cmRmOlJERiB4bWxuczpyZGY9J2h0dHA6Ly93d3cudzMub3JnLzE5OTkvMDIvMjItcmRmLXN5bnRheC1ucyMnPgoKICAgICAgICA8cmRmOkRlc2NyaXB0aW9uIHJkZjphYm91dD0nJwogICAgICAgIHhtbG5zOmRjPSdodHRwOi8vcHVybC5vcmcvZGMvZWxlbWVudHMvMS4xLyc+CiAgICAgICAgPGRjOnRpdGxlPgogICAgICAgIDxyZGY6QWx0PgogICAgICAgIDxyZGY6bGkgeG1sOmxhbmc9J3gtZGVmYXVsdCc+VW50aXRsZWQgZGVzaWduIC0gNTwvcmRmOmxpPgogICAgICAgIDwvcmRmOkFsdD4KICAgICAgICA8L2RjOnRpdGxlPgogICAgICAgIDwvcmRmOkRlc2NyaXB0aW9uPgoKICAgICAgICA8cmRmOkRlc2NyaXB0aW9uIHJkZjphYm91dD0nJwogICAgICAgIHhtbG5zOkF0dHJpYj0naHR0cDovL25zLmF0dHJpYnV0aW9uLmNvbS9hZHMvMS4wLyc+CiAgICAgICAgPEF0dHJpYjpBZHM+CiAgICAgICAgPHJkZjpTZXE+CiAgICAgICAgPHJkZjpsaSByZGY6cGFyc2VUeXBlPSdSZXNvdXJjZSc+CiAgICAgICAgPEF0dHJpYjpDcmVhdGVkPjIwMjMtMTItMDU8L0F0dHJpYjpDcmVhdGVkPgogICAgICAgIDxBdHRyaWI6RXh0SWQ+YzMxMDhmNWYtMDQ5MC00YzdlLWExNmItNzY2MDc1ZWQzMmRjPC9BdHRyaWI6RXh0SWQ+CiAgICAgICAgPEF0dHJpYjpGYklkPjUyNTI2NTkxNDE3OTU4MDwvQXR0cmliOkZiSWQ+CiAgICAgICAgPEF0dHJpYjpUb3VjaFR5cGU+MjwvQXR0cmliOlRvdWNoVHlwZT4KICAgICAgICA8L3JkZjpsaT4KICAgICAgICA8L3JkZjpTZXE+CiAgICAgICAgPC9BdHRyaWI6QWRzPgogICAgICAgIDwvcmRmOkRlc2NyaXB0aW9uPgoKICAgICAgICA8cmRmOkRlc2NyaXB0aW9uIHJkZjphYm91dD0nJwogICAgICAgIHhtbG5zOnBkZj0naHR0cDovL25zLmFkb2JlLmNvbS9wZGYvMS4zLyc+CiAgICAgICAgPHBkZjpBdXRob3I+bmdoxKlhPC9wZGY6QXV0aG9yPgogICAgICAgIDwvcmRmOkRlc2NyaXB0aW9uPgoKICAgICAgICA8cmRmOkRlc2NyaXB0aW9uIHJkZjphYm91dD0nJwogICAgICAgIHhtbG5zOnhtcD0naHR0cDovL25zLmFkb2JlLmNvbS94YXAvMS4wLyc+CiAgICAgICAgPHhtcDpDcmVhdG9yVG9vbD5DYW52YTwveG1wOkNyZWF0b3JUb29sPgogICAgICAgIDwvcmRmOkRlc2NyaXB0aW9uPgogICAgICAgIAogICAgICAgIDwvcmRmOlJERj4KICAgICAgICA8L3g6eG1wbWV0YT6hWWU8AABneklEQVR4nOzd6W9c12GG8fcus3F2LiIlkqZER40DW7GTBg0Kt2g+FOjf3E+JAzS109pxvFSJJZEj7sPZ95m7nX4YanHa2K0lkZzD5wcIoABCuEOKfObcs1zHGGMEAAAWmnvVFwAAAF4dQQcAwAIEHQAACxB0AAAsQNABALAAQQcAwAIEHQAACxB0AAAsQNABALAAQQcAwAIEHQAACxB0AAAsQNABALAAQQcAwAIEHQAACxB0AAAsQNABALAAQQcAwAIEHQAACxB0AAAsQNABALAAQQcAwAIEHQAACxB0AAAsQNABALAAQQcAwAIEHQAACxB0AAAsQNABALAAQQcAwAIEHQAACxB0AAAsQNABALAAQQcAwAIEHQAACxB0AAAsQNABALAAQQcAwAIEHQAACxB0AAAsQNABALAAQQcAwAIEHQAACxB0AAAsQNABALAAQQcAwAIEHQAACxB0AAAsQNABALAAQQcAwAIEHQAACxB0AAAsQNABALAAQQcAwAIEHQAACxB0AAAsQNABALAAQQcAwAIEHQAACxB0AAAsQNABALAAQQcAwAIEHQAACxB0AAAsQNABALAAQQcAwAIEHQAACxB0AAAsQNABALAAQQcAwAIEHQAACxB0AAAsQNABALAAQQcAwAIEHQAACxB0AAAsQNABALAAQQcAwAIEHQAACxB0AAAsQNABALAAQQcAwAIEHQAACxB0AAAsQNABALAAQQcAwAIEHQAACxB0AAAsQNABALAAQQcAwAIEHQAACxB0AAAsQNABALAAQQcAwAIEHQAACxB0AAAsQNABALAAQQcAwAIEHQAACxB0AAAsQNABALAAQQcAwAIEHQAACxB0AAAsQNABALAAQQcAwAIEHQAACxB0AAAsQNABALAAQQcAwAIEHQAACxB0AAAsQNABALAAQQcAwAIEHQAACxB0AAAsQNABALAAQQcAwAIEHQAACxB0AAAsQNABALAAQQcAwAIEHQAAC/hXfQEAXg9jjExiFEwCBaOZwlmoOIi/9Tle2pOfTSlbyCqzlLmiKwXwJhB0YIGZxCiJE5k4URwlisNYo9ZQg0Zf08FEwTj41uenC2llyjlVblWkFclxHbmeI9dz5biuHNe5olcC4FURdGBBmcRo0Oirf9ZT52lL/eO+xucjhZNQURAqDmMlUSw9i3Ri5Pqe3LSndCatdC6tpY28SptlrdxbVXG9pKVKnqgDC4qgAwskiRPFQaTZcKZJd6LOYUutWlONP9fVrXU0PB7IJEaOdxFlx3keaJMYyZj5x7GR47kqbpe0vLusSWes6s6KyncqypZyyhQy8lKeXI9lNsCicIy5+AkHcO1NB1MNm30dfXao408PNWmNNe1PFc1CRbPo+Zy58/Ig+9lfXvpRN0aSI/lpX17GVyqdUnY5p8J6Qbd/tqXb72+quFxUtpC9vBcH4JUwQgeuMyPFcazZcKZBva/ecVe9o47qX5+q/vBM8SRSHCVyfVeO58hNfdeI2vkfH8VRrGgaaRyM5nPv9Z7CWaRpd6LqW8uqbFZUuFVSeiktz/Ne/icAXDOM0IFrzCRGs/FM7VpLjz/6s86/OlPvaU9JkkiekRLJyMiR88Nja+Yr5J+LJc/zVP3xijZ+elu7/3Bf1e1lpXNpOQ5FB64rRujANdU77ap71FZnv6P2fkvNvYZG5wOFk0CO78h1Xc07/oqRdTQPtXmxaj4OY/WPezJxoll7puq9ZZXvLau6WVVlo/J6XiCA14oROnBdmBd7yU1iVPuPPe1//EQn/36o/mFP/pIvN+29WPD2pi8nNkqCWNE4UnGnoo0Pt7X7y13t/nxXjufIceZ/uA0PXA8EHbgmZqOZeqddtR431Hx4rt5ZV4N6X+PmWOE4lOu7kqdLu+1tjJFiKYkSpfIpZdfyKt0qqbJR1uq7G1q5v6byrRIH1ADXBLfcgSsUR7HiIFYwmi96qz8608mnhzr6+EBJnEiO5KY8eVnv0q/NcRzJlzzfUxzEGtQ6Gux3dOq72uoONZsFindDFW+VlC6k5ad8trkBV4gROnCFhu2huqcdnfzhSK1vGhqc9DXpjjUbzqSLn0zHvQa3tS/m1yVJjpQpZpWr5FS8XdLqO+va+sVbKm2UlS8tXe11AjcYI3TgEpnEKEkSTbpjDZtDdQ7bau+3dPbViXoHHQWD+VGtXubyR+TfydG35u4n7bEm7bGGjYEm/YmiWaSVuyuqbFVVWC0oV15ifh24ZIzQgUsUR7GCSaDjL45U+91jtb9paXDYV6JE5mJI7jj6i5NhriFjnp9T4ziuXDmq3Ktq9d1b2v37H+nOg62L8+Gv+esALMIIHbgE4SxU96yr3lFXvVpHrf2mWvsNjc9Hmo1n8tKuHH+BAug4cpyLOw5hpDBI1D/pKTaxklGszpO2yjsVlTbLKq6V5Kf5VQO8aYzQgUsw6oz0zSePdPC7fZ3+9kBxGMtf8ufbvxYl4t/DJEYmNorGkVIZX/f++W3tfLir7Q92lCsztw68aQQdeEPGvfkcc+NhXc1HDXVOOhqc9TWuD2USIzfl2jXPfLGPPgkTuZ6r4p2iihtlldZLWvnRmtZ+sq7CWlFLxB14I7gPBrwmxhglsVEcRArHgTrHbTX3Gqr9dk/1r05l4kSO48hNu5Jj4fauixPnvIwnGaP+YU+9g64cz9X6e7cVRqFWd2/JbCXzs+HT/vPT7gC8OkbowGsShZHG/Ymajxs6+exA/aOuhmfD+Ta00cU2NEfW3GL/PvPHtWq+zS2fUa6ypOKdkso7VW3/7Vta3V1TJp+R61+zFf3AgmKEDrwCY4xMnGjUHmnYGKhz3NX5wzMd/+FQk8ZI4TCQm/a+5ylodnr5jcu0P9W4OdKg0VfvrCsTJpp1pyreLim/WtBSJf/8OFkAPwwjdOAVJHGiYByo9skTHX16oOZ/NTRujxXHsUySSOaaHAxz1S4OpnHc+SJAz/OVX81r7cG6Nn+2rZ1f3FUql+akOeAVMEIHfoDpYKpha3AxT9zR+eO62rWmBqcDxbNYbma+Be2yHqRy7V0cTDPf5pYoHIaKZqESJ1E4CjQ6Haq8XVFpq6zCSlHZYvaqrxhYOIzQgR+g9bSho88PVPtoT8cfH8rNenLT7otbxnT8u12M2E2UyMRGJpY2f7mlnX+8p60P3tLKztpVXyGwcAg68H+QRIlGnaF6Jz21vjlX57Cj3nFH/aOehmfD+RY0n8eJ/r+Y+b71JJ4/LrawXlRps6TyZlXV7apW/uaWynfKylcL8yfNAfhOBB34K549mzyaRZoNp2rVmjr58li1j55oeNZXEiZyfPdGLnh7E5IwkYkSuSlXhY2S7v7T27rzYFMrd1eVKWTlZ/z5NAYL54D/FUEH/opwGioYz3T8x6P5w1MOuxrWh5p0R4qCSErM/AjUG7IN7U2bb3MzkuvIT/vKVfIqrBdU3q5o47072nx/S+mljFLZ1FVfKnAtsSgOeIkxRtE01KQ/0fB8qGG9r4P/rOnki2NNmxNF00h+bn5kq1jw9lrN3xjNv6bRNFJnv6XBaU+do7aC0UyKjQrrJRVuFZQr5eRnU4zWgZcwQgeeMVKSJOoed3T42VPVvzxV46tzhbNAURgpidmGdmmePX/dkVzPlZ/ylcqktfbeLa0/uK3tn++oslnlpDngJYzQASONuiMNW0MNjnpq11o6f1RXt9ZW/7grN+XKTXvzkDNdfjmePX/dzBckTscTjcORjG8UzEIFvZmqd1dU3CyrsFJQvpIn7LjxGKHjxjOJ0dHDIx1+fqjDX++p97Qr5+KtrjGGlevXgXnpeyHJSaTSTlXbv7qnrfe3tfWTLdYy4MYj6LiRwmmo6WCiTq2t1pOG2odtdQ476j/tKhjM5tukPDFHe80YY6REMnGidDGj4nZF1e2qlreXtfL2mqp3l5Ut5lg4hxuJoOPGeLYNLQ5jjTsjdY87qv3bnvZ+80jBIFA8i+TlfPY8L4gkShRPInkZX+liWru/uq+7H+6qslnVUjUvL+WxzQ03CkHHzWCkcBZq2Bzo9MtjNR811DvoatgYaNQezvdAx2b+gBBu3S4Ek5jn3zM35Sq/XFBhrajyWxWt3l/T7QebKqwWlcqkmDLBjcCiOFjNGKNgHGg2nGrUGKlda+rpJ/tqPjrX6HQ0f1BIznv+0BAsjpe/ZyY26h101a111DlqadgYyMRGy3dXlV/LK1vMKr2UueIrBt4sRuiwlkmMkiTR+aMznX59ovrnp+rstRVMZ4qCSEmQvFhNjYVn4vnz1920Kz/tK53NqLq7rPUPbmvzwZbWf3z7qi8ReKMYocM6cRBpMphodD5U/6Sv5t65Go/raj9qa3w+lJf15Pjzs9dhj2dvzJIo0Ww61fh8pGAaKAwDBb2ZRmdDFTaKWlrNK1fMyUvz6w92YYQO60x6Y9Ufneno90+1/+snCkaBkiSRZGQktqHdBM+2uUmSHLmeq0w+o7u/2tXW3+1o/f6GcuWlK75I4PXiLSqsMBvNNO6N1X7SVKfWUveoo06trUlvoiROnj+bnHnyG8KZv3GbL5xLFIex4jDW6R9PNO1N1Xx4rurdFS2/vaql8pIyeebXsfgYoWNxXYzCkjhRt95Vc7+hR//6J9U/P1YwCCTHkZ/zGY1jzkjRJJKMUbqY1voHm7r/L+9o9d6aKusVuZ7L3RssNIKOhZTEiaIgUuegpfqfztTea6lb62hQ72vamyiJ5gve2FOOlyXR/Dx+13eVLedUXC+pcreq5d0Vrb+zoepbK/LTvlyP/zdYPNxyx0IxSaJgHGjan2rUHuns6xM9/f2+unsdjU4H8nK+vLQ3DzkjLfwF13efP/hlWB+oV+uoc9BW56itaBopDhPll/PKlrJKL6XluIQdi4MROhZKMJ7p5OtjnX11ovMv6ho1h5qNp/NfxrP4xTw5Mcd3MS8OpvEynvysr8xSVvnVgm79dF0b793RnXc32buOhfLfAAAA///s3cl3XFee4PfvfVO8GBEITMTIQZSoISWlUpmpnKuyBneVfY67XO6FN1552Ph447/Bey/8B7Tr9MLnuMs+tqurq6o7XUNm5aDMVIpKTaQ4ASRmIBBzvPHe68ULgGQSEgcRQARwP+eAhIR4gYdg4P3e7w6/n8nQjaEXhzFRNxpsQ2uy+ek629e22PusjoxTrFxWGMbyTDZlPKFB/QFhC5RURJ2IYLdPZ7NNHEfEvZikHVOeG6M4VSJXyuH53kmftWF8IZOhG0OvsdlkZ3mblX+8zeZvVkmjFJmkKJW9dc1CJuNLGyywBLAsge05eMUcM1+dY+n7F5m6MM34ueoJn6RhfDGToRtDR0lFHMZ0d7o0lus07u6xd2+PvRu79Pd62YOEMPPkxvMz2OaGBpkoZBKTBAk7n26RxinNxTrjSzXGL0xQmirh+Z5ZOGcMHZOhG0MniRJaux3WP7jHZ3/7Ca3lJuFuP1vwlrNP+vSMM0RGEhmk+JMFxi5UeelPXmXuzUXG9pu+GMYQMQHdGAoykSRRwu6tbeq3dqnfqtO616C90SLuRchIYjmWqbtuHCstNSpVOHkHr5SjPFNhbGGciRcmmHppmumXzmE7tilYZAwFM+RunCiVSpIoJWj26e52ufebFdavrrF3fZe4HWEXsv7kJjM3ToKwBbZto5UmbAR0V9vsXt+msTpJ1A1xPQ+/mscrerg5B8sx71Pj5JgM3ThRnZ2secrG1XU2r24Q9UOiXkTSjbOSrbYwi96M4aCzwjSWbeGWPPyST76UZ/qNc5x7c5bJS9OUpyonfZbGGWYydONYaa1JgpiwE9Gv92jcrbN9Y5Ot326y89EWtm9jeYNtaK5ZdPS59KDVjM4+f/hr+pH/9bsEgBAP/w+x/6m5gTqUIHtPaog7EWG9Tz2URFFEHEWEjZDxpQkKE0X8cg4372U3o4ZxTEyGbhwrlUoaa3tsXdti5We3aS43iDvhYCuaBMtk5E9CK31QGAWlD/3aFxHWA41qBAj7/o6Bh75mHG5/m5vS2K6Nk3Pwyj7VC+Oc/84lZl6eYXy+ZobgjWNlMnTjyMlUksYp7fXWoAtanfrtXXZv7BA0+uh0MLRu6q5n9oPFoJoZWqM1oDRisJ7AK3k4eRfLtrIPz8ZyspK3tpV9HEYpjVaK7Ok0OpEoqVBKIWNJGqWkQUIapKhEZjcMlsiSeXG/Ct+Zv+nafw0skb2/o5SoH5PGKQJBZ6PN+OI41cUaYwtVHM/BNsHdOGImQzeOXNzPWpve/slNbv/zDdrLLcJGiJN3EM5ZjgqH28+8sw918LlKFE7BITfuU5ovU56t4JU83FIOt+LjFjxc38XPe/j5w0uWyiS7uUqlJEkkaTck6WV7rsNWQH+vT3ejQ2+zS9JJUJHEcq2DqmrCfuBzk8U/QkuNiiRe2aMwW+Ly77/E5R9eoTBWMGVkjSNnArpxJLTS9Jt9dm/vsHd7l8btPVrrDdqbLeJOjIwHgeKMB4UsA88WW2mZDZV75Rz5qTx+NU9uLI9f8vELPrm8h+O7gy1UHl7Jw/YcLM/OGtK4WZbuDD4Oo5RCSY3Sg7+TFBXLgywzDVPibkzSjUnDlDRMCPsRcT8k7kYEzYCg0SdshKS9BDHYSniQuZt/T3SqsFwbJ+8wNlululhj/FKN2qVJJi9NUagWzvzrZBwNE9CN50qmEhlL4n5MY6XOnXdvsXF1nd0Pt7Lh4rx9tudoHygxCoP5aiGyhWgKhIbibJmxy+NUFquUF6pUpiuUJ8uUa2Vc7/hmyZRUxEFMu96mt9uhu92hda9J826DzkqL/k4f4Qg0g/l8PZi7N0PyB+sYZCDRqWLy9RlmvzrHhXdeoLZUwy16OK6D7ZpheOP5MQHdeK6aaw3qy7tsvr9G/dYu3XqXqB0Sd6JsLvasbkMbBHKdZoVK9jPz8kKFyuIY1flxytMViuNFchUfr+zhFr2DYXQn52b7nI+xnafWGiUVSZSQhkmWvfcj4m6crfJuhfQaXdqbLRp39+iuZ0P1lmtloy/OGR6B2f/3Hixa9Mo5chWf4niR8UuTTH91lslLU0wuTpz0mRqniFkUZ3xpWmvCVkCv3su2oH26yfqvV2mvNrMM1LGwzmJhmP2tZSr7HItsuDzv4foebt6jerFK9dI4ExenqM6PU5os4xxjFv5FhBDYjp0t5ir6D31NSUUSJrS3WjTu7VGYLNKqNWiXW6RSIpOEOEiQscx+9rM2HD8Ypdj/meNeTNgMad7Zo7XZJoizm1wdSopTJfJjebPFzfjSTIZufCn7Wdza1Xvc+MdrNO806Ky3SeMUlarBhY2H9zyfEfvDripRoMEtuowtjjHz+hxTl6eZvDCNk3dwfOcgC7fdESkjqhmsjE9JopQ0iAk7IUErZG9ll/qdHbY/3KSz3kYlCmEPqv2NwI92JPZ3Kuhsi6Dj2ZRmylSWxrjyR6+y+PZ5LNsyQd34UoYjFTBGklaa7m6XnetbrF29y9ZHGwR7AUknzorDnNG66/ur1C3Hwik4lCbLFCdLFGoFKgtVJl6cpLowTnV2/KRP9dkJsu1y+WykgWqB4qQkiRPytTyl6TLliQrttRa9vR79vR79eg+VZNMNZ26VvBAH97RaKqJWgkwkYSfAL+VRsWLqygylydLZel2M58pk6MYzOcjM37/He//mXZp3GyRhApgFUSpRyCDFG8tRmC5y8fsvsPC1Japz4/iV/GDvuEAc43z4cdlfGKelQklFd6/H5q0t1n61wt0f3ybuxqhIYueds10J8IFaA47vMn5+nLf/63eYf2vRZOrGMzMZuvFMom7E2tV73PvVCp3NztkO5oNtZ2iN5dqUz5Wpnq8xNl9lbL7K+IUJxubH8Mv5oZkfPypCZAsfsS1soDgBM2Ia3/eYXJiktd6ktd6kubxHf6+PZWfFWc5cViqyErsaTRoldDY73P7JTZIwYf6ri/hl//HPYRi/43RfXYwjoVJFf6/HnX++yepv7pF048Hc4Bm7KMNBpiU0CNvGK3rULk1y8YeXmbo8TW3hbK9i9nyP2lyN2lwNvgk7t7bY+GSdO6ki6cZowcG2tzN3MzhYOKelJuqELP/8NmmUML5Uw8t7WKZyovGUTEA3norWmr3VOpsfr9NabRK3o7O3ghkOyrLKWCI0TL48zeSVKSYvTVNdHKc8W8Gv5E/6LIdOeaqC/abD2FSVxsoem9fW2btdp7XczFqV+mdvN4SwBFpr4nZEa7XJ+kerKK2YOD9pht6Np2ICuvHkdFbacu/2Lmvv36O33UXFMtuSdlauO/v11UU2IlEYL5CvFJh9a565txY4d2WW/FjhpM9yaPmVPH4lT21pgokXJnErLk7OgQSiXkiapPe7x52V95QANCRhSmutzfK7y9iuS21x4myOehnPzAR044lprZGJZPfTbdZ+cQ+Zymw1+xnKIrTSyEji+DZeOcf5dy5y/p2LlM9VKE4W8YqmXveTyo/lOf/1i1QXasx8ZY57v1xh7dd3DxaL7ZeTPc2EyLJzDaQo9jbb1Fc75PJFXvrhFTh7AxbGl2ACuvHEol5Id7dLZ6tDUO/jlNyzs1JZZ6vXLceiOF2kMl+ldnGChbeXmH1zHnewh9x4crbnUJoq4xY98hMFLNvC812aqw26Wx2SfjLoxGedysCulEZKOfhbESWSqJcQ1iP27jXYW29Qnijhl8wCOePJmIBuPLF+o8f2zU3CXoCVsxBnJJZDlpmnQYpf9Zl8ZZqlb17gwjsvkCvlcDznTI1SPG9e3sPxHEq/V2Lpa+f59D98zPLPb9G+0yKNFbYvTs3ru/9zaK1JUkkYJCSpRKYKrUEqhXAEvXaPex/dY+G1eRPQjSdmArrxxPqNPru3dog60SBrOh0X2cdRsUQIi+nXzjF1ZYpzb8wx+cI0hfEsqzS+nAdLzDqew8JbS7h5l+1rW+zdrtO+18w6mHmjPwKilSZNJVGcta9N0v1+9IOFAxbgCXqdPuvXNqjOVJm+cJJnbIwSE9CNJxY0A+q3dgk7YbZY52zEc7QEN++w8I1Fzn/3EpMXJk1v6yNiORZzX5lnfKlGcWEM62d36K11SKMEXEb6Pad1ViUujiS9XohUh9T0ssQgoAdsfrrJ+a8sHv+JGiPLBHTjiUXNkNatRrZVyxq0/DyN9leyDyx+c4m5txaZfvUcY7NV7FNeHGYYuL7L9MVpXCzKlQIb76+x8cEatm+PTKYuhMhq+UtFFKfEicoWlqaSw2J5dgzYjkXSitj9pE6/Hh7vSRsjzVyZjCeitSbuxPQ2utgFJ2u0cRo90K88V8qRHy+w+M4FLv3gMn7Zx8m5J3yCZ4PjOVRnxvCLOUrTJQSCznqbJEmQqRz6IjR60LxGSYVMFWGYEsUpj6u0LYTAtgVpNyXcCImbUVa46IxMbxlfjgnoxmPt121XafZhf156MeoeyMyFJTj3+hwv/+lrjC1U8Sv5rI2ocaw836UyU+XC916gPFvhxo+us/7+KnZuOJv/7G9Dk1ISRSlJopCpJJXqscH8QVppVKxQSXZTYOq7G0/CBHTjsbQaDBNKNejxfQoNepcLS5Cv5hm/MMHi188z/9YitjMiLU1PIcuxyTk2tQs1ChMFgkafNEzobLaJe9FQbWmTUqNUtg0tSSRRnCJThZTq6Z9MZUWcZKoORiSG8QbGGC4moBuPpZTK+psrlTXSOIWZwn5mbnkWtUsTvPFffo2JS5NZf/JT+POOGifnUnBsLv3eixSny3z0l1fZaQQnvqVt/3srrYnjlChKSAdBPEvIv9ztr5KSNE4HHfrMjgrji5mAbjzeQavHU5ibPzhnXs4x99YCi2+fp3ZhAr+SN8F8SOxvbStOlpi+MsPFH1zGK+fYub5NGiUnVuBIS02cSpIkJY73t6Hppxpe/8Lnf6DNqmE8jgnoxpmmtUZLjeVYFGpFXvqjV1h4e8nMWQ4pL+8xNl/lyp++Qn48T/NOg7gTZZ3JjvGfa79LmpKKsB/TC+Lj++aG8TlMQDfONC01OlUsfOsi5799geriOJZlgvkwsyyLXNFn4vIUV/7la6y/d4/Nq2tYnnXkW9qy9STZNjQ5yMSTRB7p9zSMJ2UCunE2DVa0OzkHt+qx8LXFbBjX98wCuCEnLIHru1QXx7noW6hUsndjFyUlWuojaeqyP/StUkUcp/SDZDBPbsbCjeFhArpxJqlEkQYpU2/PcPEPXmTmtVk83zMLj0aIm3MZmxxj7o15kn7MxtU16p/tZsVnnsOc+v4WNIB4MEcuE/nAojcTzI3hYgK6cbZoUFLh5BwK4wVmXptl6Z0LFMYKZp/5iLFsi1wxR+3CBFgQd2N6211kKtFKf6niM1pz0AlNKZ1VehtsQ1OntQ6DMfJMQDfOFK00MpCUpyosfe8C819boDJZNpn5CCtUi3iFHJ2NNv1Wj8atOsFegOU+3VqIBx+bSkkYJiSxJE2zwK4f2BFhGMPIBHTjzNifXy1MFahdnmD+rQXGl2o4rvk1GGW2a2O7NtNXzmVD4r2EqB0BPFXZVD3IxpNUEifyICN/psIwhnECzJXMOBs06FRh513GLlSZfm2Gc6/M4VfyJ31mxnMydXmawliB+mc7NO7uIUOZ7d9+gpkUIQRKKtJE0utFxIk02bgxckxAN84GAQzKup7/xkUWvrqEm/fM9rRTRAiBV8qx9K0LAKz8dJmwHeDknS+cS4/jrO56lqGrp667bhjDwgR04/QbXJu9okd5doz5NxeZfuncyZ6TcSScnMPcmwtoBdufbBF1w2zYnYcXyO3Ph2utiaKEXi82QdwYeSagG6eejCUCwbmvz7H07QsUJosnfUrGERGWwCvkKM+NMf31eXRO0FluoAVYjpXtJR+sWk8TiZSKJDEZuXE6mIBunG4aLNfGzblMXZlh9vV5/LJ/0mdlHBEhBI7nUJoqMffWPGmY0FttZ8F7sJ0tTRVRnK1gv99ExTBGnwnoxqm1X6c9P1GgsjDG+PkalekKtlnVfurlK3mWXl8i2YvYem+VaK9H2E8OsvL729BO+kwN4/kxVzbj1NJSoyJJ5dwYS9+8wNh8FSfnnvRpPVcyzaqXJUFMEiXIOCWNJDJOUanKetiTZa7Cuv9he05W9tZ3cX0X23Oy7V+nqLiOsATagkRoEimJo/QgmBvGaWQCunFq6VST9lPGF2q88HsvkS+fri1qWmvSOCXoBHS22/T3egStPkEzIGgGJP2YNEyArKqa7dlYg6DtV/MUxguUp8oUaiUK4wVyRf/UdJlL45T2bpt2o0M/iYkSaZqoGKeeCejG6aM1SmpyYznGL9UYv1ijUClgu6ObfSqlkLGk1+jR3G7R3+oS7PSI2iFxNyIOYpIwy9CTOCWNUlQiUemgKIrFQ8Ha9V3cvIuX93B9D9tzyJV98rU8xekSpekSlZkx8tUCljje1qTPSiaSsBeycX2Tretb1D+rs7tSp18PSCMTzI3TzwR049TRClSsyC8UmPvmAuOXarj+6A21a62zUrWJJAkTwnbI7t0dVq+t07i2Q+tmnagRkfYTLMdCOIMhddtC2IdHYK00er/y2aDjnE6zLmJeJUd+psDki1NMvTzN7CvzoMDxnYMh+WHM3lWqSJOUoBXQXG9x/Z+uc/tnd9j9bR2ZStxx13TQM84EE9CNU0drjUokhbECS1+7yPhC7aRP6ZkkYULQ6rN1bZP6rV3aK036jT5BLyDpxahUYecshO0hLEAIhMj+/ryMWlgCHgj2Wmd/aAXCFiSdmPpnu/Q2Omz8cp3iZJHqpRpTL00z8/IsXn742svubTRYv7bG2i822Hx/i3a7Ra/TR/gCB2cob0IM4yiYgG6cLnrQhavsUz43xtSlKfzqaM2dx/2YsB3Q2e7QXmuy9tt7bF/borPSJo1SbM9CuNYgK7ewn/q3WBzyWXYjJCNJP+jS2+wgY4VbcKltTBK0+qhYUZ4u44/nyRVzJ7bAUClFHCSEnZD+Xp/1T9dZvrrMvX9aY+vqNk7Vxi7aWJ41dDcfhnGUTEA3ThWtNF45mzuvvTSB47vZHPAIaa03WHlvmZ2PtmjcqJMkCWmSIlyB4ziDFevP//sKIbK655aFsEG42dx5e6VBf6vH6j/fZeaNc8x9Y4GZl2apzo8//5N4AmmcsrO6y733V7n197dorjYIOiFxJyY3m0O42WiDycyNs8YEdOP00KASheM5TF+ZoXZpMlsIN+TXda01Mpb0Gz0ay3tsXdtg/aM1WssNeptdrJydZePWMQQpcb+NqECgtSYJEqJOTCdRKCFJ0oSgHjD14jTj5yfIj+WP/LzSJCUOExr3GtRX6mzd3GH94w3Wrq4SdbLOapZjYRdG6+bNMJ4nE9CNU2N/yNixHKYuz1BbmhiJPudaaaJ+yPa1TT78vz6gubJHEiQgwCm5WbA8oZsSIQTCtbFcjfZtultduptddj7ZYvLlGd74L94iV8ph20d74xQFMe3dDh/96GNu/OMNOisdom6CyIGdG93dC4bxPJmAbpwK+32v8xN5SvNlihMlcoXc0A+79pt9OlstNt5fY/OjddprTZIgRiudrVYfhjlgkf0hBGilUFITNAPqN3a49u8/pr3aZPbNefLjBdznNa8+aJ7S3mmzeWuLnU922flkl+27W3Q2O0RhjEYjRmRLnWEcBxPQjdNBARYUZ0uMXaiSr+ZxcsP79t7fktbZbrH+4RrX/vpj9m7u4pZdhGMNbYzaX4SnEkVnrU37bpPWagNvLMekPY0z6TzS2expKamQqSSNUnZu7/DRjz7m7j/cY+Mnm+TmPNwJF8uzwHt+P5dhnAbDe8UzjKegpcISNtWFcSYvT+EWhnvfedAK6O52uPPjW9x7d4WgGWAXHBiGjPwJCCsL2sKyaK+3+fD/uMqF71zihT98Ca/gPXOmrqRi6/YWm9e22Hhvg53buzR2mgTtgNy8h10ww+uG8XlMQDdOBa2yIfex+XFqFyZx/eFM3/azz9Z6k42P11h77x7bH23iFN3RmgveXzxnCYJmn85GG9uxKc2VqZ2foHJu7IkX8alUZSVs2wG9vT4rV1dY/tUKK/+0Qmeri5W3sHM2bm24b9IM46SZgG6cGpZtUZmuUJ0bH9rh9iRM6O52WHvvLtf/3SdEvShb+PY5ld1GgbAFTsFh99Y2v/nX7/Lqn72B//t53Jz7RM1ewm5Ia7PJrZ/d5uZP79Dd6tCr90nSBHds8NoM/9pGwzhxw3nVM4wnNVg85ZVzFKfLFGpFcsXcSZ/VI7TWKKnobne4994KG1fXaN5rYOed0crMD7HfwS1sh/S2e1Q/WMUfzzP90jlKk6VHHq91Vs427IY0N1rsLe9Rv7nLyvt3uXt1FRlKtNTYvo2VM5HcMJ6UCejGSNtfXFacKTH5yjS5qn/Sp3QorTRJlFC/s8u1//djOtsd3LJ3JAViToqwBHbOYv3qKmEnxP+v/EMDOjqrhrdzZ4cP/8PHrL23RuPTBhIFHgdBfNh3KBjGsDEB3RhpWumsEUu1wPiFGrnS8GXnAHEvYu2DVVbfu0tvr4dM0pHPzH9XtsXOImqHtO42WP9wFTvvUFus4fguWmn21vbYXa6z+8kuW9e3Wb+zQWu9TRREWJ7Axh6OrXqGMYJMQDdGm9KoWJIfyzO+WMMrDuFiOA1hK+TOT2+y+pt7yFRiOacoNd8nsvl0FUuCvT6rV++CKyiMFyg4NjKRrF1b59P/7xrLf3OXvZsN7GkHp2jjVByOLSHXj573Mx/7tMcbxhEyAd0YaVqBTjX5coHqfA2vMFwZulaa1laTrRubdNbbJJ0Y0Kc6CxWOhQbaKy02nDWcUo6oE7P14TZ763s0NpqkOiE34yHyIitre8Qvh4oVKlLoNJuieZDlWojc4Dw+Z3GiihQqPvx4YQuEK7BzNsI5vf+uxvAzAd0YXZqDrNCv+JQny0NX6lUrTfPuHpsfr9Pb7pKGg6H2U3zdF5bIiuZsdYiilMSF5mqb5R+vZNXdHIHt2bjVY7j8DHq+e76HW3IQSoB++MVXQiKFJE0lSqqHS+0OjndyDk7exhY2Auv+ew+QKKSWpDJFKXWipXqNs80EdGM07V9ofYdcJYdXzmHZ1tAtpNJKsf3xFvd+tkLUjbA9e+jO8XkSQqClRqaKMJF0dzp0fhaRRCl23s4C+mBV/HFQiUKGkos/OM+Lv3eZ4nhWElgphUAgbMHO3R3Wb2ywfnWDxnIja7s6+DdSiUIGkvlvz7H49iJTS5MUx4oHgduyBLubDbaXd1j+yR32bu9h5+2R3oZojC4T0I2RpLVGS41TcijMFPHK3tANY0e9iO5el+bdBu21Fo5vI07j3DmABqkUUmq0VKSpIk4lcZzSb4YIS2SB8phTVy01KlKUZ8osfWOR6tw4hWrhYNjcsi383/qEaUj9Zh0t9UPz5Frqgz7w81+dZfG1RSrTlexxIju+dHMTkRdsvr+BTvXh8+yGcQxMQDdGk86yXyfvUpqt4A3h6vb2bpv1a+t0W71BqdThuuF4HoTIhte11ERRSj+Is5stDWpQve/BjPfY6WyNhdagbQ4q3D3tzZ9tCVw7m+sXQjyUgVuWwBnC0SHj7DEB3RhdGry8S+VcZSi3q3XW26z96h5BvYflnr6uYFprklQiU4VMFXEsSVOF1g+kqOKY95PrbJhcy+wcZCBRQbaY7SG/e0oaVKCQHQkShJs9QPYlqqdQsUaq7Mbgd48XDHrHRwrZk9mUgpfdNAhbmOF349iYgG6MNLfgUTk3nBl6Z7XFxi/uorXOAvopIYTIKt8pTRSmRHFKEsuHA/kJ0VojQ4mKFACqr5BdhY6/+Nw0ILuKpJ6iU43IDebQe4q0KUlDSSrV5/6MWoPqa9KWzIbifQvhZqMTtn266g0Yw8sEdGM0DSrE2a5NrlrA8YfnrZxECWEvot/sE3djLM8a+X3n+1l2kkiSRCKlQkpFmsps3nwIJo5VqnBch7lvz1GeLqNVFsh1pFn45gL5Uh7HffR9kq/kmbowSfovXmDixRoidz+r1olGRZrFby1QnirjHNJFzi/61OarXP4Xlxi7VMkq3TnZav/dW3V2bux84ZY4w3hehucqaBhPQZMtWLJcB7+aP/RCe1KSKKG106bX7CNDmV3IR/g3TXA/I48TSRjGpEkW0IeJTjWWb7Hw9gLzX5tHpwoGi99qczX8ko/tPpotFwYBPT+WZ+7r4aHPXZmuUJ6s4PqPvs9yxRzjc1Uu/fAiM2/NPPS1T//6GlsfbiHyZujdOHojfJkxzjSdFZVxHJtCpfDM/bePQtgJ2V3eod/oYbnHt0XrqCilSGJJECWkqcqGntXJZ+SPUGBjMTFbY+nlhYeGx3N5Dy/vHdr9zS/5WI5FeaKMTA+/SXFzLm7OwfUevWS6vkupVsLNe6SJfOhraz9fR/ZlNuUyhEUMjdPFBHRjNA32oduOTb7k4xxyoT0pcS+isVInaPaPpQraUcmG1bNtaHEsCcOscMqw0lojEBQrBaozY098nOM5X+r9Yzs2tmMfWqXQz+eyYX85hDdAxqkzPFdBw3gqGrTGsiy8fO7QodSTkvRiuvdaRK0AYVswQhn6/oI3rTVBkBCGSbblS2m0Ht5gbhiGCejGqLIElmthe/bQVYhLeym9tQ5xK862LQ3RuX0RpTSpzMqfysG+8uR3hpANwxheJqAbI0lYAjvvYHnDk5nvS4OE3lqXJIhwSsMzt3+Y/ZsNrTVpKgnChOSw/eSGYQw9E9CNkaNVVg/c8R0c/xjbbj6GVpo0TkmidKiD4YNBPIpT0lShBlvQksHnw3z+n0dYAi003XqH3ZVdlFIHm+nyJR+/7OO4ziMNfOIgJuxHJGFCGqeHPrdfzJEr5HB995GFdWmSkkYpQScgDpOHvtZr97MiM2aFu3EMTEA3RosGFAhH4BY9bN9hWEqwKaWIg5g0SrIyr8M6d65Bo5FSE0cpUZSQpEO6cv0pCFugtKKx1mD947Vs+kBpUDBxfoLJCxOIongkoIf9iOZWi85Wm6AV7Jd+ywzeb7WFcapzVUpW6ZGAnoQpvWaP3eVduvXuQ8e3622snNmDbhwPE9CNkSQsC8e3sb3hKamqlSaOE5IkfTgoDIn9uutKKcIoHWTnWZEYRjAj/13CEaSp5MY/3WL1N2sonRWFUX3Fq//5yxRrBRzPeWSLY7/RY/OzDVb+8R67n+xgFayD0q8qzI5/8U9e4NLvX8TLe3iFh/ef9Vo9Nm5u8dlffcb2x9tYBXHQF72z08UpOqZPunEsTEA3RpKwwHLsoep/rpQmTVJkKkHooZkKyDYEaKTWKJkNqUdhQhgP99TA0xKWQCnFzq1ddDKo5d6XpE3JzGvTxGGMOmSfedSPaW+12fxok7V317DLdlbtDZA9SdqSVC+PMfPWzKFD8nEY09ntsPHhJqu/uIddsbG87HjLt7D94VvnYZxOJqAbxvOiNWowBz1MtNKkUhEn2ar1NFFINZrz5I8jLJEF0P0t4SKrICeeoKiLXbJwag523j6ovb9fFGi/tvthLMvCcWycoo1dsXHKzv3a/cNzv2mcASagG8bzpPXg46RPZFB3PZbEQUqcSBI5aBwyrHP7z8lDrU3dwfD5435mkXVYs3JW1u518BzCvd857QsOxbIElpM1Y7FcywyxGyfCBHTDOEUeXMEehgntVkh7LySOJMKGfNGlVMk99DjDME4HE9CN0SLIhjEF2XzwEJUiFZbA9Zyso5c+/nVmSmmSNCXsJwT9hChKicKEJJEopRAI4kjS68TYjoXjWllmeZoydp29Lxi8LWSoUH11MKf+hcfFGhlkhXT2h8xloJCdJzw+VMiuRAwydcD0QzeOlQnoxsjZH/7M5quHJ8O0hMDNuQcBnWO819A6G2Lv92NajYDmXvDQ1/eDShJnw/Ce75DzbVzPRgh7eBbwfUmarDscaLQGoQVCWtnfQhy680CI7D1laYGQAqHFwZSJkCBigVCDYffDXigxeO5UQJI99mDKRR+clGEcORPQjdE0yMS0HI75aiArR7u/8v6YLuBZ05SEXjcmChLiSD5RudY0kWitiSOJ41h4uazBiD3C2aSUCtu1mX51mtJkMbvhixUqUsy8PkXO97DtQ7qtFXPUZqssfHOe/JSfzX8Pbhp1rLPjvzpDcbyIc0hlQi/vUZous/C9eXIz3kP91BsrTRp3Gtm8+gi/tsZoMAHdGElaaWQkUYlkWCK6EALbtbFd+3OzwedFSkWaKvr9mF43pt0MiIIUJQdb+h4TPJTUKJkF/tSx0Frjehrt2Fm2Khi5tq9aakTOYvbVc5x7dQY5uGkBmLk4Ta6Y+5z2qXkmFmpYjk3tcu3Q555YmqA8UcL1Hi3l6+U9KjMVlr61yPjl6kNfu/n3t9j9dBdhmaF34+iZgG6MJJUoZBSR9pMhCedZAPR8DyfnDpqyPOfnH3RCA7Kh9VZI0I2JghSpNEIILJunvpHI9qVDHCksK8HL2bg5B8exsG1rdBbOpRoXm9kXzvHit1+EQdc4gNygdKvtPLqPrDBWwM05VOdqpMnhpV+9QT/1w9qs+sUcjmtTrORJo4ePb15rcb33GdrVph+6ceRMQDdGkpaKNEiRoRyWBB0hsizMzbv44z5Sy6zu/HPI1rXWxIP57ySWdLsR3W5IFEhkog5uIJ7lJkJrkA8UXNnfeUfOvv9zjUJyqcFCUBwrMj5bffzjB5ycg5NzyD/jt93vh547pB96vuijUz3yZXWN0WACujGStNLZ/Oghlb9OmlNwKM2VSdOUYC8Ai2duobp/XJoqer2IdjOk0whRWqNFFugt+/kO76dJ1kJVaY2nwfPsQVAXo5OtG8YZZAK6MaLEwda1OMj6jh82P3oSvFKOsaUqYTukv9N/5mCeSkWSSMJ+Shgm2Uc/a6QC+v4c93POnrUGqTRJLAcd5LKFc7abDcGfqm1uhnGKmIBujCYBCIFMFVEvwvGcoQnouaLH+Pka7dUWOlVoWwy2Uj3egwVfkljS7UU0dvv0u/H9x1hw5MvoNaSxIo2zERDHtcjlHbycg+fdb1k7tBn7oKPcPsHjRzG+6Gd51uOH9NUxTikT0I2RJSyBlClBN8ArPtoF66R4JZ/a+Um2P9xCRhLhWE/8m6akIgxTev2IfjcrEJN8To/u46SkJgqzOvCRneJ6Nq5rYdnW0MyvC0uADXEQ0Wv2kIPCQ0pK/KKPX/Sz1ea/c8JpnJLGKXEYIxOJsK1HHuN4TlY0yHu0n3qaDI4PYmQqEVb2dSUVYS8AG1PT3TgWJqAbo0lkmapMJEG7T3G8eNJndMDLe4zNVilUi/eHxb+guIjWWS91mWpkkmXlzVZA2EuJwxTL/uJa4sdBKY2KJSmAAF86aO3gOBrbGY5heGELFJrGapP1j9ZJUolMJCqWTF6YYPLiJE7u0ZGcqB/TrXdob7YJmgGW59zfYqZAK6jMlqlMlyiMFfDsh28c4zCh1+jRvNcgaIVYnj1o1CNp73Sy2vBD8PoYp58J6MZI2l9RrlJJ1AxIZ5KTPqUDtmuTr+QpTBYozBSRsUSlalBp7P7j9heZKaVot0P6nZigl2SBSCmU0kOVAR/QWUEbOfiZvJxDvuBmNx4nuHBOOIIkSvjwrz7mxt/fzBZORgrZV3zlz1/F+1ce5VoZu/RwQG9tNlm+usLdf7zH7if1h/qh60ijQs2L/9kLvPAHF5m5dA7Pfzigd5s9Nj7b5Pr/fZ3tD7ez4+1sCL7X7OOOuaZZi3EsTEA3RpMAYVmkUUpvt0uyGD/+mGNi2dlQdHGmTO3KFK3lBv2dXlYtbBCdpdRImW1Bi8KETiei34sJ++n9levsz5cPn6wwTRa4tc4K2TiOhe1YJ7bNbb8fen25jhrM/atAkXYkc2/PEvUjCpXCI8dF/YjWVovtG9usX93EKlpYg4Cugqw+e+3VKrOtc8hD9qmnUUqv0Wfnsx1W31/FLtoHNwR23sYuDMfaDuP0MwHdGFnCFiRhQnurTdSLTvp0HlGeG2PuG0sk7Zjeegec+wE9SRK63Yj2XkivGwMaRRbAhR6tbC5NFL12jJuz8Xwb17VxHvhZjzNjF5bALtjY+SyISlei0QjvC/qZ21a2F73i4E44WL6FNShAIz0JNli5z7+zsiyB61o4RRtnzMEu2QfHm7lz4ziZgG6MJCEGC6D6Ma27TaLW8AX00mSJ2Zdn2f1gkx1HkKSSJEyIgpQgSAj6cbYNLZGDxVqDA0crnqO1RkoNcfZ5migcO9vmZgmBGGTy++VPj7oE6oPPL5zB93QElm0fPpctsjUKwhFZT/QH6q4LZ3Csa2UlfQ853rYsHDsL4sIRB38bxnEzAd0YTSIL6kk3prXcIGoFjz/mmJXGS/j5HHcmS1ieTRjEtJshe7t9kjBFphrLEY+tuz4qZKoOKs5ZlsDLO7iWhZXoLLC7Ajtnn0hNc2FZWI79zDUBbCcrh2tZj6bcliVw7Gd/bsN4XkxAN0aajFKSjiJqR8RBfOi2opMkbIuJl6eZ2pjnk3+4QX27g1IMOrONXgOUJ6WkotcOqc1WuPKHF3E8m26jR/NGk/bdDlbZyoa27Ue3kT1PlmfhVBzWP13n5//653h5D9d9+LLX3u3Q2GjS3e1lfcwfOB3LtXBKDpvXtkj/MuWz6k08/+EGLUEnoFfv0d5pZ0P9w/P2M84YE9CNkaYSRdJNiDoRYS8kb+WHL6BfnmRmr8NHP71N0ItxnOym49R239KgVNYRzp8scPkPLpMreezdrXMvsUm2ElJbooRGS0DoI3sthCNwHIfdO7vs3tl97OMt9+H3jnCyCoT1lTr1lfrjj/+CuXbDOGomoBsjTdgC27eJw4juTgfHdXBzj7a4PClCwNj0GHNXZll6Y5aoGdBc6aJSheWfzou/ihSWbXHu5SkuvLPI/CtzVCZLzF+ZY/HFReo/rHPr/dtsXNskWA9QSmOXP2d+2zCMJ2YCujHShJUtWArbIa21BsVqEcYe3Zp0UoQQ+CWfiYUaL37rIlEzprt6kzCIEd7z6cQ2NHS2KE4r8Iou57+2yEvfucTEYo1yrQRAbW6c6StT2GM2ftmn8VmDbr1LEIaoVGXd6YagkI5hjCIT0I3RZgmEbdHb61K/vcvE0iTMnvRJPaowlue1P3wVGcCtH68S9CNUqrFsTs3Qu1bZ3nThCgpTBV793ku89r2XKVTuNyZ18y5jMxW+8sevsfTmIvXbu9x5d5lP//46QSNEhQo7byNyp+M1MYzjZAK6MdL2t6/1d3rUP9sl+trwbV8DcFyHynSFxTcXePNfvsqNd+9w96M13JyDY5+OwiNSKZI45YVvnuflH1xm8fU5yhOlhx5jWRZWzqI85eKXfQpjedyCR67sU1/eo3GvQXutQ9AMsXLiftlUE98N47FMQDdGm8gy3N52H9lTRK3wpM/ocCIrYDLzyhS//z9+B6tkcePXt7MKa+4pCeipJAojXvnhi/zBf/9dCtUvrq/v5lyqc+NUzo1x+buXWflghRu/uMX1f/sZrWttnAkHp5wtNHvSbnWGcZaZgG6cDlqjpKSz06G12aJYK+J4w/f29nyP6rkxXvnBi6S9mBu/WGb9k62sacgQrc5/InrQtEUq0jRl4fVZXvzeJa58/wWK40Xsx92oDGoJ2JaN7dhMXZjCdmyq5Srb39lmZ32Hxt0mneUOuAKncjpufAzjqAzfFc8wnoGwBFor2tstmmt75AreUAZ0x7Vx3AIvfvMC00tVkjhl+04doUW2IGxUFsnpbM5cpxqEwMu7XPzGef7of/gBlVoZ13/6nQZjM2NUpivMvTJHY73BtZ9c586PV4hXY1LS7N9Y6dF6nQzjGA3fFc8wnoGwBVpAY6VOcbLI+HwN/4HFWMMmV8pRnR/n7T97g9JEkQ//+hpbN3YPyo4OdfU4nW1NU3HWEW7uKzN87c9f58XvXWJssoKbe/bLihACx3MYmxnj5e9fYXpxmp2v77D2yTqrn64S7kak3RS7YD+yZ9wwzjoT0I1TYX+leHutxd54neibEUqqoSoy8yAn5+LkXC594wKFaoGwEYMStPc6JGGKStRQbt/SSqOlRlgCv+JTPVfh5e9f5u0/e4OpCxPkSv6X/h62Y5Mv58mX84zPjjN1ZZLiXAHhC9rLLTrrXaIoIk1ldoA4vRX3DONpmIBunAr7fbj7230699oEzYAkSvDy3lDX2C5UCsy9fI7f++++zdxXZvj5v/0129d3CesSO2dh+8M1b6xihYwUxdkCs69N8+1/9XUuv3OR2lIVN+89/gmekuu7VKeq5L6bY+G1Bbavb7H24Rqf/dMt6st7AFkzlC/opmYYZ4UJ6MbpIMiGghNF2Aqo39klP55n4vwEwhmuoPgg27UpjBWYe8XDci2iKObeB+vs3NylsdGmu9PFwho0FxHHXydcgUo1WikUivJ0ifG5KudenWLprQVe+sELTF+YzJqWHEFM3e8t7/oulakyftGjMJ7H9XNsfbZNa7tFZ7NLb6MHnkDkBJZ1tPXhDWNYmYBunBpCgOUKkihh89M1cmPZPLU1xAEdBvPGOYe5K+eYOj/BvWtrXP/lTa7+P5+ws1zHxcV1bETx+MujaqVRgcxav5Jw4cVF3vrz13nx7UssvDSH6x9jMxwhqJyrUpqssPDmErsru1z/2Wfc+rvb7L3XQIxb2DUne62G+5/cMI6ECejGKZL1ok7jlPq1Xcamq8hvpTieM/RzrEIIbNfGdm2mL04hXItiscT51xbYXd6jfnePvXtN4n6cZex21nP7oT7qX5J+YOW6lllG7hY9Zt6cYvLCBFMXJ5h/fZaFN2eZnKvhl3LP5xs/hf2M3ck51BZrXH7nBSqlCnOX59he32F3o064FWQL5/In06rVME6KCejG6SFAOBYyljRv79FaahJ1IhzfHcotbJ9nbLLC2GSFpZfn6fwnXT7+yTU+/fENgn5IGkqE3C+0IkBr9OC4Zy2+cvAM+v6zCCy0DYUJn6XvLPCVP7jC6z94hXx5eLrZFcYKnH/zPHNX5oj+JOKjH33MtX+4zk53h163d//10JgtbsaZMDpXOcN4QtnQu01vr8vtn99k7o0FZl46d9Kn9dQc16FULfLiN15gan6S17//KvW7e2yv7LK31mRvrUl7vUOwF2JjHwSwB//8fPdvBDQaiSRf8xmbKzO5VGNqqUZtvsbEwjjjS2PU5qvkCrmhHOmwXZtcMcelr1+kOlNl7xt1Nq9tcfe39+jsdEmDNNsK6AzHjYhhHBUT0I3TxxLYnkW/2ePuL5fxK3kmL05lPciHMCB9Hsu2yBVyzF6a4dzFaZRU1Nf3uHttjc3Pttm8sc3ujT066z1ECipVpKlEp1mTFK3UQSEWyLZ2ZR8Wli0GvcKz/dzagfJcicnL48y/co75V2eZe+Ec4zPV7HUb4kVm+8Pw05emmViaoPPiNOPnq2hXs319h85mhyRMSBNpCtIYp5oJ6MapIyyB8GyidsTOB1tMX5oheLtPrug/UwWzYSCEwLItqlNj5PI5Fl+aJ+rFRJ2IoB3Sb/bpNnp0Gl367YCgE5KEKUmUIONsv7bt2bg5F9d3yJd9CpU85fES5VqRUq2EX/Zxiy5+KUe+nCNX8Ic+mP8uy7Yo1kosvrnE+EKN9U/XufObZdY/2GTn+g62ayOc0fl5DONpmIBunFphL6a7F7Dy8Tr+hTGWXltgYrF20qf1zIQQeHkPL+8xNpX9PyUVaZzSb/fptft0m32CbkjYi0ijlDROHwrojufg5Bz8Yo58yadULVAaK1IcL+K4o385EELg+i6u71KaLNFt94l/KYmihDiSeLbAwSyBN06n0f8NNowH7BeY0UoThAk7rYDo/RUaaUCu5I90QD/MwR5tt0JpvMTUYjbMrpTOFsxpsuXrAGKwIl4M9mpbImtnOmJTEU+jvd3l1i/v0lxtE4cpVs7GgYNRB73/2hjGKWACunFqaK3p92OiICUOU/q9mCSV7K21iOKE9bc3mbk0SblWxhvRoffDCJHNh1vHXnVmeIW9kPp6g/VrmzSW20TdGDREQYJWGtu1sG0L22xrM04RE9CNUyDLytNU0emEtBoh/XaMUhrLEYQ7fbo7PVY/XmfmyhQXfO9UBXTjd2jotfrc/mCZux+u0tvoowU4BZswSIljSS7v4OUchLAPKsuZbN0YdSagGyNpf8g0jlPCMKHfTQh6MXEsiZN00LAje6zrOWgNt3+ygp3ajP23FYrVQlau1DhVtNLEQczunTof/ftrrLy3hvAeLgWrFSSRRKaaOEhxPCtra+tYBz3pTXA3RpEJ6MbI0VojpUKmmn4Q0+1EdJoh/W6cbceysq1J+xdx27FBw+bHO+hA8+J3L1E5V6I8UcY2e5NPFZlK9lYb3PvtOrd/fpf6SgO/mHs4oGtNmmhIFABuauP6Gq1stMsgYz+pn8Awnp0J6MZI2L8gK6WJopR+P6bTigiDNMu2Bq1Sv+hCLBB09/r85m9+S0LC2//pmxSGuGe68fTCbsQH/+Fjfvu3nxC2YxzXfWwFPZkqVF+TWBLbsfByNq6XZeyGMUpMQDdGglaaOJHEg2De62aZeRpLlATLfnxPbOEI4jBm5Tf3yFd95l+eZfrCJKVq8Zh+CuMotbbbbFzf5Pa7K6z+dhMZZQH6cYVklNKgNJIsuKOzXQLSsbJheBPYjRFhArox1IQQ2TYsqeh2QlqtkKATk8QKLXS29Urw+CFSAVbOQitNa6XL+tVNrr97A4Q2Af2UWPtkjY9+9Albn+wQ12MsP6uI9zSyESBJHGdV5fIFl2I56/NuFs4Zw84EdGNopakiDBPiMCUOJf0gzv47kdkK9oO58id7PmEN+o9oTWOtxUd/ex1XOEzMVMlX8niF4+8eZnx5vVaf1m6bG7+8w7Uf36a90wV70Dv+GebCtdqvc6+JoxQheGCb2xdP6xjGSTIB3RgqDxb8iOOUxl6fbiui146xHHGQcT1t5nXw/JbAztu0d7ps/dUuxYLPxdfnmbw4ZQL6iGrXO9z+7TLXf3qbGz9bIV/0cfPP59IWR5I4yra55fJO1rv+gSF4k7Ebw8RMDhknToj724qCIKGx12djtc3WWodeJyJNFdag9/fzYjsWfiHHvQ83+Nv/9cfcfHeZsBMgU/ncvodxtJIoob3d4vYv7vCz/+3X7Nyo4xdyRzLnnSaKsJ/Q60T0OhFRlGbz7YYxREyGbpw4pTRKZdvQet2ITjvbhpbEMsvExbNn5J/Hsi0822Lnzh7r17eZWBhnammCifM1CtXCqS2FehpoDVopeo0+m9c2uPmzO3zyd5/heg6e7x3J95SpQqYA2UI7X2m0Z+NiZ82AzNvFGAImoBsnYj8jT9Js5Xq3E9FtR8SRJEmybWjCPvpWl45jgxZ89Def0dsO+P5/8w4XvrGE67kmqA8pJRX9Tp/lq/f45794l9UP18nlvWMrFKSkJgpSkgcWzuUGQ/xm4ZxxkkxAN06ElIokkYSDmuvdwVCmkho0CPt4sh7LtnAQbN/aJWxHTFyoISyL+dfO4Zez9qHG8EiTlF6jz90PVvn0H25w46d36DX65PJHk5kfJiszrCHN/vug0Y2dNb2xzI2gcUJMQDeOlUCglCKJUpqtgG4not9Jsr3AZBdHzZOvXP/S5yMEliNAQ78d8PO/+DWNuy3++H/6AdOXJ/Hs4wsUxuMF3ZDNWzv87C9+zY1/vkMapLi5k63LH4UpaaqygjQ5G9c19eGNk2ECuvFYwhLYjo2wrMEE5rNdpJJEksSSMEizBUZBTBQmJIlECO6XbH3O5/+FBt/PcgQqVTS32tz59V1++b+/z8u/f5nL372I4zlYprjIiUrChLAXcu2fb3H9xze5+8Ea3XoXK2edeEaslEYn8uDzNFEHBWmeNWPXCnSssdj/3TNZv/F4JqAbj2VZFo7rYFlZYZaniecPbkOLopR2K6C1FxL0kiNb8PYshCWwXIESiu07u/zH/+XH9Op95t84l+1Rd0ymfpLCXsje+h6/+j/f51d/+QE538X27WO++/t8WkMSZ+s/BOC4Nl7eIZdzDhq+ZI97wl+eVKNCjdD3f/cM43FMQDceT4DlWNiehe3Z2WK1L3r4IIhLqUjSLBvv9xKiKCGOJGmihnJVsCC7uVA6q0x3+1cr/Lv/+Ue8+scv8sJ3LpAv5098ePesiXoR7XqHz356i4/+4zVWP9zAcazsPTaE7yGyJSBIqYjDFJkoYsfCcbMPy3qywjTCt3DGHeyCnY0ODePPagwdE9CNx9rfJ27nHNyyd9CW9DCarNKWUpokkQRBTLsV0twL0Op+dvK4m4ITIfbn1EEJWPt0k3tX15EqpTDpM3VhivJkGccMgR45pTRplNDYarH26Tof/t2n/PTf/Bq/mDuyrWnPk5IaJSUJ2XRSLu+Q0w6uy2ObCGkNdt7C8jzcssnOjSdnArrxxPK1PLWXJuht94ha4cGc9z4hBHGSEkQJvVZE2EtIYkWayoeC+bATQmTNXnwby7W49pObNHZavP6nr/DCOxeYuTCNb6rKHamwG7L88f/P3p39xnXdBxz/3nOXWTkLORySw00UqY2UbNdOHNd26sRoXoqiAfLQhwAF+t5/qS8FiqJAX4o+FGmbNnYEqXUcm7YsyZQoUtxEDjnkzHD2ucs5fbikpDibJFPiMucDcAVBXpIz53d/Z/n91ln65CEL//OA0oM9YslI2Ar3lAmn4yUy8OgYPk7EJBq3f+fGOSUVfiCJpaMk8wmi2egxXrl22uiArj2zaDZGdmYAv+3TKbfAEL85ve5JWh2XZsulUenQafmoQJ2YdfJndpCpGwKwDHYe7rG3VcVwBL7v47V9BicGSA306Uz9KKnwjHl1Z5/iUomvbyyyeGOZ5RurSE++0qNpR+1JYZpwHd00BaYtHgf1w4xdKZCeJJqKMnx5kMRA/PguWjt1dEDXnlkkHSMzlaO6VEG68qBRRZhhtNse1WqbVsMNA7lS4SBl/rFu1CefHbFAweIvl9lbLVNcKjH3g0u89uEctqOfQkdFKonbcbn98QK3f77A1vw2tWId0xCYkbMz7ex5kka9i+2YOFET27Ye14c3pMJwoS8VZ/zqGKnBvmO+Wu000aOR9szi2QSD03mKn2wQ+BK/4+ErFXZCa7k0Gl3cjo/vyseFYU7i5rfndbi7v13pUHL3QELQkHT3XApXhshP53BiDpYO7i/E63h0Gx2K90ps3C5y9/o9VubXaRZbBG6AiIgzNROipMI/6OimlCLwVXjMzRQQKJQvSaQTjF4pkBxIHvflaqeIHoG0Z5bMJIjGIiz1xQl8SdsNaLRcauVOWKr14Ji6sM7O4HvIEAZO1AYXdr7YpbxQ5c7PFnj3b77DOz99k8xQRgf0F9Rtdthb2+XX/zLPzX+Yx+/6SBUgouJEHU07aoEnkb6k2wkwhUE0bmFioHxFLBVn+HIBO6pPVWjPTo9A2jMzhIHpmCTOpUleGqB6q0hjr4PvSzAUqDM68h4wDANlKBDgeT5+OeDuLxZpVJuMvz7K2NUChQvDJNJ63fOPUVJRLzdYu73Bxp1Ntm4XWZ/fwvVcEAdHH1+wn/lposI0nUAqWvsufQNxRt4eJjebw3KsMzUzob18OqBrz8cwSE1nyb42xMrtHVp1FyvaO8e4DNPAiBkoGU6VLn+yytKnK1z44RSz5YtEIg7mOYHpWGGlMF0L/jeEm8N83LbH9tIO8z/7invXl9j4fAvTNHvz9IAKj7n5nYDMmMPY+xMMXs1DjzyntKOjA7r2XAwDhqfy+C2fR/NF6uUm3XIX5StEtIeCl2FgWoBhA4q9r6vc2v2aRzeKjL1RYPrPJhmezpMbGzjuKz1RSuslNu5tsXxzjY0vNymvVqjvNnEizrGXcD0usitBQXwwRv7KIBe/e57hqfyZ2H+ivVo6oGvPxTAMMoNpuAxTb4/TqrbY/PU2bstF+QqE8QcLz5wVhhG+soQJCprFJvW1BuufbbK9UqLjtamXmrQvdohnY8TSUSLx03mO+tvwvYBOs0O72qFVbrN6Z52l+RUWfv6A7a9L2NiYjsCOW2d+ev2blASkQvkKO2YzMptn6u1xxi4XwueYpj0nQ+l2QNoL8DoeexsVFj66z/W//19KD8p0ax4iJhBn6IjRs1KBAgkKhRO1iaViJPrj9A0nufjD80z/6TlGZ4ZJZntr13Jtr87awgYPfrnC/f9colFp0a63aTc7+F0fg7D16ImsHPiSya4kaEuEIxiYyvDh332fuT+/xMBYVm+G016IztC1F2JHbPJTOfyOT61YZ+n/Vlj7chOv4xO4AYZl9My6OhyUsjXD9rBux6Nd7VLd2sdatvB9n0apSXGyxMBElsxEiuRAgmQ6gbDEmSntKf0A3wuolxvUduvsbzXYWytTXNpm7fNNVj9dR/oyXK6ICky7t2YrDqmDrNwwBdGsTWFumPPfm2DmnSnyU7kz83jQXj2doWvfit/16Ta7zP/HbT76x5uUv65QX29gJSyE06MDkwrPFysZDt7CEFjCxLItRq7lufLjC5x/a5LJ2TGcqHNmGr50m1069TaL8w9Z/NVD7v33EqV7ZfAAFEo8Vcv/pDZXeQWkK/GbPrF8jNRUHx/+7Xu8+Zevk0jHsGNn47GgHQ8d0LUj8ejeFoufLrM+v8mjW1sUH5RolpoIwm5Rwu69AVzJg6DuS1SgMDBI5hMMXRmkfzxDejhFupAiU0iRGUmRGkzR158kEnVOfPbquz7dtkttt0Z1u0Zlc5/aVo3aVp299Qq7axVKy3u0ym0EIuzW14NLMUC4i91TSF8iCUjk4uSncxTmhhm7NsLFd6YZmy2ESw96J5z2LeiArh2pxfllFm4s8uk/f8nGZ1tYQdjgRMSMns7KDklXETQCPOnh4TM0l6NwdYiptyaYuDrK6MxIGNTjkYNqe09eDmvMv0pKqSczDkqFNymBotPssL8bro+vfLHO8q/W2Lm3S/lhFRsLW9iYSRPh9Pg//OBvJ9sK6Ul84TP6J8O8+dfXmH3/Epe+O3PcV6idITqga0dqf7dGZavK9v1dHt3ZYvXLdYr3S+w+LCOEwLKsx2Vhe5EKwvVTqSQSSTQdJZaJ0ZeJE0/HiaYj9OWTpEb6yIymyRRS9GUS9GUTJDKJxyVmX3ZgV0qFyymtLq39FrVyg/3dOtW1KtWVfeqVJo1Km3a1TaPSolFu0ql3cZvdMCM3RLiPogc3u0FYMEYFCt/3kVKSm+pn6EKO8blRCrPDjFzJ01/Iksnr3eza0dEBXTt6CqSU7KzucusXd1i8+ZDVTzbo1l38ThDuCFfqt9qv9iIZKKSvkN0AGUh8fOK5GOmxFPmZHPnzOfqH0mTzaVL5PmKpOE7UwYqYWBEzLF5jCQwR1js/nLYV4vcU0j/MtB+v8ytkIMMXX4aFX9wAvxvgtl3atTa13RrlrSqljTI7CyV27pZoVFp0mi4WFsIUiIiJsIzT1VXvZVDhUgtGeDNjRU0ifQ6T3xtj+p1zzL1/ifxkDifq9NSmUe3V0AFdeymUUnRb4Rrr3kaV3dUyC9cXWby5TGurjdvwsGJmz2Zwhw5Lfx5uoFMohC2wHBPHcXAiNnbEwoyYiIjAtEwc06ZvPElqMkkqGyeeimHGbayojROzcRybSMQOO919Y8d04Af4nn/wNsBte3RbLp16h2a5RXO3RW2rTn27iQwkypNIV+F3wupubsfD7bjhDYBUT46dCcIg1tv/zjArbwc4SZv4SIwL757n8vcvkJvsp380Q2ogXE4RQvT8zax29PSxNe2lMAyDaCJCNDFIOp9meGYQO2YRSTrsLVYor1Spbddx22749WZvTs8eFqgJi/GEv7+SCq8V4O63wJMoINxOFWBgYGKSLMTpG0+S7IsRS0YwY2FAt6MWTsTGsS0MU8A3/qaBLwmeCuhex8dtuXQaXVr7bZqVFo2dJs1SK7y+g58nEOHV2QLDDjPxw5afvU4F4b4CACfmMDDeT/+5DAMXslx8d5pL704TT8VPdT937XTQGbr20impkFLSbbo091s8urfFg5sP+fyfvqK0tIdCYUZNrPjJ3tn9Sqkn2fuTTynCEMtBRT4D4RsYMvwYg8eNTQzj4Ou+cY90ONUevh8Ww0GGSyTKAGWpg41wTx0xe/qbHGbhvXfv9Xv5rYCgE95sDU4P8OZPrzHz7hSjl0ZIpONEEg5CnK0WsNrJpDN07aUzhIEpTOLpGNFkBGELIlGHeCTG5sI2pY1d9tarVDf3w1zQEBhObxWm+S2Pl8CNpz715H0lFdJTBJ6Cg+zw6dfP84Mef9fDXfWCMLvXficlFcoNNzYGSDKjaQbGMwyO5ShcHmLqvQnyM4Nk82ndnEd7pXSGrh2rjXubfPnxHW79213u/Pt9bGxs0wqPPNk9HNC1E0t6B0cPAx8Pj7m/uMhrfzXL6x/MMXapcNyXp/UwHdC1Y9WoNNl9tEfxfoniwg7rtx6xuVCkulnDa/lYtoUwezxb145deBpA4Xs+dtwiU0hRuDzM+GujDF/OM3xxkNzoAMls4rgvVethOqBrJ4LX9WjX23zxX7e5+/F91j/bZH+zgXQlSioM0MfctFdPHZ4+CB9/whGkC0nG3yow+8FF3vjRVWJ9sTNTvlc73XRA104EKSWBF1Dd3qf8qErp4S4rn69z96NFaht1uhUXK2b2bn147VhIV+K3AyJZh9RYH7M/uMC5N8cZnMrRP5ohM5TGtE3dUEU7EfSmOO1EECJsuzo4kSM7kmHofI5UPolhGmwvlKis7tMst2jXOgBPWm7qjF07SgcV3pQMP4ynYiSnEmQmU+Qv5bj2o8tMXBsj2Z/EsvXwqZ0sOkPXThylFIEf4LZcWvttNheLrN7e4Kt/XeDh9VXAQNgCMy568uy69vKoQBG0JMoLh8WZDyZ54yezjF4pMDSTJ56O4cQdTMvUjVS0E0ffYmonjmEYWLaFlbaIp+NYUYt4NkbUijI8lae8WaG8VaWyuY/f9sPa4baBYekBVnt+yg+PAEokZtRk4GKW/pEsA4Usk98Z5fx7E/SPZknlUsd9qZr2B/0/AAAA///t3dlvXOd9h/Hv2WYfkjMczkYOd5GSKHqTYzdxvDQoXCBIW7TpRf+/3vSiKNAFLZD6ws6Cwo7jRJIlWbI2ixJ3iaTI4czwLG8vhkobIDZsRxbJl8/nmoAOMKAe/s68CxM6jr3f3/QVG+1ttXX559d05WfXdeXfr2t/rauUAnk5T16O7zHxzcX7ieL9WAcKlatltPhX57T47jm98NZ5FUr5/l7yI7jpDvimCDpOlLAXan1pU2u3NrR8dU0rV1a0/OmKttaeaPfx/uE2N/fwcpKjflocS0ZKDi+licJIheGcBhsDGltoqLnQUHOhptrsiKqtCqvXcaIQdJxIcRirt9/T7Q/v6Hf/eVn3fvtQy59tSpEkc3jKmstlIfhDxkg63IYmR5InNRZGNP7qqF7+y0WdeXVa6VxaXsAxxDh5CDpOJJMYxXGs3Y09bT3c0sbdTa18tqYbP7+t5atr6u2GkiN5GY9JHX1Girux5EipwZSa56s6+8MZ1c/WNDJTUblRUrFSkOd5HGSEE4lFcTiRHNeR7/oqNYdUag6pOl1RY64q3/eUyae19XBXe4/a2n/SkUkOm+49vdUMp4VJJMVPD4aRCpW8CpX+NrSZ1yb04rvnVG6VVRguHvWjAn8yJnRYIQ5jhb1Q7UdtbT7Y0v1rD3Tz/Tu6+h83FO5HchxHXs7lYJpTJjlI+tvQjFGQ87Xwk3nNvTOt8YUxDY+VVSjnFKQDXrHDCkzosIIXePICT5lCRrnhvLLljLLZjAr5vDaXHmtrZUdPNnfVfdLt3+3tuXJ9Fs5Zx0hJZGTiRIkSZQYyGp4sqtQYVKVV1sxbExq/OKaRVkXZQuaonxZ4ppjQYR1jDlcw9yKFnVCffXhLVz64rs9+dksrl9cUKJCf9uXluaPaNiYxituHn71CNV6o6ey7s1p8+5zOvj6rINv/7F3PZRsarMOEDus4jiPP9+R6roJMoNaFUQW5QPWxqpY/XdXDqyt6/GBb7e2OHPV/1mFF/IllDi9QiaNYRkb5alblsZpGFxpqXqiruVhXfbqqXCl3+DnzQcNOTOg4FYwx6ux0tHp7TR/+2ye6+au7Wv10Q3E3lut4clwR9RPoacxNIhkl8jKu6gsjOvPGlF7/61dUn6kpO5gl4jgVCDpOByNFYaTOk47W7z/Sxp1NrX++rnsfL+nuR0s62AsVHcTy0h5HyJ4QJjKKe7H8lKdUIdDsDyY19dq4hqeGVZkcVnV8WNmBbP8SFT5SnAK8csfp4Eh+ylexUlSxUlRzpqrthYaKpbwcI2093NXO2p4O9g8URXH//39HXP5yzJjY9G9Ek+T7nrIDWQ3WCiqNFrX47lmd/9GciiMDSrPgDacQEzpOpTiKFXVDtbf29WR9T3ev3Nedj7/Qzffu6PGdbTly5KZdeVm2uR0ncSdR0ktkZFSeHtLcX0xr+tUJTS2Oa6BWVGE4Lz/VX/QGnDZM6DiVPN+TV/CULmRUGispGAyUL+eUz+a1cnVNW6s72n20p/b2vlzX+b9V0Qzsz5VJTP82NGP6C97KORWHCyrVB9VYqGn6zXGNnm+oOVPne3KcekzogKQojBX1IvXaPS3fXNXl96/qxge3deuDe/KDQKlUINd32Ob2nCUHRnE7VphEit1Is29Pav7tGb3wzoKac3Wl82n5aV8+B8MATOiAJPmBJz/wlMoFajh1GddouF7W5MK4Vm6ta+PuptqPOgo7oTzPk+sR9++KSYySuH9Wv5/yVJzIqzpTUeNsTc0LNTXP19U4U1exUpDr8modeIoJHfgSvXZPnSf7+vBfP9Fv/uuKVq9saG+tLd8L+le0+mxze9bM4UlvSZwoikMVannVL4zo4o8X9frfvKLsQE7pfPqoHxM4lgg68CXiKFZ0EGn93qZWb29o9caqli4t6+6HS9pdaysJE3kpzod/VpKDRPFBIjdwVazlNfV6S60Xm6rP11WfGVF1siI/5cvzeb0O/DG8cge+hOd78nxPrfOjaszWtHGuruFWWSaS1m5sqL25r4NeqDCM5Kg/rTsuC+e+tqeHwhjJyChI+8oNBMpXcqrNj+iln1zQ1MVxjYz3Qw7gqzGhA1+DSYx6nZ72tzvaWdnVw5sr+uLKkj7/xV3d+2hJvvqTo5dxOZjmazKRUdxN+m9CFGnytZbOvDmlicWWRucaGmwUlRvKKp1Ns14B+Br4sxf4GhzXUSafUSafUXm0pIFmQYVGXpl8RvnBvHZXd7W32Van3VMcxnJdl6Nk/4inR7UmSSLPdzVQyys/nFe+ltf098c188akWvNNDTfLR/2owInDhA58C0/vX+/s9rS7savf/vcVXfvgpu7/+qG6Wz2l0im5viuXk+b+QBIbJVGig96B8uWsZn8wrrNvndH5Pz+nYqWobDHN/eTAt8SEDnwLT+9fT+fSyg9lda43p0K5oLG5plZvbGjt9oa6Wz1Fe6HcgNfwcZQoCiOlCynlawXVZkbUPFvV+AtNjS00VZ+tKkgHvFoH/gRM6MAzEvZC7Wzu6vovbupX//SR1j/d1JN7e/JzvrzM6V4Jf9AN1d3vqTQ5qOaFmt74h9d07s05DVaKCtLBUT8eYAUmdOAZ8XxP+aGcZl6ZVK6Y1erNDa3eWNcXHy5p7camJCPHd+SmXOsnUZMYJQeJTCI5gaP6fFWti00152tqzNXUOFNTfijHFjTgGSLowDPieq6y+Yyyc3U15+raePGRHt5ckRM5Cp9E6nZ6CsNQcZLIxEaOLNvm9nQbmiTHkYJMoFQmpcxgRtOvT+jlv7ug0bmGRsaGj/pJASvxyh34jvT2e+rsdbV1f0frtzd15/IXuvfJfd379QNFu5F8eXKz9hxMkxwkSjqJIsUKBnzNvjGpqVfHNX6+pcpkWaWxQWULGaVznPQGfBeY0IHvSDqXVjqX1lB1ULW5EeVHc8oNZ5XOpLX1xbb21vd10DtQFMZyXUeO6564bW79bWiJkuTwYJihnPKVrEoTQ5r/0YxmXpvU+LkxZbmfHPjOMaEDz0ESJ+rt99Te7mh3c1c3/+e2Lr13VSufruvxvR2l0oH8wJfjnZy968ZIJjaKwkgHvVAjZ8pqXWxq4c15zb46pWK1qPxQVqlMivvJgeeACR14DlzPVbaYVTqX1kClIMdzlCoEWplb1+pn61q/80i7620l3VjGkdzgeAcwCRNJjoKCr1J1UJXxkpoLdY2+2NDE+THVp6vyUz4hB54jJnTgCPTPMDd6vLKlh9eX9ct//Eif//Ku9le6kiMFef/4LpYzUtiO5LiOBqeLmv3hpP7sp6+oOd9QuVGS43C1LHAUCDpwhLrtrvYe7enB1RUtf7am1c/XtXxlTQ8urfRXwjuO3JRz5AfTmMgoOTCSMXI9V62Xmxp7sa7a2arq8zU152oqlPtH4QI4GrxyB47Q0/PhK+MVTX9vUl9cX9LVoRvaW26ru9tTdBApkZFJjORIjp7jNrekfwuakeQ6joLAU5DylSlmNPfmtC78eF6jZ5sqlAvP6YEAfBUmdOCYCHuh2jv72l5+oq1727p7+b7uXrqvB5dWtLP8REEQPL/z4Y0UdxMlYaxIsYbGBzVxcUwTiy1Nnh9TeXJIQ6MDyg3k5KeZC4DjgN9E4JgI0oGGqoMaqg5q8qWWBiYKytYySudSWr22rv2drg72Q0XdsP89tXO4ze1Z9d0crlw3iUxiFGQDpYZzyg1n1HihrjNvT2n24pSmFsef0T8I4FliQgeOqc5eV/s7+9p+uKMH15b1u/euaenSQz26vSXXcRWkArnes1uAZhKjJDYKD0IlJlH9fFWTr4zpwjtn1TzX0GC9qNxAlu/JgWOKCR04prKFjDK5tApDeeWGsnJSriqtklaurevR3S1tLT1REhpJpr9/3dU3jrtJjEzS30/ueo6ClKfqzLAq0yU1LtTUWhzV9MsTKtWH5Kd9OSdlkzxwCjGhA8ecMf1FcXEYa2tlWyu3VvXxP1/Sb/7lU0V7kZIokZv25AauPP8bLJozUhwZJWGipBcrlfOVr2T0vb9/Ua/+9CWVxsoqDBfl+a5c1z2+2+gASGJCB449x3HkeI5cz9VAtSjXd+X8ravGmbq2lrf1aGlL6/ceaWd9V92tjhRLrr76QJdEiRzfUbGS02BtQKVWSZVWWZWJslqLTY1MjShTzCpgwRtwYjChAydUHMV6eGtV9y7f1/X3P9eDyyt6fHdLpmvkJe7hAjej/m94/9e8v5jOUeIl8rKuRudH1HqpocnvT6t1YUyjs3WuNAVOKP78Bk4o13M13BhSKh2o1hrR7vqe9h631d3uqrfTVafTU7d7oDiO+/vYJaUzKWVzGeVKWeXLeQ2OFFSsFvrnrpdyHNUKnGBM6IAl4ihW2A21v91W+3Fb7XZHnU5PcRgrOQx6JptWvpjVwMiAiuWCgkzARA5YgqADlvj/i+fiMFYcx4qT5PfTuSS5rivP9+SnvP7tbq7DynXAEgQdAAAL8IUZAAAWIOgAAFiAoAMAYAGCDgCABQg6AAAWIOgAAFiAoAMAYAGCDgCABQg6AAAWIOgAAFiAoAMAYAGCDgCABQg6AAAWIOgAAFiAoAMAYAGCDgCABQg6AAAWIOgAAFiAoAMAYAGCDgCABQg6AAAWIOgAAFiAoAMAYAGCDgCABQg6AAAWIOgAAFiAoAMAYAGCDgCABQg6AAAWIOgAAFiAoAMAYAGCDgCABQg6AAAWIOgAAFiAoAMAYAGCDgCABQg6AAAWIOgAAFiAoAMAYAGCDgCABQg6AAAWIOgAAFiAoAMAYAGCDgCABQg6AAAWIOgAAFiAoAMAYAGCDgCABQg6AAAWIOgAAFiAoAMAYAGCDgCABQg6AAAWIOgAAFiAoAMAYAGCDgCABQg6AAAWIOgAAFiAoAMAYAGCDgCABQg6AAAWIOgAAFiAoAMAYAGCDgCABQg6AAAWIOgAAFiAoAMAYAGCDgCABQg6AAAWIOgAAFiAoAMAYAGCDgCABQg6AAAWIOgAAFiAoAMAYAGCDgCABQg6AAAWIOgAAFiAoAMAYAGCDgCABQg6AAAWIOgAAFiAoAMAYAGCDgCABQg6AAAWIOgAAFiAoAMAYAGCDgCABQg6AAAWIOgAAFiAoAMAYAGCDgCABQg6AAAWIOgAAFiAoAMAYAGCDgCABQg6AAAWIOgAAFiAoAMAYAGCDgCABQg6AAAWIOgAAFiAoAMAYAGCDgCABQg6AAAWIOgAAFiAoAMAYAGCDgCABQg6AAAWIOgAAFiAoAMAYAGCDgCABQg6AAAWIOgAAFiAoAMAYAGCDgCABQg6AAAWIOgAAFiAoAMAYAGCDgCABQg6AAAWIOgAAFiAoAMAYIH/BRMXyuy2JvlNAAAAAElFTkSuQmCC;" parent="1" vertex="1">
                    <mxGeometry x="200" y="360" width="80" height="80" as="geometry"/>
                </mxCell>
            </root>
        </mxGraphModel>
    </diagram>
</mxfile>